<?xml version="1.0" encoding="UTF-8" standalone="no"?>
<!-- Created with Inkscape (http://www.inkscape.org/) -->

<svg
   width="29mm"
   height="77mm"
   viewBox="0 0 29 77"
   version="1.1"
   id="svg5"
   inkscape:version="1.1.1 (3bf5ae0d25, 2021-09-20)"
   sodipodi:docname="ISOM 101 Contour.svg"
   xmlns:inkscape="http://www.inkscape.org/namespaces/inkscape"
   xmlns:sodipodi="http://sodipodi.sourceforge.net/DTD/sodipodi-0.dtd"
   xmlns="http://www.w3.org/2000/svg"
   xmlns:svg="http://www.w3.org/2000/svg">
  <sodipodi:namedview
     id="namedview7"
     pagecolor="#ffffff"
     bordercolor="#666666"
     borderopacity="1.0"
     inkscape:pageshadow="2"
     inkscape:pageopacity="0.0"
     inkscape:pagecheckerboard="true"
     inkscape:document-units="mm"
     showgrid="false"
     inkscape:zoom="1.4823793"
     inkscape:cx="-189.22282"
     inkscape:cy="170.33427"
     inkscape:window-width="1920"
     inkscape:window-height="1017"
     inkscape:window-x="-8"
     inkscape:window-y="-8"
     inkscape:window-maximized="1"
     inkscape:current-layer="layer1" />
  <defs
     id="defs2">
    <clipPath
       clipPathUnits="userSpaceOnUse"
       id="clipPath23">
      <path
         d="M 0,213.166 H 78.959 V 0 H 0 Z"
         id="path21" />
    </clipPath>
    <clipPath
       clipPathUnits="userSpaceOnUse"
       id="clipPath153">
      <path
         d="M 0,213.166 H 78.959 V 0 H 0 Z"
         id="path151" />
    </clipPath>
    <clipPath
       clipPathUnits="userSpaceOnUse"
       id="clipPath195">
      <path
         d="M 0,213.166 H 78.959 V 0 H 0 Z"
         id="path193" />
    </clipPath>
    <clipPath
       clipPathUnits="userSpaceOnUse"
       id="clipPath463">
      <path
         d="M 0,213.166 H 78.959 V 0 H 0 Z"
         id="path461" />
    </clipPath>
    <clipPath
       clipPathUnits="userSpaceOnUse"
       id="clipPath593">
      <path
         d="M 0,213.166 H 78.959 V 0 H 0 Z"
         id="path591" />
    </clipPath>
    <clipPath
       clipPathUnits="userSpaceOnUse"
       id="clipPath635">
      <path
         d="M 0,213.166 H 78.959 V 0 H 0 Z"
         id="path633" />
    </clipPath>
  </defs>
  <g
     inkscape:label="Ebene 1"
     inkscape:groupmode="layer"
     id="layer1">
    <g
       id="g455"
       inkscape:label="ISOM 101 Contour"
       transform="matrix(0.35277777,0,0,-0.35277777,0.6339059,76.100102)">
      <g
         id="g457">
        <g
           id="g459"
           clip-path="url(#clipPath463)">
          <g
             id="g465"
             transform="translate(18.8117,58.6188)">
            <path
               d="m 0,0 c 2.245,-0.025 3.338,-0.196 5.502,-0.137 1.361,0.037 0.102,1.123 1.746,1.187 1.571,0.058 0.7,-1.068 1.367,-1.068 1.428,0 5.582,0.112 5.723,0.1"
               style="fill:none;stroke:#d07500;stroke-width:0.794;stroke-linecap:butt;stroke-linejoin:miter;stroke-miterlimit:22.926;stroke-dasharray:none;stroke-opacity:1"
               id="path467" />
          </g>
          <g
             id="g469"
             transform="translate(11.6652,37.9469)">
            <path
               d="M 0,0 C -0.028,1 0.611,1.49 2.137,1.464 3.525,1.44 4.365,0.966 4.365,0.056 4.365,-0.922 3.564,-1.36 2.074,-1.371 0.662,-1.383 0.023,-0.893 0,0 Z"
               style="fill:none;stroke:#d07500;stroke-width:0.794;stroke-linecap:butt;stroke-linejoin:miter;stroke-miterlimit:22.926;stroke-dasharray:none;stroke-opacity:1"
               id="path471" />
          </g>
          <g
             id="g473"
             transform="translate(11.3293,16.3375)">
            <path
               d="M 0,0 C -0.035,1.399 0.764,2.084 2.664,2.047 4.394,2.017 5.441,1.352 5.441,0.078 5.441,-1.291 4.445,-1.903 2.586,-1.92 0.827,-1.935 0.028,-1.248 0,0 Z"
               style="fill:none;stroke:#d07500;stroke-width:0.794;stroke-linecap:butt;stroke-linejoin:miter;stroke-miterlimit:22.926;stroke-dasharray:none;stroke-opacity:1"
               id="path475" />
          </g>
          <g
             id="g477"
             transform="translate(13.9563,16.3522)">
            <path
               d="M 0,0 H 2.552"
               style="fill:none;stroke:#d07500;stroke-width:0.794;stroke-linecap:butt;stroke-linejoin:miter;stroke-miterlimit:22.926;stroke-dasharray:none;stroke-opacity:1"
               id="path479" />
          </g>
          <g
             id="g481"
             transform="translate(0.4494,92.5104)">
            <path
               d="m 0,0 c 0,4.173 -0.222,9.395 2.751,11.959 2.973,2.564 5.382,2.95 7.165,1.542 4.435,-3.502 9.316,-6.626 12.998,-8.205 4.784,-2.049 7.95,-2.846 13.127,-2.302 4.474,0.471 12.189,1.127 11.056,-3.224 -1.399,-5.362 -5.43,-14.413 -9.444,-10.59 -4.757,4.527 -9.32,5.336 -15.886,5.524 -6.655,0.19 -11.023,-5.64 -17.679,-5.64 C 1.342,-10.936 0,-2.746 0,0 Z"
               style="fill:none;stroke:#d07500;stroke-width:0.794;stroke-linecap:butt;stroke-linejoin:miter;stroke-miterlimit:22.926;stroke-dasharray:none;stroke-opacity:1"
               id="path483" />
          </g>
          <g
             id="g485"
             transform="translate(14.0393,95.7946)">
            <path
               d="M 0,0 C -0.564,1.13 -5.239,2.594 -6.504,1.782 -7.956,0.849 -8.45,-4.551 -7.026,-5.526 -5.896,-6.3 -3.669,-4.937 -2.594,-4.088 -1.427,-3.165 0.789,-1.59 0,0 Z"
               style="fill:none;stroke:#d07500;stroke-width:1.417;stroke-linecap:butt;stroke-linejoin:miter;stroke-miterlimit:22.926;stroke-dasharray:none;stroke-opacity:1"
               id="path487" />
          </g>
          <g
             id="g489"
             transform="translate(0.2776,183.1795)">
            <path
               d="m 0,0 c 6.46,-0.096 12.33,-2.292 17.521,1.552 1.375,1.019 2.655,3.428 1.143,4.236 -1.676,0.894 -3.096,1.846 -3.096,3.743 0,1.537 1.883,1.902 3.422,1.953 3.302,0.116 7.227,1.497 8.305,-1.627 1.35,-3.91 3.551,-7.876 7.652,-7.327 6.053,0.808 9.366,2.457 15.47,2.28"
               style="fill:none;stroke:#d07500;stroke-width:0.794;stroke-linecap:butt;stroke-linejoin:miter;stroke-miterlimit:22.926;stroke-dasharray:none;stroke-opacity:1"
               id="path491" />
          </g>
          <g
             id="g493"
             transform="translate(0.4392,121.1366)">
            <path
               d="m 0,0 c 3.48,2.762 10.328,6.166 12.456,2.268 2.79,-5.119 8.497,-9.318 13.516,-6.349 4.503,2.664 9.346,4.503 13.352,1.138 3.651,-3.066 7.235,-5.904 11.564,-3.907"
               style="fill:none;stroke:#d07500;stroke-width:0.794;stroke-linecap:butt;stroke-linejoin:miter;stroke-miterlimit:22.926;stroke-dasharray:none;stroke-opacity:1"
               id="path495" />
          </g>
          <g
             id="g497"
             transform="translate(0.3479,189.9608)">
            <path
               d="M 0,0 C 4.582,0 6.707,3.15 10.709,5.374 14.393,7.419 17.172,8.395 21.289,7.49 31.83,5.177 38.315,2.55 48.811,5.047 l 1.705,0.561"
               style="fill:none;stroke:#d07500;stroke-width:0.794;stroke-linecap:butt;stroke-linejoin:miter;stroke-miterlimit:22.926;stroke-dasharray:none;stroke-opacity:1"
               id="path499" />
          </g>
          <g
             id="g501"
             transform="translate(0.0598,111.9967)">
            <path
               d="m 0,0 c 6.322,0.964 11.621,0.625 17.667,-1.472 5.177,-1.797 8.69,-0.519 14.005,0.812 2.798,0.7 4.744,-0.223 7.163,-1.791 4.114,-2.668 8.073,-2.637 11.751,0.605"
               style="fill:none;stroke:#d07500;stroke-width:0.794;stroke-linecap:butt;stroke-linejoin:miter;stroke-miterlimit:22.926;stroke-dasharray:none;stroke-opacity:1"
               id="path503" />
          </g>
          <g
             id="g505"
             transform="translate(5.4006,85.028)">
            <path
               d="M 0,0 C -2.397,1.319 -2.664,14.027 -0.515,15.718 1.371,17.199 13.946,12.745 14.739,10.48 15.706,7.724 9.722,5.341 7.371,3.507 6.115,2.524 1.398,-0.767 0,0 Z"
               style="fill:none;stroke:#d07500;stroke-width:0.794;stroke-linecap:butt;stroke-linejoin:miter;stroke-miterlimit:22.926;stroke-dasharray:none;stroke-opacity:1"
               id="path507" />
          </g>
          <g
             id="g509"
             transform="translate(0.2776,175.7781)">
            <path
               d="m 0,0 c 8.994,-0.094 24.968,-3.832 23.548,5.047 -0.422,2.635 -2.664,7.026 0,6.838 2.872,-0.204 4.276,-2.388 5.374,-5.048 1.049,-2.542 1.167,-5.614 3.906,-5.862 2.339,-0.212 3.302,1.93 4.562,3.909 2.739,4.303 7.93,0.77 13.027,0.974"
               style="fill:none;stroke:#d07500;stroke-width:0.794;stroke-linecap:butt;stroke-linejoin:miter;stroke-miterlimit:22.926;stroke-dasharray:none;stroke-opacity:1"
               id="path511" />
          </g>
          <g
             id="g513"
             transform="translate(0.4827,158.6629)">
            <path
               d="m 0,0 c 4.826,-0.122 9.605,0.182 13.601,-2.716 3.958,-2.873 6.018,-0.263 8.007,2.116 2.443,2.916 5.241,4.577 6.783,2.082 1.92,-3.109 2.372,-5.325 4.883,-7.979 1.718,-1.808 5.609,-1.727 6.353,0.653 1.246,3.991 0.271,8.993 4.396,8.309 2.581,-0.431 2.036,-3.688 1.893,-6.317 -0.377,-6.89 -3.369,-4.872 -6.4,-6.428 -2.988,-1.534 -1.797,-6.364 -5.641,-5.9 -4.188,0.504 -7.745,-0.751 -11.736,-0.902 -1.797,-0.071 -3.578,0.891 -4.008,2.637 -1.381,5.632 -3.053,5.955 -5.92,4.927 -2.799,-1 -7.223,-2.795 -12.373,-3.977"
               style="fill:none;stroke:#d07500;stroke-width:0.794;stroke-linecap:butt;stroke-linejoin:miter;stroke-miterlimit:22.926;stroke-dasharray:none;stroke-opacity:1"
               id="path515" />
          </g>
          <g
             id="g517"
             transform="translate(22.5247,152.8191)">
            <path
               d="M 0,0 C 1.257,1.794 3.499,3.991 5.048,2.441 6.386,1.104 7.306,-0.338 6.675,-2.12 5.989,-4.065 5.556,-5.526 3.743,-6.516 c -1.57,-0.855 -3.291,-0.777 -4.559,0.49 -0.959,0.96 -1.289,2.215 -0.652,3.417 C -0.919,-1.575 -0.671,-0.956 0,0 Z"
               style="fill:none;stroke:#d07500;stroke-width:0.794;stroke-linecap:butt;stroke-linejoin:miter;stroke-miterlimit:22.926;stroke-dasharray:none;stroke-opacity:1"
               id="path519" />
          </g>
          <g
             id="g521"
             transform="translate(0.2776,164.2986)">
            <path
               d="m 0,0 c 4.136,0.07 9.994,-0.058 12.318,-2.077 4.17,-3.625 6.116,-2.106 8.952,1.245 1.599,1.89 4.175,5.161 5.562,3.11 2.12,-3.127 3.977,-6.091 6.211,-9.136 1.762,-2.399 4.856,-2.678 5.742,1.636 0.866,4.219 2.167,8.623 6.337,8.157 2.024,-0.227 4.297,-5.341 3.697,-12.633 -1.526,-13.758 -5.099,-9.821 -7.596,-12.656 -2.327,-2.642 -3.258,-3.086 -6.764,-2.804 -4.377,0.351 -6.133,-5.186 -10.501,-5.637 -3.488,-0.36 -5.851,7.652 -8.774,9.589 C 11.645,-18.862 4.547,-22.083 0,-24.907"
               style="fill:none;stroke:#d07500;stroke-width:0.794;stroke-linecap:butt;stroke-linejoin:miter;stroke-miterlimit:22.926;stroke-dasharray:none;stroke-opacity:1"
               id="path523" />
          </g>
          <g
             id="g525"
             transform="translate(14.7307,165.3973)">
            <path
               d="M 0,0 C 2.717,0.07 6.174,1.444 4.773,-0.887 3.77,-2.558 2.602,-2.705 0.801,-1.957 -0.515,-1.408 -1.423,-0.037 0,0 Z"
               style="fill:none;stroke:#d07500;stroke-width:0.794;stroke-linecap:butt;stroke-linejoin:miter;stroke-miterlimit:22.926;stroke-dasharray:none;stroke-opacity:1"
               id="path527" />
          </g>
          <g
             id="g529"
             transform="translate(31.2678,164.993)">
            <path
               d="M 0,0 C -0.979,1.404 -1.094,4.34 0.43,3.888 2.728,3.206 7.363,3.751 7.097,1.323 6.875,-0.701 5.852,-5.48 4.817,-5.663 3.531,-5.889 2.186,-3.135 0,0 Z"
               style="fill:none;stroke:#d07500;stroke-width:1.417;stroke-linecap:butt;stroke-linejoin:miter;stroke-miterlimit:22.926;stroke-dasharray:none;stroke-opacity:1"
               id="path531" />
          </g>
          <g
             id="g533"
             transform="translate(0.4397,155.243)">
            <path
               d="M 0,0 C 3.691,-0.053 11.523,0.37 11.089,-2.502 10.834,-4.192 3.488,-6.425 -0.109,-7.04"
               style="fill:none;stroke:#d07500;stroke-width:0.794;stroke-linecap:butt;stroke-linejoin:miter;stroke-miterlimit:22.926;stroke-dasharray:none;stroke-opacity:1"
               id="path535" />
          </g>
          <g
             id="g537"
             transform="translate(0.3479,130.7879)">
            <path
               d="m 0,0 c 4.606,1.771 6.819,3.59 9.582,7.758 1.616,2.437 4.824,0.742 4.406,-2.86 -0.513,-4.431 -1.011,-6.796 0.029,-8.965 1.45,-3.027 4.305,-4.162 7.653,-3.911 4.225,0.32 7.831,0.957 9.768,4.726 1.183,2.301 3.672,6.875 6.035,3.557 2.353,-3.305 1.978,-9.279 6.503,-9.909 2.222,-0.31 4.46,6.692 5.315,11.239 1.248,6.31 1.799,11.128 2.104,14.118 1.201,11.409 -1.048,24.067 -5.197,25.239 -6.501,1.836 -9.638,-4.011 -14.741,0.413 -1.802,1.562 -1.85,4.397 -4.232,4.397 -2.477,0 -3.055,-2.484 -4.399,-4.56 -4.578,-7.07 -14.488,-2.203 -22.896,-1.71"
               style="fill:none;stroke:#d07500;stroke-width:1.417;stroke-linecap:butt;stroke-linejoin:miter;stroke-miterlimit:22.926;stroke-dasharray:none;stroke-opacity:1"
               id="path539" />
          </g>
          <g
             id="g541"
             transform="translate(43.9973,160.8662)">
            <path
               d="M 0,0 -0.095,-2.265"
               style="fill:none;stroke:#d07500;stroke-width:0.794;stroke-linecap:butt;stroke-linejoin:miter;stroke-miterlimit:22.926;stroke-dasharray:none;stroke-opacity:1"
               id="path543" />
          </g>
          <g
             id="g545"
             transform="translate(26.8166,158.4978)">
            <path
               d="M 0,0 0.07,2.55"
               style="fill:none;stroke:#d07500;stroke-width:0.794;stroke-linecap:butt;stroke-linejoin:miter;stroke-miterlimit:22.926;stroke-dasharray:none;stroke-opacity:1"
               id="path547" />
          </g>
          <g
             id="g549"
             transform="translate(27.4993,173.3151)">
            <path
               d="M 0,0 -0.137,2.547"
               style="fill:none;stroke:#d07500;stroke-width:0.794;stroke-linecap:butt;stroke-linejoin:miter;stroke-miterlimit:22.926;stroke-dasharray:none;stroke-opacity:1"
               id="path551" />
          </g>
          <g
             id="g553"
             transform="translate(23.6965,148.6512)">
            <path
               d="M 0,0 -1.433,-2.11"
               style="fill:none;stroke:#d07500;stroke-width:0.794;stroke-linecap:butt;stroke-linejoin:miter;stroke-miterlimit:22.926;stroke-dasharray:none;stroke-opacity:1"
               id="path555" />
          </g>
          <g
             id="g557"
             transform="translate(26.5998,155.4344)">
            <path
               d="M 0,0 -0.473,-2.507"
               style="fill:none;stroke:#d07500;stroke-width:0.794;stroke-linecap:butt;stroke-linejoin:miter;stroke-miterlimit:22.926;stroke-dasharray:none;stroke-opacity:1"
               id="path559" />
          </g>
          <g
             id="g561"
             transform="translate(21.7105,144.5743)">
            <path
               d="M 0,0 -1.433,-2.111"
               style="fill:none;stroke:#d07500;stroke-width:0.794;stroke-linecap:butt;stroke-linejoin:miter;stroke-miterlimit:22.926;stroke-dasharray:none;stroke-opacity:1"
               id="path563" />
          </g>
          <g
             id="g565"
             transform="translate(0.3479,196.2)">
            <path
               d="M 0,0 C 4.582,0 6.707,3.15 10.709,5.374 14.393,7.419 18.082,10.11 22.198,9.205 32.738,6.893 38.315,2.55 48.811,5.047 l 1.705,0.561"
               style="fill:none;stroke:#d07500;stroke-width:0.794;stroke-linecap:butt;stroke-linejoin:miter;stroke-miterlimit:22.926;stroke-dasharray:none;stroke-opacity:1"
               id="path567" />
          </g>
          <g
             id="g569"
             transform="translate(0.2776,203.5506)">
            <path
               d="m 0,0 c 8.408,3.184 7.195,2.604 13.336,7.102 6.003,4.773 8.431,-1.507 14.204,-0.834 5.773,0.674 7.84,-8.24 22.227,-3.744"
               style="fill:none;stroke:#d07500;stroke-width:1.417;stroke-linecap:butt;stroke-linejoin:miter;stroke-miterlimit:22.926;stroke-dasharray:none;stroke-opacity:1"
               id="path571" />
          </g>
          <g
             id="g573"
             transform="translate(20.3322,102.3131)">
            <path
               d="m 0,0 c 2.986,-1.607 5.359,-4.133 12.937,-4.133 7.578,0 10.947,0.994 11.176,3.444 0.23,2.45 -5.741,4.899 -7.731,5.894 C 14.392,6.201 10.099,6.583 6.048,5.435 1.996,4.287 -3.368,3.215 0,0 Z"
               style="fill:none;stroke:#d07500;stroke-width:0.794;stroke-linecap:butt;stroke-linejoin:miter;stroke-miterlimit:22.926;stroke-dasharray:none;stroke-opacity:1"
               id="path575" />
          </g>
          <g
             id="g577"
             transform="translate(31.2785,105.528)">
            <path
               d="m 0,0 c -2.985,-0.23 -8.572,-0.23 -5.434,-2.604 3.137,-2.372 5.587,-2.755 9.262,-2.219 3.674,0.536 5.512,2.067 3.598,2.909 C 5.512,-1.072 4.823,-0.076 0,0 Z"
               style="fill:none;stroke:#d07500;stroke-width:0.794;stroke-linecap:butt;stroke-linejoin:miter;stroke-miterlimit:22.926;stroke-dasharray:none;stroke-opacity:1"
               id="path579" />
          </g>
        </g>
      </g>
      <text
         transform="matrix(1,0,0,-1,60.3389,181.3125)"
         style="font-variant:normal;font-weight:normal;font-stretch:semi-condensed;font-size:7px;font-family:'Arial Narrow';-inkscape-font-specification:ArialNarrow;writing-mode:lr-tb;fill:#e30613;fill-opacity:1;fill-rule:nonzero;stroke:none"
         id="text585"><tspan
           x="0 3.1919999 4.7880001 7.98"
           y="0"
           sodipodi:role="line"
           id="tspan581">0.14</tspan><tspan
           x="-4.0250001 -0.833 0.76300001 3.9549999"
           y="29.673"
           sodipodi:role="line"
           id="tspan583">0.14</tspan></text>
      <g
         id="g587">
        <g
           id="g589"
           clip-path="url(#clipPath593)">
          <text
             transform="matrix(1,0,0,-1,56.3115,159.3965)"
             style="font-variant:normal;font-weight:normal;font-stretch:semi-condensed;font-size:7px;font-family:'Arial Narrow';-inkscape-font-specification:ArialNarrow;writing-mode:lr-tb;fill:#e30613;fill-opacity:1;fill-rule:nonzero;stroke:none"
             id="text597"><tspan
               x="0 3.1919999 4.7880001 7.98 9.5760002 11.487 15.953 20.733999"
               y="0"
               sodipodi:role="line"
               id="tspan595">0.4 (OM)</tspan></text>
          <g
             id="g599"
             transform="translate(58.9036,184.3094)">
            <path
               d="M 0,0 -5.348,3.253"
               style="fill:none;stroke:#e30613;stroke-width:0.283;stroke-linecap:butt;stroke-linejoin:miter;stroke-miterlimit:22.926;stroke-dasharray:none;stroke-opacity:1"
               id="path601" />
          </g>
          <g
             id="g603"
             transform="translate(54.6956,154.87)">
            <path
               d="M 0,0 -10.315,3.586"
               style="fill:none;stroke:#e30613;stroke-width:0.283;stroke-linecap:butt;stroke-linejoin:miter;stroke-miterlimit:22.926;stroke-dasharray:none;stroke-opacity:1"
               id="path605" />
          </g>
          <g
             id="g607"
             transform="translate(44.3837,160.7775)">
            <path
               d="M 0,0 9.587,1.76"
               style="fill:none;stroke:#e30613;stroke-width:0.283;stroke-linecap:butt;stroke-linejoin:miter;stroke-miterlimit:22.926;stroke-dasharray:none;stroke-opacity:1"
               id="path609" />
          </g>
          <g
             id="g611"
             transform="translate(44.8222,158.7069)">
            <path
               d="M 0,0 9.552,1.755"
               style="fill:none;stroke:#e30613;stroke-width:0.283;stroke-linecap:butt;stroke-linejoin:miter;stroke-miterlimit:22.926;stroke-dasharray:none;stroke-opacity:1"
               id="path613" />
          </g>
          <path
             d="M 0.852,71.433 H 51.875 V 0.567 H 0.852 Z"
             style="fill:none;stroke:#312783;stroke-width:1.134;stroke-linecap:butt;stroke-linejoin:miter;stroke-miterlimit:22.926;stroke-dasharray:none;stroke-opacity:1"
             id="path615" />
        </g>
      </g>
      <text
         transform="matrix(1,0,0,-1,6.3286,55.3179)"
         style="font-variant:normal;font-weight:normal;font-stretch:semi-condensed;font-size:7px;font-family:'Arial Narrow';-inkscape-font-specification:ArialNarrow;writing-mode:lr-tb;fill:#e30613;fill-opacity:1;fill-rule:nonzero;stroke:none"
         id="text627"><tspan
           x="0 4.7810001 6.0549998 9.2469997"
           y="0"
           sodipodi:role="line"
           id="tspan617">min.</tspan><tspan
           x="17.983 21.174999 22.771 25.962999 29.155001 30.750999 32.661999 36.806 40.950001"
           y="-7.8889999"
           sodipodi:role="line"
           id="tspan619">0.25 (CC)</tspan><tspan
           x="-3.822 -0.63 0.96600002 4.158 5.7540002 7.665 12.131 16.912001"
           y="29.042999"
           sodipodi:role="line"
           id="tspan621">0.9 (OM)</tspan><tspan
           x="-3.7379999 -0.546 1.05 4.2420001 5.8379998 7.7490001 12.215 16.996"
           y="50.778"
           sodipodi:role="line"
           id="tspan623">1.1 (OM)</tspan><tspan
           x="8.8690004 12.061 13.657 16.849001 18.445 20.356001 24.5 28.643999"
           y="7.539"
           sodipodi:role="line"
           id="tspan625">0.5 (CC)</tspan></text>
      <g
         id="g629">
        <g
           id="g631"
           clip-path="url(#clipPath635)">
          <g
             id="g637"
             transform="translate(24.676,55.1725)">
            <path
               d="M 0,0 V 2.311"
               style="fill:none;stroke:#e30613;stroke-width:0.283;stroke-linecap:butt;stroke-linejoin:miter;stroke-miterlimit:22.926;stroke-dasharray:none;stroke-opacity:1"
               id="path639" />
          </g>
          <g
             id="g641"
             transform="translate(27.5109,55.1725)">
            <path
               d="M 0,0 V 2.311"
               style="fill:none;stroke:#e30613;stroke-width:0.283;stroke-linecap:butt;stroke-linejoin:miter;stroke-miterlimit:22.926;stroke-dasharray:none;stroke-opacity:1"
               id="path643" />
          </g>
          <g
             id="g645"
             transform="translate(27.3791,58.5465)">
            <path
               d="M 0,0 1.974,2.286"
               style="fill:none;stroke:#e30613;stroke-width:0.283;stroke-linecap:butt;stroke-linejoin:miter;stroke-miterlimit:22.926;stroke-dasharray:none;stroke-opacity:1"
               id="path647" />
          </g>
          <g
             id="g649"
             transform="translate(26.1633,59.9645)">
            <path
               d="M 0,0 1.974,2.285"
               style="fill:none;stroke:#e30613;stroke-width:0.283;stroke-linecap:butt;stroke-linejoin:miter;stroke-miterlimit:22.926;stroke-dasharray:none;stroke-opacity:1"
               id="path651" />
          </g>
          <g
             id="g653"
             transform="translate(16.3254,32.4313)">
            <path
               d="M 0,0 V 2.311"
               style="fill:none;stroke:#e30613;stroke-width:0.283;stroke-linecap:butt;stroke-linejoin:miter;stroke-miterlimit:22.926;stroke-dasharray:none;stroke-opacity:1"
               id="path655" />
          </g>
          <g
             id="g657"
             transform="translate(11.2238,32.4313)">
            <path
               d="M 0,0 V 2.311"
               style="fill:none;stroke:#e30613;stroke-width:0.283;stroke-linecap:butt;stroke-linejoin:miter;stroke-miterlimit:22.926;stroke-dasharray:none;stroke-opacity:1"
               id="path659" />
          </g>
          <g
             id="g661"
             transform="translate(17.1672,10.6988)">
            <path
               d="M 0,0 V 2.311"
               style="fill:none;stroke:#e30613;stroke-width:0.283;stroke-linecap:butt;stroke-linejoin:miter;stroke-miterlimit:22.926;stroke-dasharray:none;stroke-opacity:1"
               id="path663" />
          </g>
          <g
             id="g665"
             transform="translate(10.9309,10.6988)">
            <path
               d="M 0,0 V 2.311"
               style="fill:none;stroke:#e30613;stroke-width:0.283;stroke-linecap:butt;stroke-linejoin:miter;stroke-miterlimit:22.926;stroke-dasharray:none;stroke-opacity:1"
               id="path667" />
          </g>
          <g
             id="g669"
             transform="translate(25.8147,39.694)">
            <path
               d="M 0,0 H -8.618"
               style="fill:none;stroke:#e30613;stroke-width:0.283;stroke-linecap:butt;stroke-linejoin:miter;stroke-miterlimit:22.926;stroke-dasharray:none;stroke-opacity:1"
               id="path671" />
          </g>
          <g
             id="g673"
             transform="translate(25.8147,36.2926)">
            <path
               d="M 0,0 H -8.618"
               style="fill:none;stroke:#e30613;stroke-width:0.283;stroke-linecap:butt;stroke-linejoin:miter;stroke-miterlimit:22.926;stroke-dasharray:none;stroke-opacity:1"
               id="path675" />
          </g>
          <g
             id="g677"
             transform="translate(25.8147,18.4352)">
            <path
               d="M 0,0 H -8.618"
               style="fill:none;stroke:#e30613;stroke-width:0.283;stroke-linecap:butt;stroke-linejoin:miter;stroke-miterlimit:22.926;stroke-dasharray:none;stroke-opacity:1"
               id="path679" />
          </g>
          <g
             id="g681"
             transform="translate(25.8147,14.4684)">
            <path
               d="M 0,0 H -8.618"
               style="fill:none;stroke:#e30613;stroke-width:0.283;stroke-linecap:butt;stroke-linejoin:miter;stroke-miterlimit:22.926;stroke-dasharray:none;stroke-opacity:1"
               id="path683" />
          </g>
        </g>
      </g>
      <text
         transform="matrix(1,0,0,-1,27.0034,35.897)"
         style="font-variant:normal;font-weight:normal;font-stretch:semi-condensed;font-size:7px;font-family:'Arial Narrow';-inkscape-font-specification:ArialNarrow;writing-mode:lr-tb;fill:#e30613;fill-opacity:1;fill-rule:nonzero;stroke:none"
         id="text689"><tspan
           x="0 3.1919999 4.7880001 7.98 9.5760002 11.487 15.953 20.733999"
           y="0"
           sodipodi:role="line"
           id="tspan685">0.6 (OM)</tspan><tspan
           x="0 3.1919999 4.7880001 7.98 9.5760002 11.487 15.953 20.733999"
           y="21.735001"
           sodipodi:role="line"
           id="tspan687">0.7 (OM)</tspan></text>
    </g>
  </g>
</svg>
