<?xml version="1.0" encoding="UTF-8" standalone="no"?>
<!-- Created with Inkscape (http://www.inkscape.org/) -->

<svg
   width="34mm"
   height="35mm"
   viewBox="0 0 34 35"
   version="1.1"
   id="svg940"
   inkscape:version="1.1.1 (3bf5ae0d25, 2021-09-20)"
   sodipodi:docname="ISOM 102 Index contour.svg"
   xmlns:inkscape="http://www.inkscape.org/namespaces/inkscape"
   xmlns:sodipodi="http://sodipodi.sourceforge.net/DTD/sodipodi-0.dtd"
   xmlns="http://www.w3.org/2000/svg"
   xmlns:svg="http://www.w3.org/2000/svg">
  <sodipodi:namedview
     id="namedview942"
     pagecolor="#ffffff"
     bordercolor="#666666"
     borderopacity="1.0"
     inkscape:pageshadow="2"
     inkscape:pageopacity="0.0"
     inkscape:pagecheckerboard="true"
     inkscape:document-units="mm"
     showgrid="false"
     inkscape:zoom="2.9647587"
     inkscape:cx="166.11807"
     inkscape:cy="117.8848"
     inkscape:window-width="1920"
     inkscape:window-height="1017"
     inkscape:window-x="-8"
     inkscape:window-y="-8"
     inkscape:window-maximized="1"
     inkscape:current-layer="layer1" />
  <defs
     id="defs937">
    <clipPath
       clipPathUnits="userSpaceOnUse"
       id="clipPath958">
      <path
         d="M 0,98.563 H 93.055 V 0 H 0 Z"
         id="path956" />
    </clipPath>
  </defs>
  <g
     inkscape:label="Ebene 1"
     inkscape:groupmode="layer"
     id="layer1">
    <g
       id="g954"
       clip-path="url(#clipPath958)"
       transform="matrix(0.35277777,0,0,-0.35277777,0.60709915,35.040776)">
      <g
         id="g960"
         transform="translate(28.1103,43.5947)">
        <path
           d="M 0,0 C 3.099,0.08 7.041,1.648 5.443,-1.01 4.298,-2.916 2.968,-3.086 0.913,-2.231 -0.587,-1.606 -1.623,-0.043 0,0 Z"
           style="fill:none;stroke:#d07500;stroke-width:0.794;stroke-linecap:butt;stroke-linejoin:miter;stroke-miterlimit:22.926;stroke-dasharray:none;stroke-opacity:1"
           id="path962" />
      </g>
      <g
         id="g964"
         transform="translate(12.6591,49.1181)">
        <path
           d="m 0,0 c 9.589,-0.562 19.859,-6.022 25.078,2.041 1.534,2.367 2.192,5.197 5.017,5.197 2.717,0 2.772,-3.232 4.826,-5.011 1.183,-1.024 2.481,-1.513 5.008,-0.469 2.527,1.044 1.971,1.211 5.274,3.779 3.304,2.57 5.996,2.203 11.624,-0.855"
           style="fill:none;stroke:#d07500;stroke-width:1.417;stroke-linecap:butt;stroke-linejoin:miter;stroke-miterlimit:22.926;stroke-dasharray:none;stroke-opacity:1"
           id="path966" />
      </g>
      <g
         id="g968"
         transform="translate(46.9668,43.1338)">
        <path
           d="M 0,0 C -1.115,1.602 -0.088,3.085 1.648,2.568 4.269,1.792 7.793,1.605 7.49,-1.162 7.236,-3.471 6.674,-6.25 5.494,-6.458 4.029,-6.715 2.494,-3.575 0,0 Z"
           style="fill:none;stroke:#d07500;stroke-width:1.417;stroke-linecap:butt;stroke-linejoin:miter;stroke-miterlimit:22.926;stroke-dasharray:none;stroke-opacity:1"
           id="path970" />
      </g>
      <g
         id="g972"
         transform="translate(12.6591,71.7705)">
        <path
           d="m 0,0 c 5.224,0 7.892,3.592 12.455,6.127 4.2,2.332 7.37,3.444 12.065,2.414 C 36.539,5.903 43.935,2.907 55.903,5.756 l 0.93,0.185"
           style="fill:none;stroke:#d07500;stroke-width:0.794;stroke-linecap:butt;stroke-linejoin:miter;stroke-miterlimit:22.926;stroke-dasharray:none;stroke-opacity:1"
           id="path974" />
      </g>
      <g
         id="g976"
         transform="translate(13.0449,30.9199)">
        <path
           d="m 0,0 c 5.074,2.431 9.771,5.202 14.326,1.897 4.514,-3.275 6.863,-0.298 9.133,2.414 2.785,3.327 5.976,5.219 7.734,2.375 2.189,-3.546 2.704,-6.073 5.57,-9.099 1.957,-2.063 6.393,-1.969 7.244,0.744 1.419,4.551 0.68,11.736 5.384,10.954 2.941,-0.49 4.103,-1.563 6.96,-2.413"
           style="fill:none;stroke:#d07500;stroke-width:0.794;stroke-linecap:butt;stroke-linejoin:miter;stroke-miterlimit:22.926;stroke-dasharray:none;stroke-opacity:1"
           id="path978" />
      </g>
      <g
         id="g980"
         transform="translate(12.7617,5.1103)">
        <path
           d="m 0,0 c 7.01,4.674 13.366,4.811 21.633,3.158 8.203,-1.64 13.338,-0.715 21.354,1.668 5.064,1.506 9.814,1.586 13.656,-2.041"
           style="fill:none;stroke:#d07500;stroke-width:1.417;stroke-linecap:butt;stroke-linejoin:miter;stroke-miterlimit:22.926;stroke-dasharray:none;stroke-opacity:1"
           id="path982" />
      </g>
      <g
         id="g984"
         transform="translate(12.8584,55.4316)">
        <path
           d="m 0,0 c 10.257,-0.104 27.242,-4.37 25.623,5.756 -0.481,3.005 -3.039,8.013 0,7.797 3.275,-0.232 4.877,-2.722 6.128,-5.756 1.196,-2.899 1.331,-6.401 4.454,-6.685 2.667,-0.242 3.767,2.202 5.202,4.457 3.124,4.909 9.328,0.879 15.139,1.113"
           style="fill:none;stroke:#d07500;stroke-width:0.794;stroke-linecap:butt;stroke-linejoin:miter;stroke-miterlimit:22.926;stroke-dasharray:none;stroke-opacity:1"
           id="path986" />
      </g>
      <g
         id="g988"
         transform="translate(12.6699,42.4385)">
        <path
           d="m 0,0 c 4.717,0.079 10.356,-0.162 13.006,-2.466 4.754,-4.134 6.973,-2.401 10.207,1.42 1.825,2.155 5.291,5.976 6.871,3.638 2.417,-3.566 4.234,-6.867 6.783,-10.34 2.007,-2.734 5.667,-3.246 5.858,1.774 0.181,4.818 3.19,10.679 7.97,10.054 2.303,-0.3 3.634,0.072 5.942,-0.185"
           style="fill:none;stroke:#d07500;stroke-width:0.794;stroke-linecap:butt;stroke-linejoin:miter;stroke-miterlimit:22.926;stroke-dasharray:none;stroke-opacity:1"
           id="path990" />
      </g>
      <g
         id="g992"
         transform="translate(12.5625,22.2822)">
        <path
           d="m 0,0 c 4.158,3.263 8.884,9.826 12.92,6.41 2.434,-2.057 3.693,-3.33 6.127,-5.387 1.091,-0.921 1.432,-1.911 1.488,-3.339 0.076,-2.049 2.404,-2.866 4.455,-2.786 4.551,0.174 7.014,1.129 11.51,1.856 3.783,0.608 6.238,0.836 9.285,3.156 3.457,2.633 7.52,5.314 11.057,2.787"
           style="fill:none;stroke:#d07500;stroke-width:0.794;stroke-linecap:butt;stroke-linejoin:miter;stroke-miterlimit:22.926;stroke-dasharray:none;stroke-opacity:1"
           id="path994" />
      </g>
      <g
         id="g996"
         transform="translate(12.6591,14.1084)">
        <path
           d="m 0,0 c 5.185,3.221 10.959,6.36 15.979,2.887 3.288,-2.278 5.495,-4.311 9.471,-3.901 4.983,0.515 7.823,0.959 12.815,0.558 3.998,-0.321 7.014,-0.427 10.023,2.227 2.46,2.168 5.693,2.651 8.359,0.745"
           style="fill:none;stroke:#d07500;stroke-width:0.794;stroke-linecap:butt;stroke-linejoin:miter;stroke-miterlimit:22.926;stroke-dasharray:none;stroke-opacity:1"
           id="path998" />
      </g>
      <g
         id="g1000"
         transform="translate(12.8584,63.6006)">
        <path
           d="m 0,0 c 7.366,-0.109 12.831,-2.341 18.751,2.041 1.568,1.162 3.026,3.91 1.303,4.831 -1.911,1.019 -3.53,2.105 -3.53,4.269 0,1.754 2.147,2.168 3.901,2.226 3.765,0.131 8.241,1.708 9.471,-1.855 1.538,-4.457 4.048,-8.98 8.726,-8.355 6.902,0.921 10.963,2.802 17.924,2.599"
           style="fill:none;stroke:#d07500;stroke-width:0.794;stroke-linecap:butt;stroke-linejoin:miter;stroke-miterlimit:22.926;stroke-dasharray:none;stroke-opacity:1"
           id="path1002" />
      </g>
      <g
         id="g1004"
         transform="translate(36.998,29.251)">
        <path
           d="M 0,0 C 1.434,2.045 3.99,4.551 5.756,2.785 7.281,1.259 8.33,-0.385 7.611,-2.418 6.829,-4.637 6.335,-6.301 4.268,-7.43 2.477,-8.406 0.516,-8.317 -0.93,-6.871 -2.023,-5.777 -2.4,-4.344 -1.674,-2.975 -1.048,-1.797 -0.765,-1.09 0,0 Z"
           style="fill:none;stroke:#d07500;stroke-width:0.794;stroke-linecap:butt;stroke-linejoin:miter;stroke-miterlimit:22.926;stroke-dasharray:none;stroke-opacity:1"
           id="path1006" />
      </g>
      <g
         id="g1008"
         transform="translate(12.6513,78.8271)">
        <path
           d="M 0,0 C 7.759,5.012 10.185,10.642 20.497,6.998 20.835,6.881 48.799,-1.135 56.816,4.824"
           style="fill:none;stroke:#d07500;stroke-width:0.794;stroke-linecap:butt;stroke-linejoin:miter;stroke-miterlimit:22.926;stroke-dasharray:none;stroke-opacity:1"
           id="path1010" />
      </g>
      <g
         id="g1012"
         transform="translate(67.0488,92.5615)">
        <path
           d="M 0,0 C 0.774,0.062 1.551,0.055 2.334,-0.039"
           style="fill:none;stroke:#d07500;stroke-width:1.417;stroke-linecap:butt;stroke-linejoin:miter;stroke-miterlimit:22.926;stroke-dasharray:none;stroke-opacity:1"
           id="path1014" />
      </g>
      <g
         id="g1016"
         transform="translate(12.9443,89.1943)">
        <path
           d="m 0,0 c 4.454,3.563 5.827,6.264 11.503,6.848 10.031,1.031 12.576,-5.846 17.335,-7.29 1.539,-0.468 3.001,-0.742 4.395,-0.865"
           style="fill:none;stroke:#d07500;stroke-width:1.417;stroke-linecap:butt;stroke-linejoin:miter;stroke-miterlimit:22.926;stroke-dasharray:none;stroke-opacity:1"
           id="path1018" />
      </g>
      <text
         transform="matrix(0.96361207,0.26730467,0.26730467,-0.96361207,48.071,83.7549)"
         style="font-variant:normal;font-weight:normal;font-stretch:normal;font-size:11.6328px;font-family:Arial;-inkscape-font-specification:ArialMT;writing-mode:lr-tb;fill:#d07500;fill-opacity:1;fill-rule:nonzero;stroke:none"
         id="text1022"><tspan
           x="0 6.467833 12.935666"
           y="0"
           sodipodi:role="line"
           id="tspan1020">225</tspan></text>
      <g
         id="g1024"
         transform="translate(42.5761,55.7861)">
        <path
           d="M 0,0 0.246,-2.386"
           style="fill:none;stroke:#d07500;stroke-width:0.794;stroke-linecap:butt;stroke-linejoin:miter;stroke-miterlimit:22.926;stroke-dasharray:none;stroke-opacity:1"
           id="path1026" />
      </g>
      <g
         id="g1028"
         transform="translate(42.207,36.2275)">
        <path
           d="M 0,0 0.07,2.551"
           style="fill:none;stroke:#d07500;stroke-width:0.794;stroke-linecap:butt;stroke-linejoin:miter;stroke-miterlimit:22.926;stroke-dasharray:none;stroke-opacity:1"
           id="path1030" />
      </g>
      <g
         id="g1032"
         transform="translate(41.3925,29.8174)">
        <path
           d="M 0,0 0.26,2.539"
           style="fill:none;stroke:#d07500;stroke-width:0.794;stroke-linecap:butt;stroke-linejoin:miter;stroke-miterlimit:22.926;stroke-dasharray:none;stroke-opacity:1"
           id="path1034" />
      </g>
      <g
         id="g1036"
         transform="translate(36.3222,22.3086)">
        <path
           d="M 0,0 1.659,1.939"
           style="fill:none;stroke:#d07500;stroke-width:0.794;stroke-linecap:butt;stroke-linejoin:miter;stroke-miterlimit:22.926;stroke-dasharray:none;stroke-opacity:1"
           id="path1038" />
      </g>
      <g
         id="g1040"
         transform="translate(34.5078,17.9346)">
        <path
           d="M 0,0 1.32,2.183"
           style="fill:none;stroke:#d07500;stroke-width:0.794;stroke-linecap:butt;stroke-linejoin:miter;stroke-miterlimit:22.926;stroke-dasharray:none;stroke-opacity:1"
           id="path1042" />
      </g>
      <text
         transform="matrix(1,0,0,-1,70.4077,39.4404)"
         style="font-variant:normal;font-weight:normal;font-stretch:semi-condensed;font-size:7px;font-family:'Arial Narrow';-inkscape-font-specification:ArialNarrow;writing-mode:lr-tb;fill:#e30613;fill-opacity:1;fill-rule:nonzero;stroke:none"
         id="text1050"><tspan
           x="0 3.1919999 4.7880001 7.98 9.5760002 11.487 15.953 20.733999"
           y="0"
           sodipodi:role="line"
           id="tspan1044">0.4 (OM)</tspan><tspan
           x="0.189 3.381 4.9770002"
           y="-51.162998"
           sodipodi:role="line"
           id="tspan1046">1.5</tspan><tspan
           x="6.9860001 10.178 11.774 14.966"
           y="37.296001"
           sodipodi:role="line"
           id="tspan1048">0.25</tspan></text>
      <g
         id="g1052"
         transform="translate(66.3437,96.6426)">
        <path
           d="M 0,0 3.32,0.603"
           style="fill:none;stroke:#e30613;stroke-width:0.283;stroke-linecap:butt;stroke-linejoin:miter;stroke-miterlimit:22.926;stroke-dasharray:none;stroke-opacity:1"
           id="path1054" />
      </g>
      <g
         id="g1056"
         transform="translate(67.7402,88.8467)">
        <path
           d="M 0,0 3.321,0.602"
           style="fill:none;stroke:#e30613;stroke-width:0.283;stroke-linecap:butt;stroke-linejoin:miter;stroke-miterlimit:22.926;stroke-dasharray:none;stroke-opacity:1"
           id="path1058" />
      </g>
      <g
         id="g1060"
         transform="translate(43.7949,55.5508)">
        <path
           d="M 0,0 24.689,-4.929"
           style="fill:none;stroke:#e30613;stroke-width:0.283;stroke-linecap:butt;stroke-linejoin:miter;stroke-miterlimit:22.926;stroke-dasharray:none;stroke-opacity:1"
           id="path1062" />
      </g>
      <g
         id="g1064"
         transform="translate(43.7949,53.5361)">
        <path
           d="M 0,0 24.689,-4.929"
           style="fill:none;stroke:#e30613;stroke-width:0.283;stroke-linecap:butt;stroke-linejoin:miter;stroke-miterlimit:22.926;stroke-dasharray:none;stroke-opacity:1"
           id="path1066" />
      </g>
      <g
         id="g1068"
         transform="translate(75.4668,5.042)">
        <path
           d="M 0,0 -4.979,2.059"
           style="fill:none;stroke:#e30613;stroke-width:0.283;stroke-linecap:butt;stroke-linejoin:miter;stroke-miterlimit:22.926;stroke-dasharray:none;stroke-opacity:1"
           id="path1070" />
      </g>
      <g
         id="g1072"
         transform="translate(42.75,53.04)">
        <path
           d="M 0,0 -30.845,-8.215"
           style="fill:none;stroke:#e30613;stroke-width:0.283;stroke-linecap:butt;stroke-linejoin:miter;stroke-miterlimit:22.926;stroke-dasharray:none;stroke-opacity:1"
           id="path1074" />
      </g>
      <text
         transform="matrix(1,0,0,-1,0,41.7852)"
         style="font-variant:normal;font-weight:normal;font-stretch:semi-condensed;font-size:7px;font-family:'Arial Narrow';-inkscape-font-specification:ArialNarrow;writing-mode:lr-tb;fill:#e30613;fill-opacity:1;fill-rule:nonzero;stroke:none"
         id="text1078"><tspan
           x="0 3.1919999 4.7880001 7.98"
           y="0"
           sodipodi:role="line"
           id="tspan1076">0.14</tspan></text>
    </g>
  </g>
</svg>
