<?xml version="1.0" encoding="UTF-8" standalone="no"?>
<!-- Created with Inkscape (http://www.inkscape.org/) -->

<svg
   width="25.5mm"
   height="35mm"
   viewBox="0 0 25.5 35"
   version="1.1"
   id="svg1336"
   inkscape:version="1.1.1 (3bf5ae0d25, 2021-09-20)"
   sodipodi:docname="ISOM 103 Form line.svg"
   xmlns:inkscape="http://www.inkscape.org/namespaces/inkscape"
   xmlns:sodipodi="http://sodipodi.sourceforge.net/DTD/sodipodi-0.dtd"
   xmlns="http://www.w3.org/2000/svg"
   xmlns:svg="http://www.w3.org/2000/svg">
  <sodipodi:namedview
     id="namedview1338"
     pagecolor="#ffffff"
     bordercolor="#666666"
     borderopacity="1.0"
     inkscape:pageshadow="2"
     inkscape:pageopacity="0.0"
     inkscape:pagecheckerboard="true"
     inkscape:document-units="mm"
     showgrid="false"
     inkscape:zoom="5.9295174"
     inkscape:cx="27.573914"
     inkscape:cy="62.821302"
     inkscape:window-width="1920"
     inkscape:window-height="1017"
     inkscape:window-x="-8"
     inkscape:window-y="-8"
     inkscape:window-maximized="1"
     inkscape:current-layer="layer1" />
  <defs
     id="defs1333">
    <clipPath
       clipPathUnits="userSpaceOnUse"
       id="clipPath1362">
      <path
         d="M 0,95.528 H 68.422 V 0 H 0 Z"
         id="path1360" />
    </clipPath>
    <clipPath
       clipPathUnits="userSpaceOnUse"
       id="clipPath1470">
      <path
         d="M 0,95.528 H 68.422 V 0 H 0 Z"
         id="path1468" />
    </clipPath>
    <clipPath
       clipPathUnits="userSpaceOnUse"
       id="clipPath1516">
      <path
         d="M 0,95.528 H 68.422 V 0 H 0 Z"
         id="path1514" />
    </clipPath>
  </defs>
  <g
     inkscape:label="Ebene 1"
     inkscape:groupmode="layer"
     id="layer1">
    <g
       id="g1346"
       inkscape:label="ISOM 103 Form line"
       transform="matrix(0.35277777,0,0,-0.35277777,0.64063777,34.190288)">
      <g
         id="g1348"
         transform="translate(34.9594,11.0817)">
        <path
           d="M 0,0 0.002,-1.888"
           style="fill:none;stroke:#d07500;stroke-width:0.567;stroke-linecap:butt;stroke-linejoin:miter;stroke-miterlimit:22.926;stroke-dasharray:none;stroke-opacity:1"
           id="path1350" />
      </g>
      <g
         id="g1352"
         transform="translate(37.3398,84.5844)">
        <path
           d="M 0,0 0.502,-2.419"
           style="fill:none;stroke:#d07500;stroke-width:0.567;stroke-linecap:butt;stroke-linejoin:miter;stroke-miterlimit:22.926;stroke-dasharray:none;stroke-opacity:1"
           id="path1354" />
      </g>
      <g
         id="g1356">
        <g
           id="g1358"
           clip-path="url(#clipPath1362)">
          <g
             id="g1364"
             transform="translate(11.4277,66.5043)">
            <path
               d="m 0,0 c 4.717,2.671 8.523,5.027 13.548,2.994 2.272,-0.923 4.272,-0.918 6.251,0.525 2.835,2.066 5.539,4.317 8.599,2.603 3.783,-2.122 5.771,-3.543 9.51,-5.731 1.812,-1.062 3.28,-1.054 5.338,-0.651 1.929,0.377 3.035,1.104 4.302,2.605 2.038,2.415 6.487,2.273 8.813,0.135"
               style="fill:none;stroke:#d07500;stroke-width:0.794;stroke-linecap:butt;stroke-linejoin:miter;stroke-miterlimit:22.926;stroke-dasharray:none;stroke-opacity:1"
               id="path1366" />
          </g>
          <g
             id="g1368"
             transform="translate(51.1836,56.9213)">
            <path
               d="m 0,0 c -3.32,-3.234 -4.838,-6.286 -5.203,-7.675 -0.365,-1.389 -0.68,-3.593 -1.742,-4.656 -1.063,-1.063 -3.19,-2.48 -8.149,-1.417 -4.961,1.063 -6.024,1.772 -5.67,2.835 0.355,1.063 2.198,0.908 4.252,0.354 2.053,-0.553 5.315,-1.063 6.024,0.354 0.709,1.418 1.771,4.607 1.771,6.024 0,1.417 -1.062,3.543 -1.771,4.606 -0.709,1.063 -1.159,1.402 -1.288,2.65"
               style="fill:none;stroke:#d07500;stroke-width:0.567;stroke-linecap:butt;stroke-linejoin:miter;stroke-miterlimit:22.926;stroke-dasharray:none;stroke-opacity:1"
               id="path1370" />
          </g>
          <g
             id="g1372"
             transform="translate(11.1465,81.3891)">
            <path
               d="m 0,0 c 6.653,0 13.096,-2.238 17.367,2.864 3.086,3.686 4.723,8.251 9.51,7.816 2.549,-0.231 3.644,-2.097 4.952,-4.298 2.394,-4.033 5.892,-5.24 10.554,-5.732 5.513,-0.579 8.67,-0.599 14.197,-0.129"
               style="fill:none;stroke:#d07500;stroke-width:0.794;stroke-linecap:butt;stroke-linejoin:miter;stroke-miterlimit:22.926;stroke-dasharray:none;stroke-opacity:1"
               id="path1374" />
          </g>
          <g
             id="g1376"
             transform="translate(11.1758,49.1293)">
            <path
               d="m 0,0 c 4.696,3.828 7.623,9.399 13.447,7.736 2.697,-0.772 2.352,-3.853 2.764,-6.629 0.537,-3.627 1.879,-7.267 3.791,-7.887 5.248,-1.702 9.043,-2.231 12.477,-0.503 1.044,0.524 4.146,5.962 6.759,10.046 2.063,3.219 4.331,7.757 7.924,6.449 5.824,-2.122 5.942,-3.396 5.711,-9.393 -0.074,-1.953 1.926,-5.714 3.885,-5.714"
               style="fill:none;stroke:#d07500;stroke-width:0.794;stroke-linecap:butt;stroke-linejoin:miter;stroke-miterlimit:22.926;stroke-dasharray:none;stroke-opacity:1"
               id="path1378" />
          </g>
          <g
             id="g1380"
             transform="translate(11.0332,57.3852)">
            <path
               d="m 0,0 c 6.461,4.122 10.717,6.511 18.369,6.906 4.143,0.214 7.268,1.354 10.555,-1.175 1.43,-1.102 1.982,-2.168 2.473,-3.907 0.353,-1.25 1.178,-2.185 2.474,-2.214 2.73,-0.067 4.416,1.254 6.121,3.388 3.879,4.847 11.057,1.893 16.797,-0.477"
               style="fill:none;stroke:#d07500;stroke-width:1.417;stroke-linecap:butt;stroke-linejoin:miter;stroke-miterlimit:22.926;stroke-dasharray:none;stroke-opacity:1"
               id="path1382" />
          </g>
          <g
             id="g1384"
             transform="translate(36.3227,8.2711)">
            <path
               d="m 0,0 c -0.07,-1.15 -0.441,-1.737 -1.271,-1.761 -0.879,-0.027 -1.463,0.413 -1.564,2.029 m 0.005,0.955 c 0.123,1.44 0.827,1.752 1.559,1.778 0.912,0.033 1.199,-0.587 1.269,-2.022"
               style="fill:none;stroke:#d07500;stroke-width:0.567;stroke-linecap:butt;stroke-linejoin:miter;stroke-miterlimit:22.926;stroke-dasharray:none;stroke-opacity:1"
               id="path1386" />
          </g>
          <g
             id="g1388"
             transform="translate(36.2641,17.2272)">
            <path
               d="m 0,0 c -0.07,-1.149 -0.442,-1.737 -1.271,-1.761 -0.88,-0.027 -1.463,0.413 -1.565,2.03 m 0.004,0.954 c 0.123,1.44 0.828,1.753 1.561,1.778 0.911,0.033 1.198,-0.587 1.269,-2.021"
               style="fill:none;stroke:#d07500;stroke-width:0.567;stroke-linecap:butt;stroke-linejoin:miter;stroke-miterlimit:22.926;stroke-dasharray:none;stroke-opacity:1"
               id="path1390" />
          </g>
          <g
             id="g1392"
             transform="translate(19.081,74.0004)">
            <path
               d="m 0,0 c 2.479,0.354 10.983,2.55 12.756,1.842 1.772,-0.709 3.188,-1.418 3.897,-0.355 0.709,1.063 0.709,1.772 -0.354,3.189 -1.064,1.418 -2.126,2.481 0,4.607 2.126,2.126 2.835,1.417 4.252,0 1.418,-1.418 2.126,-2.481 1.418,-4.607 -0.709,-2.126 -1.418,-2.834 0,-3.543 1.417,-0.709 1.059,0.058 2.479,0.354 1.056,0.22 1.254,-0.283 3.174,-0.557"
               style="fill:none;stroke:#d07500;stroke-width:0.567;stroke-linecap:butt;stroke-linejoin:miter;stroke-miterlimit:22.926;stroke-dasharray:none;stroke-opacity:1"
               id="path1394" />
          </g>
          <g
             id="g1396"
             transform="translate(28.7031,53.976)">
            <path
               d="m 0,0 c 0.355,-2.835 1.064,-4.252 1.773,-4.252 0.708,0 1.77,0.002 2.125,0.71 0.354,0.707 0.354,2.48 0.354,4.251 0,1.771 0.354,3.543 -1.062,4.252 C 2.332,5.39 0.922,4.989 0.355,4.252 -0.014,3.773 -0.14,1.407 0,0.709"
               style="fill:none;stroke:#d07500;stroke-width:0.567;stroke-linecap:butt;stroke-linejoin:miter;stroke-miterlimit:22.926;stroke-dasharray:11.34, 1.13;stroke-dashoffset:0;stroke-opacity:1"
               id="path1398" />
          </g>
          <g
             id="g1400"
             transform="translate(53.0967,50.6147)">
            <path
               d="M 0,0 C 1.417,2.835 2.126,6.731 5.669,5.314 9.213,3.897 9.921,2.48 8.858,-1.417 7.795,-5.315 7.44,-7.087 3.543,-6.732 c -3.897,0.354 -5.14,2.705 -4.252,5.315"
               style="fill:none;stroke:#d07500;stroke-width:0.567;stroke-linecap:butt;stroke-linejoin:miter;stroke-miterlimit:22.926;stroke-dasharray:11.34, 1.13;stroke-dashoffset:0;stroke-opacity:1"
               id="path1402" />
          </g>
          <g
             id="g1404"
             transform="translate(58.6308,55.891)">
            <path
               d="M 0,0 -0.787,-2.343"
               style="fill:none;stroke:#d07500;stroke-width:0.567;stroke-linecap:butt;stroke-linejoin:miter;stroke-miterlimit:22.926;stroke-dasharray:none;stroke-opacity:1"
               id="path1406" />
          </g>
          <g
             id="g1408"
             transform="translate(55.789,46.7172)">
            <path
               d="M 0,0 -0.787,-2.343"
               style="fill:none;stroke:#d07500;stroke-width:0.567;stroke-linecap:butt;stroke-linejoin:miter;stroke-miterlimit:22.926;stroke-dasharray:none;stroke-opacity:1"
               id="path1410" />
          </g>
          <g
             id="g1412"
             transform="translate(46.3047,76.2328)">
            <path
               d="M 0,0 1.123,-0.156 0.809,-2.403 -0.314,-2.246 Z"
               style="fill:#ffffff;fill-opacity:1;fill-rule:evenodd;stroke:none"
               id="path1414" />
          </g>
          <g
             id="g1416"
             transform="translate(26.6797,76.56)">
            <path
               d="M 0,0 1.121,0.173 1.467,-2.068 0.346,-2.241 Z"
               style="fill:#ffffff;fill-opacity:1;fill-rule:evenodd;stroke:none"
               id="path1418" />
          </g>
          <g
             id="g1420"
             transform="translate(35.8203,80.3305)">
            <path
               d="m 0,0 0.608,-0.957 -1.915,-1.216 -0.607,0.958 z"
               style="fill:#ffffff;fill-opacity:1;fill-rule:evenodd;stroke:none"
               id="path1422" />
          </g>
          <g
             id="g1424"
             transform="translate(40.4707,84.4194)">
            <path
               d="m 0,0 0.734,-0.864 -1.728,-1.468 -0.734,0.863 z"
               style="fill:#ffffff;fill-opacity:1;fill-rule:evenodd;stroke:none"
               id="path1426" />
          </g>
          <g
             id="g1428"
             transform="translate(40.7441,51.0737)">
            <path
               d="M 0,0 0.234,1.109 2.453,0.641 2.219,-0.469 Z"
               style="fill:#ffffff;fill-opacity:1;fill-rule:evenodd;stroke:none"
               id="path1430" />
          </g>
          <g
             id="g1432"
             transform="translate(35.8574,47.5033)">
            <path
               d="M 0,0 1.119,-0.187 0.746,-2.423 -0.372,-2.237 Z"
               style="fill:#ffffff;fill-opacity:1;fill-rule:evenodd;stroke:none"
               id="path1434" />
          </g>
          <g
             id="g1436"
             transform="translate(37.3281,44.309)">
            <path
               d="m 0,0 1.121,-0.17 -0.34,-2.242 -1.121,0.17 z"
               style="fill:#ffffff;fill-opacity:1;fill-rule:evenodd;stroke:none"
               id="path1438" />
          </g>
          <g
             id="g1440"
             transform="translate(44.3457,47.934)">
            <path
               d="M 0,0 0.279,1.099 2.477,0.542 2.199,-0.557 Z"
               style="fill:#ffffff;fill-opacity:1;fill-rule:evenodd;stroke:none"
               id="path1442" />
          </g>
          <g
             id="g1444"
             transform="translate(49.9082,72.9369)">
            <path
               d="M 0,0 -2.844,1.69"
               style="fill:none;stroke:#e30613;stroke-width:0.283;stroke-linecap:butt;stroke-linejoin:miter;stroke-miterlimit:22.926;stroke-dasharray:none;stroke-opacity:1"
               id="path1446" />
          </g>
          <g
             id="g1448"
             transform="translate(45.3008,78.9614)">
            <path
               d="M 0,0 -2.834,-0.354"
               style="fill:none;stroke:#e30613;stroke-width:0.283;stroke-linecap:butt;stroke-linejoin:miter;stroke-miterlimit:22.926;stroke-dasharray:none;stroke-opacity:1"
               id="path1450" />
          </g>
          <g
             id="g1452"
             transform="translate(23.333,77.5434)">
            <path
               d="M 0,0 3.801,-1.222"
               style="fill:none;stroke:#e30613;stroke-width:0.283;stroke-linecap:butt;stroke-linejoin:miter;stroke-miterlimit:22.926;stroke-dasharray:none;stroke-opacity:1"
               id="path1454" />
          </g>
        </g>
      </g>
      <text
         transform="matrix(1,0,0,-1,20.792,12.4385)"
         style="font-variant:normal;font-weight:normal;font-stretch:semi-condensed;font-size:7px;font-family:'Arial Narrow';-inkscape-font-specification:ArialNarrow;writing-mode:lr-tb;fill:#e30613;fill-opacity:1;fill-rule:nonzero;stroke:none"
         id="text1462"><tspan
           x="0 4.7810001 6.0549998 9.2469997"
           y="0"
           sodipodi:role="line"
           id="tspan1456">min.</tspan><tspan
           x="20.783001 23.975 25.570999 28.763 30.358999 32.27 36.736 41.516998"
           y="-3.0239999"
           sodipodi:role="line"
           id="tspan1458">1.1 (OM)</tspan><tspan
           x="20.398001 23.59 25.186001 28.378 29.974001 31.885 36.351002 41.132"
           y="6.2160001"
           sodipodi:role="line"
           id="tspan1460">1.1 (OM)</tspan></text>
      <g
         id="g1464">
        <g
           id="g1466"
           clip-path="url(#clipPath1470)">
          <g
             id="g1472"
             transform="translate(40.4572,6.2682)">
            <path
               d="M 0,0 H -2.835"
               style="fill:none;stroke:#e30613;stroke-width:0.283;stroke-linecap:butt;stroke-linejoin:miter;stroke-miterlimit:22.926;stroke-dasharray:none;stroke-opacity:1"
               id="path1474" />
          </g>
          <g
             id="g1476"
             transform="translate(40.4572,11.3707)">
            <path
               d="M 0,0 H -2.835"
               style="fill:none;stroke:#e30613;stroke-width:0.283;stroke-linecap:butt;stroke-linejoin:miter;stroke-miterlimit:22.926;stroke-dasharray:none;stroke-opacity:1"
               id="path1478" />
          </g>
          <path
             d="M 16.832,26.079 H 67.856 V 0.567 H 16.832 Z"
             style="fill:none;stroke:#312783;stroke-width:1.134;stroke-linecap:butt;stroke-linejoin:miter;stroke-miterlimit:22.926;stroke-dasharray:none;stroke-opacity:1"
             id="path1480" />
          <g
             id="g1482"
             transform="translate(15.8926,85.6166)">
            <path
               d="M 0,0 20.988,-3.428"
               style="fill:none;stroke:#e30613;stroke-width:0.283;stroke-linecap:butt;stroke-linejoin:miter;stroke-miterlimit:22.926;stroke-dasharray:none;stroke-opacity:1"
               id="path1484" />
          </g>
          <g
             id="g1486"
             transform="translate(16.2638,87.7991)">
            <path
               d="M 0,0 20.988,-3.428"
               style="fill:none;stroke:#e30613;stroke-width:0.283;stroke-linecap:butt;stroke-linejoin:miter;stroke-miterlimit:22.926;stroke-dasharray:none;stroke-opacity:1"
               id="path1488" />
          </g>
          <g
             id="g1490"
             transform="translate(40.4572,15.275)">
            <path
               d="M 0,0 H -2.835"
               style="fill:none;stroke:#e30613;stroke-width:0.283;stroke-linecap:butt;stroke-linejoin:miter;stroke-miterlimit:22.926;stroke-dasharray:none;stroke-opacity:1"
               id="path1492" />
          </g>
          <g
             id="g1494"
             transform="translate(40.4572,20.3776)">
            <path
               d="M 0,0 H -2.835"
               style="fill:none;stroke:#e30613;stroke-width:0.283;stroke-linecap:butt;stroke-linejoin:miter;stroke-miterlimit:22.926;stroke-dasharray:none;stroke-opacity:1"
               id="path1496" />
          </g>
          <g
             id="g1498"
             transform="translate(47.7812,86.7514)">
            <path
               d="M 0,0 -9.566,-4.253"
               style="fill:none;stroke:#e30613;stroke-width:0.283;stroke-linecap:butt;stroke-linejoin:miter;stroke-miterlimit:22.926;stroke-dasharray:none;stroke-opacity:1"
               id="path1500" />
          </g>
        </g>
      </g>
      <text
         transform="matrix(1,0,0,-1,50.3857,67.9043)"
         style="font-variant:normal;font-weight:normal;font-stretch:semi-condensed;font-size:7px;font-family:'Arial Narrow';-inkscape-font-specification:ArialNarrow;writing-mode:lr-tb;fill:#e30613;fill-opacity:1;fill-rule:nonzero;stroke:none"
         id="text1508"><tspan
           x="0 3.1919999 4.7880001"
           y="0"
           sodipodi:role="line"
           id="tspan1502">0.1</tspan><tspan
           x="-35.791 -32.598999 -31.003"
           y="-7.2449999"
           sodipodi:role="line"
           id="tspan1504">0.2</tspan><tspan
           x="1.743 4.9349999 6.5310001"
           y="-17.514"
           sodipodi:role="line"
           id="tspan1506">0.1</tspan></text>
      <g
         id="g1510">
        <g
           id="g1512"
           clip-path="url(#clipPath1516)">
          <text
             transform="matrix(1,0,0,-1,5e-4,89.5225)"
             style="font-variant:normal;font-weight:normal;font-stretch:semi-condensed;font-size:7px;font-family:'Arial Narrow';-inkscape-font-specification:ArialNarrow;writing-mode:lr-tb;fill:#e30613;fill-opacity:1;fill-rule:nonzero;stroke:none"
             id="text1520"><tspan
               x="0 3.1919999 4.7880001 7.98 9.5760002 11.487 15.953 20.733999"
               y="0"
               sodipodi:role="line"
               id="tspan1518">0.4 (OM)</tspan></text>
        </g>
      </g>
      <text
         transform="matrix(1,0,0,-1,46.1128,76.5645)"
         style="font-variant:normal;font-weight:normal;font-stretch:semi-condensed;font-size:7px;font-family:'Arial Narrow';-inkscape-font-specification:ArialNarrow;writing-mode:lr-tb;fill:#e30613;fill-opacity:1;fill-rule:nonzero;stroke:none"
         id="text1524"><tspan
           x="0 3.1919999 4.7880001"
           y="0"
           sodipodi:role="line"
           id="tspan1522">2.0</tspan></text>
    </g>
  </g>
</svg>
