<?xml version="1.0" encoding="UTF-8" standalone="no"?>
<svg xmlns:inkscape="http://www.inkscape.org/namespaces/inkscape" xmlns:sodipodi="http://sodipodi.sourceforge.net/DTD/sodipodi-0.dtd" xmlns="http://www.w3.org/2000/svg" xmlns:svg="http://www.w3.org/2000/svg" version="1.1" id="svg2221" width="100.3156" height="65.056267" viewBox="0 0 100.3156 65.056267" sodipodi:docname="ISOM 105.2 Retained earth wall.svg" inkscape:version="1.2.2 (732a01da63, 2022-12-09)">
  <defs id="defs2225">
    <clipPath id="clipPath2237">
      <path d="M 0,48.792 H 75.237 V 0 H 0 Z" id="path2235"></path>
    </clipPath>
    <clipPath id="clipPath2253">
      <path d="M 0,48.792 H 75.237 V 0 H 0 Z" id="path2251"></path>
    </clipPath>
    <clipPath id="clipPath2319">
      <path d="M 0,48.792 H 75.237 V 0 H 0 Z" id="path2317"></path>
    </clipPath>
    <clipPath id="clipPath2345">
      <path d="M 0,48.792 H 75.237 V 0 H 0 Z" id="path2343"></path>
    </clipPath>
  </defs>
  <g id="g2229" inkscape:groupmode="layer" inkscape:label="Page 1" transform="matrix(1.3333333,0,0,-1.3333333,0,65.056267)">
    <g id="g2231">
      <g id="g2233" clip-path="url(#clipPath2237)">
        <g id="g2239" transform="translate(0,34.7543)">
          <path d="M 0,0 H 54.425" style="fill:none;stroke:#d07500;stroke-width:1.02;stroke-linecap:butt;stroke-linejoin:miter;stroke-miterlimit:22.926;stroke-dasharray:none;stroke-opacity:1" id="path2241"></path>
        </g>
      </g>
    </g>
    <g id="g2243" transform="translate(31.4646,7.6536)">
      <path d="M 0,0 H 7.937" style="fill:none;stroke:#d07500;stroke-width:1.02;stroke-linecap:butt;stroke-linejoin:miter;stroke-miterlimit:22.926;stroke-dasharray:none;stroke-opacity:1" id="path2245"></path>
    </g>
    <g id="g2247">
      <g id="g2249" clip-path="url(#clipPath2253)">
        <g id="g2255" transform="translate(5.811,34.3574)">
          <path d="m 0,0 c 0,-0.704 -0.571,-1.276 -1.275,-1.276 -0.705,0 -1.276,0.572 -1.276,1.276" style="fill:#d07500;fill-opacity:1;fill-rule:evenodd;stroke:none" id="path2257"></path>
        </g>
        <g id="g2259" transform="translate(11.4803,34.3574)">
          <path d="m 0,0 c 0,-0.704 -0.571,-1.276 -1.275,-1.276 -0.705,0 -1.276,0.572 -1.276,1.276" style="fill:#d07500;fill-opacity:1;fill-rule:evenodd;stroke:none" id="path2261"></path>
        </g>
        <g id="g2263" transform="translate(17.1496,34.3574)">
          <path d="m 0,0 c 0,-0.704 -0.571,-1.276 -1.275,-1.276 -0.705,0 -1.276,0.572 -1.276,1.276" style="fill:#d07500;fill-opacity:1;fill-rule:evenodd;stroke:none" id="path2265"></path>
        </g>
        <g id="g2267" transform="translate(22.8189,34.3574)">
          <path d="m 0,0 c 0,-0.704 -0.571,-1.276 -1.275,-1.276 -0.705,0 -1.276,0.572 -1.276,1.276" style="fill:#d07500;fill-opacity:1;fill-rule:evenodd;stroke:none" id="path2269"></path>
        </g>
        <g id="g2271" transform="translate(28.4882,34.3574)">
          <path d="m 0,0 c 0,-0.704 -0.571,-1.276 -1.275,-1.276 -0.705,0 -1.276,0.572 -1.276,1.276" style="fill:#d07500;fill-opacity:1;fill-rule:evenodd;stroke:none" id="path2273"></path>
        </g>
        <g id="g2275" transform="translate(34.1575,34.3574)">
          <path d="m 0,0 c 0,-0.704 -0.571,-1.276 -1.275,-1.276 -0.705,0 -1.276,0.572 -1.276,1.276" style="fill:#d07500;fill-opacity:1;fill-rule:evenodd;stroke:none" id="path2277"></path>
        </g>
        <g id="g2279" transform="translate(39.8268,34.3574)">
          <path d="m 0,0 c 0,-0.704 -0.571,-1.276 -1.275,-1.276 -0.705,0 -1.276,0.572 -1.276,1.276" style="fill:#d07500;fill-opacity:1;fill-rule:evenodd;stroke:none" id="path2281"></path>
        </g>
        <g id="g2283" transform="translate(45.4961,34.3574)">
          <path d="m 0,0 c 0,-0.704 -0.571,-1.276 -1.275,-1.276 -0.705,0 -1.276,0.572 -1.276,1.276" style="fill:#d07500;fill-opacity:1;fill-rule:evenodd;stroke:none" id="path2285"></path>
        </g>
        <g id="g2287" transform="translate(51.1654,34.3574)">
          <path d="m 0,0 c 0,-0.704 -0.571,-1.276 -1.275,-1.276 -0.705,0 -1.276,0.572 -1.276,1.276" style="fill:#d07500;fill-opacity:1;fill-rule:evenodd;stroke:none" id="path2289"></path>
        </g>
        <g id="g2291" transform="translate(36.7087,7.2568)">
          <path d="m 0,0 c 0,-0.704 -0.571,-1.276 -1.275,-1.276 -0.704,0 -1.276,0.572 -1.276,1.276" style="fill:#d07500;fill-opacity:1;fill-rule:evenodd;stroke:none" id="path2293"></path>
        </g>
        <g id="g2295" transform="translate(51.1654,37.4176)">
          <path d="M 0,0 V 4.252" style="fill:none;stroke:#e30613;stroke-width:0.283;stroke-linecap:butt;stroke-linejoin:miter;stroke-miterlimit:22.926;stroke-dasharray:none;stroke-opacity:1" id="path2297"></path>
        </g>
        <g id="g2299" transform="translate(54.4253,37.4176)">
          <path d="M 0,0 V 4.252" style="fill:none;stroke:#e30613;stroke-width:0.283;stroke-linecap:butt;stroke-linejoin:miter;stroke-miterlimit:22.926;stroke-dasharray:none;stroke-opacity:1" id="path2301"></path>
        </g>
        <text xml:space="preserve" transform="matrix(1,0,0,-1,64.063,32.1104)" style="font-variant:normal;font-weight:normal;font-stretch:semi-condensed;font-size:7px;font-family:'Arial Narrow';-inkscape-font-specification:ArialNarrow;writing-mode:lr-tb;fill:#e30613;fill-opacity:1;fill-rule:nonzero;stroke:none" id="text2305">
          <tspan x="0 3.1919999 4.7880001 7.98" y="0" sodipodi:role="line" id="tspan2303">0.18</tspan>
        </text>
      </g>
    </g>
    <text xml:space="preserve" transform="matrix(1,0,0,-1,39.2183,21.1284)" style="font-variant:normal;font-weight:normal;font-stretch:semi-condensed;font-size:7px;font-family:'Arial Narrow';-inkscape-font-specification:ArialNarrow;writing-mode:lr-tb;fill:#e30613;fill-opacity:1;fill-rule:nonzero;stroke:none" id="text2311">
      <tspan x="0 3.507 5.1030002 8.2950001 9.8909998 13.083" y="0" sodipodi:role="line" id="tspan2307">ø 0.45</tspan>
      <tspan x="-30.149 -26.957001 -25.361 -22.169001 -20.573 -18.662001 -14.518 -10.374" y="-0.20299999" sodipodi:role="line" id="tspan2309">1.0 (CC)</tspan>
    </text>
    <g id="g2313">
      <g id="g2315" clip-path="url(#clipPath2319)">
        <g id="g2321" transform="translate(10.2047,27.4044)">
          <path d="M 0,0 V 4.094" style="fill:none;stroke:#e30613;stroke-width:0.283;stroke-linecap:butt;stroke-linejoin:miter;stroke-miterlimit:22.926;stroke-dasharray:none;stroke-opacity:1" id="path2323"></path>
        </g>
        <g id="g2325" transform="translate(15.874,27.4044)">
          <path d="M 0,0 V 4.094" style="fill:none;stroke:#e30613;stroke-width:0.283;stroke-linecap:butt;stroke-linejoin:miter;stroke-miterlimit:22.926;stroke-dasharray:none;stroke-opacity:1" id="path2327"></path>
        </g>
        <g id="g2329" transform="translate(49.8898,27.6382)">
          <path d="M 0,0 V 4.095" style="fill:none;stroke:#e30613;stroke-width:0.283;stroke-linecap:butt;stroke-linejoin:miter;stroke-miterlimit:22.926;stroke-dasharray:none;stroke-opacity:1" id="path2331"></path>
        </g>
        <path d="M 12.756,14.74 H 43.937 V 0.567 H 12.756 Z" style="fill:none;stroke:#312783;stroke-width:1.134;stroke-linecap:butt;stroke-linejoin:miter;stroke-miterlimit:22.926;stroke-dasharray:none;stroke-opacity:1" id="path2333"></path>
      </g>
    </g>
    <text xml:space="preserve" transform="matrix(1,0,0,-1,17.2544,5.3872)" style="font-variant:normal;font-weight:normal;font-stretch:semi-condensed;font-size:7px;font-family:'Arial Narrow';-inkscape-font-specification:ArialNarrow;writing-mode:lr-tb;fill:#e30613;fill-opacity:1;fill-rule:nonzero;stroke:none" id="text2337">
      <tspan x="0 4.7810001 6.0549998 9.2469997" y="0" sodipodi:role="line" id="tspan2335">min.</tspan>
    </text>
    <g id="g2339">
      <g id="g2341" clip-path="url(#clipPath2345)">
        <text xml:space="preserve" transform="matrix(1,0,0,-1,48.7549,42.7861)" style="font-variant:normal;font-weight:normal;font-stretch:semi-condensed;font-size:7px;font-family:'Arial Narrow';-inkscape-font-specification:ArialNarrow;writing-mode:lr-tb;fill:#e30613;fill-opacity:1;fill-rule:nonzero;stroke:none" id="text2349">
          <tspan x="0 3.1919999 4.7880001 7.98 11.172 12.768 14.679 19.145 23.926001" y="0" sodipodi:role="line" id="tspan2347">0.58 (OM)</tspan>
        </text>
      </g>
    </g>
  </g>
</svg>
