<?xml version="1.0" encoding="UTF-8" standalone="no"?>
<!-- Created with Inkscape (http://www.inkscape.org/) -->

<svg
   width="14.5mm"
   height="19mm"
   viewBox="0 0 14.5 19"
   version="1.1"
   id="svg5422"
   inkscape:version="1.1.1 (3bf5ae0d25, 2021-09-20)"
   sodipodi:docname="ISOM 113 Broken ground.svg"
   xmlns:inkscape="http://www.inkscape.org/namespaces/inkscape"
   xmlns:sodipodi="http://sodipodi.sourceforge.net/DTD/sodipodi-0.dtd"
   xmlns="http://www.w3.org/2000/svg"
   xmlns:svg="http://www.w3.org/2000/svg">
  <sodipodi:namedview
     id="namedview5424"
     pagecolor="#ffffff"
     bordercolor="#666666"
     borderopacity="1.0"
     inkscape:pageshadow="2"
     inkscape:pageopacity="0.0"
     inkscape:pagecheckerboard="true"
     inkscape:document-units="mm"
     showgrid="false"
     inkscape:zoom="8"
     inkscape:cx="22.8125"
     inkscape:cy="36.4375"
     inkscape:window-width="1920"
     inkscape:window-height="1017"
     inkscape:window-x="-8"
     inkscape:window-y="-8"
     inkscape:window-maximized="1"
     inkscape:current-layer="layer1" />
  <defs
     id="defs5419">
    <clipPath
       clipPathUnits="userSpaceOnUse"
       id="clipPath5440">
      <path
         d="M 0,50.173 H 36.756 V 0 H 0 Z"
         id="path5438" />
    </clipPath>
    <clipPath
       clipPathUnits="userSpaceOnUse"
       id="clipPath5588">
      <path
         d="M 0,50.173 H 36.756 V 0 H 0 Z"
         id="path5586" />
    </clipPath>
  </defs>
  <g
     inkscape:label="Ebene 1"
     inkscape:groupmode="layer"
     id="layer1">
    <g
       id="g5432"
       inkscape:label="ISOM 113 Broken ground"
       transform="matrix(0.35277777,0,0,-0.35277777,0.75402776,18.189656)">
      <g
         id="g5434">
        <g
           id="g5436"
           clip-path="url(#clipPath5440)">
          <g
             id="g5442"
             transform="translate(15.6082,42.6548)">
            <path
               d="M 0,0 C 0.26,-0.176 0.326,-0.529 0.15,-0.787 -0.027,-1.046 -0.379,-1.113 -0.638,-0.936 -0.896,-0.761 -0.964,-0.408 -0.787,-0.15 -0.611,0.109 -0.259,0.176 0,0"
               style="fill:#d07500;fill-opacity:1;fill-rule:evenodd;stroke:none"
               id="path5444" />
          </g>
          <g
             id="g5446"
             transform="translate(30.4109,32.2007)">
            <path
               d="m 0,0 c -0.312,0 -0.566,0.254 -0.566,0.567 0,0.314 0.254,0.568 0.566,0.568 0.312,0 0.566,-0.254 0.566,-0.568 C 0.566,0.254 0.312,0 0,0"
               style="fill:#d07500;fill-opacity:1;fill-rule:evenodd;stroke:none"
               id="path5448" />
          </g>
          <g
             id="g5450"
             transform="translate(28.573,33.9761)">
            <path
               d="m 0,0 c -0.312,0 -0.566,0.254 -0.566,0.568 0,0.314 0.254,0.568 0.566,0.568 0.313,0 0.567,-0.254 0.567,-0.568 C 0.567,0.254 0.313,0 0,0"
               style="fill:#d07500;fill-opacity:1;fill-rule:evenodd;stroke:none"
               id="path5452" />
          </g>
          <g
             id="g5454"
             transform="translate(18.4207,40.7408)">
            <path
               d="m 0,0 c 0.258,-0.176 0.326,-0.529 0.149,-0.788 -0.176,-0.259 -0.528,-0.325 -0.788,-0.149 -0.258,0.175 -0.326,0.529 -0.15,0.788 C -0.611,0.109 -0.26,0.176 0,0"
               style="fill:#d07500;fill-opacity:1;fill-rule:evenodd;stroke:none"
               id="path5456" />
          </g>
          <g
             id="g5458"
             transform="translate(27.5886,32.2671)">
            <path
               d="M 0,0 C -0.312,0 -0.566,0.254 -0.566,0.566 -0.566,0.88 -0.312,1.134 0,1.134 0.313,1.134 0.567,0.88 0.567,0.566 0.567,0.254 0.313,0 0,0"
               style="fill:#d07500;fill-opacity:1;fill-rule:evenodd;stroke:none"
               id="path5460" />
          </g>
          <g
             id="g5462"
             transform="translate(16.2996,38.7935)">
            <path
               d="m 0,0 c 0.312,0 0.567,-0.254 0.567,-0.567 0,-0.314 -0.255,-0.568 -0.567,-0.568 -0.312,0 -0.566,0.254 -0.566,0.568 C -0.566,-0.254 -0.312,0 0,0"
               style="fill:#d07500;fill-opacity:1;fill-rule:evenodd;stroke:none"
               id="path5464" />
          </g>
          <g
             id="g5466"
             transform="translate(30.1492,35.1607)">
            <path
               d="m 0,0 c -0.312,0 -0.566,0.254 -0.566,0.567 0,0.314 0.254,0.568 0.566,0.568 0.312,0 0.567,-0.254 0.567,-0.568 C 0.567,0.254 0.312,0 0,0"
               style="fill:#d07500;fill-opacity:1;fill-rule:evenodd;stroke:none"
               id="path5468" />
          </g>
          <g
             id="g5470"
             transform="translate(23.1258,38.7271)">
            <path
               d="M 0,0 C 0.313,0 0.567,-0.254 0.567,-0.566 0.567,-0.88 0.313,-1.134 0,-1.134 c -0.312,0 -0.566,0.254 -0.566,0.568 C -0.566,-0.254 -0.312,0 0,0"
               style="fill:#d07500;fill-opacity:1;fill-rule:evenodd;stroke:none"
               id="path5472" />
          </g>
          <g
             id="g5474"
             transform="translate(23.323,35.2271)">
            <path
               d="m 0,0 c -0.312,0 -0.566,0.254 -0.566,0.566 0,0.313 0.254,0.567 0.566,0.567 0.312,0 0.566,-0.254 0.566,-0.567 C 0.566,0.254 0.312,0 0,0"
               style="fill:#d07500;fill-opacity:1;fill-rule:evenodd;stroke:none"
               id="path5476" />
          </g>
          <g
             id="g5478"
             transform="translate(21.2215,41.0943)">
            <path
               d="M 0,0 C 0.313,0 0.568,-0.254 0.568,-0.566 0.568,-0.88 0.313,-1.134 0,-1.134 c -0.312,0 -0.566,0.254 -0.566,0.568 C -0.566,-0.254 -0.312,0 0,0"
               style="fill:#d07500;fill-opacity:1;fill-rule:evenodd;stroke:none"
               id="path5480" />
          </g>
          <g
             id="g5482"
             transform="translate(25.2273,32.8589)">
            <path
               d="M 0,0 C -0.314,0 -0.567,0.254 -0.567,0.566 -0.567,0.88 -0.314,1.134 0,1.134 0.312,1.134 0.566,0.88 0.566,0.566 0.566,0.254 0.312,0 0,0"
               style="fill:#d07500;fill-opacity:1;fill-rule:evenodd;stroke:none"
               id="path5484" />
          </g>
          <g
             id="g5486"
             transform="translate(20.2371,38.7271)">
            <path
               d="M 0,0 C 0.314,0 0.567,-0.254 0.567,-0.566 0.567,-0.88 0.314,-1.134 0,-1.134 c -0.312,0 -0.566,0.254 -0.566,0.568 C -0.566,-0.254 -0.312,0 0,0"
               style="fill:#d07500;fill-opacity:1;fill-rule:evenodd;stroke:none"
               id="path5488" />
          </g>
          <g
             id="g5490"
             transform="translate(26.2117,35.2271)">
            <path
               d="m 0,0 c -0.312,0 -0.567,0.254 -0.567,0.566 0,0.313 0.255,0.567 0.567,0.567 0.312,0 0.566,-0.254 0.566,-0.567 C 0.566,0.254 0.312,0 0,0"
               style="fill:#d07500;fill-opacity:1;fill-rule:evenodd;stroke:none"
               id="path5492" />
          </g>
          <g
             id="g5494"
             transform="translate(24.8328,40.0425)">
            <path
               d="M 0,0 C 0.312,0 0.566,-0.254 0.566,-0.567 0.566,-0.88 0.312,-1.134 0,-1.134 c -0.314,0 -0.567,0.254 -0.567,0.567 C -0.567,-0.254 -0.314,0 0,0"
               style="fill:#d07500;fill-opacity:1;fill-rule:evenodd;stroke:none"
               id="path5496" />
          </g>
          <g
             id="g5498"
             transform="translate(21.617,33.9107)">
            <path
               d="m 0,0 c -0.313,0 -0.567,0.254 -0.567,0.568 0,0.313 0.254,0.567 0.567,0.567 0.313,0 0.567,-0.254 0.567,-0.567 C 0.567,0.254 0.313,0 0,0"
               style="fill:#d07500;fill-opacity:1;fill-rule:evenodd;stroke:none"
               id="path5500" />
          </g>
          <g
             id="g5502"
             transform="translate(24.241,41.8179)">
            <path
               d="M 0,0 C 0.313,0 0.567,-0.254 0.567,-0.567 0.567,-0.88 0.313,-1.134 0,-1.134 c -0.312,0 -0.566,0.254 -0.566,0.567 C -0.566,-0.254 -0.312,0 0,0"
               style="fill:#d07500;fill-opacity:1;fill-rule:evenodd;stroke:none"
               id="path5504" />
          </g>
          <g
             id="g5506"
             transform="translate(22.7332,32.1353)">
            <path
               d="M 0,0 C -0.312,0 -0.566,0.254 -0.566,0.567 -0.566,0.88 -0.312,1.134 0,1.134 0.312,1.134 0.566,0.88 0.566,0.567 0.566,0.254 0.312,0 0,0"
               style="fill:#d07500;fill-opacity:1;fill-rule:evenodd;stroke:none"
               id="path5508" />
          </g>
          <g
             id="g5510"
             transform="translate(26.7351,41.7525)">
            <path
               d="m 0,0 c 0.313,0 0.567,-0.254 0.567,-0.567 0,-0.314 -0.254,-0.568 -0.567,-0.568 -0.312,0 -0.566,0.254 -0.566,0.568 C -0.566,-0.254 -0.312,0 0,0"
               style="fill:#d07500;fill-opacity:1;fill-rule:evenodd;stroke:none"
               id="path5512" />
          </g>
          <g
             id="g5514"
             transform="translate(19.7136,32.2007)">
            <path
               d="m 0,0 c -0.312,0 -0.566,0.254 -0.566,0.567 0,0.314 0.254,0.568 0.566,0.568 0.312,0 0.566,-0.254 0.566,-0.568 C 0.566,0.254 0.312,0 0,0"
               style="fill:#d07500;fill-opacity:1;fill-rule:evenodd;stroke:none"
               id="path5516" />
          </g>
          <g
             id="g5518"
             transform="translate(27.4578,39.3189)">
            <path
               d="m 0,0 c 0.312,0 0.566,-0.254 0.566,-0.566 0,-0.313 -0.254,-0.568 -0.566,-0.568 -0.312,0 -0.567,0.255 -0.567,0.568 C -0.567,-0.254 -0.312,0 0,0"
               style="fill:#d07500;fill-opacity:1;fill-rule:evenodd;stroke:none"
               id="path5520" />
          </g>
          <g
             id="g5522"
             transform="translate(18.991,34.6353)">
            <path
               d="m 0,0 c -0.312,0 -0.566,0.254 -0.566,0.566 0,0.313 0.254,0.567 0.566,0.567 0.313,0 0.567,-0.254 0.567,-0.567 C 0.567,0.254 0.313,0 0,0"
               style="fill:#d07500;fill-opacity:1;fill-rule:evenodd;stroke:none"
               id="path5524" />
          </g>
          <g
             id="g5526"
             transform="translate(28.9676,40.897)">
            <path
               d="M 0,0 C 0.312,0 0.566,-0.254 0.566,-0.566 0.566,-0.88 0.312,-1.134 0,-1.134 c -0.313,0 -0.567,0.254 -0.567,0.568 C -0.567,-0.254 -0.313,0 0,0"
               style="fill:#d07500;fill-opacity:1;fill-rule:evenodd;stroke:none"
               id="path5528" />
          </g>
          <g
             id="g5530"
             transform="translate(17.4812,33.0562)">
            <path
               d="m 0,0 c -0.312,0 -0.566,0.254 -0.566,0.566 0,0.313 0.254,0.567 0.566,0.567 0.314,0 0.568,-0.254 0.568,-0.567 C 0.568,0.254 0.314,0 0,0"
               style="fill:#d07500;fill-opacity:1;fill-rule:evenodd;stroke:none"
               id="path5532" />
          </g>
          <g
             id="g5534"
             transform="translate(30.4109,41.8834)">
            <path
               d="M 0,0 C 0.312,0 0.566,-0.254 0.566,-0.566 0.566,-0.88 0.312,-1.134 0,-1.134 c -0.312,0 -0.566,0.254 -0.566,0.568 C -0.566,-0.254 -0.312,0 0,0"
               style="fill:#d07500;fill-opacity:1;fill-rule:evenodd;stroke:none"
               id="path5536" />
          </g>
          <g
             id="g5538"
             transform="translate(16.0379,32.0699)">
            <path
               d="M 0,0 C -0.312,0 -0.566,0.254 -0.566,0.566 -0.566,0.88 -0.312,1.134 0,1.134 0.313,1.134 0.567,0.88 0.567,0.566 0.567,0.254 0.313,0 0,0"
               style="fill:#d07500;fill-opacity:1;fill-rule:evenodd;stroke:none"
               id="path5540" />
          </g>
          <g
             id="g5542"
             transform="translate(29.9519,38.9244)">
            <path
               d="M 0,0 C 0.312,0 0.566,-0.254 0.566,-0.566 0.566,-0.88 0.312,-1.134 0,-1.134 c -0.312,0 -0.567,0.254 -0.567,0.568 C -0.567,-0.254 -0.312,0 0,0"
               style="fill:#d07500;fill-opacity:1;fill-rule:evenodd;stroke:none"
               id="path5544" />
          </g>
          <g
             id="g5546"
             transform="translate(16.4969,35.0298)">
            <path
               d="m 0,0 c -0.312,0 -0.566,0.254 -0.566,0.566 0,0.313 0.254,0.567 0.566,0.567 0.313,0 0.567,-0.254 0.567,-0.567 C 0.567,0.254 0.313,0 0,0"
               style="fill:#d07500;fill-opacity:1;fill-rule:evenodd;stroke:none"
               id="path5548" />
          </g>
          <g
             id="g5550"
             transform="translate(26.7401,7.0286)">
            <path
               d="m 0,0 c 0.314,0 0.567,-0.254 0.567,-0.566 0,-0.313 -0.253,-0.569 -0.567,-0.569 -0.313,0 -0.567,0.256 -0.567,0.569 C -0.567,-0.254 -0.313,0 0,0"
               style="fill:#d07500;fill-opacity:1;fill-rule:evenodd;stroke:none"
               id="path5552" />
          </g>
          <g
             id="g5554"
             transform="translate(24.1884,7.0286)">
            <path
               d="m 0,0 c 0.314,0 0.567,-0.254 0.567,-0.566 0,-0.313 -0.253,-0.569 -0.567,-0.569 -0.312,0 -0.566,0.256 -0.566,0.569 C -0.566,-0.254 -0.312,0 0,0"
               style="fill:#d07500;fill-opacity:1;fill-rule:evenodd;stroke:none"
               id="path5556" />
          </g>
          <g
             id="g5558"
             transform="translate(25.4276,9.4134)">
            <path
               d="m 0,0 c 0.314,0 0.567,-0.254 0.567,-0.566 0,-0.313 -0.253,-0.567 -0.567,-0.567 -0.313,0 -0.567,0.254 -0.567,0.567 C -0.567,-0.254 -0.313,0 0,0"
               style="fill:#d07500;fill-opacity:1;fill-rule:evenodd;stroke:none"
               id="path5560" />
          </g>
          <text
             transform="matrix(1,0,0,-1,23.6724,21.5801)"
             style="font-variant:normal;font-weight:normal;font-stretch:semi-condensed;font-size:7px;font-family:'Arial Narrow';-inkscape-font-specification:ArialNarrow;writing-mode:lr-tb;fill:#e30613;fill-opacity:1;fill-rule:nonzero;stroke:none"
             id="text5564"><tspan
               x="0 3.507 5.1030002 8.2950001 9.8909998"
               y="0"
               sodipodi:role="line"
               id="tspan5562">ø 0.2</tspan></text>
          <g
             id="g5566"
             transform="translate(28.159,29.0816)">
            <path
               d="M 0,0 -2.612,3.609"
               style="fill:none;stroke:#e30613;stroke-width:0.283;stroke-linecap:butt;stroke-linejoin:miter;stroke-miterlimit:22.926;stroke-dasharray:none;stroke-opacity:1"
               id="path5568" />
          </g>
          <g
             id="g5570"
             transform="translate(15.2898,42.1861)">
            <path
               d="M 0,0 2.811,-1.914"
               style="fill:none;stroke:#e30613;stroke-width:0.283;stroke-linecap:butt;stroke-linejoin:miter;stroke-miterlimit:22.926;stroke-dasharray:none;stroke-opacity:1"
               id="path5572" />
          </g>
          <text
             transform="matrix(1,0,0,-1,0,44.168)"
             style="font-variant:normal;font-weight:normal;font-stretch:semi-condensed;font-size:7px;font-family:'Arial Narrow';-inkscape-font-specification:ArialNarrow;writing-mode:lr-tb;fill:#e30613;fill-opacity:1;fill-rule:nonzero;stroke:none"
             id="text5576"><tspan
               x="0 4.7810001 7.973 10.843 12.439 14.035 17.226999 18.823 22.014999 23.611 25.521999 29.666 33.810001"
               y="0"
               sodipodi:role="line"
               id="tspan5574">max. 0.6 (CC)</tspan></text>
        </g>
      </g>
      <text
         transform="matrix(1,0,0,-1,7.2861,5.3877)"
         style="font-variant:normal;font-weight:normal;font-stretch:semi-condensed;font-size:7px;font-family:'Arial Narrow';-inkscape-font-specification:ArialNarrow;writing-mode:lr-tb;fill:#e30613;fill-opacity:1;fill-rule:nonzero;stroke:none"
         id="text5580"><tspan
           x="0 4.7810001 6.0549998 9.2469997"
           y="0"
           sodipodi:role="line"
           id="tspan5578">min.</tspan></text>
      <g
         id="g5582">
        <g
           id="g5584"
           clip-path="url(#clipPath5588)">
          <path
             d="M 2.788,14.74 H 33.969 V 0.567 H 2.788 Z"
             style="fill:none;stroke:#312783;stroke-width:1.134;stroke-linecap:butt;stroke-linejoin:miter;stroke-miterlimit:22.926;stroke-dasharray:none;stroke-opacity:1"
             id="path5590" />
        </g>
      </g>
    </g>
  </g>
</svg>
