<?xml version="1.0" encoding="UTF-8" standalone="no"?>
<svg xmlns:inkscape="http://www.inkscape.org/namespaces/inkscape" xmlns:sodipodi="http://sodipodi.sourceforge.net/DTD/sodipodi-0.dtd" xmlns="http://www.w3.org/2000/svg" xmlns:svg="http://www.w3.org/2000/svg" width="32mm" height="44mm" viewBox="0 0 32 44" version="1.1" id="svg2133" inkscape:version="1.1.1 (3bf5ae0d25, 2021-09-20)" sodipodi:docname="ISOM-201-Impassable-cliff.svg">
  <defs id="defs2130">
    <clipPath id="clipPath1316">
      <path d="m 44.851,110.26 h 86.173 V 231.299 H 44.851 Z" id="path1314"></path>
    </clipPath>
    <clipPath id="clipPath1540">
      <path d="m 44.851,110.26 h 86.173 V 231.299 H 44.851 Z" id="path1538"></path>
    </clipPath>
    <clipPath id="clipPath1592">
      <path d="m 44.851,110.26 h 86.173 V 231.299 H 44.851 Z" id="path1590"></path>
    </clipPath>
    <clipPath id="clipPath1612">
      <path d="m 44.851,110.26 h 86.173 V 231.299 H 44.851 Z" id="path1610"></path>
    </clipPath>
  </defs>
  <g inkscape:label="Layer 1" inkscape:groupmode="layer" id="layer1">
    <g id="g1962" transform="matrix(0.35277777,0,0,-0.35277777,-14.91252,82.277982)">
      <g id="g1312" clip-path="url(#clipPath1316)">
        <g id="g1318" transform="translate(68.1261,142.6812)">
          <path d="m 0,0 c -2.592,-2.664 -4.607,-6.336 -1.512,-7.345 3.096,-1.008 14.184,-2.015 19.225,-1.295 5.039,0.72 7.703,1.944 6.552,3.888 -1.152,1.944 -4.896,4.464 -6.697,5.976 -1.799,1.511 -1.367,2.591 -1.367,4.679 0,2.088 0.36,5.617 -1.945,6.698 -2.303,1.079 -1.367,2.519 -2.879,4.031 -1.512,1.512 -4.465,2.88 -5.689,0.792 C 4.465,15.336 3.24,12.815 0.721,11.592 -1.799,10.368 -2.808,10.08 -1.799,7.991 -0.791,5.903 0.504,6.12 1.584,5.399 2.664,4.68 3.313,2.952 2.232,1.8 1.152,0.647 0,0 0,0" style="fill:#009fe3;fill-opacity:1;fill-rule:evenodd;stroke:none" id="path1320"></path>
        </g>
        <g id="g1322" transform="translate(66.3273,150.6724)">
          <path d="m 0,0 c 1.008,-2.088 2.303,-1.871 3.383,-2.592 1.08,-0.719 1.728,-2.447 0.648,-3.599 -1.08,-1.153 -2.232,-1.8 -2.232,-1.8 -2.592,-2.664 -4.608,-6.336 -1.512,-7.345 3.096,-1.008 14.184,-2.016 19.225,-1.295 5.039,0.72 7.703,1.943 6.551,3.888 -1.151,1.944 -4.895,4.464 -6.696,5.975 -1.8,1.512 -1.367,2.592 -1.367,4.68 0,2.088 0.359,5.617 -1.945,6.697 -2.303,1.08 -1.367,2.52 -2.879,4.032" style="fill:none;stroke:#1d1d1b;stroke-width:1.02;stroke-linecap:butt;stroke-linejoin:miter;stroke-miterlimit:22.926;stroke-dasharray:none;stroke-opacity:1" id="path1324"></path>
        </g>
        <g id="g1326" transform="translate(62.0793,156.649)">
          <path d="m 0,0 c 4.248,1.152 4.823,1.152 7.056,3.889 2.231,2.735 3.887,3.959 7.2,4.319 3.311,0.36 5.328,0.288 8.136,0.288" style="fill:none;stroke:#1d1d1b;stroke-width:1.984;stroke-linecap:butt;stroke-linejoin:miter;stroke-miterlimit:22.926;stroke-dasharray:none;stroke-opacity:1" id="path1328"></path>
        </g>
        <g id="g1330" transform="translate(63.0148,152.4732)">
          <path d="M 0,0 -0.792,4.464" style="fill:none;stroke:#1d1d1b;stroke-width:0.68;stroke-linecap:butt;stroke-linejoin:miter;stroke-miterlimit:22.926;stroke-dasharray:none;stroke-opacity:1" id="path1332"></path>
        </g>
        <g id="g1334" transform="translate(69.135,151.9693)">
          <path d="M 0,0 -3.024,5.832" style="fill:none;stroke:#1d1d1b;stroke-width:0.68;stroke-linecap:butt;stroke-linejoin:miter;stroke-miterlimit:22.926;stroke-dasharray:none;stroke-opacity:1" id="path1336"></path>
        </g>
        <g id="g1338" transform="translate(73.2394,155.1373)">
          <path d="M 0,0 -3.961,5.975" style="fill:none;stroke:#1d1d1b;stroke-width:0.68;stroke-linecap:butt;stroke-linejoin:miter;stroke-miterlimit:22.926;stroke-dasharray:none;stroke-opacity:1" id="path1340"></path>
        </g>
        <g id="g1342" transform="translate(76.839,158.4498)">
          <path d="M 0,0 -2.16,6.407" style="fill:none;stroke:#1d1d1b;stroke-width:0.68;stroke-linecap:butt;stroke-linejoin:miter;stroke-miterlimit:22.926;stroke-dasharray:none;stroke-opacity:1" id="path1344"></path>
        </g>
        <g id="g1346" transform="translate(80.4386,160.8248)">
          <path d="M 0,0 -0.504,4.32" style="fill:none;stroke:#1d1d1b;stroke-width:0.68;stroke-linecap:butt;stroke-linejoin:miter;stroke-miterlimit:22.926;stroke-dasharray:none;stroke-opacity:1" id="path1348"></path>
        </g>
        <g id="g1350" transform="translate(84.1828,161.6177)">
          <path d="M 0,0 V 4.031" style="fill:none;stroke:#1d1d1b;stroke-width:0.68;stroke-linecap:butt;stroke-linejoin:miter;stroke-miterlimit:22.926;stroke-dasharray:none;stroke-opacity:1" id="path1352"></path>
        </g>
        <g id="g1354" transform="translate(105.8182,182.7681)">
          <path d="M 0,0 H 4.283" style="fill:none;stroke:#1d1d1b;stroke-width:1.984;stroke-linecap:round;stroke-linejoin:round;stroke-miterlimit:22.926;stroke-dasharray:none;stroke-opacity:1" id="path1356"></path>
        </g>
        <g id="g1358" transform="translate(61.9588,182.7681)">
          <path d="M 0,0 H 4.283" style="fill:none;stroke:#1d1d1b;stroke-width:1.984;stroke-linecap:butt;stroke-linejoin:miter;stroke-miterlimit:22.926;stroke-dasharray:none;stroke-opacity:1" id="path1360"></path>
        </g>
        <g id="g1362" transform="translate(106.2508,181.7768)">
          <path d="M 0,0 V -2.268" style="fill:none;stroke:#1d1d1b;stroke-width:0.68;stroke-linecap:butt;stroke-linejoin:miter;stroke-miterlimit:22.926;stroke-dasharray:none;stroke-opacity:1" id="path1364"></path>
        </g>
        <g id="g1366" transform="translate(62.2983,181.778)">
          <path d="M 0,0 V -2.268" style="fill:none;stroke:#1d1d1b;stroke-width:0.68;stroke-linecap:butt;stroke-linejoin:miter;stroke-miterlimit:22.926;stroke-dasharray:none;stroke-opacity:1" id="path1368"></path>
        </g>
        <g id="g1370" transform="translate(109.6522,181.7768)">
          <path d="M 0,0 V -2.268" style="fill:none;stroke:#1d1d1b;stroke-width:0.68;stroke-linecap:butt;stroke-linejoin:miter;stroke-miterlimit:22.926;stroke-dasharray:none;stroke-opacity:1" id="path1372"></path>
        </g>
        <g id="g1374" transform="translate(65.9012,181.778)">
          <path d="M 0,0 V -2.268" style="fill:none;stroke:#1d1d1b;stroke-width:0.68;stroke-linecap:butt;stroke-linejoin:miter;stroke-miterlimit:22.926;stroke-dasharray:none;stroke-opacity:1" id="path1376"></path>
        </g>
        <g id="g1378" transform="translate(99.4757,160.3677)">
          <path d="M 0,0 H 12.969" style="fill:none;stroke:#1d1d1b;stroke-width:1.984;stroke-linecap:butt;stroke-linejoin:miter;stroke-miterlimit:22.926;stroke-dasharray:none;stroke-opacity:1" id="path1380"></path>
        </g>
        <g id="g1382" transform="translate(100.8117,159.7515)">
          <path d="M 0,0 V -2.919" style="fill:none;stroke:#1d1d1b;stroke-width:0.68;stroke-linecap:butt;stroke-linejoin:miter;stroke-miterlimit:22.926;stroke-dasharray:none;stroke-opacity:1" id="path1384"></path>
        </g>
        <g id="g1386" transform="translate(107.6281,159.7515)">
          <path d="M 0,0 V -2.919" style="fill:none;stroke:#1d1d1b;stroke-width:0.68;stroke-linecap:butt;stroke-linejoin:miter;stroke-miterlimit:22.926;stroke-dasharray:none;stroke-opacity:1" id="path1388"></path>
        </g>
        <g id="g1390" transform="translate(104.2121,159.7515)">
          <path d="M 0,0 V -2.919" style="fill:none;stroke:#1d1d1b;stroke-width:0.68;stroke-linecap:butt;stroke-linejoin:miter;stroke-miterlimit:22.926;stroke-dasharray:none;stroke-opacity:1" id="path1392"></path>
        </g>
        <g id="g1394" transform="translate(111.0304,159.7515)">
          <path d="M 0,0 V -2.919" style="fill:none;stroke:#1d1d1b;stroke-width:0.68;stroke-linecap:butt;stroke-linejoin:miter;stroke-miterlimit:22.926;stroke-dasharray:none;stroke-opacity:1" id="path1396"></path>
        </g>
        <g id="g1398" transform="translate(108.2121,163.5083)">
          <path d="M 0,0 7.694,-0.246" style="fill:none;stroke:#1d1d1b;stroke-width:1.984;stroke-linecap:butt;stroke-linejoin:miter;stroke-miterlimit:22.926;stroke-dasharray:none;stroke-opacity:1" id="path1400"></path>
        </g>
        <g id="g1402" transform="translate(103.1955,167.1695)">
          <path d="M 0,0 8.621,0.091" style="fill:none;stroke:#1d1d1b;stroke-width:1.984;stroke-linecap:butt;stroke-linejoin:miter;stroke-miterlimit:22.926;stroke-dasharray:none;stroke-opacity:1" id="path1404"></path>
        </g>
        <g id="g1406" transform="translate(66.1672,228.5572)">
          <path d="M 0,0 H 33.581" style="fill:none;stroke:#1d1d1b;stroke-width:1.984;stroke-linecap:round;stroke-linejoin:miter;stroke-miterlimit:22.926;stroke-dasharray:none;stroke-opacity:1" id="path1408"></path>
        </g>
        <g id="g1410" transform="translate(67.5031,227.941)">
          <path d="M 0,0 V -2.919" style="fill:none;stroke:#1d1d1b;stroke-width:0.68;stroke-linecap:butt;stroke-linejoin:miter;stroke-miterlimit:22.926;stroke-dasharray:none;stroke-opacity:1" id="path1412"></path>
        </g>
        <g id="g1414" transform="translate(74.3196,227.941)">
          <path d="M 0,0 V -2.919" style="fill:none;stroke:#1d1d1b;stroke-width:0.68;stroke-linecap:butt;stroke-linejoin:miter;stroke-miterlimit:22.926;stroke-dasharray:none;stroke-opacity:1" id="path1416"></path>
        </g>
        <g id="g1418" transform="translate(70.9036,227.941)">
          <path d="M 0,0 V -2.919" style="fill:none;stroke:#1d1d1b;stroke-width:0.68;stroke-linecap:butt;stroke-linejoin:miter;stroke-miterlimit:22.926;stroke-dasharray:none;stroke-opacity:1" id="path1420"></path>
        </g>
        <g id="g1422" transform="translate(77.7218,227.941)">
          <path d="M 0,0 V -2.919" style="fill:none;stroke:#1d1d1b;stroke-width:0.68;stroke-linecap:butt;stroke-linejoin:miter;stroke-miterlimit:22.926;stroke-dasharray:none;stroke-opacity:1" id="path1424"></path>
        </g>
        <g id="g1426" transform="translate(84.4377,227.941)">
          <path d="M 0,0 V -2.919" style="fill:none;stroke:#1d1d1b;stroke-width:0.68;stroke-linecap:butt;stroke-linejoin:miter;stroke-miterlimit:22.926;stroke-dasharray:none;stroke-opacity:1" id="path1428"></path>
        </g>
        <g id="g1430" transform="translate(91.1536,227.941)">
          <path d="M 0,0 V -2.919" style="fill:none;stroke:#1d1d1b;stroke-width:0.68;stroke-linecap:butt;stroke-linejoin:miter;stroke-miterlimit:22.926;stroke-dasharray:none;stroke-opacity:1" id="path1432"></path>
        </g>
        <g id="g1434" transform="translate(97.8703,227.941)">
          <path d="M 0,0 V -2.919" style="fill:none;stroke:#1d1d1b;stroke-width:0.68;stroke-linecap:butt;stroke-linejoin:miter;stroke-miterlimit:22.926;stroke-dasharray:none;stroke-opacity:1" id="path1436"></path>
        </g>
        <g id="g1438" transform="translate(81.0216,227.941)">
          <path d="M 0,0 V -2.919" style="fill:none;stroke:#1d1d1b;stroke-width:0.68;stroke-linecap:butt;stroke-linejoin:miter;stroke-miterlimit:22.926;stroke-dasharray:none;stroke-opacity:1" id="path1440"></path>
        </g>
        <g id="g1442" transform="translate(87.7376,227.941)">
          <path d="M 0,0 V -2.919" style="fill:none;stroke:#1d1d1b;stroke-width:0.68;stroke-linecap:butt;stroke-linejoin:miter;stroke-miterlimit:22.926;stroke-dasharray:none;stroke-opacity:1" id="path1444"></path>
        </g>
        <g id="g1446" transform="translate(94.4543,227.941)">
          <path d="M 0,0 V -2.919" style="fill:none;stroke:#1d1d1b;stroke-width:0.68;stroke-linecap:butt;stroke-linejoin:miter;stroke-miterlimit:22.926;stroke-dasharray:none;stroke-opacity:1" id="path1448"></path>
        </g>
        <g id="g1450" transform="translate(102.7843,209.313)">
          <path d="M 0,0 H 5.986" style="fill:none;stroke:#1d1d1b;stroke-width:1.984;stroke-linecap:butt;stroke-linejoin:miter;stroke-miterlimit:22.926;stroke-dasharray:none;stroke-opacity:1" id="path1452"></path>
        </g>
        <g id="g1454" transform="translate(107.6379,212.6431)">
          <path d="M 0,0 H 5.985" style="fill:none;stroke:#1d1d1b;stroke-width:1.984;stroke-linecap:round;stroke-linejoin:miter;stroke-miterlimit:22.926;stroke-dasharray:none;stroke-opacity:1" id="path1456"></path>
        </g>
        <g id="g1458" transform="translate(93.2594,120.9337)">
          <path d="M 0,0 C 1.511,1.33 3.941,1.02 5.36,-0.649 6.75,-2.289 6.58,-4.73 5.021,-6.039 3.461,-7.369 1,-7.06 -0.39,-5.409 -1.699,-3.739 -1.609,-1.299 0,0 1.511,1.33 3.941,1.02 5.36,-0.649" style="fill:none;stroke:#1d1d1b;stroke-width:1.984;stroke-linecap:butt;stroke-linejoin:miter;stroke-miterlimit:22.926;stroke-dasharray:none;stroke-opacity:1" id="path1460"></path>
        </g>
        <g id="g1462" transform="translate(94.57,121.6144)">
          <path d="M 0,0 0.65,-2.46" style="fill:none;stroke:#1d1d1b;stroke-width:0.794;stroke-linecap:butt;stroke-linejoin:miter;stroke-miterlimit:22.926;stroke-dasharray:none;stroke-opacity:1" id="path1464"></path>
        </g>
        <g id="g1466" transform="translate(99.3297,118.9845)">
          <path d="M 0,0 -2.44,-0.801" style="fill:none;stroke:#1d1d1b;stroke-width:0.794;stroke-linecap:butt;stroke-linejoin:miter;stroke-miterlimit:22.926;stroke-dasharray:none;stroke-opacity:1" id="path1468"></path>
        </g>
        <g id="g1470" transform="translate(96.9499,114.1954)">
          <path d="M 0,0 -0.74,2.43" style="fill:none;stroke:#1d1d1b;stroke-width:0.794;stroke-linecap:butt;stroke-linejoin:miter;stroke-miterlimit:22.926;stroke-dasharray:none;stroke-opacity:1" id="path1472"></path>
        </g>
        <g id="g1474" transform="translate(92.1305,116.8243)">
          <path d="M 0,0 2.379,0.851" style="fill:none;stroke:#1d1d1b;stroke-width:0.794;stroke-linecap:butt;stroke-linejoin:miter;stroke-miterlimit:22.926;stroke-dasharray:none;stroke-opacity:1" id="path1476"></path>
        </g>
        <g id="g1478" transform="translate(71.1135,204.0269)">
          <path d="m 0,0 c -4.25,0.274 -8.331,5.813 -8.147,9.718 0.288,6.12 6.48,7.272 9.503,7.633 3.025,0.359 8.353,0.431 10.225,-2.449 1.685,-2.592 2.904,-7.871 -0.075,-14.729" style="fill:none;stroke:#1d1d1b;stroke-width:1.984;stroke-linecap:butt;stroke-linejoin:miter;stroke-miterlimit:22.926;stroke-dasharray:none;stroke-opacity:1" id="path1480"></path>
        </g>
        <g id="g1482" transform="translate(68.0138,208.3482)">
          <path d="M 0,0 -1.852,-1.818" style="fill:none;stroke:#1d1d1b;stroke-width:0.68;stroke-linecap:butt;stroke-linejoin:miter;stroke-miterlimit:22.926;stroke-dasharray:none;stroke-opacity:1" id="path1484"></path>
        </g>
        <g id="g1486" transform="translate(66.8996,210.6451)">
          <path d="M 0,0 -2.955,-1.375" style="fill:none;stroke:#1d1d1b;stroke-width:0.68;stroke-linecap:butt;stroke-linejoin:miter;stroke-miterlimit:22.926;stroke-dasharray:none;stroke-opacity:1" id="path1488"></path>
        </g>
        <g id="g1490" transform="translate(66.3507,213.0972)">
          <path d="M 0,0 -3.24,0.432" style="fill:none;stroke:#1d1d1b;stroke-width:0.68;stroke-linecap:butt;stroke-linejoin:miter;stroke-miterlimit:22.926;stroke-dasharray:none;stroke-opacity:1" id="path1492"></path>
        </g>
        <g id="g1494" transform="translate(67.5744,215.2574)">
          <path d="M 0,0 -3.097,3.096" style="fill:none;stroke:#1d1d1b;stroke-width:0.68;stroke-linecap:butt;stroke-linejoin:miter;stroke-miterlimit:22.926;stroke-dasharray:none;stroke-opacity:1" id="path1496"></path>
        </g>
        <g id="g1498" transform="translate(70.4543,216.9126)">
          <path d="M 0,0 -1.656,4.032" style="fill:none;stroke:#1d1d1b;stroke-width:0.68;stroke-linecap:butt;stroke-linejoin:miter;stroke-miterlimit:22.926;stroke-dasharray:none;stroke-opacity:1" id="path1500"></path>
        </g>
        <g id="g1502" transform="translate(73.6946,217.5611)">
          <path d="M 0,0 -0.288,4.176" style="fill:none;stroke:#1d1d1b;stroke-width:0.794;stroke-linecap:butt;stroke-linejoin:miter;stroke-miterlimit:22.926;stroke-dasharray:none;stroke-opacity:1" id="path1504"></path>
        </g>
        <g id="g1506" transform="translate(77.0783,216.9126)">
          <path d="M 0,0 1.368,4.465" style="fill:none;stroke:#1d1d1b;stroke-width:0.68;stroke-linecap:butt;stroke-linejoin:miter;stroke-miterlimit:22.926;stroke-dasharray:none;stroke-opacity:1" id="path1508"></path>
        </g>
        <g id="g1510" transform="translate(79.1662,215.4009)">
          <path d="M 0,0 3.744,2.809" style="fill:none;stroke:#1d1d1b;stroke-width:0.68;stroke-linecap:butt;stroke-linejoin:miter;stroke-miterlimit:22.926;stroke-dasharray:none;stroke-opacity:1" id="path1512"></path>
        </g>
        <g id="g1514" transform="translate(80.4621,213.3853)">
          <path d="M 0,0 3.96,0.648" style="fill:none;stroke:#1d1d1b;stroke-width:0.68;stroke-linecap:butt;stroke-linejoin:miter;stroke-miterlimit:22.926;stroke-dasharray:none;stroke-opacity:1" id="path1516"></path>
        </g>
        <g id="g1518" transform="translate(81.5187,210.2349)">
          <path d="M 0,0 2.615,-0.234" style="fill:none;stroke:#1d1d1b;stroke-width:0.68;stroke-linecap:butt;stroke-linejoin:miter;stroke-miterlimit:22.926;stroke-dasharray:none;stroke-opacity:1" id="path1520"></path>
        </g>
        <g id="g1522" transform="translate(81.2531,206.9429)">
          <path d="M 0,0 2.232,-0.614" style="fill:none;stroke:#1d1d1b;stroke-width:0.68;stroke-linecap:butt;stroke-linejoin:miter;stroke-miterlimit:22.926;stroke-dasharray:none;stroke-opacity:1" id="path1524"></path>
        </g>
        <g id="g1526" transform="translate(70.4494,206.2642)">
          <path d="M 0,0 -0.821,-2.221" style="fill:none;stroke:#1d1d1b;stroke-width:0.68;stroke-linecap:butt;stroke-linejoin:miter;stroke-miterlimit:22.926;stroke-dasharray:none;stroke-opacity:1" id="path1528"></path>
        </g>
      </g>
      <text transform="matrix(1,0,0,-1,47.8852,189.2085)" style="font-variant:normal;font-weight:normal;font-stretch:semi-condensed;font-size:7px;font-family:'Arial Narrow';-inkscape-font-specification:ArialNarrow;writing-mode:lr-tb;fill:#e30613;fill-opacity:1;fill-rule:nonzero;stroke:none" id="text1532">
        <tspan x="0 4.7810001 6.0549998 9.2469997 10.843 12.439 15.631 17.226999 20.419001 22.014999 23.926001 28.392 33.173 35.084 43.931999 48.713001 49.987 53.179001 54.775002 56.370998 59.563 61.159 64.350998 65.946999 67.858002 72.323997 77.105003 79.015999" y="0" sodipodi:role="line" id="tspan1530">min. 0.6 (OM) min. 0.7 (OM)</tspan>
      </text>
      <g id="g1534">
        <g id="g1536" clip-path="url(#clipPath1540)">
          <text transform="matrix(1,0,0,-1,47.2138,225.293)" style="font-variant:normal;font-weight:normal;font-stretch:semi-condensed;font-size:7px;font-family:'Arial Narrow';-inkscape-font-specification:ArialNarrow;writing-mode:lr-tb;fill:#e30613;fill-opacity:1;fill-rule:nonzero;stroke:none" id="text1544">
            <tspan x="0 3.1919999 4.7880001 7.98" y="0" sodipodi:role="line" id="tspan1542">0.35</tspan>
          </text>
        </g>
      </g>
      <text transform="matrix(1,0,0,-1,49.5849,216.5454)" style="font-variant:normal;font-weight:normal;font-stretch:semi-condensed;font-size:7px;font-family:'Arial Narrow';-inkscape-font-specification:ArialNarrow;writing-mode:lr-tb;fill:#e30613;fill-opacity:1;fill-rule:nonzero;stroke:none" id="text1548">
        <tspan x="0 3.1919999 4.7880001 7.98" y="0" sodipodi:role="line" id="tspan1546">0.12</tspan>
      </text>
      <g id="g1550" transform="translate(59.6144,228.481)">
        <path d="M 0,0 H 5.112" style="fill:none;stroke:#e30613;stroke-width:0.283;stroke-linecap:butt;stroke-linejoin:miter;stroke-miterlimit:22.926;stroke-dasharray:none;stroke-opacity:1" id="path1552"></path>
      </g>
      <g id="g1554" transform="translate(62.2205,185.2131)">
        <path d="M 0,0 V 2.835" style="fill:none;stroke:#e30613;stroke-width:0.283;stroke-linecap:butt;stroke-linejoin:miter;stroke-miterlimit:22.926;stroke-dasharray:none;stroke-opacity:1" id="path1556"></path>
      </g>
      <g id="g1558" transform="translate(104.9471,185.2131)">
        <path d="M 0,0 V 2.835" style="fill:none;stroke:#e30613;stroke-width:0.283;stroke-linecap:butt;stroke-linejoin:miter;stroke-miterlimit:22.926;stroke-dasharray:none;stroke-opacity:1" id="path1560"></path>
      </g>
      <g id="g1562" transform="translate(66.1678,185.2131)">
        <path d="M 0,0 V 2.835" style="fill:none;stroke:#e30613;stroke-width:0.283;stroke-linecap:butt;stroke-linejoin:miter;stroke-miterlimit:22.926;stroke-dasharray:none;stroke-opacity:1" id="path1564"></path>
      </g>
      <g id="g1566" transform="translate(110.8768,185.2131)">
        <path d="M 0,0 V 2.835" style="fill:none;stroke:#e30613;stroke-width:0.283;stroke-linecap:butt;stroke-linejoin:miter;stroke-miterlimit:22.926;stroke-dasharray:none;stroke-opacity:1" id="path1568"></path>
      </g>
      <g id="g1570" transform="translate(61.2786,221.6187)">
        <path d="M 0,0 5.691,3.378" style="fill:none;stroke:#e30613;stroke-width:0.283;stroke-linecap:butt;stroke-linejoin:miter;stroke-miterlimit:22.926;stroke-dasharray:none;stroke-opacity:1" id="path1572"></path>
      </g>
      <text transform="matrix(1,0,0,-1,85.8017,215.2954)" style="font-variant:normal;font-weight:normal;font-stretch:semi-condensed;font-size:7px;font-family:'Arial Narrow';-inkscape-font-specification:ArialNarrow;writing-mode:lr-tb;fill:#e30613;fill-opacity:1;fill-rule:nonzero;stroke:none" id="text1576">
        <tspan x="0 3.1919999 4.7880001 7.98 9.5760002 11.487 15.631 19.775" y="0" sodipodi:role="line" id="tspan1574">0.5 (CC)</tspan>
      </text>
      <g id="g1578" transform="translate(94.4582,221.5822)">
        <path d="M 0,0 V 2.835" style="fill:none;stroke:#e30613;stroke-width:0.283;stroke-linecap:butt;stroke-linejoin:miter;stroke-miterlimit:22.926;stroke-dasharray:none;stroke-opacity:1" id="path1580"></path>
      </g>
      <g id="g1582" transform="translate(97.8371,221.5822)">
        <path d="M 0,0 V 2.835" style="fill:none;stroke:#e30613;stroke-width:0.283;stroke-linecap:butt;stroke-linejoin:miter;stroke-miterlimit:22.926;stroke-dasharray:none;stroke-opacity:1" id="path1584"></path>
      </g>
      <g id="g1586">
        <g id="g1588" clip-path="url(#clipPath1592)">
          <text transform="matrix(1,0,0,-1,107.0707,224.6123)" style="font-variant:normal;font-weight:normal;font-stretch:semi-condensed;font-size:7px;font-family:'Arial Narrow';-inkscape-font-specification:ArialNarrow;writing-mode:lr-tb;fill:#e30613;fill-opacity:1;fill-rule:nonzero;stroke:none" id="text1596">
            <tspan x="0 3.1919999 4.7880001" y="0" sodipodi:role="line" id="tspan1594">0.4</tspan>
          </text>
        </g>
      </g>
      <g id="g1598" transform="translate(101.4023,227.522)">
        <path d="M 0,0 H 4.252" style="fill:none;stroke:#e30613;stroke-width:0.283;stroke-linecap:butt;stroke-linejoin:miter;stroke-miterlimit:22.926;stroke-dasharray:none;stroke-opacity:1" id="path1600"></path>
      </g>
      <g id="g1602" transform="translate(101.4023,225.022)">
        <path d="M 0,0 H 4.252" style="fill:none;stroke:#e30613;stroke-width:0.283;stroke-linecap:butt;stroke-linejoin:miter;stroke-miterlimit:22.926;stroke-dasharray:none;stroke-opacity:1" id="path1604"></path>
      </g>
      <g id="g1606">
        <g id="g1608" clip-path="url(#clipPath1612)">
          <g id="g1614" transform="translate(45.418,197.2838)">
            <path d="M 0,0 H 85.039 V -22.677 H 0 Z" style="fill:none;stroke:#312783;stroke-width:1.134;stroke-linecap:butt;stroke-linejoin:miter;stroke-miterlimit:22.926;stroke-dasharray:none;stroke-opacity:1" id="path1616"></path>
          </g>
          <g id="g1618" transform="translate(69.512,124.9998)">
            <path d="M 0,0 H 36.85 V -14.173 H 0 Z" style="fill:none;stroke:#312783;stroke-width:1.134;stroke-linecap:butt;stroke-linejoin:miter;stroke-miterlimit:22.926;stroke-dasharray:none;stroke-opacity:1" id="path1620"></path>
          </g>
        </g>
      </g>
      <text transform="matrix(1,0,0,-1,75.4286,115.647)" style="font-variant:normal;font-weight:normal;font-stretch:semi-condensed;font-size:7px;font-family:'Arial Narrow';-inkscape-font-specification:ArialNarrow;writing-mode:lr-tb;fill:#e30613;fill-opacity:1;fill-rule:nonzero;stroke:none" id="text1624">
        <tspan x="0 4.7810001 6.0549998 9.2469997" y="0" sodipodi:role="line" id="tspan1622">min.</tspan>
      </text>
    </g>
  </g>
</svg>
