<?xml version="1.0" encoding="UTF-8" standalone="no"?>
<svg xmlns:inkscape="http://www.inkscape.org/namespaces/inkscape" xmlns:sodipodi="http://sodipodi.sourceforge.net/DTD/sodipodi-0.dtd" xmlns="http://www.w3.org/2000/svg" xmlns:svg="http://www.w3.org/2000/svg" version="1.1" id="svg9" width="52.492134" height="35.091202" viewBox="0 0 52.492134 35.091202" sodipodi:docname="ISOM 203.2 Dangerous pit.svg" inkscape:version="1.2.2 (732a01da63, 2022-12-09)">
  <defs id="defs13">
    <clipPath id="clipPath25">
      <path d="M 0,26.318 H 39.369 V 0 H 0 Z" id="path23"></path>
    </clipPath>
  </defs>
  <g id="g17" inkscape:groupmode="layer" inkscape:label="Page 1" transform="matrix(1.3333333,0,0,-1.3333333,0,35.0912)">
    <g id="g19">
      <g id="g21" clip-path="url(#clipPath25)">
        <g id="g27" transform="translate(5.8344,6.6186)">
          <path d="m 0,0 c 0,-0.861 -0.698,-1.559 -1.559,-1.559 -0.861,0 -1.559,0.698 -1.559,1.559 0,0.861 0.698,1.559 1.559,1.559 C -0.698,1.559 0,0.861 0,0 Z" style="fill:none;stroke:#1d1d1b;stroke-width:1.984;stroke-linecap:butt;stroke-linejoin:miter;stroke-miterlimit:10;stroke-dasharray:none;stroke-opacity:1" id="path29"></path>
        </g>
        <text xml:space="preserve" transform="matrix(1,0,0,-1,28.1958,2.1465)" style="font-variant:normal;font-weight:normal;font-stretch:semi-condensed;font-size:7px;font-family:'Arial Narrow';-inkscape-font-specification:ArialNarrow;writing-mode:lr-tb;fill:#e30613;fill-opacity:1;fill-rule:nonzero;stroke:none" id="text35">
          <tspan x="0 3.1919999 4.7880001 7.98" y="0" sodipodi:role="line" id="tspan31">0.35</tspan>
          <tspan x="-28.195999 -25.004 -23.408001 -20.216 -18.620001 -16.709 -12.243 -7.4619999 -5.5510001" y="-18.165001" sodipodi:role="line" id="tspan33">0.9 (OM) </tspan>
        </text>
        <g id="g37" transform="translate(1.7242,13.6454)">
          <path d="M 0,0 V 4.252" style="fill:none;stroke:#e30613;stroke-width:0.19;stroke-linecap:butt;stroke-linejoin:miter;stroke-miterlimit:22.926;stroke-dasharray:none;stroke-opacity:1" id="path39"></path>
        </g>
        <g id="g41" transform="translate(6.8266,13.6454)">
          <path d="M 0,0 V 4.252" style="fill:none;stroke:#e30613;stroke-width:0.19;stroke-linecap:butt;stroke-linejoin:miter;stroke-miterlimit:22.926;stroke-dasharray:none;stroke-opacity:1" id="path43"></path>
        </g>
      </g>
    </g>
  </g>
</svg>
