<?xml version="1.0" encoding="UTF-8" standalone="no"?>
<!-- Created with Inkscape (http://www.inkscape.org/) -->

<svg
   width="20.5mm"
   height="15.5mm"
   viewBox="0 0 20.5 15.5"
   version="1.1"
   id="svg7022"
   inkscape:version="1.1.1 (3bf5ae0d25, 2021-09-20)"
   sodipodi:docname="ISOM 204 Boulder.svg"
   xmlns:inkscape="http://www.inkscape.org/namespaces/inkscape"
   xmlns:sodipodi="http://sodipodi.sourceforge.net/DTD/sodipodi-0.dtd"
   xmlns="http://www.w3.org/2000/svg"
   xmlns:svg="http://www.w3.org/2000/svg">
  <sodipodi:namedview
     id="namedview7024"
     pagecolor="#ffffff"
     bordercolor="#666666"
     borderopacity="1.0"
     inkscape:pageshadow="2"
     inkscape:pageopacity="0.0"
     inkscape:pagecheckerboard="true"
     inkscape:document-units="mm"
     showgrid="false"
     inkscape:zoom="3.6233469"
     inkscape:cx="103.35748"
     inkscape:cy="66.927073"
     inkscape:window-width="1920"
     inkscape:window-height="1017"
     inkscape:window-x="-8"
     inkscape:window-y="-8"
     inkscape:window-maximized="1"
     inkscape:current-layer="layer1" />
  <defs
     id="defs7019">
    <clipPath
       clipPathUnits="userSpaceOnUse"
       id="clipPath7040">
      <path
         d="M 0,38.835 H 52.158 V 0 H 0 Z"
         id="path7038" />
    </clipPath>
    <clipPath
       clipPathUnits="userSpaceOnUse"
       id="clipPath7082">
      <path
         d="M 0,38.835 H 52.158 V 0 H 0 Z"
         id="path7080" />
    </clipPath>
  </defs>
  <g
     inkscape:label="Ebene 1"
     inkscape:groupmode="layer"
     id="layer1">
    <g
       id="g7032"
       inkscape:label="ISOM 204 Boulder"
       transform="matrix(0.35277777,0,0,-0.35277777,1.0499085,14.427969)">
      <g
         id="g7034">
        <g
           id="g7036"
           clip-path="url(#clipPath7040)">
          <g
             id="g7042"
             transform="translate(14.671,33.9863)">
            <path
               d="m 0,0 c -0.626,0 -1.134,0.509 -1.134,1.134 0,0.627 0.508,1.135 1.134,1.135 0.626,0 1.134,-0.508 1.134,-1.135 C 1.134,0.509 0.626,0 0,0"
               style="fill:#1d1d1b;fill-opacity:1;fill-rule:evenodd;stroke:none"
               id="path7044" />
          </g>
          <g
             id="g7046"
             transform="translate(29.1222,12.0018)">
            <path
               d="M 0,0 C -0.783,0 -1.418,0.635 -1.418,1.418 -1.418,2.2 -0.783,2.836 0,2.836 0.783,2.836 1.416,2.2 1.416,1.418 1.416,0.635 0.783,0 0,0"
               style="fill:#1d1d1b;fill-opacity:1;fill-rule:evenodd;stroke:none"
               id="path7048" />
          </g>
          <g
             id="g7050"
             transform="translate(17.7833,12.285)">
            <path
               d="m 0,0 c -0.626,0 -1.134,0.509 -1.134,1.135 0,0.626 0.508,1.134 1.134,1.134 0.626,0 1.134,-0.508 1.134,-1.134 C 1.134,0.509 0.626,0 0,0"
               style="fill:#1d1d1b;fill-opacity:1;fill-rule:evenodd;stroke:none"
               id="path7052" />
          </g>
          <text
             transform="matrix(1,0,0,-1,29.4282,32.8281)"
             style="font-variant:normal;font-weight:normal;font-stretch:normal;font-size:7px;font-family:Arial;-inkscape-font-specification:ArialMT;writing-mode:lr-tb;fill:#e30613;fill-opacity:1;fill-rule:nonzero;stroke:none"
             id="text7056"><tspan
               x="0"
               y="0"
               id="tspan7054">ø</tspan></text>
          <text
             transform="matrix(1,0,0,-1,35.3012,32.8281)"
             style="font-variant:normal;font-weight:normal;font-stretch:semi-condensed;font-size:7px;font-family:'Arial Narrow';-inkscape-font-specification:ArialNarrow;writing-mode:lr-tb;fill:#e30613;fill-opacity:1;fill-rule:nonzero;stroke:none"
             id="text7060"><tspan
               x="0 3.1919999 4.7880001"
               y="0"
               sodipodi:role="line"
               id="tspan7058">0.4</tspan></text>
        </g>
      </g>
      <text
         transform="matrix(1,0,0,-1,28.0552,5.2412)"
         style="font-variant:normal;font-weight:normal;font-stretch:semi-condensed;font-size:7px;font-family:'Arial Narrow';-inkscape-font-specification:ArialNarrow;writing-mode:lr-tb;fill:#e30613;fill-opacity:1;fill-rule:nonzero;stroke:none"
         id="text7064"><tspan
           x="0"
           y="0"
           id="tspan7062">(</tspan></text>
      <text
         transform="matrix(1,0,0,-1,29.9662,5.2412)"
         style="font-variant:normal;font-weight:normal;font-stretch:normal;font-size:7px;font-family:Arial;-inkscape-font-specification:ArialMT;writing-mode:lr-tb;fill:#e30613;fill-opacity:1;fill-rule:nonzero;stroke:none"
         id="text7068"><tspan
           x="0"
           y="0"
           id="tspan7066">ø</tspan></text>
      <text
         transform="matrix(1,0,0,-1,35.8392,5.2412)"
         style="font-variant:normal;font-weight:normal;font-stretch:semi-condensed;font-size:7px;font-family:'Arial Narrow';-inkscape-font-specification:ArialNarrow;writing-mode:lr-tb;fill:#e30613;fill-opacity:1;fill-rule:nonzero;stroke:none"
         id="text7074"><tspan
           x="0 3.1919999 4.7880001 7.98"
           y="0"
           sodipodi:role="line"
           id="tspan7070">0.5)</tspan><tspan
           x="-29.414 -24.632999 -21.441 -18.570999 -16.975 -15.379 -12.187 -10.591 -7.3990002 -5.803 -3.892 0.252 4.3959999"
           y="-12.432"
           sodipodi:role="line"
           id="tspan7072">max. 2.0 (CC)</tspan></text>
      <g
         id="g7076">
        <g
           id="g7078"
           clip-path="url(#clipPath7082)">
          <g
             id="g7084"
             transform="translate(29.1222,13.4198)">
            <path
               d="M 0,0 H -11.34"
               style="fill:none;stroke:#e30613;stroke-width:0.283;stroke-linecap:butt;stroke-linejoin:miter;stroke-miterlimit:22.926;stroke-dasharray:none;stroke-opacity:1"
               id="path7086" />
          </g>
          <path
             d="M 0.567,26.079 H 51.591 V 0.567 H 0.567 Z"
             style="fill:none;stroke:#312783;stroke-width:1.134;stroke-linecap:butt;stroke-linejoin:miter;stroke-miterlimit:22.926;stroke-dasharray:none;stroke-opacity:1"
             id="path7088" />
        </g>
      </g>
    </g>
  </g>
</svg>
