<?xml version="1.0" encoding="UTF-8" standalone="no"?>
<!-- Created with Inkscape (http://www.inkscape.org/) -->

<svg
   width="20.5mm"
   height="15.5mm"
   viewBox="0 0 20.5 15.5"
   version="1.1"
   id="svg7155"
   inkscape:version="1.1.1 (3bf5ae0d25, 2021-09-20)"
   sodipodi:docname="ISOM 205 Large boulder.svg"
   xmlns:inkscape="http://www.inkscape.org/namespaces/inkscape"
   xmlns:sodipodi="http://sodipodi.sourceforge.net/DTD/sodipodi-0.dtd"
   xmlns="http://www.w3.org/2000/svg"
   xmlns:svg="http://www.w3.org/2000/svg">
  <sodipodi:namedview
     id="namedview7157"
     pagecolor="#ffffff"
     bordercolor="#666666"
     borderopacity="1.0"
     inkscape:pageshadow="2"
     inkscape:pageopacity="0.0"
     inkscape:pagecheckerboard="true"
     inkscape:document-units="mm"
     showgrid="false"
     inkscape:zoom="2.5620932"
     inkscape:cx="113.38386"
     inkscape:cy="89.184892"
     inkscape:window-width="1920"
     inkscape:window-height="1017"
     inkscape:window-x="-8"
     inkscape:window-y="-8"
     inkscape:window-maximized="1"
     inkscape:current-layer="layer1" />
  <defs
     id="defs7152">
    <clipPath
       clipPathUnits="userSpaceOnUse"
       id="clipPath7173">
      <path
         d="M 0,38.835 H 52.158 V 0 H 0 Z"
         id="path7171" />
    </clipPath>
    <clipPath
       clipPathUnits="userSpaceOnUse"
       id="clipPath7215">
      <path
         d="M 0,38.835 H 52.158 V 0 H 0 Z"
         id="path7213" />
    </clipPath>
  </defs>
  <g
     inkscape:label="Ebene 1"
     inkscape:groupmode="layer"
     id="layer1">
    <g
       id="g7165"
       inkscape:label="ISOM 205 Large boulder"
       transform="matrix(0.35277777,0,0,-0.35277777,1.0499085,14.42788)">
      <g
         id="g7167">
        <g
           id="g7169"
           clip-path="url(#clipPath7173)">
          <g
             id="g7175"
             transform="translate(14.671,32.5344)">
            <path
               d="M 0,0 C -0.939,0 -1.701,0.76 -1.701,1.699 -1.701,2.639 -0.939,3.4 0,3.4 0.939,3.4 1.701,2.639 1.701,1.699 1.701,0.76 0.939,0 0,0"
               style="fill:#1d1d1b;fill-opacity:1;fill-rule:evenodd;stroke:none"
               id="path7177" />
          </g>
          <g
             id="g7179"
             transform="translate(29.1222,12.0025)">
            <path
               d="m 0,0 c -0.783,0 -1.418,0.635 -1.418,1.418 0,0.783 0.635,1.418 1.418,1.418 0.783,0 1.416,-0.635 1.416,-1.418 C 1.416,0.635 0.783,0 0,0"
               style="fill:#1d1d1b;fill-opacity:1;fill-rule:evenodd;stroke:none"
               id="path7181" />
          </g>
          <g
             id="g7183"
             transform="translate(17.7833,11.7193)">
            <path
               d="M 0,0 C -0.938,0 -1.701,0.762 -1.701,1.701 -1.701,2.641 -0.938,3.4 0,3.4 0.938,3.4 1.701,2.641 1.701,1.701 1.701,0.762 0.938,0 0,0"
               style="fill:#1d1d1b;fill-opacity:1;fill-rule:evenodd;stroke:none"
               id="path7185" />
          </g>
          <text
             transform="matrix(1,0,0,-1,30.1274,32.8276)"
             style="font-variant:normal;font-weight:normal;font-stretch:normal;font-size:7px;font-family:Arial;-inkscape-font-specification:ArialMT;writing-mode:lr-tb;fill:#e30613;fill-opacity:1;fill-rule:nonzero;stroke:none"
             id="text7189"><tspan
               x="0"
               y="0"
               id="tspan7187">ø</tspan></text>
          <text
             transform="matrix(1,0,0,-1,36.0004,32.8276)"
             style="font-variant:normal;font-weight:normal;font-stretch:semi-condensed;font-size:7px;font-family:'Arial Narrow';-inkscape-font-specification:ArialNarrow;writing-mode:lr-tb;fill:#e30613;fill-opacity:1;fill-rule:nonzero;stroke:none"
             id="text7193"><tspan
               x="0 3.1919999 4.7880001"
               y="0"
               sodipodi:role="line"
               id="tspan7191">0.6</tspan></text>
        </g>
      </g>
      <text
         transform="matrix(1,0,0,-1,28.0552,5.2407)"
         style="font-variant:normal;font-weight:normal;font-stretch:semi-condensed;font-size:7px;font-family:'Arial Narrow';-inkscape-font-specification:ArialNarrow;writing-mode:lr-tb;fill:#e30613;fill-opacity:1;fill-rule:nonzero;stroke:none"
         id="text7197"><tspan
           x="0"
           y="0"
           id="tspan7195">(</tspan></text>
      <text
         transform="matrix(1,0,0,-1,29.9662,5.2407)"
         style="font-variant:normal;font-weight:normal;font-stretch:normal;font-size:7px;font-family:Arial;-inkscape-font-specification:ArialMT;writing-mode:lr-tb;fill:#e30613;fill-opacity:1;fill-rule:nonzero;stroke:none"
         id="text7201"><tspan
           x="0"
           y="0"
           id="tspan7199">ø</tspan></text>
      <text
         transform="matrix(1,0,0,-1,35.8392,5.2407)"
         style="font-variant:normal;font-weight:normal;font-stretch:semi-condensed;font-size:7px;font-family:'Arial Narrow';-inkscape-font-specification:ArialNarrow;writing-mode:lr-tb;fill:#e30613;fill-opacity:1;fill-rule:nonzero;stroke:none"
         id="text7207"><tspan
           x="0 3.1919999 4.7880001 7.98"
           y="0"
           sodipodi:role="line"
           id="tspan7203">0.5)</tspan><tspan
           x="-29.414 -24.632999 -21.441 -18.570999 -16.975 -15.379 -12.187 -10.591 -7.3990002 -5.803 -3.892 0.252 4.3959999"
           y="-12.432"
           sodipodi:role="line"
           id="tspan7205">max. 2.0 (CC)</tspan></text>
      <g
         id="g7209">
        <g
           id="g7211"
           clip-path="url(#clipPath7215)">
          <path
             d="M 0.567,26.079 H 51.591 V 0.567 H 0.567 Z"
             style="fill:none;stroke:#312783;stroke-width:1.134;stroke-linecap:butt;stroke-linejoin:miter;stroke-miterlimit:22.926;stroke-dasharray:none;stroke-opacity:1"
             id="path7217" />
          <g
             id="g7219"
             transform="translate(29.1222,13.4205)">
            <path
               d="M 0,0 H -11.34"
               style="fill:none;stroke:#e30613;stroke-width:0.283;stroke-linecap:butt;stroke-linejoin:miter;stroke-miterlimit:22.926;stroke-dasharray:none;stroke-opacity:1"
               id="path7221" />
          </g>
        </g>
      </g>
    </g>
  </g>
</svg>
