<?xml version="1.0" encoding="UTF-8" standalone="no"?>
<svg xmlns:inkscape="http://www.inkscape.org/namespaces/inkscape" xmlns:sodipodi="http://sodipodi.sourceforge.net/DTD/sodipodi-0.dtd" xmlns="http://www.w3.org/2000/svg" xmlns:svg="http://www.w3.org/2000/svg" width="26mm" height="18mm" viewBox="0 0 26 18" version="1.1" id="svg6009" inkscape:version="1.1.1 (3bf5ae0d25, 2021-09-20)" sodipodi:docname="ISOM-206-Gigantic-boulder-or-rock-pillar.svg">
  <defs id="defs6006">
    <clipPath id="clipPath5584">
      <path d="m 46.913,510.924 h 69.084 V 550.26 H 46.913 Z" id="path5582"></path>
    </clipPath>
  </defs>
  <g inkscape:label="Layer 1" inkscape:groupmode="layer" id="layer1">
    <g id="g5969" transform="matrix(0.35277777,0,0,-0.35277777,-15.92313,195.88067)">
      <g id="g5578">
        <g id="g5580" clip-path="url(#clipPath5584)">
          <g id="g5586" transform="translate(61.2505,534.0472)">
            <path d="m 0,0 c 2.487,-0.474 6.313,-2.832 10.341,-2.476 4.027,0.355 4.857,1.302 7.462,3.908 2.606,2.606 2.132,2.843 3.079,4.028 0.948,1.184 3.791,2.842 5.212,0.829 1.421,-2.014 2.607,-4.62 4.62,-5.448 2.012,-0.829 3.317,-0.356 4.146,0.828 0.828,1.185 -0.357,3.08 2.25,3.08 2.606,0 2.961,-2.131 5.804,-2.488 2.843,-0.355 8.648,1.276 11.49,3.408" style="fill:none;stroke:#d07500;stroke-width:1.144;stroke-linecap:butt;stroke-linejoin:miter;stroke-miterlimit:22.926;stroke-dasharray:none;stroke-opacity:1" id="path5588"></path>
          </g>
          <g id="g5590" transform="translate(81.529,539.6606)">
            <path d="m 0,0 c 0,0 0.139,-2.628 -1.522,-5.049 -1.66,-2.421 -3.043,-3.112 -4.495,-3.25 -1.452,-0.139 -2.283,0.069 -2.283,0.691 0,0.623 0.554,1.176 1.66,1.313 1.107,0.14 1.314,0.278 2.42,1.246 1.108,0.968 1.523,2.074 2.354,2.905 C -1.037,-1.314 0,0 0,0" style="fill:#1d1d1b;fill-opacity:1;fill-rule:evenodd;stroke:none" id="path5592"></path>
          </g>
          <g id="g5594" transform="translate(92.2493,532.5369)">
            <path d="m 0,0 c -1.661,1.245 -2.006,1.937 -1.452,2.904 0.553,0.969 1.037,0.9 2.005,0.831 C 1.522,3.666 2.351,3.389 3.043,4.911 3.735,6.432 4.081,7.193 4.565,7.055 5.049,6.916 5.602,6.017 5.326,4.841 5.049,3.666 4.911,2.49 4.081,1.107 3.251,-0.277 2.904,-0.484 1.798,-0.415 0.692,-0.346 0.276,-0.208 0,0" style="fill:#1d1d1b;fill-opacity:1;fill-rule:evenodd;stroke:none" id="path5596"></path>
          </g>
          <g id="g5598" transform="translate(61.2505,542.5677)">
            <path d="m 0,0 c 2.488,-0.474 6.787,-2.943 10.815,-2.588 4.026,0.355 4.855,1.302 7.461,3.909 2.606,2.605 2.133,2.842 3.08,4.027 0.948,1.184 3.791,2.842 5.212,0.83 1.422,-2.015 2.605,-4.621 4.62,-5.45 2.013,-0.828 3.315,-0.354 4.144,0.829 0.829,1.185 -0.354,3.08 2.252,3.08 2.605,0 2.961,-2.133 5.803,-2.488 2.843,-0.355 8.173,0.837 11.017,2.97" style="fill:none;stroke:#d07500;stroke-width:1.144;stroke-linecap:butt;stroke-linejoin:miter;stroke-miterlimit:22.926;stroke-dasharray:none;stroke-opacity:1" id="path5600"></path>
          </g>
          <g id="g5602" transform="translate(60.4259,523.4736)">
            <path d="m 0,0 c 2.488,-0.474 7.48,-0.915 11.507,-0.56 4.028,0.355 4.752,2.096 7.358,4.702 2.606,2.606 1.539,2.606 4.026,0.237 2.488,-2.368 2.37,-1.895 5.094,-0.71 2.724,1.184 2.013,1.895 5.094,0.947 3.079,-0.947 4.263,0.71 5.092,1.896 0.829,1.183 0.711,3.552 4.146,2.96 3.435,-0.591 1.184,-0.355 4.382,-0.236 3.198,0.118 3.846,-0.928 8.585,-0.572" style="fill:none;stroke:#d07500;stroke-width:1.144;stroke-linecap:butt;stroke-linejoin:miter;stroke-miterlimit:22.926;stroke-dasharray:none;stroke-opacity:1" id="path5604"></path>
          </g>
          <g id="g5606" transform="translate(81.8741,531.1888)">
            <path d="m 0,0 c 0,0 -0.345,-2.144 0.693,-3.804 1.037,-1.661 1.659,-2.075 3.319,-2.007 1.659,0.07 3.459,1.314 3.181,2.283 C 6.917,-2.56 6.155,-2.766 5.257,-2.905 4.358,-3.044 3.252,-3.666 2.559,-2.975 1.867,-2.282 1.384,-1.591 0.9,-1.107 0.417,-0.622 0,0 0,0" style="fill:#1d1d1b;fill-opacity:1;fill-rule:evenodd;stroke:none" id="path5608"></path>
          </g>
          <g id="g5610" transform="translate(103.5231,537.655)">
            <path d="M 0,0 C 1.245,1.729 2.697,2.006 3.458,1.382 4.219,0.761 4.98,0.346 5.74,-0.277 6.501,-0.9 7.261,-1.661 6.155,-2.282 5.049,-2.905 2.974,-3.112 1.452,-3.112 c -1.521,0 -2.559,-0.415 -2.559,0.414 0,0.831 0.345,1.661 1.107,2.698" style="fill:#1d1d1b;fill-opacity:1;fill-rule:evenodd;stroke:none" id="path5612"></path>
          </g>
          <g id="g5614" transform="translate(103.9743,510.924)">
            <path d="M 0,0 -2.82,11.276 3.445,15.661 11.589,11.903 8.3,3.133 Z" style="fill:#00111e;fill-opacity:1;fill-rule:nonzero;stroke:none" id="path5616"></path>
          </g>
          <text transform="matrix(1,0,0,-1,46.9134,525.3713)" style="font-variant:normal;font-weight:normal;font-stretch:semi-condensed;font-size:6.7241px;font-family:'Arial Narrow';-inkscape-font-specification:ArialNarrow;writing-mode:lr-tb;fill:#e30613;fill-opacity:1;fill-rule:nonzero;stroke:none" id="text5620">
            <tspan x="0 4.5925603 5.8163466 8.8825359 10.415631 11.948726 15.014915 16.54801 19.614201" y="0" sodipodi:role="line" id="tspan5618">min. 0.25</tspan>
          </text>
          <g id="g5622" transform="translate(73.9005,531.1888)">
            <path d="M 0,0 -3.055,-2.713" style="fill:none;stroke:#e30613;stroke-width:0.272;stroke-linecap:butt;stroke-linejoin:miter;stroke-miterlimit:22.926;stroke-dasharray:none;stroke-opacity:1" id="path5624"></path>
          </g>
          <g id="g5626" transform="translate(74.9858,529.9675)">
            <path d="M 0,0 -3.054,-2.712" style="fill:none;stroke:#e30613;stroke-width:0.272;stroke-linecap:butt;stroke-linejoin:miter;stroke-miterlimit:22.926;stroke-dasharray:none;stroke-opacity:1" id="path5628"></path>
          </g>
        </g>
      </g>
    </g>
  </g>
</svg>
