<?xml version="1.0" encoding="UTF-8" standalone="no"?>
<!-- Created with Inkscape (http://www.inkscape.org/) -->

<svg
   width="21mm"
   height="30mm"
   viewBox="0 0 21 30"
   version="1.1"
   id="svg7653"
   inkscape:version="1.1.1 (3bf5ae0d25, 2021-09-20)"
   sodipodi:docname="ISOM 208 Boulder field.svg"
   xmlns:inkscape="http://www.inkscape.org/namespaces/inkscape"
   xmlns:sodipodi="http://sodipodi.sourceforge.net/DTD/sodipodi-0.dtd"
   xmlns="http://www.w3.org/2000/svg"
   xmlns:svg="http://www.w3.org/2000/svg">
  <sodipodi:namedview
     id="namedview7655"
     pagecolor="#ffffff"
     bordercolor="#666666"
     borderopacity="1.0"
     inkscape:pageshadow="2"
     inkscape:pageopacity="0.0"
     inkscape:pagecheckerboard="true"
     inkscape:document-units="mm"
     showgrid="false"
     inkscape:zoom="5.1241863"
     inkscape:cx="53.569481"
     inkscape:cy="59.424069"
     inkscape:window-width="1920"
     inkscape:window-height="1017"
     inkscape:window-x="-8"
     inkscape:window-y="-8"
     inkscape:window-maximized="1"
     inkscape:current-layer="layer1" />
  <defs
     id="defs7650">
    <clipPath
       clipPathUnits="userSpaceOnUse"
       id="clipPath7671">
      <path
         d="M 0,79.936 H 53.36 V 0 H 0 Z"
         id="path7669" />
    </clipPath>
    <clipPath
       clipPathUnits="userSpaceOnUse"
       id="clipPath7767">
      <path
         d="M 0,79.936 H 53.36 V 0 H 0 Z"
         id="path7765" />
    </clipPath>
    <clipPath
       clipPathUnits="userSpaceOnUse"
       id="clipPath7783">
      <path
         d="M 0,79.936 H 53.36 V 0 H 0 Z"
         id="path7781" />
    </clipPath>
    <clipPath
       clipPathUnits="userSpaceOnUse"
       id="clipPath7819">
      <path
         d="M 0,79.936 H 53.36 V 0 H 0 Z"
         id="path7817" />
    </clipPath>
  </defs>
  <g
     inkscape:label="Ebene 1"
     inkscape:groupmode="layer"
     id="layer1">
    <g
       id="g7663"
       inkscape:label="ISOM 208 Boulder field"
       transform="matrix(0.35277777,0,0,-0.35277777,1.1488442,28.92801)">
      <g
         id="g7665">
        <g
           id="g7667"
           clip-path="url(#clipPath7671)">
          <g
             id="g7673"
             transform="translate(40.8813,9.9533)">
            <path
               d="M 0,0 C -0.243,0.197 -0.281,0.555 -0.084,0.797 0.112,1.041 0.47,1.078 0.713,0.883 0.956,0.686 0.994,0.328 0.797,0.084 0.601,-0.158 0.243,-0.197 0,0"
               style="fill:#1d1d1b;fill-opacity:1;fill-rule:evenodd;stroke:none"
               id="path7675" />
          </g>
          <g
             id="g7677"
             transform="translate(42.7007,8.506)">
            <path
               d="M 0,0 C -0.242,0.197 -0.28,0.553 -0.084,0.797 0.113,1.041 0.471,1.078 0.713,0.881 0.957,0.684 0.994,0.326 0.797,0.084 0.601,-0.16 0.244,-0.197 0,0"
               style="fill:#1d1d1b;fill-opacity:1;fill-rule:evenodd;stroke:none"
               id="path7679" />
          </g>
          <g
             id="g7681"
             transform="translate(44.6147,6.592)">
            <path
               d="M 0,0 C -0.243,0.197 -0.281,0.555 -0.084,0.797 0.113,1.041 0.47,1.078 0.713,0.883 0.956,0.686 0.994,0.326 0.797,0.084 0.6,-0.158 0.242,-0.197 0,0"
               style="fill:#1d1d1b;fill-opacity:1;fill-rule:evenodd;stroke:none"
               id="path7683" />
          </g>
          <g
             id="g7685"
             transform="translate(43.4097,4.6779)">
            <path
               d="M 0,0 C -0.242,0.197 -0.281,0.555 -0.084,0.797 0.113,1.041 0.471,1.078 0.713,0.883 0.956,0.686 0.994,0.328 0.797,0.084 0.6,-0.158 0.243,-0.197 0,0"
               style="fill:#1d1d1b;fill-opacity:1;fill-rule:evenodd;stroke:none"
               id="path7687" />
          </g>
          <g
             id="g7689"
             transform="translate(37.6694,7.1584)">
            <path
               d="M 0,0 C -0.242,0.197 -0.281,0.555 -0.084,0.797 0.112,1.041 0.471,1.078 0.713,0.883 0.956,0.686 0.994,0.328 0.797,0.084 0.6,-0.158 0.243,-0.197 0,0"
               style="fill:#1d1d1b;fill-opacity:1;fill-rule:evenodd;stroke:none"
               id="path7691" />
          </g>
          <g
             id="g7693"
             transform="translate(38.3784,5.3166)">
            <path
               d="M 0,0 C -0.243,0.197 -0.281,0.555 -0.084,0.797 0.113,1.041 0.47,1.078 0.713,0.881 0.956,0.686 0.994,0.326 0.797,0.084 0.6,-0.16 0.242,-0.197 0,0"
               style="fill:#1d1d1b;fill-opacity:1;fill-rule:evenodd;stroke:none"
               id="path7695" />
          </g>
          <g
             id="g7697"
             transform="translate(40.4487,4.1095)">
            <path
               d="M 0,0 C -0.242,0.197 -0.281,0.555 -0.084,0.797 0.113,1.041 0.471,1.078 0.713,0.883 0.956,0.686 0.994,0.326 0.797,0.084 0.6,-0.158 0.243,-0.197 0,0"
               style="fill:#1d1d1b;fill-opacity:1;fill-rule:evenodd;stroke:none"
               id="path7699" />
          </g>
          <g
             id="g7701"
             transform="translate(17.0309,68.821)">
            <path
               d="m 0,0 -2.152,1.678 2.061,2.97 z"
               style="fill:#1d1d1b;fill-opacity:1;fill-rule:evenodd;stroke:none"
               id="path7703" />
          </g>
          <g
             id="g7705"
             transform="translate(17.0055,68.9343)">
            <path
               d="M 0,0 -2.102,1.637 -0.09,4.535 Z"
               style="fill:#1d1d1b;fill-opacity:1;fill-rule:evenodd;stroke:none"
               id="path7707" />
          </g>
          <g
             id="g7709"
             transform="translate(17.0055,68.9343)">
            <path
               d="M 0,0 -2.102,1.637 -0.09,4.535 Z"
               style="fill:#1d1d1b;fill-opacity:1;fill-rule:evenodd;stroke:none"
               id="path7711" />
          </g>
          <g
             id="g7713"
             transform="translate(25.0778,55.3112)">
            <path
               d="m 0,0 -2.153,1.678 2.061,2.97 z"
               style="fill:#1d1d1b;fill-opacity:1;fill-rule:evenodd;stroke:none"
               id="path7715" />
          </g>
          <g
             id="g7717"
             transform="translate(27.1246,58.1628)">
            <path
               d="M 0,0 2.445,1.213 4.229,-1.932 Z"
               style="fill:#1d1d1b;fill-opacity:1;fill-rule:evenodd;stroke:none"
               id="path7719" />
          </g>
          <g
             id="g7721"
             transform="translate(26.692,52.5827)">
            <path
               d="m 0,0 0.16,-2.727 -3.592,-0.41 z"
               style="fill:#1d1d1b;fill-opacity:1;fill-rule:evenodd;stroke:none"
               id="path7723" />
          </g>
          <g
             id="g7725"
             transform="translate(40.0563,51.3542)">
            <path
               d="M 0,0 -2.723,-0.207 -3.195,3.377 Z"
               style="fill:#1d1d1b;fill-opacity:1;fill-rule:evenodd;stroke:none"
               id="path7727" />
          </g>
          <g
             id="g7729"
             transform="translate(27.6128,29.6818)">
            <path
               d="M 0,0 -2.093,-1.459 -3.996,1.484 Z"
               style="fill:#1d1d1b;fill-opacity:1;fill-rule:evenodd;stroke:none"
               id="path7731" />
          </g>
          <g
             id="g7733"
             transform="translate(33.5768,55.9753)">
            <path
               d="m 0,0 0.452,2.691 3.594,-0.4 z"
               style="fill:#1d1d1b;fill-opacity:1;fill-rule:evenodd;stroke:none"
               id="path7735" />
          </g>
          <g
             id="g7737"
             transform="translate(29.0563,52.1335)">
            <path
               d="m 0,0 2.178,1.645 2.336,-2.76 z"
               style="fill:#1d1d1b;fill-opacity:1;fill-rule:evenodd;stroke:none"
               id="path7739" />
          </g>
          <g
             id="g7741"
             transform="translate(19.3159,29.3634)">
            <path
               d="M 0,0 1.975,1.645 4.093,-1.117 Z"
               style="fill:#1d1d1b;fill-opacity:1;fill-rule:evenodd;stroke:none"
               id="path7743" />
          </g>
          <g
             id="g7745"
             transform="translate(18.1089,9.8634)">
            <path
               d="M 0,0 7.818,0.09"
               style="fill:none;stroke:#1d1d1b;stroke-width:1.984;stroke-linecap:butt;stroke-linejoin:miter;stroke-miterlimit:22.926;stroke-dasharray:none;stroke-opacity:1"
               id="path7747" />
          </g>
          <g
             id="g7749"
             transform="translate(19.5054,4.8986)">
            <path
               d="m 0,0 0.41,2.691 3.258,-0.4 z"
               style="fill:#1d1d1b;fill-opacity:1;fill-rule:evenodd;stroke:none"
               id="path7751" />
          </g>
          <g
             id="g7753"
             transform="translate(39.3804,8.4299)">
            <path
               d="M 0,0 2.465,0.264 2.961,-3.311 Z"
               style="fill:#1d1d1b;fill-opacity:1;fill-rule:evenodd;stroke:none"
               id="path7755" />
          </g>
        </g>
      </g>
      <text
         transform="matrix(1,0,0,-1,22.543,68.4492)"
         style="font-variant:normal;font-weight:normal;font-stretch:semi-condensed;font-size:7px;font-family:'Arial Narrow';-inkscape-font-specification:ArialNarrow;writing-mode:lr-tb;fill:#e30613;fill-opacity:1;fill-rule:nonzero;stroke:none"
         id="text7759"><tspan
           x="0 3.1919999 4.7880001"
           y="0"
           sodipodi:role="line"
           id="tspan7757">0.8</tspan></text>
      <g
         id="g7761">
        <g
           id="g7763"
           clip-path="url(#clipPath7767)">
          <text
             transform="matrix(1,0,0,-1,4.4673,73.9307)"
             style="font-variant:normal;font-weight:normal;font-stretch:semi-condensed;font-size:7px;font-family:'Arial Narrow';-inkscape-font-specification:ArialNarrow;writing-mode:lr-tb;fill:#e30613;fill-opacity:1;fill-rule:nonzero;stroke:none"
             id="text7771"><tspan
               x="0 3.1919999 4.7880001"
               y="0"
               sodipodi:role="line"
               id="tspan7769">0.6</tspan></text>
        </g>
      </g>
      <text
         transform="matrix(1,0,0,-1,5.7432,60.3691)"
         style="font-variant:normal;font-weight:normal;font-stretch:semi-condensed;font-size:7px;font-family:'Arial Narrow';-inkscape-font-specification:ArialNarrow;writing-mode:lr-tb;fill:#e30613;fill-opacity:1;fill-rule:nonzero;stroke:none"
         id="text7775"><tspan
           x="0 3.1919999 4.7880001"
           y="0"
           sodipodi:role="line"
           id="tspan7773">0.5</tspan></text>
      <g
         id="g7777">
        <g
           id="g7779"
           clip-path="url(#clipPath7783)">
          <g
             id="g7785"
             transform="translate(21.2535,68.8171)">
            <path
               d="M 0,0 H -3.312"
               style="fill:none;stroke:#e30613;stroke-width:0.283;stroke-linecap:butt;stroke-linejoin:miter;stroke-miterlimit:22.926;stroke-dasharray:none;stroke-opacity:1"
               id="path7787" />
          </g>
          <g
             id="g7789"
             transform="translate(21.1227,73.3972)">
            <path
               d="M 0,0 H -3.312"
               style="fill:none;stroke:#e30613;stroke-width:0.283;stroke-linecap:butt;stroke-linejoin:miter;stroke-miterlimit:22.926;stroke-dasharray:none;stroke-opacity:1"
               id="path7791" />
          </g>
          <g
             id="g7793"
             transform="translate(16.6481,68.2995)">
            <path
               d="M 0,0 -2.103,-2.559"
               style="fill:none;stroke:#e30613;stroke-width:0.283;stroke-linecap:butt;stroke-linejoin:miter;stroke-miterlimit:22.926;stroke-dasharray:none;stroke-opacity:1"
               id="path7795" />
          </g>
          <g
             id="g7797"
             transform="translate(14.4918,69.8425)">
            <path
               d="M 0,0 -2.102,-2.559"
               style="fill:none;stroke:#e30613;stroke-width:0.283;stroke-linecap:butt;stroke-linejoin:miter;stroke-miterlimit:22.926;stroke-dasharray:none;stroke-opacity:1"
               id="path7799" />
          </g>
          <g
             id="g7801"
             transform="translate(14.111,70.9304)">
            <path
               d="M 0,0 -2.637,2.004"
               style="fill:none;stroke:#e30613;stroke-width:0.283;stroke-linecap:butt;stroke-linejoin:miter;stroke-miterlimit:22.926;stroke-dasharray:none;stroke-opacity:1"
               id="path7803" />
          </g>
          <g
             id="g7805"
             transform="translate(16.0778,73.7995)">
            <path
               d="M 0,0 -2.613,2.033"
               style="fill:none;stroke:#e30613;stroke-width:0.283;stroke-linecap:butt;stroke-linejoin:miter;stroke-miterlimit:22.926;stroke-dasharray:none;stroke-opacity:1"
               id="path7807" />
          </g>
        </g>
      </g>
      <text
         transform="matrix(0.9068,0,0,-1,6.6196,17.8213)"
         style="font-variant:normal;font-weight:normal;font-stretch:semi-condensed;font-size:7px;font-family:'Arial Narrow';-inkscape-font-specification:ArialNarrow;writing-mode:lr-tb;fill:#e30613;fill-opacity:1;fill-rule:nonzero;stroke:none"
         id="text7811"><tspan
           x="0 4.7810001 6.0549998 9.2469997 10.843 12.439 15.631 17.226999 20.419001 23.611 25.207001 27.118 31.261999 35.405998"
           y="0"
           sodipodi:role="line"
           id="tspan7809">min. 0.75 (CC)</tspan></text>
      <g
         id="g7813">
        <g
           id="g7815"
           clip-path="url(#clipPath7819)">
          <path
             d="M 0.567,34.583 H 51.591 V 0.567 H 0.567 Z"
             style="fill:none;stroke:#312783;stroke-width:1.134;stroke-linecap:butt;stroke-linejoin:miter;stroke-miterlimit:22.926;stroke-dasharray:none;stroke-opacity:1"
             id="path7821" />
          <text
             transform="matrix(1,0,0,-1,16.043,42.6816)"
             style="font-variant:normal;font-weight:normal;font-stretch:semi-condensed;font-size:7px;font-family:'Arial Narrow';-inkscape-font-specification:ArialNarrow;writing-mode:lr-tb;fill:#e30613;fill-opacity:1;fill-rule:nonzero;stroke:none"
             id="text7825"><tspan
               x="0 4.7810001 7.973 10.843 12.439 14.035 17.226999 18.823 22.014999 25.207001 27.118 31.261999 35.405998"
               y="0"
               sodipodi:role="line"
               id="tspan7823">max. 1.2 (CC)</tspan></text>
          <g
             id="g7827"
             transform="translate(21.3647,24.0998)">
            <path
               d="M 0,0 -0.002,5.527"
               style="fill:none;stroke:#e30613;stroke-width:0.283;stroke-linecap:butt;stroke-linejoin:miter;stroke-miterlimit:22.926;stroke-dasharray:none;stroke-opacity:1"
               id="path7829" />
          </g>
          <g
             id="g7831"
             transform="translate(25.8364,24.1115)">
            <path
               d="M 0,0 -0.002,5.244"
               style="fill:none;stroke:#e30613;stroke-width:0.283;stroke-linecap:butt;stroke-linejoin:miter;stroke-miterlimit:22.926;stroke-dasharray:none;stroke-opacity:1"
               id="path7833" />
          </g>
          <g
             id="g7835"
             transform="translate(38.1158,52.3972)">
            <path
               d="M 0,0 H -6.803"
               style="fill:none;stroke:#e30613;stroke-width:0.283;stroke-linecap:butt;stroke-linejoin:miter;stroke-miterlimit:22.926;stroke-dasharray:none;stroke-opacity:1"
               id="path7837" />
          </g>
        </g>
      </g>
    </g>
  </g>
</svg>
