<?xml version="1.0" encoding="UTF-8" standalone="no"?>
<!-- Created with Inkscape (http://www.inkscape.org/) -->

<svg
   width="15.5mm"
   height="17.5mm"
   viewBox="0 0 15.5 17.5"
   version="1.1"
   id="svg8359"
   inkscape:version="1.1.1 (3bf5ae0d25, 2021-09-20)"
   sodipodi:docname="ISOM 210 Stony ground slow running.svg"
   xmlns:inkscape="http://www.inkscape.org/namespaces/inkscape"
   xmlns:sodipodi="http://sodipodi.sourceforge.net/DTD/sodipodi-0.dtd"
   xmlns="http://www.w3.org/2000/svg"
   xmlns:svg="http://www.w3.org/2000/svg">
  <sodipodi:namedview
     id="namedview8361"
     pagecolor="#ffffff"
     bordercolor="#666666"
     borderopacity="1.0"
     inkscape:pageshadow="2"
     inkscape:pageopacity="0.0"
     inkscape:pagecheckerboard="true"
     inkscape:document-units="mm"
     showgrid="false"
     inkscape:zoom="3.6233469"
     inkscape:cx="89.834071"
     inkscape:cy="68.583"
     inkscape:window-width="1920"
     inkscape:window-height="1017"
     inkscape:window-x="-8"
     inkscape:window-y="-8"
     inkscape:window-maximized="1"
     inkscape:current-layer="layer1" />
  <defs
     id="defs8356">
    <clipPath
       clipPathUnits="userSpaceOnUse"
       id="clipPath8377">
      <path
         d="M 0,44.502 H 38.136 V 0 H 0 Z"
         id="path8375" />
    </clipPath>
    <clipPath
       clipPathUnits="userSpaceOnUse"
       id="clipPath8495">
      <path
         d="M 0,44.502 H 38.136 V 0 H 0 Z"
         id="path8493" />
    </clipPath>
  </defs>
  <g
     inkscape:label="Ebene 1"
     inkscape:groupmode="layer"
     id="layer1">
    <g
       id="g8369"
       inkscape:label="ISOM 210 Stony ground, slow running"
       transform="matrix(0.35277777,0,0,-0.35277777,0.95691539,16.439196)">
      <g
         id="g8371">
        <g
           id="g8373"
           clip-path="url(#clipPath8377)">
          <g
             id="g8379"
             transform="translate(14.5889,32.5921)">
            <path
               d="M 0,0 C -0.314,0 -0.568,0.254 -0.568,0.566 -0.568,0.88 -0.314,1.134 0,1.134 0.312,1.134 0.566,0.88 0.566,0.566 0.566,0.254 0.312,0 0,0"
               style="fill:#1d1d1b;fill-opacity:1;fill-rule:evenodd;stroke:none"
               id="path8381" />
          </g>
          <g
             id="g8383"
             transform="translate(16.249,27.7503)">
            <path
               d="m 0,0 c -0.313,0 -0.568,0.254 -0.568,0.566 0,0.313 0.255,0.567 0.568,0.567 0.312,0 0.566,-0.254 0.566,-0.567 C 0.566,0.254 0.312,0 0,0"
               style="fill:#1d1d1b;fill-opacity:1;fill-rule:evenodd;stroke:none"
               id="path8385" />
          </g>
          <g
             id="g8387"
             transform="translate(20.3584,30.7259)">
            <path
               d="M 0,0 C -0.312,0 -0.566,0.255 -0.566,0.567 -0.566,0.88 -0.312,1.134 0,1.134 0.314,1.134 0.567,0.88 0.567,0.567 0.567,0.255 0.314,0 0,0"
               style="fill:#1d1d1b;fill-opacity:1;fill-rule:evenodd;stroke:none"
               id="path8389" />
          </g>
          <g
             id="g8391"
             transform="translate(19.4375,27.7503)">
            <path
               d="m 0,0 c -0.314,0 -0.567,0.254 -0.567,0.566 0,0.313 0.253,0.567 0.567,0.567 0.313,0 0.567,-0.254 0.567,-0.567 C 0.567,0.254 0.313,0 0,0"
               style="fill:#1d1d1b;fill-opacity:1;fill-rule:evenodd;stroke:none"
               id="path8393" />
          </g>
          <g
             id="g8395"
             transform="translate(24.0185,29.4867)">
            <path
               d="m 0,0 c -0.312,0 -0.566,0.254 -0.566,0.566 0,0.313 0.254,0.568 0.566,0.568 0.314,0 0.568,-0.255 0.568,-0.568 C 0.568,0.254 0.314,0 0,0"
               style="fill:#1d1d1b;fill-opacity:1;fill-rule:evenodd;stroke:none"
               id="path8397" />
          </g>
          <g
             id="g8399"
             transform="translate(27.2214,8.3405)">
            <path
               d="m 0,0 c -0.312,0 -0.566,0.254 -0.566,0.567 0,0.314 0.254,0.568 0.566,0.568 0.312,0 0.566,-0.254 0.566,-0.568 C 0.566,0.254 0.312,0 0,0"
               style="fill:#1d1d1b;fill-opacity:1;fill-rule:evenodd;stroke:none"
               id="path8401" />
          </g>
          <g
             id="g8403"
             transform="translate(29.5713,30.0882)">
            <path
               d="M 0,0 C -0.312,0 -0.566,0.254 -0.566,0.566 -0.566,0.88 -0.312,1.135 0,1.135 0.312,1.135 0.566,0.88 0.566,0.566 0.566,0.254 0.312,0 0,0"
               style="fill:#1d1d1b;fill-opacity:1;fill-rule:evenodd;stroke:none"
               id="path8405" />
          </g>
          <g
             id="g8407"
             transform="translate(19.7666,33.4935)">
            <path
               d="M 0,0 C -0.312,0 -0.566,0.254 -0.566,0.567 -0.566,0.88 -0.312,1.134 0,1.134 0.313,1.134 0.567,0.88 0.567,0.567 0.567,0.254 0.313,0 0,0"
               style="fill:#1d1d1b;fill-opacity:1;fill-rule:evenodd;stroke:none"
               id="path8409" />
          </g>
          <g
             id="g8411"
             transform="translate(23.2646,35.474)">
            <path
               d="M 0,0 C -0.313,0 -0.567,0.254 -0.567,0.567 -0.567,0.88 -0.313,1.134 0,1.134 0.312,1.134 0.566,0.88 0.566,0.567 0.566,0.254 0.312,0 0,0"
               style="fill:#1d1d1b;fill-opacity:1;fill-rule:evenodd;stroke:none"
               id="path8413" />
          </g>
          <g
             id="g8415"
             transform="translate(16.249,30.2298)">
            <path
               d="M 0,0 C -0.313,0 -0.568,0.255 -0.568,0.567 -0.568,0.88 -0.313,1.134 0,1.134 0.312,1.134 0.566,0.88 0.566,0.567 0.566,0.255 0.312,0 0,0"
               style="fill:#1d1d1b;fill-opacity:1;fill-rule:evenodd;stroke:none"
               id="path8417" />
          </g>
          <g
             id="g8419"
             transform="translate(27.1016,28.0882)">
            <path
               d="m 0,0 c -0.313,0 -0.567,0.254 -0.567,0.567 0,0.314 0.254,0.568 0.567,0.568 0.313,0 0.567,-0.254 0.567,-0.568 C 0.567,0.254 0.313,0 0,0"
               style="fill:#1d1d1b;fill-opacity:1;fill-rule:evenodd;stroke:none"
               id="path8421" />
          </g>
          <g
             id="g8423"
             transform="translate(26.1699,31.2933)">
            <path
               d="M 0,0 C -0.313,0 -0.567,0.254 -0.567,0.566 -0.567,0.88 -0.313,1.134 0,1.134 0.314,1.134 0.567,0.88 0.567,0.566 0.567,0.254 0.314,0 0,0"
               style="fill:#1d1d1b;fill-opacity:1;fill-rule:evenodd;stroke:none"
               id="path8425" />
          </g>
          <g
             id="g8427"
             transform="translate(29.7721,8.3405)">
            <path
               d="m 0,0 c -0.312,0 -0.566,0.254 -0.566,0.567 0,0.314 0.254,0.568 0.566,0.568 0.313,0 0.567,-0.254 0.567,-0.568 C 0.567,0.254 0.313,0 0,0"
               style="fill:#1d1d1b;fill-opacity:1;fill-rule:evenodd;stroke:none"
               id="path8429" />
          </g>
          <g
             id="g8431"
             transform="translate(23.3349,32.7103)">
            <path
               d="M 0,0 C -0.312,0 -0.566,0.254 -0.566,0.567 -0.566,0.88 -0.312,1.134 0,1.134 0.312,1.134 0.566,0.88 0.566,0.567 0.566,0.254 0.312,0 0,0"
               style="fill:#1d1d1b;fill-opacity:1;fill-rule:evenodd;stroke:none"
               id="path8433" />
          </g>
          <g
             id="g8435"
             transform="translate(29.0752,32.5687)">
            <path
               d="M 0,0 C -0.313,0 -0.567,0.254 -0.567,0.566 -0.567,0.88 -0.313,1.134 0,1.134 0.312,1.134 0.566,0.88 0.566,0.566 0.566,0.254 0.312,0 0,0"
               style="fill:#1d1d1b;fill-opacity:1;fill-rule:evenodd;stroke:none"
               id="path8437" />
          </g>
          <g
             id="g8439"
             transform="translate(28.3662,35.6156)">
            <path
               d="m 0,0 c -0.312,0 -0.566,0.254 -0.566,0.567 0,0.314 0.254,0.568 0.566,0.568 0.314,0 0.567,-0.254 0.567,-0.568 C 0.567,0.254 0.314,0 0,0"
               style="fill:#1d1d1b;fill-opacity:1;fill-rule:evenodd;stroke:none"
               id="path8441" />
          </g>
          <g
             id="g8443"
             transform="translate(13.0635,29.5404)">
            <path
               d="M 0,0 C -0.313,0 -0.567,0.254 -0.567,0.567 -0.567,0.88 -0.313,1.134 0,1.134 0.312,1.134 0.566,0.88 0.566,0.567 0.566,0.254 0.312,0 0,0"
               style="fill:#1d1d1b;fill-opacity:1;fill-rule:evenodd;stroke:none"
               id="path8445" />
          </g>
          <g
             id="g8447"
             transform="translate(13.458,36.3285)">
            <path
               d="M 0,0 C -0.278,0.145 -0.387,0.486 -0.243,0.764 -0.1,1.043 0.242,1.151 0.521,1.008 0.799,0.864 0.906,0.521 0.764,0.243 0.619,-0.035 0.277,-0.144 0,0"
               style="fill:#1d1d1b;fill-opacity:1;fill-rule:evenodd;stroke:none"
               id="path8449" />
          </g>
          <g
             id="g8451"
             transform="translate(16.4795,34.7679)">
            <path
               d="M 0,0 C -0.277,0.143 -0.387,0.485 -0.243,0.764 -0.1,1.041 0.243,1.15 0.521,1.006 0.798,0.862 0.908,0.521 0.764,0.242 0.62,-0.035 0.277,-0.144 0,0"
               style="fill:#1d1d1b;fill-opacity:1;fill-rule:evenodd;stroke:none"
               id="path8453" />
          </g>
          <g
             id="g8455"
             transform="translate(28.0065,6.4148)">
            <path
               d="M 0,0 C -0.156,0.271 -0.064,0.618 0.207,0.774 0.479,0.932 0.825,0.838 0.981,0.567 1.137,0.297 1.045,-0.051 0.773,-0.207 0.504,-0.363 0.156,-0.271 0,0"
               style="fill:#1d1d1b;fill-opacity:1;fill-rule:evenodd;stroke:none"
               id="path8457" />
          </g>
          <g
             id="g8459"
             transform="translate(18.0205,36.7503)">
            <path
               d="m 0,0 c -0.312,0 -0.567,0.254 -0.567,0.566 0,0.313 0.255,0.567 0.567,0.567 0.312,0 0.566,-0.254 0.566,-0.567 C 0.566,0.254 0.312,0 0,0"
               style="fill:#1d1d1b;fill-opacity:1;fill-rule:evenodd;stroke:none"
               id="path8461" />
          </g>
          <g
             id="g8463"
             transform="translate(22.4853,27.2542)">
            <path
               d="m 0,0 c -0.313,0 -0.568,0.254 -0.568,0.566 0,0.313 0.255,0.567 0.568,0.567 0.312,0 0.566,-0.254 0.566,-0.567 C 0.566,0.254 0.312,0 0,0"
               style="fill:#1d1d1b;fill-opacity:1;fill-rule:evenodd;stroke:none"
               id="path8465" />
          </g>
          <g
             id="g8467"
             transform="translate(17.5244,32.2142)">
            <path
               d="M 0,0 C -0.314,0 -0.567,0.254 -0.567,0.567 -0.567,0.88 -0.314,1.134 0,1.134 0.312,1.134 0.566,0.88 0.566,0.567 0.566,0.254 0.312,0 0,0"
               style="fill:#1d1d1b;fill-opacity:1;fill-rule:evenodd;stroke:none"
               id="path8469" />
          </g>
          <g
             id="g8471"
             transform="translate(20.6416,35.9701)">
            <path
               d="M 0,0 C -0.312,0 -0.566,0.254 -0.566,0.567 -0.566,0.88 -0.312,1.134 0,1.134 0.313,1.134 0.567,0.88 0.567,0.567 0.567,0.254 0.313,0 0,0"
               style="fill:#1d1d1b;fill-opacity:1;fill-rule:evenodd;stroke:none"
               id="path8473" />
          </g>
          <g
             id="g8475"
             transform="translate(26.2412,34.1986)">
            <path
               d="M 0,0 C -0.313,0 -0.567,0.254 -0.567,0.567 -0.567,0.88 -0.313,1.134 0,1.134 0.312,1.134 0.566,0.88 0.566,0.567 0.566,0.254 0.312,0 0,0"
               style="fill:#1d1d1b;fill-opacity:1;fill-rule:evenodd;stroke:none"
               id="path8477" />
          </g>
        </g>
      </g>
      <text
         transform="matrix(1,0,0,-1,21.4771,19.0322)"
         style="font-variant:normal;font-weight:normal;font-stretch:normal;font-size:7px;font-family:Arial;-inkscape-font-specification:ArialMT;writing-mode:lr-tb;fill:#e30613;fill-opacity:1;fill-rule:nonzero;stroke:none"
         id="text8481"><tspan
           x="0"
           y="0"
           id="tspan8479">ø</tspan></text>
      <text
         transform="matrix(1,0,0,-1,27.3501,19.0322)"
         style="font-variant:normal;font-weight:normal;font-stretch:semi-condensed;font-size:7px;font-family:'Arial Narrow';-inkscape-font-specification:ArialNarrow;writing-mode:lr-tb;fill:#e30613;fill-opacity:1;fill-rule:nonzero;stroke:none"
         id="text8487"><tspan
           x="0 3.1919999 4.7880001"
           y="0"
           sodipodi:role="line"
           id="tspan8483">0.2</tspan><tspan
           x="-16.464001 -11.683 -10.409 -7.217"
           y="13.643"
           sodipodi:role="line"
           id="tspan8485">min.</tspan></text>
      <g
         id="g8489">
        <g
           id="g8491"
           clip-path="url(#clipPath8495)">
          <path
             d="M 3.554,14.74 H 37.57 V 0.567 H 3.554 Z"
             style="fill:none;stroke:#312783;stroke-width:1.134;stroke-linecap:butt;stroke-linejoin:miter;stroke-miterlimit:22.926;stroke-dasharray:none;stroke-opacity:1"
             id="path8497" />
          <text
             transform="matrix(1,0,0,-1,0,38.4961)"
             style="font-variant:normal;font-weight:normal;font-stretch:semi-condensed;font-size:7px;font-family:'Arial Narrow';-inkscape-font-specification:ArialNarrow;writing-mode:lr-tb;fill:#e30613;fill-opacity:1;fill-rule:nonzero;stroke:none"
             id="text8501"><tspan
               x="0 4.7810001 7.973 10.843 12.439 14.035 17.226999 18.823 22.014999 23.611 25.521999 29.666 33.810001"
               y="0"
               sodipodi:role="line"
               id="tspan8499">max. 0.6 (CC)</tspan></text>
          <g
             id="g8503"
             transform="translate(13.7178,36.8324)">
            <path
               d="M 0,0 3.021,-1.562"
               style="fill:none;stroke:#e30613;stroke-width:0.283;stroke-linecap:butt;stroke-linejoin:miter;stroke-miterlimit:22.926;stroke-dasharray:none;stroke-opacity:1"
               id="path8505" />
          </g>
        </g>
      </g>
    </g>
  </g>
</svg>
