<?xml version="1.0" encoding="UTF-8" standalone="no"?>
<!-- Created with Inkscape (http://www.inkscape.org/) -->

<svg
   width="16mm"
   height="14mm"
   viewBox="0 0 16 14"
   version="1.1"
   id="svg8652"
   inkscape:version="1.1.1 (3bf5ae0d25, 2021-09-20)"
   sodipodi:docname="ISOM 211 Stony ground walk.svg"
   xmlns:inkscape="http://www.inkscape.org/namespaces/inkscape"
   xmlns:sodipodi="http://sodipodi.sourceforge.net/DTD/sodipodi-0.dtd"
   xmlns="http://www.w3.org/2000/svg"
   xmlns:svg="http://www.w3.org/2000/svg">
  <sodipodi:namedview
     id="namedview8654"
     pagecolor="#ffffff"
     bordercolor="#666666"
     borderopacity="1.0"
     inkscape:pageshadow="2"
     inkscape:pageopacity="0.0"
     inkscape:pagecheckerboard="true"
     inkscape:document-units="mm"
     showgrid="false"
     inkscape:zoom="5.1241863"
     inkscape:cx="31.712352"
     inkscape:cy="42.055458"
     inkscape:window-width="1920"
     inkscape:window-height="1017"
     inkscape:window-x="-8"
     inkscape:window-y="-8"
     inkscape:window-maximized="1"
     inkscape:current-layer="layer1" />
  <defs
     id="defs8649">
    <clipPath
       clipPathUnits="userSpaceOnUse"
       id="clipPath8670">
      <path
         d="M 0,33.165 H 40.332 V 0 H 0 Z"
         id="path8668" />
    </clipPath>
  </defs>
  <g
     inkscape:label="Ebene 1"
     inkscape:groupmode="layer"
     id="layer1">
    <g
       id="g8662"
       inkscape:label="ISOM 211 Stony ground, walk"
       transform="matrix(0.35277777,0,0,-0.35277777,0.80811047,12.849902)">
      <g
         id="g8664">
        <g
           id="g8666"
           clip-path="url(#clipPath8670)">
          <g
             id="g8672"
             transform="translate(29.1554,7.9386)">
            <path
               d="M 0,0 C -0.314,0 -0.567,0.254 -0.567,0.567 -0.567,0.88 -0.314,1.135 0,1.135 0.314,1.135 0.567,0.88 0.567,0.567 0.567,0.254 0.314,0 0,0"
               style="fill:#1d1d1b;fill-opacity:1;fill-rule:evenodd;stroke:none"
               id="path8674" />
          </g>
          <g
             id="g8676"
             transform="translate(30.9698,7.9386)">
            <path
               d="M 0,0 C -0.313,0 -0.567,0.254 -0.567,0.567 -0.567,0.88 -0.313,1.135 0,1.135 0.313,1.135 0.567,0.88 0.567,0.567 0.567,0.254 0.313,0 0,0"
               style="fill:#1d1d1b;fill-opacity:1;fill-rule:evenodd;stroke:none"
               id="path8678" />
          </g>
          <g
             id="g8680"
             transform="translate(29.5763,6.6613)">
            <path
               d="M 0,0 C -0.156,0.271 -0.063,0.618 0.207,0.774 0.479,0.932 0.826,0.838 0.982,0.567 1.139,0.296 1.047,-0.051 0.775,-0.208 0.504,-0.364 0.156,-0.271 0,0"
               style="fill:#1d1d1b;fill-opacity:1;fill-rule:evenodd;stroke:none"
               id="path8682" />
          </g>
          <g
             id="g8684"
             transform="translate(26.1216,33.0877)">
            <path
               d="M 0,0 C 0.312,0 0.566,-0.255 0.566,-0.567 0.566,-0.88 0.312,-1.135 0,-1.135 c -0.312,0 -0.566,0.255 -0.566,0.568 C -0.566,-0.255 -0.312,0 0,0"
               style="fill:#1d1d1b;fill-opacity:1;fill-rule:evenodd;stroke:none"
               id="path8686" />
          </g>
          <g
             id="g8688"
             transform="translate(25.4302,26.6687)">
            <path
               d="M 0,0 C 0.312,0 0.566,-0.254 0.566,-0.566 0.566,-0.88 0.312,-1.134 0,-1.134 c -0.312,0 -0.566,0.254 -0.566,0.568 C -0.566,-0.254 -0.312,0 0,0"
               style="fill:#1d1d1b;fill-opacity:1;fill-rule:evenodd;stroke:none"
               id="path8690" />
          </g>
          <g
             id="g8692"
             transform="translate(32.2329,26.7684)">
            <path
               d="M 0,0 C 0.314,0 0.567,-0.254 0.567,-0.567 0.567,-0.88 0.314,-1.134 0,-1.134 c -0.312,0 -0.566,0.254 -0.566,0.567 C -0.566,-0.254 -0.312,0 0,0"
               style="fill:#1d1d1b;fill-opacity:1;fill-rule:evenodd;stroke:none"
               id="path8694" />
          </g>
          <g
             id="g8696"
             transform="translate(30.0366,26.9529)">
            <path
               d="M 0,0 C 0.314,0 0.567,-0.254 0.567,-0.567 0.567,-0.88 0.314,-1.135 0,-1.135 c -0.313,0 -0.567,0.255 -0.567,0.568 C -0.567,-0.254 -0.313,0 0,0"
               style="fill:#1d1d1b;fill-opacity:1;fill-rule:evenodd;stroke:none"
               id="path8698" />
          </g>
          <g
             id="g8700"
             transform="translate(31.1001,32.6951)">
            <path
               d="M 0,0 C 0.312,0 0.566,-0.254 0.566,-0.566 0.566,-0.88 0.312,-1.134 0,-1.134 c -0.314,0 -0.567,0.254 -0.567,0.568 C -0.567,-0.254 -0.314,0 0,0"
               style="fill:#1d1d1b;fill-opacity:1;fill-rule:evenodd;stroke:none"
               id="path8702" />
          </g>
          <g
             id="g8704"
             transform="translate(29.4692,28.5828)">
            <path
               d="M 0,0 C 0.314,0 0.567,-0.254 0.567,-0.567 0.567,-0.88 0.314,-1.135 0,-1.135 c -0.312,0 -0.566,0.255 -0.566,0.568 C -0.566,-0.254 -0.312,0 0,0"
               style="fill:#1d1d1b;fill-opacity:1;fill-rule:evenodd;stroke:none"
               id="path8706" />
          </g>
          <g
             id="g8708"
             transform="translate(18.3442,31.2049)">
            <path
               d="M 0,0 C 0.312,0 0.566,-0.255 0.566,-0.567 0.566,-0.88 0.312,-1.135 0,-1.135 c -0.313,0 -0.567,0.255 -0.567,0.568 C -0.567,-0.255 -0.313,0 0,0"
               style="fill:#1d1d1b;fill-opacity:1;fill-rule:evenodd;stroke:none"
               id="path8710" />
          </g>
          <g
             id="g8712"
             transform="translate(24.6509,28.5223)">
            <path
               d="m 0,0 c 0.313,0 0.567,-0.255 0.567,-0.567 0,-0.314 -0.254,-0.568 -0.567,-0.568 -0.312,0 -0.566,0.254 -0.566,0.568 C -0.566,-0.255 -0.312,0 0,0"
               style="fill:#1d1d1b;fill-opacity:1;fill-rule:evenodd;stroke:none"
               id="path8714" />
          </g>
          <g
             id="g8716"
             transform="translate(20.5678,27.3348)">
            <path
               d="M 0,0 C 0.314,0 0.567,-0.254 0.567,-0.566 0.567,-0.88 0.314,-1.134 0,-1.134 c -0.313,0 -0.567,0.254 -0.567,0.568 C -0.567,-0.254 -0.313,0 0,0"
               style="fill:#1d1d1b;fill-opacity:1;fill-rule:evenodd;stroke:none"
               id="path8718" />
          </g>
          <g
             id="g8720"
             transform="translate(20.6118,29.1492)">
            <path
               d="M 0,0 C 0.312,0 0.566,-0.254 0.566,-0.566 0.566,-0.88 0.312,-1.134 0,-1.134 c -0.314,0 -0.567,0.254 -0.567,0.568 C -0.567,-0.254 -0.314,0 0,0"
               style="fill:#1d1d1b;fill-opacity:1;fill-rule:evenodd;stroke:none"
               id="path8722" />
          </g>
          <g
             id="g8724"
             transform="translate(24.2964,32.6219)">
            <path
               d="M 0,0 C 0.313,0 0.567,-0.254 0.567,-0.567 0.567,-0.88 0.313,-1.134 0,-1.134 c -0.314,0 -0.567,0.254 -0.567,0.567 C -0.567,-0.254 -0.314,0 0,0"
               style="fill:#1d1d1b;fill-opacity:1;fill-rule:evenodd;stroke:none"
               id="path8726" />
          </g>
          <g
             id="g8728"
             transform="translate(27.8403,27.3777)">
            <path
               d="M 0,0 C 0.312,0 0.566,-0.254 0.566,-0.567 0.566,-0.88 0.312,-1.134 0,-1.134 c -0.314,0 -0.567,0.254 -0.567,0.567 C -0.567,-0.254 -0.314,0 0,0"
               style="fill:#1d1d1b;fill-opacity:1;fill-rule:evenodd;stroke:none"
               id="path8730" />
          </g>
          <g
             id="g8732"
             transform="translate(22.3833,30.7088)">
            <path
               d="M 0,0 C 0.313,0 0.567,-0.254 0.567,-0.566 0.567,-0.88 0.313,-1.134 0,-1.134 c -0.312,0 -0.566,0.254 -0.566,0.568 C -0.566,-0.254 -0.312,0 0,0"
               style="fill:#1d1d1b;fill-opacity:1;fill-rule:evenodd;stroke:none"
               id="path8734" />
          </g>
          <g
             id="g8736"
             transform="translate(20.3989,31.5594)">
            <path
               d="m 0,0 c 0.312,0 0.566,-0.255 0.566,-0.567 0,-0.314 -0.254,-0.568 -0.566,-0.568 -0.312,0 -0.567,0.254 -0.567,0.568 C -0.567,-0.255 -0.312,0 0,0"
               style="fill:#1d1d1b;fill-opacity:1;fill-rule:evenodd;stroke:none"
               id="path8738" />
          </g>
          <g
             id="g8740"
             transform="translate(26.688,31.4226)">
            <path
               d="m 0,0 c 0.313,0 0.567,-0.255 0.567,-0.567 0,-0.314 -0.254,-0.568 -0.567,-0.568 -0.312,0 -0.566,0.254 -0.566,0.568 C -0.566,-0.255 -0.312,0 0,0"
               style="fill:#1d1d1b;fill-opacity:1;fill-rule:evenodd;stroke:none"
               id="path8742" />
          </g>
          <g
             id="g8744"
             transform="translate(28.4067,32.4803)">
            <path
               d="M 0,0 C 0.312,0 0.566,-0.254 0.566,-0.567 0.566,-0.88 0.312,-1.134 0,-1.134 c -0.312,0 -0.566,0.254 -0.566,0.567 C -0.566,-0.254 -0.312,0 0,0"
               style="fill:#1d1d1b;fill-opacity:1;fill-rule:evenodd;stroke:none"
               id="path8746" />
          </g>
          <g
             id="g8748"
             transform="translate(26.688,29.366)">
            <path
               d="M 0,0 C 0.313,0 0.567,-0.254 0.567,-0.566 0.567,-0.88 0.313,-1.134 0,-1.134 c -0.312,0 -0.566,0.254 -0.566,0.568 C -0.566,-0.254 -0.312,0 0,0"
               style="fill:#1d1d1b;fill-opacity:1;fill-rule:evenodd;stroke:none"
               id="path8750" />
          </g>
          <g
             id="g8752"
             transform="translate(22.8794,26.5984)">
            <path
               d="M 0,0 C 0.312,0 0.566,-0.254 0.566,-0.567 0.566,-0.88 0.312,-1.134 0,-1.134 c -0.313,0 -0.567,0.254 -0.567,0.567 C -0.567,-0.254 -0.313,0 0,0"
               style="fill:#1d1d1b;fill-opacity:1;fill-rule:evenodd;stroke:none"
               id="path8754" />
          </g>
          <g
             id="g8756"
             transform="translate(22.7368,28.5828)">
            <path
               d="M 0,0 C 0.313,0 0.567,-0.254 0.567,-0.567 0.567,-0.88 0.313,-1.135 0,-1.135 c -0.312,0 -0.566,0.255 -0.566,0.568 C -0.566,-0.254 -0.312,0 0,0"
               style="fill:#1d1d1b;fill-opacity:1;fill-rule:evenodd;stroke:none"
               id="path8758" />
          </g>
          <g
             id="g8760"
             transform="translate(18.3442,27.3074)">
            <path
               d="m 0,0 c 0.312,0 0.566,-0.255 0.566,-0.567 0,-0.314 -0.254,-0.568 -0.566,-0.568 -0.313,0 -0.567,0.254 -0.567,0.568 C -0.567,-0.255 -0.313,0 0,0"
               style="fill:#1d1d1b;fill-opacity:1;fill-rule:evenodd;stroke:none"
               id="path8762" />
          </g>
          <g
             id="g8764"
             transform="translate(31.6665,28.5828)">
            <path
               d="M 0,0 C 0.312,0 0.566,-0.254 0.566,-0.567 0.566,-0.88 0.312,-1.135 0,-1.135 c -0.312,0 -0.566,0.255 -0.566,0.568 C -0.566,-0.254 -0.312,0 0,0"
               style="fill:#1d1d1b;fill-opacity:1;fill-rule:evenodd;stroke:none"
               id="path8766" />
          </g>
          <g
             id="g8768"
             transform="translate(32.2329,30.6394)">
            <path
               d="M 0,0 C 0.314,0 0.567,-0.254 0.567,-0.567 0.567,-0.88 0.314,-1.134 0,-1.134 c -0.312,0 -0.566,0.254 -0.566,0.567 C -0.566,-0.254 -0.312,0 0,0"
               style="fill:#1d1d1b;fill-opacity:1;fill-rule:evenodd;stroke:none"
               id="path8770" />
          </g>
          <g
             id="g8772"
             transform="translate(18.0161,29.1492)">
            <path
               d="M 0,0 C 0.313,0 0.567,-0.254 0.567,-0.566 0.567,-0.88 0.313,-1.134 0,-1.134 c -0.312,0 -0.566,0.254 -0.566,0.568 C -0.566,-0.254 -0.312,0 0,0"
               style="fill:#1d1d1b;fill-opacity:1;fill-rule:evenodd;stroke:none"
               id="path8774" />
          </g>
          <g
             id="g8776"
             transform="translate(24.6509,30.7088)">
            <path
               d="M 0,0 C 0.313,0 0.567,-0.254 0.567,-0.566 0.567,-0.88 0.313,-1.134 0,-1.134 c -0.312,0 -0.566,0.254 -0.566,0.568 C -0.566,-0.254 -0.312,0 0,0"
               style="fill:#1d1d1b;fill-opacity:1;fill-rule:evenodd;stroke:none"
               id="path8778" />
          </g>
          <g
             id="g8780"
             transform="translate(22.2417,32.5232)">
            <path
               d="M 0,0 C 0.313,0 0.567,-0.254 0.567,-0.567 0.567,-0.88 0.313,-1.134 0,-1.134 c -0.314,0 -0.567,0.254 -0.567,0.567 C -0.567,-0.254 -0.314,0 0,0"
               style="fill:#1d1d1b;fill-opacity:1;fill-rule:evenodd;stroke:none"
               id="path8782" />
          </g>
          <g
             id="g8784"
             transform="translate(28.2651,30.2127)">
            <path
               d="M 0,0 C 0.314,0 0.567,-0.254 0.567,-0.567 0.567,-0.88 0.314,-1.134 0,-1.134 c -0.313,0 -0.567,0.254 -0.567,0.567 C -0.567,-0.254 -0.313,0 0,0"
               style="fill:#1d1d1b;fill-opacity:1;fill-rule:evenodd;stroke:none"
               id="path8786" />
          </g>
          <g
             id="g8788"
             transform="translate(30.1782,31.0633)">
            <path
               d="m 0,0 c 0.312,0 0.566,-0.255 0.566,-0.567 0,-0.314 -0.254,-0.568 -0.566,-0.568 -0.312,0 -0.566,0.254 -0.566,0.568 C -0.566,-0.255 -0.312,0 0,0"
               style="fill:#1d1d1b;fill-opacity:1;fill-rule:evenodd;stroke:none"
               id="path8790" />
          </g>
          <g
             id="g8792"
             transform="translate(19.0083,33.1648)">
            <path
               d="M 0,0 C 0.313,0 0.567,-0.254 0.567,-0.567 0.567,-0.88 0.313,-1.134 0,-1.134 c -0.312,0 -0.566,0.254 -0.566,0.567 C -0.566,-0.254 -0.312,0 0,0"
               style="fill:#1d1d1b;fill-opacity:1;fill-rule:evenodd;stroke:none"
               id="path8794" />
          </g>
          <text
             transform="matrix(1,0,0,-1,0,27.1367)"
             style="font-variant:normal;font-weight:normal;font-stretch:normal;font-size:7px;font-family:Arial;-inkscape-font-specification:ArialMT;writing-mode:lr-tb;fill:#e30613;fill-opacity:1;fill-rule:nonzero;stroke:none"
             id="text8798"><tspan
               x="0"
               y="0"
               id="tspan8796">ø</tspan></text>
          <text
             transform="matrix(1,0,0,-1,5.873,27.1367)"
             style="font-variant:normal;font-weight:normal;font-stretch:semi-condensed;font-size:7px;font-family:'Arial Narrow';-inkscape-font-specification:ArialNarrow;writing-mode:lr-tb;fill:#e30613;fill-opacity:1;fill-rule:nonzero;stroke:none"
             id="text8802"><tspan
               x="0 3.1919999 4.7880001"
               y="0"
               sodipodi:role="line"
               id="tspan8800">0.2</tspan></text>
          <path
             d="M 5.749,14.74 H 39.765 V 0.567 H 5.749 Z"
             style="fill:none;stroke:#312783;stroke-width:1.134;stroke-linecap:butt;stroke-linejoin:miter;stroke-miterlimit:22.926;stroke-dasharray:none;stroke-opacity:1"
             id="path8804" />
        </g>
      </g>
      <text
         transform="matrix(1,0,0,-1,13.0825,5.3877)"
         style="font-variant:normal;font-weight:normal;font-stretch:semi-condensed;font-size:7px;font-family:'Arial Narrow';-inkscape-font-specification:ArialNarrow;writing-mode:lr-tb;fill:#e30613;fill-opacity:1;fill-rule:nonzero;stroke:none"
         id="text8808"><tspan
           x="0 4.7810001 6.0549998 9.2469997"
           y="0"
           sodipodi:role="line"
           id="tspan8806">min.</tspan></text>
    </g>
  </g>
</svg>
