<?xml version="1.0" encoding="UTF-8" standalone="no"?>
<!-- Created with Inkscape (http://www.inkscape.org/) -->

<svg
   width="14.5mm"
   height="18mm"
   viewBox="0 0 14.5 18"
   version="1.1"
   id="svg8965"
   inkscape:version="1.1.1 (3bf5ae0d25, 2021-09-20)"
   sodipodi:docname="ISOM 212 Stony ground fight.svg"
   xmlns:inkscape="http://www.inkscape.org/namespaces/inkscape"
   xmlns:sodipodi="http://sodipodi.sourceforge.net/DTD/sodipodi-0.dtd"
   xmlns="http://www.w3.org/2000/svg"
   xmlns:svg="http://www.w3.org/2000/svg">
  <sodipodi:namedview
     id="namedview8967"
     pagecolor="#ffffff"
     bordercolor="#666666"
     borderopacity="1.0"
     inkscape:pageshadow="2"
     inkscape:pageopacity="0.0"
     inkscape:pagecheckerboard="true"
     inkscape:document-units="mm"
     showgrid="false"
     inkscape:zoom="5.1241863"
     inkscape:cx="45.958516"
     inkscape:cy="48.105199"
     inkscape:window-width="1920"
     inkscape:window-height="1017"
     inkscape:window-x="-8"
     inkscape:window-y="-8"
     inkscape:window-maximized="1"
     inkscape:current-layer="layer1" />
  <defs
     id="defs8962">
    <clipPath
       clipPathUnits="userSpaceOnUse"
       id="clipPath8983">
      <path
         d="M 0,46.118 H 35.15 V 0 H 0 Z"
         id="path8981" />
    </clipPath>
  </defs>
  <g
     inkscape:label="Ebene 1"
     inkscape:groupmode="layer"
     id="layer1">
    <g
       id="g8975"
       inkscape:label="ISOM 212 Stony ground, fight"
       transform="matrix(0.35277777,0,0,-0.35277777,1.0499307,16.962644)">
      <g
         id="g8977">
        <g
           id="g8979"
           clip-path="url(#clipPath8983)">
          <g
             id="g8985"
             transform="translate(9.5999,33.2674)">
            <path
               d="m 0,0 c -0.314,0 -0.567,0.254 -0.567,0.567 0,0.314 0.253,0.568 0.567,0.568 0.313,0 0.567,-0.254 0.567,-0.568 C 0.567,0.254 0.313,0 0,0"
               style="fill:#1d1d1b;fill-opacity:1;fill-rule:evenodd;stroke:none"
               id="path8987" />
          </g>
          <g
             id="g8989"
             transform="translate(9.8567,30.5497)">
            <path
               d="M 0,0 C -0.312,0 -0.566,0.254 -0.566,0.566 -0.566,0.88 -0.312,1.134 0,1.134 0.312,1.134 0.567,0.88 0.567,0.566 0.567,0.254 0.312,0 0,0"
               style="fill:#1d1d1b;fill-opacity:1;fill-rule:evenodd;stroke:none"
               id="path8991" />
          </g>
          <g
             id="g8993"
             transform="translate(13.0804,32.3182)">
            <path
               d="M 0,0 C -0.314,0 -0.567,0.254 -0.567,0.566 -0.567,0.88 -0.314,1.134 0,1.134 0.313,1.134 0.567,0.88 0.567,0.566 0.567,0.254 0.313,0 0,0"
               style="fill:#1d1d1b;fill-opacity:1;fill-rule:evenodd;stroke:none"
               id="path8995" />
          </g>
          <g
             id="g8997"
             transform="translate(11.8099,31.4696)">
            <path
               d="M 0,0 C -0.312,0 -0.567,0.254 -0.567,0.566 -0.567,0.88 -0.312,1.134 0,1.134 0.312,1.134 0.566,0.88 0.566,0.566 0.566,0.254 0.312,0 0,0"
               style="fill:#1d1d1b;fill-opacity:1;fill-rule:evenodd;stroke:none"
               id="path8999" />
          </g>
          <g
             id="g9001"
             transform="translate(13.9681,31.2577)">
            <path
               d="M 0,0 C -0.312,0 -0.566,0.254 -0.566,0.567 -0.566,0.88 -0.312,1.135 0,1.135 0.313,1.135 0.567,0.88 0.567,0.567 0.567,0.254 0.313,0 0,0"
               style="fill:#1d1d1b;fill-opacity:1;fill-rule:evenodd;stroke:none"
               id="path9003" />
          </g>
          <g
             id="g9005"
             transform="translate(15.8665,28.8329)">
            <path
               d="M 0,0 C -0.312,0 -0.567,0.254 -0.567,0.566 -0.567,0.88 -0.312,1.134 0,1.134 0.312,1.134 0.566,0.88 0.566,0.566 0.566,0.254 0.312,0 0,0"
               style="fill:#1d1d1b;fill-opacity:1;fill-rule:evenodd;stroke:none"
               id="path9007" />
          </g>
          <g
             id="g9009"
             transform="translate(17.1829,30.8075)">
            <path
               d="M 0,0 C -0.312,0 -0.567,0.254 -0.567,0.566 -0.567,0.88 -0.312,1.134 0,1.134 0.312,1.134 0.566,0.88 0.566,0.566 0.566,0.254 0.312,0 0,0"
               style="fill:#1d1d1b;fill-opacity:1;fill-rule:evenodd;stroke:none"
               id="path9011" />
          </g>
          <g
             id="g9013"
             transform="translate(14.5218,33.3251)">
            <path
               d="M 0,0 C -0.313,0 -0.567,0.254 -0.567,0.567 -0.567,0.88 -0.313,1.134 0,1.134 0.313,1.134 0.567,0.88 0.567,0.567 0.567,0.254 0.313,0 0,0"
               style="fill:#1d1d1b;fill-opacity:1;fill-rule:evenodd;stroke:none"
               id="path9015" />
          </g>
          <g
             id="g9017"
             transform="translate(17.2395,29.3768)">
            <path
               d="M 0,0 C -0.312,0 -0.566,0.254 -0.566,0.566 -0.566,0.88 -0.312,1.134 0,1.134 0.313,1.134 0.567,0.88 0.567,0.566 0.567,0.254 0.313,0 0,0"
               style="fill:#1d1d1b;fill-opacity:1;fill-rule:evenodd;stroke:none"
               id="path9019" />
          </g>
          <g
             id="g9021"
             transform="translate(18.6419,30.2059)">
            <path
               d="M 0,0 C -0.312,0 -0.566,0.254 -0.566,0.567 -0.566,0.88 -0.312,1.134 0,1.134 0.314,1.134 0.567,0.88 0.567,0.567 0.567,0.254 0.314,0 0,0"
               style="fill:#1d1d1b;fill-opacity:1;fill-rule:evenodd;stroke:none"
               id="path9023" />
          </g>
          <g
             id="g9025"
             transform="translate(19.5374,32.9862)">
            <path
               d="M 0,0 C -0.314,0 -0.567,0.254 -0.567,0.566 -0.567,0.88 -0.314,1.134 0,1.134 0.313,1.134 0.567,0.88 0.567,0.566 0.567,0.254 0.313,0 0,0"
               style="fill:#1d1d1b;fill-opacity:1;fill-rule:evenodd;stroke:none"
               id="path9027" />
          </g>
          <g
             id="g9029"
             transform="translate(23.2151,30.0057)">
            <path
               d="M 0,0 C -0.313,0 -0.567,0.254 -0.567,0.567 -0.567,0.88 -0.313,1.134 0,1.134 0.314,1.134 0.567,0.88 0.567,0.567 0.567,0.254 0.314,0 0,0"
               style="fill:#1d1d1b;fill-opacity:1;fill-rule:evenodd;stroke:none"
               id="path9031" />
          </g>
          <g
             id="g9033"
             transform="translate(24.7669,30.7284)">
            <path
               d="M 0,0 C -0.312,0 -0.566,0.254 -0.566,0.566 -0.566,0.88 -0.312,1.134 0,1.134 0.312,1.134 0.567,0.88 0.567,0.566 0.567,0.254 0.312,0 0,0"
               style="fill:#1d1d1b;fill-opacity:1;fill-rule:evenodd;stroke:none"
               id="path9035" />
          </g>
          <g
             id="g9037"
             transform="translate(9.2356,27.4305)">
            <path
               d="m 0,0 c -0.313,0 -0.567,0.255 -0.567,0.567 0,0.314 0.254,0.568 0.567,0.568 0.312,0 0.566,-0.254 0.566,-0.568 C 0.566,0.255 0.312,0 0,0"
               style="fill:#1d1d1b;fill-opacity:1;fill-rule:evenodd;stroke:none"
               id="path9039" />
          </g>
          <g
             id="g9041"
             transform="translate(11.3743,25.8856)">
            <path
               d="M 0,0 C -0.312,0 -0.566,0.254 -0.566,0.567 -0.566,0.88 -0.312,1.134 0,1.134 0.313,1.134 0.567,0.88 0.567,0.567 0.567,0.254 0.313,0 0,0"
               style="fill:#1d1d1b;fill-opacity:1;fill-rule:evenodd;stroke:none"
               id="path9043" />
          </g>
          <g
             id="g9045"
             transform="translate(12.8919,26.0858)">
            <path
               d="M 0,0 C -0.313,0 -0.567,0.254 -0.567,0.567 -0.567,0.88 -0.313,1.134 0,1.134 0.312,1.134 0.566,0.88 0.566,0.567 0.566,0.254 0.312,0 0,0"
               style="fill:#1d1d1b;fill-opacity:1;fill-rule:evenodd;stroke:none"
               id="path9047" />
          </g>
          <g
             id="g9049"
             transform="translate(9.969,24.3055)">
            <path
               d="M 0,0 C -0.313,0 -0.567,0.254 -0.567,0.566 -0.567,0.88 -0.313,1.134 0,1.134 0.314,1.134 0.567,0.88 0.567,0.566 0.567,0.254 0.314,0 0,0"
               style="fill:#1d1d1b;fill-opacity:1;fill-rule:evenodd;stroke:none"
               id="path9051" />
          </g>
          <g
             id="g9053"
             transform="translate(14.4075,25.4276)">
            <path
               d="m 0,0 c -0.312,0 -0.566,0.255 -0.566,0.567 0,0.314 0.254,0.568 0.566,0.568 0.313,0 0.567,-0.254 0.567,-0.568 C 0.567,0.255 0.313,0 0,0"
               style="fill:#1d1d1b;fill-opacity:1;fill-rule:evenodd;stroke:none"
               id="path9055" />
          </g>
          <g
             id="g9057"
             transform="translate(14.2649,23.6249)">
            <path
               d="M 0,0 C -0.312,0 -0.567,0.254 -0.567,0.567 -0.567,0.88 -0.312,1.134 0,1.134 0.312,1.134 0.566,0.88 0.566,0.567 0.566,0.254 0.312,0 0,0"
               style="fill:#1d1d1b;fill-opacity:1;fill-rule:evenodd;stroke:none"
               id="path9059" />
          </g>
          <g
             id="g9061"
             transform="translate(16.5247,26.2294)">
            <path
               d="M 0,0 C -0.312,0 -0.566,0.254 -0.566,0.566 -0.566,0.88 -0.312,1.134 0,1.134 0.314,1.134 0.568,0.88 0.568,0.566 0.568,0.254 0.314,0 0,0"
               style="fill:#1d1d1b;fill-opacity:1;fill-rule:evenodd;stroke:none"
               id="path9063" />
          </g>
          <g
             id="g9065"
             transform="translate(15.9153,24.5223)">
            <path
               d="M 0,0 C -0.314,0 -0.567,0.254 -0.567,0.567 -0.567,0.88 -0.314,1.135 0,1.135 0.312,1.135 0.566,0.88 0.566,0.567 0.566,0.254 0.312,0 0,0"
               style="fill:#1d1d1b;fill-opacity:1;fill-rule:evenodd;stroke:none"
               id="path9067" />
          </g>
          <g
             id="g9069"
             transform="translate(19.4729,27.5165)">
            <path
               d="M 0,0 C -0.313,0 -0.567,0.254 -0.567,0.567 -0.567,0.88 -0.313,1.134 0,1.134 0.313,1.134 0.567,0.88 0.567,0.567 0.567,0.254 0.313,0 0,0"
               style="fill:#1d1d1b;fill-opacity:1;fill-rule:evenodd;stroke:none"
               id="path9071" />
          </g>
          <g
             id="g9073"
             transform="translate(22.5345,27.288)">
            <path
               d="M 0,0 C -0.313,0 -0.566,0.254 -0.566,0.566 -0.566,0.88 -0.313,1.134 0,1.134 0.313,1.134 0.567,0.88 0.567,0.566 0.567,0.254 0.313,0 0,0"
               style="fill:#1d1d1b;fill-opacity:1;fill-rule:evenodd;stroke:none"
               id="path9075" />
          </g>
          <g
             id="g9077"
             transform="translate(24.3489,25.9403)">
            <path
               d="M 0,0 C -0.313,0 -0.568,0.254 -0.568,0.566 -0.568,0.88 -0.313,1.134 0,1.134 0.312,1.134 0.566,0.88 0.566,0.566 0.566,0.254 0.312,0 0,0"
               style="fill:#1d1d1b;fill-opacity:1;fill-rule:evenodd;stroke:none"
               id="path9079" />
          </g>
          <g
             id="g9081"
             transform="translate(21.2268,25.0516)">
            <path
               d="M 0,0 C -0.313,0 -0.567,0.254 -0.567,0.567 -0.567,0.88 -0.313,1.134 0,1.134 0.314,1.134 0.567,0.88 0.567,0.567 0.567,0.254 0.314,0 0,0"
               style="fill:#1d1d1b;fill-opacity:1;fill-rule:evenodd;stroke:none"
               id="path9083" />
          </g>
          <g
             id="g9085"
             transform="translate(11.2317,30.0028)">
            <path
               d="M 0,0 C -0.312,0 -0.566,0.254 -0.566,0.566 -0.566,0.88 -0.312,1.134 0,1.134 0.314,1.134 0.567,0.88 0.567,0.566 0.567,0.254 0.314,0 0,0"
               style="fill:#1d1d1b;fill-opacity:1;fill-rule:evenodd;stroke:none"
               id="path9087" />
          </g>
          <g
             id="g9089"
             transform="translate(10.2688,31.9413)">
            <path
               d="M 0,0 C -0.312,0 -0.566,0.254 -0.566,0.567 -0.566,0.88 -0.312,1.134 0,1.134 0.312,1.134 0.566,0.88 0.566,0.567 0.566,0.254 0.312,0 0,0"
               style="fill:#1d1d1b;fill-opacity:1;fill-rule:evenodd;stroke:none"
               id="path9091" />
          </g>
          <g
             id="g9093"
             transform="translate(11.6126,23.7889)">
            <path
               d="M 0,0 C -0.312,0 -0.566,0.254 -0.566,0.566 -0.566,0.88 -0.312,1.134 0,1.134 0.312,1.134 0.566,0.88 0.566,0.566 0.566,0.254 0.312,0 0,0"
               style="fill:#1d1d1b;fill-opacity:1;fill-rule:evenodd;stroke:none"
               id="path9095" />
          </g>
          <g
             id="g9097"
             transform="translate(9.9339,28.8631)">
            <path
               d="m 0,0 c -0.314,0 -0.567,0.255 -0.567,0.567 0,0.314 0.253,0.568 0.567,0.568 0.313,0 0.567,-0.254 0.567,-0.568 C 0.567,0.255 0.313,0 0,0"
               style="fill:#1d1d1b;fill-opacity:1;fill-rule:evenodd;stroke:none"
               id="path9099" />
          </g>
          <g
             id="g9101"
             transform="translate(11.2132,33.1805)">
            <path
               d="M 0,0 C -0.314,0 -0.567,0.254 -0.567,0.567 -0.567,0.88 -0.314,1.134 0,1.134 0.313,1.134 0.567,0.88 0.567,0.567 0.567,0.254 0.313,0 0,0"
               style="fill:#1d1d1b;fill-opacity:1;fill-rule:evenodd;stroke:none"
               id="path9103" />
          </g>
          <g
             id="g9105"
             transform="translate(13.1751,29.9042)">
            <path
               d="M 0,0 C -0.312,0 -0.566,0.254 -0.566,0.567 -0.566,0.88 -0.312,1.134 0,1.134 0.312,1.134 0.566,0.88 0.566,0.567 0.566,0.254 0.312,0 0,0"
               style="fill:#1d1d1b;fill-opacity:1;fill-rule:evenodd;stroke:none"
               id="path9107" />
          </g>
          <g
             id="g9109"
             transform="translate(15.3284,30.4471)">
            <path
               d="M 0,0 C -0.314,0 -0.567,0.254 -0.567,0.566 -0.567,0.88 -0.314,1.134 0,1.134 0.313,1.134 0.567,0.88 0.567,0.566 0.567,0.254 0.313,0 0,0"
               style="fill:#1d1d1b;fill-opacity:1;fill-rule:evenodd;stroke:none"
               id="path9111" />
          </g>
          <g
             id="g9113"
             transform="translate(16.1888,33.1815)">
            <path
               d="M 0,0 C -0.312,0 -0.566,0.254 -0.566,0.567 -0.566,0.88 -0.312,1.134 0,1.134 0.312,1.134 0.566,0.88 0.566,0.567 0.566,0.254 0.312,0 0,0"
               style="fill:#1d1d1b;fill-opacity:1;fill-rule:evenodd;stroke:none"
               id="path9115" />
          </g>
          <g
             id="g9117"
             transform="translate(17.2454,32.1327)">
            <path
               d="M 0,0 C -0.312,0 -0.566,0.254 -0.566,0.567 -0.566,0.88 -0.312,1.135 0,1.135 0.314,1.135 0.567,0.88 0.567,0.567 0.567,0.254 0.314,0 0,0"
               style="fill:#1d1d1b;fill-opacity:1;fill-rule:evenodd;stroke:none"
               id="path9119" />
          </g>
          <g
             id="g9121"
             transform="translate(21.0716,32.7108)">
            <path
               d="M 0,0 C -0.313,0 -0.567,0.254 -0.567,0.566 -0.567,0.88 -0.313,1.134 0,1.134 0.312,1.134 0.566,0.88 0.566,0.566 0.566,0.254 0.312,0 0,0"
               style="fill:#1d1d1b;fill-opacity:1;fill-rule:evenodd;stroke:none"
               id="path9123" />
          </g>
          <g
             id="g9125"
             transform="translate(20.2024,29.9208)">
            <path
               d="M 0,0 C -0.313,0 -0.567,0.254 -0.567,0.567 -0.567,0.88 -0.313,1.134 0,1.134 0.312,1.134 0.566,0.88 0.566,0.567 0.566,0.254 0.312,0 0,0"
               style="fill:#1d1d1b;fill-opacity:1;fill-rule:evenodd;stroke:none"
               id="path9127" />
          </g>
          <g
             id="g9129"
             transform="translate(21.5208,29.1864)">
            <path
               d="M 0,0 C -0.312,0 -0.566,0.254 -0.566,0.567 -0.566,0.88 -0.312,1.135 0,1.135 0.313,1.135 0.568,0.88 0.568,0.567 0.568,0.254 0.313,0 0,0"
               style="fill:#1d1d1b;fill-opacity:1;fill-rule:evenodd;stroke:none"
               id="path9131" />
          </g>
          <g
             id="g9133"
             transform="translate(23.8919,32.1366)">
            <path
               d="M 0,0 C -0.313,0 -0.568,0.254 -0.568,0.567 -0.568,0.88 -0.313,1.134 0,1.134 0.312,1.134 0.566,0.88 0.566,0.567 0.566,0.254 0.312,0 0,0"
               style="fill:#1d1d1b;fill-opacity:1;fill-rule:evenodd;stroke:none"
               id="path9135" />
          </g>
          <g
             id="g9137"
             transform="translate(9.6995,25.9432)">
            <path
               d="M 0,0 C -0.314,0 -0.567,0.254 -0.567,0.566 -0.567,0.88 -0.314,1.134 0,1.134 0.313,1.134 0.567,0.88 0.567,0.566 0.567,0.254 0.313,0 0,0"
               style="fill:#1d1d1b;fill-opacity:1;fill-rule:evenodd;stroke:none"
               id="path9139" />
          </g>
          <g
             id="g9141"
             transform="translate(14.1438,27.0028)">
            <path
               d="M 0,0 C -0.313,0 -0.567,0.254 -0.567,0.567 -0.567,0.88 -0.313,1.134 0,1.134 0.312,1.134 0.566,0.88 0.566,0.567 0.566,0.254 0.312,0 0,0"
               style="fill:#1d1d1b;fill-opacity:1;fill-rule:evenodd;stroke:none"
               id="path9143" />
          </g>
          <g
             id="g9145"
             transform="translate(17.3323,23.4598)">
            <path
               d="M 0,0 C -0.313,0 -0.567,0.254 -0.567,0.566 -0.567,0.88 -0.313,1.134 0,1.134 0.314,1.134 0.567,0.88 0.567,0.566 0.567,0.254 0.314,0 0,0"
               style="fill:#1d1d1b;fill-opacity:1;fill-rule:evenodd;stroke:none"
               id="path9147" />
          </g>
          <g
             id="g9149"
             transform="translate(18.3743,26.7089)">
            <path
               d="m 0,0 c -0.312,0 -0.566,0.254 -0.566,0.567 0,0.314 0.254,0.568 0.566,0.568 0.313,0 0.567,-0.254 0.567,-0.568 C 0.567,0.254 0.313,0 0,0"
               style="fill:#1d1d1b;fill-opacity:1;fill-rule:evenodd;stroke:none"
               id="path9151" />
          </g>
          <g
             id="g9153"
             transform="translate(19.1028,23.7469)">
            <path
               d="m 0,0 c -0.314,0 -0.568,0.255 -0.568,0.567 0,0.314 0.254,0.568 0.568,0.568 0.312,0 0.566,-0.254 0.566,-0.568 C 0.566,0.255 0.312,0 0,0"
               style="fill:#1d1d1b;fill-opacity:1;fill-rule:evenodd;stroke:none"
               id="path9155" />
          </g>
          <g
             id="g9157"
             transform="translate(22.763,25.8241)">
            <path
               d="M 0,0 C -0.313,0 -0.567,0.254 -0.567,0.567 -0.567,0.88 -0.313,1.134 0,1.134 0.313,1.134 0.566,0.88 0.566,0.567 0.566,0.254 0.313,0 0,0"
               style="fill:#1d1d1b;fill-opacity:1;fill-rule:evenodd;stroke:none"
               id="path9159" />
          </g>
          <g
             id="g9161"
             transform="translate(12.8938,27.8553)">
            <path
               d="M 0,0 C -0.312,0 -0.566,0.254 -0.566,0.566 -0.566,0.88 -0.312,1.134 0,1.134 0.312,1.134 0.566,0.88 0.566,0.566 0.566,0.254 0.312,0 0,0"
               style="fill:#1d1d1b;fill-opacity:1;fill-rule:evenodd;stroke:none"
               id="path9163" />
          </g>
          <g
             id="g9165"
             transform="translate(24.5608,24.3807)">
            <path
               d="M 0,0 C -0.313,0 -0.567,0.254 -0.567,0.567 -0.567,0.88 -0.313,1.134 0,1.134 0.314,1.134 0.567,0.88 0.567,0.567 0.567,0.254 0.314,0 0,0"
               style="fill:#1d1d1b;fill-opacity:1;fill-rule:evenodd;stroke:none"
               id="path9167" />
          </g>
          <g
             id="g9169"
             transform="translate(20.6712,23.8163)">
            <path
               d="M 0,0 C -0.313,0 -0.568,0.254 -0.568,0.566 -0.568,0.88 -0.313,1.134 0,1.134 0.312,1.134 0.566,0.88 0.566,0.566 0.566,0.254 0.312,0 0,0"
               style="fill:#1d1d1b;fill-opacity:1;fill-rule:evenodd;stroke:none"
               id="path9171" />
          </g>
          <g
             id="g9173"
             transform="translate(12.972,24.5633)">
            <path
               d="M 0,0 C -0.312,0 -0.566,0.254 -0.566,0.566 -0.566,0.88 -0.312,1.134 0,1.134 0.313,1.134 0.567,0.88 0.567,0.566 0.567,0.254 0.313,0 0,0"
               style="fill:#1d1d1b;fill-opacity:1;fill-rule:evenodd;stroke:none"
               id="path9175" />
          </g>
          <g
             id="g9177"
             transform="translate(14.2854,28.6327)">
            <path
               d="M 0,0 C -0.313,0 -0.567,0.254 -0.567,0.567 -0.567,0.88 -0.313,1.134 0,1.134 0.313,1.134 0.567,0.88 0.567,0.567 0.567,0.254 0.313,0 0,0"
               style="fill:#1d1d1b;fill-opacity:1;fill-rule:evenodd;stroke:none"
               id="path9179" />
          </g>
          <g
             id="g9181"
             transform="translate(17.3157,27.8006)">
            <path
               d="M 0,0 C -0.313,0 -0.567,0.254 -0.567,0.567 -0.567,0.88 -0.313,1.134 0,1.134 0.312,1.134 0.566,0.88 0.566,0.567 0.566,0.254 0.312,0 0,0"
               style="fill:#1d1d1b;fill-opacity:1;fill-rule:evenodd;stroke:none"
               id="path9183" />
          </g>
          <g
             id="g9185"
             transform="translate(17.4739,25.0897)">
            <path
               d="M 0,0 C -0.312,0 -0.566,0.254 -0.566,0.566 -0.566,0.88 -0.312,1.134 0,1.134 0.312,1.134 0.567,0.88 0.567,0.566 0.567,0.254 0.312,0 0,0"
               style="fill:#1d1d1b;fill-opacity:1;fill-rule:evenodd;stroke:none"
               id="path9187" />
          </g>
          <g
             id="g9189"
             transform="translate(21.1087,27.7411)">
            <path
               d="M 0,0 C -0.312,0 -0.566,0.254 -0.566,0.567 -0.566,0.88 -0.312,1.134 0,1.134 0.314,1.134 0.567,0.88 0.567,0.567 0.567,0.254 0.314,0 0,0"
               style="fill:#1d1d1b;fill-opacity:1;fill-rule:evenodd;stroke:none"
               id="path9191" />
          </g>
          <g
             id="g9193"
             transform="translate(24.7122,28.9178)">
            <path
               d="M 0,0 C -0.312,0 -0.566,0.254 -0.566,0.567 -0.566,0.88 -0.312,1.134 0,1.134 0.312,1.134 0.566,0.88 0.566,0.567 0.566,0.254 0.312,0 0,0"
               style="fill:#1d1d1b;fill-opacity:1;fill-rule:evenodd;stroke:none"
               id="path9195" />
          </g>
          <g
             id="g9197"
             transform="translate(18.8704,28.869)">
            <path
               d="M 0,0 C -0.312,0 -0.566,0.254 -0.566,0.566 -0.566,0.88 -0.312,1.134 0,1.134 0.312,1.134 0.566,0.88 0.566,0.566 0.566,0.254 0.312,0 0,0"
               style="fill:#1d1d1b;fill-opacity:1;fill-rule:evenodd;stroke:none"
               id="path9199" />
          </g>
          <g
             id="g9201"
             transform="translate(15.5403,31.8729)">
            <path
               d="M 0,0 C -0.314,0 -0.567,0.254 -0.567,0.567 -0.567,0.88 -0.314,1.134 0,1.134 0.312,1.134 0.566,0.88 0.566,0.567 0.566,0.254 0.312,0 0,0"
               style="fill:#1d1d1b;fill-opacity:1;fill-rule:evenodd;stroke:none"
               id="path9203" />
          </g>
          <g
             id="g9205"
             transform="translate(18.762,31.6805)">
            <path
               d="M 0,0 C -0.313,0 -0.567,0.254 -0.567,0.566 -0.567,0.88 -0.313,1.134 0,1.134 0.314,1.134 0.567,0.88 0.567,0.566 0.567,0.254 0.314,0 0,0"
               style="fill:#1d1d1b;fill-opacity:1;fill-rule:evenodd;stroke:none"
               id="path9207" />
          </g>
          <g
             id="g9209"
             transform="translate(17.5852,33.538)">
            <path
               d="M 0,0 C -0.313,0 -0.567,0.254 -0.567,0.567 -0.567,0.88 -0.313,1.134 0,1.134 0.312,1.134 0.566,0.88 0.566,0.567 0.566,0.254 0.312,0 0,0"
               style="fill:#1d1d1b;fill-opacity:1;fill-rule:evenodd;stroke:none"
               id="path9211" />
          </g>
          <g
             id="g9213"
             transform="translate(20.555,26.2323)">
            <path
               d="m 0,0 c -0.313,0 -0.567,0.255 -0.567,0.567 0,0.314 0.254,0.568 0.567,0.568 0.313,0 0.567,-0.254 0.567,-0.568 C 0.567,0.255 0.313,0 0,0"
               style="fill:#1d1d1b;fill-opacity:1;fill-rule:evenodd;stroke:none"
               id="path9215" />
          </g>
          <g
             id="g9217"
             transform="translate(23.0257,24.121)">
            <path
               d="M 0,0 C -0.314,0 -0.567,0.254 -0.567,0.567 -0.567,0.88 -0.314,1.134 0,1.134 0.313,1.134 0.567,0.88 0.567,0.567 0.567,0.254 0.313,0 0,0"
               style="fill:#1d1d1b;fill-opacity:1;fill-rule:evenodd;stroke:none"
               id="path9219" />
          </g>
          <g
             id="g9221"
             transform="translate(24.2864,27.4178)">
            <path
               d="M 0,0 C -0.312,0 -0.566,0.254 -0.566,0.567 -0.566,0.88 -0.312,1.134 0,1.134 0.314,1.134 0.567,0.88 0.567,0.567 0.567,0.254 0.314,0 0,0"
               style="fill:#1d1d1b;fill-opacity:1;fill-rule:evenodd;stroke:none"
               id="path9223" />
          </g>
          <g
             id="g9225"
             transform="translate(23.2376,28.495)">
            <path
               d="M 0,0 C -0.314,0 -0.567,0.254 -0.567,0.567 -0.567,0.88 -0.314,1.134 0,1.134 0.312,1.134 0.566,0.88 0.566,0.567 0.566,0.254 0.312,0 0,0"
               style="fill:#1d1d1b;fill-opacity:1;fill-rule:evenodd;stroke:none"
               id="path9227" />
          </g>
          <g
             id="g9229"
             transform="translate(22.5686,31.8514)">
            <path
               d="M 0,0 C -0.313,0 -0.567,0.254 -0.567,0.566 -0.567,0.88 -0.313,1.134 0,1.134 0.314,1.134 0.567,0.88 0.567,0.566 0.567,0.254 0.314,0 0,0"
               style="fill:#1d1d1b;fill-opacity:1;fill-rule:evenodd;stroke:none"
               id="path9231" />
          </g>
          <g
             id="g9233"
             transform="translate(24.8118,33.3378)">
            <path
               d="m 0,0 c -0.312,0 -0.566,0.254 -0.566,0.567 0,0.314 0.254,0.568 0.566,0.568 0.312,0 0.566,-0.254 0.566,-0.568 C 0.566,0.254 0.312,0 0,0"
               style="fill:#1d1d1b;fill-opacity:1;fill-rule:evenodd;stroke:none"
               id="path9235" />
          </g>
          <g
             id="g9237"
             transform="translate(25.9153,31.8592)">
            <path
               d="M 0,0 C -0.312,0 -0.566,0.254 -0.566,0.567 -0.566,0.88 -0.312,1.134 0,1.134 0.312,1.134 0.566,0.88 0.566,0.567 0.566,0.254 0.312,0 0,0"
               style="fill:#1d1d1b;fill-opacity:1;fill-rule:evenodd;stroke:none"
               id="path9239" />
          </g>
          <g
             id="g9241"
             transform="translate(22.3724,33.3807)">
            <path
               d="M 0,0 C -0.313,0 -0.567,0.254 -0.567,0.567 -0.567,0.88 -0.313,1.134 0,1.134 0.312,1.134 0.566,0.88 0.566,0.567 0.566,0.254 0.312,0 0,0"
               style="fill:#1d1d1b;fill-opacity:1;fill-rule:evenodd;stroke:none"
               id="path9243" />
          </g>
          <g
             id="g9245"
             transform="translate(10.9466,27.6268)">
            <path
               d="M 0,0 C -0.312,0 -0.566,0.254 -0.566,0.566 -0.566,0.88 -0.312,1.134 0,1.134 0.312,1.134 0.566,0.88 0.566,0.566 0.566,0.254 0.312,0 0,0"
               style="fill:#1d1d1b;fill-opacity:1;fill-rule:evenodd;stroke:none"
               id="path9247" />
          </g>
          <g
             id="g9249"
             transform="translate(12.7259,33.8065)">
            <path
               d="M 0,0 C -0.312,0 -0.566,0.254 -0.566,0.566 -0.566,0.88 -0.312,1.134 0,1.134 0.312,1.134 0.567,0.88 0.567,0.566 0.567,0.254 0.312,0 0,0"
               style="fill:#1d1d1b;fill-opacity:1;fill-rule:evenodd;stroke:none"
               id="path9251" />
          </g>
          <g
             id="g9253"
             transform="translate(20.2376,31.2547)">
            <path
               d="M 0,0 C -0.312,0 -0.566,0.254 -0.566,0.567 -0.566,0.88 -0.312,1.134 0,1.134 0.314,1.134 0.567,0.88 0.567,0.567 0.567,0.254 0.314,0 0,0"
               style="fill:#1d1d1b;fill-opacity:1;fill-rule:evenodd;stroke:none"
               id="path9255" />
          </g>
          <g
             id="g9257"
             transform="translate(19.1048,25.2313)">
            <path
               d="M 0,0 C -0.314,0 -0.568,0.254 -0.568,0.567 -0.568,0.88 -0.314,1.134 0,1.134 0.312,1.134 0.566,0.88 0.566,0.567 0.566,0.254 0.312,0 0,0"
               style="fill:#1d1d1b;fill-opacity:1;fill-rule:evenodd;stroke:none"
               id="path9259" />
          </g>
          <g
             id="g9261"
             transform="translate(25.8362,29.8378)">
            <path
               d="M 0,0 C -0.314,0 -0.567,0.254 -0.567,0.566 -0.567,0.88 -0.314,1.134 0,1.134 0.313,1.134 0.567,0.88 0.567,0.566 0.567,0.254 0.313,0 0,0"
               style="fill:#1d1d1b;fill-opacity:1;fill-rule:evenodd;stroke:none"
               id="path9263" />
          </g>
          <g
             id="g9265"
             transform="translate(12.0169,28.9872)">
            <path
               d="M 0,0 C -0.312,0 -0.566,0.254 -0.566,0.567 -0.566,0.88 -0.312,1.134 0,1.134 0.314,1.134 0.567,0.88 0.567,0.567 0.567,0.254 0.314,0 0,0"
               style="fill:#1d1d1b;fill-opacity:1;fill-rule:evenodd;stroke:none"
               id="path9267" />
          </g>
          <g
             id="g9269"
             transform="translate(15.5608,27.4286)">
            <path
               d="M 0,0 C -0.313,0 -0.567,0.254 -0.567,0.566 -0.567,0.88 -0.313,1.134 0,1.134 0.314,1.134 0.567,0.88 0.567,0.566 0.567,0.254 0.314,0 0,0"
               style="fill:#1d1d1b;fill-opacity:1;fill-rule:evenodd;stroke:none"
               id="path9271" />
          </g>
          <g
             id="g9273"
             transform="translate(25.5714,7.9921)">
            <path
               d="m 0,0 c 0,-0.314 -0.254,-0.567 -0.567,-0.567 -0.313,0 -0.567,0.253 -0.567,0.567 0,0.312 0.254,0.566 0.567,0.566 C -0.254,0.566 0,0.312 0,0"
               style="fill:#1d1d1b;fill-opacity:1;fill-rule:evenodd;stroke:none"
               id="path9275" />
          </g>
          <g
             id="g9277"
             transform="translate(27.0167,7.9579)">
            <path
               d="m 0,0 c 0,-0.314 -0.255,-0.567 -0.568,-0.567 -0.313,0 -0.567,0.253 -0.567,0.567 0,0.312 0.254,0.566 0.567,0.566 C -0.255,0.566 0,0.312 0,0"
               style="fill:#1d1d1b;fill-opacity:1;fill-rule:evenodd;stroke:none"
               id="path9279" />
          </g>
          <g
             id="g9281"
             transform="translate(26.2511,6.744)">
            <path
               d="m 0,0 c 0,-0.312 -0.254,-0.566 -0.566,-0.566 -0.314,0 -0.568,0.254 -0.568,0.566 0,0.314 0.254,0.567 0.568,0.567 C -0.254,0.567 0,0.314 0,0"
               style="fill:#1d1d1b;fill-opacity:1;fill-rule:evenodd;stroke:none"
               id="path9283" />
          </g>
          <g
             id="g9285"
             transform="translate(21.513,30.5458)">
            <path
               d="m 0,0 c -0.312,0 -0.566,0.255 -0.566,0.567 0,0.314 0.254,0.568 0.566,0.568 0.314,0 0.567,-0.254 0.567,-0.568 C 0.567,0.255 0.314,0 0,0"
               style="fill:#1d1d1b;fill-opacity:1;fill-rule:evenodd;stroke:none"
               id="path9287" />
          </g>
          <g
             id="g9289"
             transform="translate(25.6243,27.9247)">
            <path
               d="M 0,0 C -0.314,0 -0.567,0.254 -0.567,0.566 -0.567,0.88 -0.314,1.134 0,1.134 0.312,1.134 0.566,0.88 0.566,0.566 0.566,0.254 0.312,0 0,0"
               style="fill:#1d1d1b;fill-opacity:1;fill-rule:evenodd;stroke:none"
               id="path9291" />
          </g>
          <g
             id="g9293"
             transform="translate(25.7649,26.2938)">
            <path
               d="m 0,0 c -0.312,0 -0.566,0.255 -0.566,0.567 0,0.314 0.254,0.568 0.566,0.568 0.314,0 0.567,-0.254 0.567,-0.568 C 0.567,0.255 0.314,0 0,0"
               style="fill:#1d1d1b;fill-opacity:1;fill-rule:evenodd;stroke:none"
               id="path9295" />
          </g>
          <g
             id="g9297"
             transform="translate(25.8362,24.8768)">
            <path
               d="M 0,0 C -0.314,0 -0.567,0.254 -0.567,0.567 -0.567,0.88 -0.314,1.134 0,1.134 0.313,1.134 0.567,0.88 0.567,0.567 0.567,0.254 0.313,0 0,0"
               style="fill:#1d1d1b;fill-opacity:1;fill-rule:evenodd;stroke:none"
               id="path9299" />
          </g>
          <text
             transform="matrix(1,0,0,-1,11.0103,40.1113)"
             style="font-variant:normal;font-weight:normal;font-stretch:normal;font-size:7px;font-family:Arial;-inkscape-font-specification:ArialMT;writing-mode:lr-tb;fill:#e30613;fill-opacity:1;fill-rule:nonzero;stroke:none"
             id="text9303"><tspan
               x="0"
               y="0"
               id="tspan9301">ø</tspan></text>
          <text
             transform="matrix(1,0,0,-1,16.8833,40.1113)"
             style="font-variant:normal;font-weight:normal;font-stretch:semi-condensed;font-size:7px;font-family:'Arial Narrow';-inkscape-font-specification:ArialNarrow;writing-mode:lr-tb;fill:#e30613;fill-opacity:1;fill-rule:nonzero;stroke:none"
             id="text9307"><tspan
               x="0 3.1919999 4.7880001"
               y="0"
               sodipodi:role="line"
               id="tspan9305">0.2</tspan></text>
          <path
             d="M 0.567,14.74 H 34.583 V 0.567 H 0.567 Z"
             style="fill:none;stroke:#312783;stroke-width:1.134;stroke-linecap:butt;stroke-linejoin:miter;stroke-miterlimit:22.926;stroke-dasharray:none;stroke-opacity:1"
             id="path9309" />
        </g>
      </g>
      <text
         transform="matrix(0.99994286,0,0,-1,6.5996,5.4199)"
         style="font-variant:normal;font-weight:normal;font-stretch:semi-condensed;font-size:7px;font-family:'Arial Narrow';-inkscape-font-specification:ArialNarrow;writing-mode:lr-tb;fill:#e30613;fill-opacity:1;fill-rule:nonzero;stroke:none"
         id="text9313"><tspan
           x="0 4.7810001 6.0549998 9.2469997"
           y="0"
           sodipodi:role="line"
           id="tspan9311">min.</tspan></text>
    </g>
  </g>
</svg>
