<?xml version="1.0" encoding="UTF-8" standalone="no"?>
<svg xmlns:inkscape="http://www.inkscape.org/namespaces/inkscape" xmlns:sodipodi="http://sodipodi.sourceforge.net/DTD/sodipodi-0.dtd" xmlns="http://www.w3.org/2000/svg" xmlns:svg="http://www.w3.org/2000/svg" version="1.1" id="svg10269" width="72.204803" height="49.900131" viewBox="0 0 72.204803 49.900131" sodipodi:docname="ISOM 214 Bare rock.svg" inkscape:version="1.2.2 (732a01da63, 2022-12-09)">
  <defs id="defs10273">
    <clipPath id="clipPath10285">
      <path d="M 0,37.425 H 54.154 V 0 H 0 Z" id="path10283"></path>
    </clipPath>
  </defs>
  <g id="g10277" inkscape:groupmode="layer" inkscape:label="Page 1" transform="matrix(1.3333333,0,0,-1.3333333,0,49.900133)">
    <g id="g10279">
      <g id="g10281" clip-path="url(#clipPath10285)">
        <g id="g10287" transform="translate(3.7977,26.7841)">
          <path d="m 0,0 c 1.943,-2.521 3.744,-3.384 8.855,-3.744 5.113,-0.361 9.361,-0.937 9.361,1.727 0,2.664 -2.376,1.584 -5.689,1.441 -3.311,-0.144 -7.271,-1.224 -9,1.8 -1.727,3.024 3.889,2.591 0,4.751 C -0.359,8.136 -4.969,6.408 -3.527,4.248 -2.088,2.088 0,0 0,0" style="fill:#bcbcbc;fill-opacity:1;fill-rule:evenodd;stroke:none" id="path10289"></path>
        </g>
        <g id="g10291" transform="translate(23.186,37.2178)">
          <path d="m 0,0 c -1.512,-0.793 -3.456,-5.828 -1.008,-5.611 2.448,0.216 7.896,0.109 7.68,1.693 C 6.456,-2.334 2.088,1.08 0,0" style="fill:#bcbcbc;fill-opacity:1;fill-rule:evenodd;stroke:none" id="path10293"></path>
        </g>
        <g id="g10295" transform="translate(24.3392,27.0908)">
          <path d="m 0,0 c 1.656,-1.512 6.746,-3.672 8.401,-2.448 1.657,1.223 4.894,7.553 2.59,7.553 C 8.688,5.105 7.055,0.916 4.895,1.564 2.734,2.211 -1.295,1.224 0,0" style="fill:#bcbcbc;fill-opacity:1;fill-rule:evenodd;stroke:none" id="path10297"></path>
        </g>
        <path d="m 22.279,10.547 h 5.746 V 4.764 h -5.746 z" style="fill:#bcbcbc;fill-opacity:1;fill-rule:evenodd;stroke:none" id="path10299"></path>
        <text xml:space="preserve" transform="matrix(1,0,0,-1,41.0688,30.0747)" style="font-variant:normal;font-weight:normal;font-stretch:semi-condensed;font-size:7px;font-family:'Arial Narrow';-inkscape-font-specification:ArialNarrow;writing-mode:lr-tb;fill:#e30613;fill-opacity:1;fill-rule:nonzero;stroke:none" id="text10303">
          <tspan x="0 3.1919999 6.3839998 7.98" y="0" sodipodi:role="line" id="tspan10301">35 %</tspan>
        </text>
        <path d="M 1.058,14.74 H 35.074 V 0.567 H 1.058 Z" style="fill:none;stroke:#312783;stroke-width:1.134;stroke-linecap:butt;stroke-linejoin:miter;stroke-miterlimit:22.926;stroke-dasharray:none;stroke-opacity:1" id="path10305"></path>
      </g>
    </g>
    <text xml:space="preserve" transform="matrix(1,0,0,-1,6.9731,5.3887)" style="font-variant:normal;font-weight:normal;font-stretch:semi-condensed;font-size:7px;font-family:'Arial Narrow';-inkscape-font-specification:ArialNarrow;writing-mode:lr-tb;fill:#e30613;fill-opacity:1;fill-rule:nonzero;stroke:none" id="text10309">
      <tspan x="0 4.7810001 6.0549998 9.2469997" y="0" sodipodi:role="line" id="tspan10307">min.</tspan>
    </text>
  </g>
</svg>
