<?xml version="1.0" encoding="UTF-8" standalone="no"?>
<svg xmlns:inkscape="http://www.inkscape.org/namespaces/inkscape" xmlns:sodipodi="http://sodipodi.sourceforge.net/DTD/sodipodi-0.dtd" xmlns="http://www.w3.org/2000/svg" xmlns:svg="http://www.w3.org/2000/svg" version="1.1" id="svg10463" width="98.511734" height="51.937466" viewBox="0 0 98.511734 51.937466" sodipodi:docname="ISOM 301 Uncrossable body of water.svg" inkscape:version="1.2.2 (732a01da63, 2022-12-09)">
  <defs id="defs10467">
    <clipPath id="clipPath10479">
      <path d="M 0,38.953 H 73.884 V 0 H 0 Z" id="path10477"></path>
    </clipPath>
  </defs>
  <g id="g10471" inkscape:groupmode="layer" inkscape:label="Page 1" transform="matrix(1.3333333,0,0,-1.3333333,0,51.937467)">
    <g id="g10473">
      <g id="g10475" clip-path="url(#clipPath10479)">
        <g id="g10481" transform="translate(12.7358,1.0244)">
          <path d="m 0,0 c 3.879,-3.672 8.003,18.375 10.307,20.857 2.089,2.248 7.608,2.911 11.068,1.254 1.598,-0.762 -0.994,-10.416 0.896,-14.162 2.206,-4.375 7.747,-2.758 9.776,-2.045 2.017,0.709 8.494,1.164 7.069,11.549 C 37.689,27.838 16.566,26.566 6.909,24.156 -2.75,21.746 -7.023,12.852 -6.605,10.332 -6.187,7.812 0,0 0,0" style="fill:#009fe3;fill-opacity:1;fill-rule:evenodd;stroke:none" id="path10483"></path>
        </g>
        <g id="g10485" transform="translate(12.7358,1.0244)">
          <path d="m 0,0 c 3.879,-3.672 8.003,18.375 10.307,20.857 2.089,2.248 7.608,2.911 11.068,1.254 1.598,-0.762 -0.994,-10.416 0.896,-14.162 2.206,-4.375 7.747,-2.758 9.776,-2.045 2.017,0.709 8.494,1.164 7.069,11.549 C 37.689,27.838 16.566,26.566 6.909,24.156 -2.75,21.746 -7.023,12.852 -6.605,10.332 -6.187,7.812 0,0 0,0 Z" style="fill:none;stroke:#1d1d1b;stroke-width:0.68;stroke-linecap:butt;stroke-linejoin:miter;stroke-miterlimit:22.926;stroke-dasharray:none;stroke-opacity:1" id="path10487"></path>
        </g>
        <text xml:space="preserve" transform="matrix(1,0,0,-1,58.5386,2.147)" style="font-variant:normal;font-weight:normal;font-stretch:semi-condensed;font-size:7px;font-family:'Arial Narrow';-inkscape-font-specification:ArialNarrow;writing-mode:lr-tb;fill:#e30613;fill-opacity:1;fill-rule:nonzero;stroke:none" id="text10493">
          <tspan x="0 3.1919999 4.7880001 7.98" y="0" sodipodi:role="line" id="tspan10489">0.12</tspan>
          <tspan x="-58.541 -53.759998 -52.486 -49.293999 -48.02 -43.238998 -40.047001 -35.265999 -33.669998 -29.525999 -28.252001 -25.059999 -23.464001 -20.271999 -18.676001 -15.484 -13.888 -10.696 -9.1000004 -7.1890001 -5.5929999 -0.81199998" y="-30.799999" sodipodi:role="line" id="tspan10491">Minimum width 0.3 (IM)</tspan>
        </text>
        <g id="g10495" transform="translate(51.5034,9.4326)">
          <path d="M 0,0 4.283,-3.446" style="fill:none;stroke:#e30613;stroke-width:0.283;stroke-linecap:butt;stroke-linejoin:miter;stroke-miterlimit:22.926;stroke-dasharray:none;stroke-opacity:1" id="path10497"></path>
        </g>
        <text xml:space="preserve" transform="matrix(1,0,0,-1,59.2041,13.2002)" style="font-variant:normal;font-weight:normal;font-stretch:semi-condensed;font-size:7px;font-family:'Arial Narrow';-inkscape-font-specification:ArialNarrow;writing-mode:lr-tb;fill:#e30613;fill-opacity:1;fill-rule:nonzero;stroke:none" id="text10501">
          <tspan x="0 3.1919999 6.3839998 9.5760002" y="0" sodipodi:role="line" id="tspan10499">100%</tspan>
        </text>
        <g id="g10503" transform="translate(29.0873,31.0634)">
          <path d="M 0,0 0.006,-5.639" style="fill:none;stroke:#e30613;stroke-width:0.283;stroke-linecap:butt;stroke-linejoin:miter;stroke-miterlimit:22.926;stroke-dasharray:none;stroke-opacity:1" id="path10505"></path>
        </g>
      </g>
    </g>
  </g>
</svg>
