<?xml version="1.0" encoding="UTF-8" standalone="no"?>
<svg xmlns:inkscape="http://www.inkscape.org/namespaces/inkscape" xmlns:sodipodi="http://sodipodi.sourceforge.net/DTD/sodipodi-0.dtd" xmlns="http://www.w3.org/2000/svg" xmlns:svg="http://www.w3.org/2000/svg" version="1.1" id="svg11066" width="99.577866" height="86.848534" viewBox="0 0 99.577866 86.848534" sodipodi:docname="ISOM 307 Uncrossable marsh.svg" inkscape:version="1.2.2 (732a01da63, 2022-12-09)">
  <defs id="defs11070">
    <clipPath id="clipPath11082">
      <path d="m 30.782,56.913 c -2.45,0.143 -2.592,-0.361 -2.808,-2.16 v 0 c -0.076,-1.405 -0.146,-2.088 -1.441,-3.745 v 0 C 25.237,49.352 20.487,49.064 17.174,46.4 v 0 c -3.312,-2.664 0.863,-10.151 2.809,-13.752 v 0 c 1.943,-3.6 4.103,-4.607 7.054,-4.752 v 0 c 2.954,-0.143 6.841,5.544 10.657,9.145 v 0 c 3.815,3.599 5.256,2.664 9.503,4.103 v 0 c 4.249,1.441 5.76,4.465 6.049,6.912 v 0 c 0.162,1.382 -1.185,2.189 -2.828,2.681 v 0 L 38.014,54.02 c -3.084,1.855 -5.067,3.247 -5.067,3.247 v 0 C 32.039,56.099 32.441,56.81 30.782,56.913" id="path11080"></path>
    </clipPath>
    <clipPath id="clipPath11130">
      <path d="M 0,65.136 H 74.683 V 0 H 0 Z" id="path11128"></path>
    </clipPath>
    <clipPath id="clipPath11146">
      <path d="m 31.044,14.126 c 0,-1.441 1.168,-2.609 2.608,-2.609 v 0 c 1.441,0 2.608,1.168 2.608,2.609 v 0 c 0,1.439 -1.167,2.607 -2.608,2.607 v 0 c -1.44,0 -2.608,-1.168 -2.608,-2.607" id="path11144"></path>
    </clipPath>
    <clipPath id="clipPath11162">
      <path d="M 0,65.136 H 74.683 V 0 H 0 Z" id="path11160"></path>
    </clipPath>
    <clipPath id="clipPath11184">
      <path d="M 0,65.136 H 74.683 V 0 H 0 Z" id="path11182"></path>
    </clipPath>
  </defs>
  <g id="g11074" inkscape:groupmode="layer" inkscape:label="Page 1" transform="matrix(1.3333333,0,0,-1.3333333,0,86.848533)">
    <g id="g11076">
      <g id="g11078" clip-path="url(#clipPath11082)">
        <g id="g11084" transform="translate(14.3654,29.3369)">
          <path d="M 0,0 H 40.536" style="fill:none;stroke:#00a0dd;stroke-width:1.417;stroke-linecap:butt;stroke-linejoin:miter;stroke-miterlimit:22.926;stroke-dasharray:none;stroke-opacity:1" id="path11086"></path>
        </g>
        <g id="g11088" transform="translate(14.3654,32.1719)">
          <path d="M 0,0 H 40.536" style="fill:none;stroke:#00a0dd;stroke-width:1.417;stroke-linecap:butt;stroke-linejoin:miter;stroke-miterlimit:22.926;stroke-dasharray:none;stroke-opacity:1" id="path11090"></path>
        </g>
        <g id="g11092" transform="translate(14.3654,35.0059)">
          <path d="M 0,0 H 40.536" style="fill:none;stroke:#00a0dd;stroke-width:1.417;stroke-linecap:butt;stroke-linejoin:miter;stroke-miterlimit:22.926;stroke-dasharray:none;stroke-opacity:1" id="path11094"></path>
        </g>
        <g id="g11096" transform="translate(14.3654,37.8408)">
          <path d="M 0,0 H 40.536" style="fill:none;stroke:#00a0dd;stroke-width:1.417;stroke-linecap:butt;stroke-linejoin:miter;stroke-miterlimit:22.926;stroke-dasharray:none;stroke-opacity:1" id="path11098"></path>
        </g>
        <g id="g11100" transform="translate(14.3654,40.6758)">
          <path d="M 0,0 H 40.536" style="fill:none;stroke:#00a0dd;stroke-width:1.417;stroke-linecap:butt;stroke-linejoin:miter;stroke-miterlimit:22.926;stroke-dasharray:none;stroke-opacity:1" id="path11102"></path>
        </g>
        <g id="g11104" transform="translate(14.3654,43.5098)">
          <path d="M 0,0 H 40.536" style="fill:none;stroke:#00a0dd;stroke-width:1.417;stroke-linecap:butt;stroke-linejoin:miter;stroke-miterlimit:22.926;stroke-dasharray:none;stroke-opacity:1" id="path11106"></path>
        </g>
        <g id="g11108" transform="translate(14.3654,46.3447)">
          <path d="M 0,0 H 40.536" style="fill:none;stroke:#00a0dd;stroke-width:1.417;stroke-linecap:butt;stroke-linejoin:miter;stroke-miterlimit:22.926;stroke-dasharray:none;stroke-opacity:1" id="path11110"></path>
        </g>
        <g id="g11112" transform="translate(14.3654,49.1797)">
          <path d="M 0,0 H 40.536" style="fill:none;stroke:#00a0dd;stroke-width:1.417;stroke-linecap:butt;stroke-linejoin:miter;stroke-miterlimit:22.926;stroke-dasharray:none;stroke-opacity:1" id="path11114"></path>
        </g>
        <g id="g11116" transform="translate(14.3654,52.0137)">
          <path d="M 0,0 H 40.536" style="fill:none;stroke:#00a0dd;stroke-width:1.417;stroke-linecap:butt;stroke-linejoin:miter;stroke-miterlimit:22.926;stroke-dasharray:none;stroke-opacity:1" id="path11118"></path>
        </g>
        <g id="g11120" transform="translate(14.3654,55.2129)">
          <path d="M 0,0 H 40.536" style="fill:none;stroke:#00a0dd;stroke-width:1.417;stroke-linecap:butt;stroke-linejoin:miter;stroke-miterlimit:22.926;stroke-dasharray:none;stroke-opacity:1" id="path11122"></path>
        </g>
      </g>
    </g>
    <g id="g11124">
      <g id="g11126" clip-path="url(#clipPath11130)">
        <g id="g11132" transform="translate(34.0412,56.54)">
          <path d="m 0,0 c 4.68,-3.673 10.41,-5.243 16.377,-5.804 5.967,-0.558 2.926,3.11 7.102,1.453 4.859,-1.925 7.812,-1.205 9.378,2.651 C 36.82,8.052 15.27,10.037 3.803,6.854 0.342,5.894 -3.447,1.1 0,0" style="fill:#00a0dd;fill-opacity:1;fill-rule:evenodd;stroke:none" id="path11134"></path>
        </g>
        <g id="g11136" transform="translate(51.1808,50.5762)">
          <path d="m 0,0 c 1.644,-0.491 2.227,-1.139 2.065,-2.52 -0.289,-2.447 -1.8,-5.471 -6.048,-6.912 -4.248,-1.439 -5.689,-0.504 -9.504,-4.103 -3.816,-3.601 -7.703,-9.288 -10.657,-9.145 -2.951,0.145 -5.111,1.153 -7.054,4.752 -1.946,3.601 -6.121,11.088 -2.809,13.752 3.313,2.664 8.063,2.952 9.359,4.609 1.295,1.656 1.366,2.338 1.441,3.744 0.216,1.8 0.358,2.303 2.808,2.16 1.66,-0.104 1.257,-0.815 2.166,0.353 -1.868,1.951 1.435,5.167 4.896,6.128 C -1.87,16.001 19.681,14.016 15.718,4.264 14.151,0.408 11.198,-0.312 6.34,1.613 2.707,3.055 3.606,0.063 0.78,-0.02 0.358,-0.032 -0.161,-0.032 -0.763,0.16" style="fill:none;stroke:#1d1d1b;stroke-width:0.68;stroke-linecap:butt;stroke-linejoin:miter;stroke-miterlimit:22.926;stroke-dasharray:none;stroke-opacity:1" id="path11138"></path>
        </g>
      </g>
    </g>
    <g id="g11140">
      <g id="g11142" clip-path="url(#clipPath11146)">
        <g id="g11148" transform="translate(30.1008,15.5418)">
          <path d="M 0,0 H 6.944" style="fill:none;stroke:#00a0dd;stroke-width:1.417;stroke-linecap:butt;stroke-linejoin:miter;stroke-miterlimit:22.926;stroke-dasharray:none;stroke-opacity:1" id="path11150"></path>
        </g>
        <g id="g11152" transform="translate(30.1,12.7078)">
          <path d="M 0,0 H 6.944" style="fill:none;stroke:#00a0dd;stroke-width:1.417;stroke-linecap:butt;stroke-linejoin:miter;stroke-miterlimit:22.926;stroke-dasharray:none;stroke-opacity:1" id="path11154"></path>
        </g>
      </g>
    </g>
    <g id="g11156">
      <g id="g11158" clip-path="url(#clipPath11162)">
        <g id="g11164" transform="translate(33.6523,16.7327)">
          <path d="m 0,0 c 1.441,0 2.607,-1.168 2.607,-2.607 0,-1.441 -1.166,-2.609 -2.607,-2.609 -1.441,0 -2.608,1.168 -2.608,2.609 C -2.608,-1.168 -1.441,0 0,0 Z" style="fill:none;stroke:#00111e;stroke-width:0.68;stroke-linecap:butt;stroke-linejoin:miter;stroke-miterlimit:22.926;stroke-dasharray:none;stroke-opacity:1" id="path11166"></path>
        </g>
        <text xml:space="preserve" transform="matrix(1,0,0,-1,63.5101,43.6855)" style="font-variant:normal;font-weight:normal;font-stretch:semi-condensed;font-size:7px;font-family:'Arial Narrow';-inkscape-font-specification:ArialNarrow;writing-mode:lr-tb;fill:#e30613;fill-opacity:1;fill-rule:nonzero;stroke:none" id="text11170">
          <tspan x="0 3.1919999 4.7880001 7.98" y="0" sodipodi:role="line" id="tspan11168">0.12</tspan>
        </text>
      </g>
    </g>
    <text xml:space="preserve" transform="matrix(1,0,0,-1,42.9956,28.5234)" style="font-variant:normal;font-weight:normal;font-stretch:semi-condensed;font-size:7px;font-family:'Arial Narrow';-inkscape-font-specification:ArialNarrow;writing-mode:lr-tb;fill:#e30613;fill-opacity:1;fill-rule:nonzero;stroke:none" id="text11176">
      <tspan x="0 3.1919999 4.7880001 7.98 9.5760002 11.487 15.631 19.775" y="0" sodipodi:role="line" id="tspan11172">0.5 (CC)</tspan>
      <tspan x="-41.537998 -39.942001 -36.75 -35.153999 -31.962" y="1.344" sodipodi:role="line" id="tspan11174"> 0.25</tspan>
    </text>
    <g id="g11178">
      <g id="g11180" clip-path="url(#clipPath11184)">
        <g id="g11186" transform="translate(3.2715,54.823)">
          <path d="M 0,0 3.24,-6.285 H 1.068 v -9.848 h -2.17 v 9.848 h -2.169 z" style="fill:#e30613;fill-opacity:1;fill-rule:evenodd;stroke:none" id="path11188"></path>
        </g>
        <g id="g11190" transform="translate(61.7208,46.2373)">
          <path d="M 0,0 -8.132,1.812" style="fill:none;stroke:#e30613;stroke-width:0.283;stroke-linecap:butt;stroke-linejoin:miter;stroke-miterlimit:22.926;stroke-dasharray:none;stroke-opacity:1" id="path11192"></path>
        </g>
        <g id="g11194" transform="translate(21.6339,32.1367)">
          <path d="M 0,0 -6.136,-2.655" style="fill:none;stroke:#e30613;stroke-width:0.283;stroke-linecap:butt;stroke-linejoin:miter;stroke-miterlimit:22.926;stroke-dasharray:none;stroke-opacity:1" id="path11196"></path>
        </g>
        <g id="g11198" transform="translate(36.4129,32.1875)">
          <path d="M 0,0 H 4.252" style="fill:none;stroke:#e30613;stroke-width:0.283;stroke-linecap:butt;stroke-linejoin:miter;stroke-miterlimit:22.926;stroke-dasharray:none;stroke-opacity:1" id="path11200"></path>
        </g>
        <g id="g11202" transform="translate(36.4126,29.3389)">
          <path d="M 0,0 H 4.252" style="fill:none;stroke:#e30613;stroke-width:0.288;stroke-linecap:butt;stroke-linejoin:miter;stroke-miterlimit:22.926;stroke-dasharray:none;stroke-opacity:1" id="path11204"></path>
        </g>
        <path d="m 13.177,20.41 h 42.52 V 0.567 h -42.52 z" style="fill:none;stroke:#312783;stroke-width:1.134;stroke-linecap:butt;stroke-linejoin:miter;stroke-miterlimit:22.926;stroke-dasharray:none;stroke-opacity:1" id="path11206"></path>
      </g>
    </g>
    <text xml:space="preserve" transform="matrix(1,0,0,-1,17.5303,4.3643)" style="font-variant:normal;font-weight:normal;font-stretch:semi-condensed;font-size:7px;font-family:'Arial Narrow';-inkscape-font-specification:ArialNarrow;writing-mode:lr-tb;fill:#e30613;fill-opacity:1;fill-rule:nonzero;stroke:none" id="text11210">
      <tspan x="0 4.7810001 6.0549998 9.2469997 10.843 12.439 15.631 17.226999 20.419001 22.014999 23.926001 25.521999 30.302999 32.214001" y="0" sodipodi:role="line" id="tspan11208">min. 0.8 (IM) </tspan>
    </text>
  </g>
</svg>
