<?xml version="1.0" encoding="UTF-8" standalone="no"?>
<svg xmlns:inkscape="http://www.inkscape.org/namespaces/inkscape" xmlns:sodipodi="http://sodipodi.sourceforge.net/DTD/sodipodi-0.dtd" xmlns="http://www.w3.org/2000/svg" xmlns:svg="http://www.w3.org/2000/svg" version="1.1" id="svg11292" width="97.006264" height="67.607201" viewBox="0 0 97.006264 67.607201" sodipodi:docname="ISOM 308 Marsh.svg" inkscape:version="1.2.2 (732a01da63, 2022-12-09)">
  <defs id="defs11296">
    <clipPath id="clipPath11316">
      <path d="m 28.018,46.619 c -0.216,-1.8 -0.144,-2.088 -1.439,-3.743 v 0 c -1.297,-1.657 -13.68,0.359 -9.361,-4.609 v 0 c 4.32,-4.968 0.865,-10.152 2.808,-13.753 v 0 c 1.944,-3.599 11.448,-4.535 19.873,-3.672 v 0 c 8.424,0.866 -7.416,11.088 -8.641,14.257 v 0 c -0.684,1.77 1.443,0.977 4.193,0.184 v 0 c 2.172,-0.626 4.732,-1.252 6.607,-0.617 v 0 c 4.248,1.441 10.945,2.809 11.232,5.256 v 0 c 0.289,2.449 -2.016,5.185 -5.327,5.689 v 0 c -1.316,0.2 -2.609,0.07 -3.894,-0.058 v 0 c -1.947,-0.197 -3.874,-0.393 -5.826,0.562 v 0 c -1.536,0.728 -2.981,1.047 -4.845,1.047 v 0 c -1.456,0 -3.169,-0.195 -5.38,-0.543" id="path11314"></path>
    </clipPath>
    <clipPath id="clipPath11388">
      <path d="M 0,50.705 H 72.755 V 0 H 0 Z" id="path11386"></path>
    </clipPath>
    <clipPath id="clipPath11430">
      <path d="M 0,50.705 H 72.755 V 0 H 0 Z" id="path11428"></path>
    </clipPath>
  </defs>
  <g id="g11300" inkscape:groupmode="layer" inkscape:label="Page 1" transform="matrix(1.3333333,0,0,-1.3333333,0,67.6072)">
    <g id="g11302" transform="translate(35.8546,6.8043)">
      <path d="M 0,0 H 2.834" style="fill:none;stroke:#00a0dd;stroke-width:0.68;stroke-linecap:butt;stroke-linejoin:miter;stroke-miterlimit:22.926;stroke-dasharray:none;stroke-opacity:1" id="path11304"></path>
    </g>
    <g id="g11306" transform="translate(35.8546,8.5044)">
      <path d="M 0,0 H 2.834" style="fill:none;stroke:#00a0dd;stroke-width:0.68;stroke-linecap:butt;stroke-linejoin:miter;stroke-miterlimit:22.926;stroke-dasharray:none;stroke-opacity:1" id="path11308"></path>
    </g>
    <g id="g11310">
      <g id="g11312" clip-path="url(#clipPath11316)">
        <g id="g11318" transform="translate(14.4106,21.4859)">
          <path d="M 0,0 H 40.535" style="fill:none;stroke:#00a0dd;stroke-width:0.567;stroke-linecap:butt;stroke-linejoin:miter;stroke-miterlimit:22.926;stroke-dasharray:none;stroke-opacity:1" id="path11320"></path>
        </g>
        <g id="g11322" transform="translate(14.4106,23.1861)">
          <path d="M 0,0 H 40.535" style="fill:none;stroke:#00a0dd;stroke-width:0.567;stroke-linecap:butt;stroke-linejoin:miter;stroke-miterlimit:22.926;stroke-dasharray:none;stroke-opacity:1" id="path11324"></path>
        </g>
        <g id="g11326" transform="translate(14.4106,24.8873)">
          <path d="M 0,0 H 40.535" style="fill:none;stroke:#00a0dd;stroke-width:0.567;stroke-linecap:butt;stroke-linejoin:miter;stroke-miterlimit:22.926;stroke-dasharray:none;stroke-opacity:1" id="path11328"></path>
        </g>
        <g id="g11330" transform="translate(14.4106,26.5885)">
          <path d="M 0,0 H 40.535" style="fill:none;stroke:#00a0dd;stroke-width:0.567;stroke-linecap:butt;stroke-linejoin:miter;stroke-miterlimit:22.926;stroke-dasharray:none;stroke-opacity:1" id="path11332"></path>
        </g>
        <g id="g11334" transform="translate(14.4106,28.2897)">
          <path d="M 0,0 H 40.535" style="fill:none;stroke:#00a0dd;stroke-width:0.567;stroke-linecap:butt;stroke-linejoin:miter;stroke-miterlimit:22.926;stroke-dasharray:none;stroke-opacity:1" id="path11336"></path>
        </g>
        <g id="g11338" transform="translate(14.4106,29.9899)">
          <path d="M 0,0 H 40.535" style="fill:none;stroke:#00a0dd;stroke-width:0.567;stroke-linecap:butt;stroke-linejoin:miter;stroke-miterlimit:22.926;stroke-dasharray:none;stroke-opacity:1" id="path11340"></path>
        </g>
        <g id="g11342" transform="translate(14.4106,31.6901)">
          <path d="M 0,0 H 40.535" style="fill:none;stroke:#00a0dd;stroke-width:0.567;stroke-linecap:butt;stroke-linejoin:miter;stroke-miterlimit:22.926;stroke-dasharray:none;stroke-opacity:1" id="path11344"></path>
        </g>
        <g id="g11346" transform="translate(14.4106,33.3912)">
          <path d="M 0,0 H 40.535" style="fill:none;stroke:#00a0dd;stroke-width:0.567;stroke-linecap:butt;stroke-linejoin:miter;stroke-miterlimit:22.926;stroke-dasharray:none;stroke-opacity:1" id="path11348"></path>
        </g>
        <g id="g11350" transform="translate(14.4106,35.0924)">
          <path d="M 0,0 H 40.535" style="fill:none;stroke:#00a0dd;stroke-width:0.567;stroke-linecap:butt;stroke-linejoin:miter;stroke-miterlimit:22.926;stroke-dasharray:none;stroke-opacity:1" id="path11352"></path>
        </g>
        <g id="g11354" transform="translate(14.4106,36.7936)">
          <path d="M 0,0 H 40.535" style="fill:none;stroke:#00a0dd;stroke-width:0.567;stroke-linecap:butt;stroke-linejoin:miter;stroke-miterlimit:22.926;stroke-dasharray:none;stroke-opacity:1" id="path11356"></path>
        </g>
        <g id="g11358" transform="translate(14.4106,38.4938)">
          <path d="M 0,0 H 40.535" style="fill:none;stroke:#00a0dd;stroke-width:0.567;stroke-linecap:butt;stroke-linejoin:miter;stroke-miterlimit:22.926;stroke-dasharray:none;stroke-opacity:1" id="path11360"></path>
        </g>
        <g id="g11362" transform="translate(14.4106,40.194)">
          <path d="M 0,0 H 40.535" style="fill:none;stroke:#00a0dd;stroke-width:0.567;stroke-linecap:butt;stroke-linejoin:miter;stroke-miterlimit:22.926;stroke-dasharray:none;stroke-opacity:1" id="path11364"></path>
        </g>
        <g id="g11366" transform="translate(14.4106,41.8951)">
          <path d="M 0,0 H 40.535" style="fill:none;stroke:#00a0dd;stroke-width:0.567;stroke-linecap:butt;stroke-linejoin:miter;stroke-miterlimit:22.926;stroke-dasharray:none;stroke-opacity:1" id="path11368"></path>
        </g>
        <g id="g11370" transform="translate(14.4106,43.5963)">
          <path d="M 0,0 H 40.535" style="fill:none;stroke:#00a0dd;stroke-width:0.567;stroke-linecap:butt;stroke-linejoin:miter;stroke-miterlimit:22.926;stroke-dasharray:none;stroke-opacity:1" id="path11372"></path>
        </g>
        <g id="g11374" transform="translate(14.4106,45.2975)">
          <path d="M 0,0 H 40.535" style="fill:none;stroke:#00a0dd;stroke-width:0.567;stroke-linecap:butt;stroke-linejoin:miter;stroke-miterlimit:22.926;stroke-dasharray:none;stroke-opacity:1" id="path11376"></path>
        </g>
        <g id="g11378" transform="translate(14.4106,46.9977)">
          <path d="M 0,0 H 40.535" style="fill:none;stroke:#00a0dd;stroke-width:0.567;stroke-linecap:butt;stroke-linejoin:miter;stroke-miterlimit:22.926;stroke-dasharray:none;stroke-opacity:1" id="path11380"></path>
        </g>
      </g>
    </g>
    <g id="g11382">
      <g id="g11384" clip-path="url(#clipPath11388)">
        <text xml:space="preserve" transform="matrix(1,0,0,-1,60.8782,44.6997)" style="font-variant:normal;font-weight:normal;font-stretch:semi-condensed;font-size:7px;font-family:'Arial Narrow';-inkscape-font-specification:ArialNarrow;writing-mode:lr-tb;fill:#e30613;fill-opacity:1;fill-rule:nonzero;stroke:none" id="text11394">
          <tspan x="0 3.1919999 4.7880001" y="0" sodipodi:role="line" id="tspan11390">0.1</tspan>
          <tspan x="-9.8070002 -6.6149998 -5.0190001 -1.827 -0.23100001 1.6799999 5.8239999 9.9680004" y="23.009001" sodipodi:role="line" id="tspan11392">0.3 (CC)</tspan>
        </text>
      </g>
    </g>
    <g id="g11396" transform="translate(0,35.9694)">
      <path d="m 0,0 h 2.171 v -9.848 h 2.17 L 4.341,0 H 6.512 L 3.271,6.285 Z" style="fill:#e30613;fill-opacity:1;fill-rule:nonzero;stroke:none" id="path11398"></path>
    </g>
    <g id="g11400" transform="translate(58.976,46.0641)">
      <path d="M 0,0 -5.544,-4.011" style="fill:none;stroke:#e30613;stroke-width:0.283;stroke-linecap:butt;stroke-linejoin:miter;stroke-miterlimit:22.926;stroke-dasharray:none;stroke-opacity:1" id="path11402"></path>
    </g>
    <text xml:space="preserve" transform="matrix(1,0,0,-1,46.2606,6.2417)" style="font-variant:normal;font-weight:normal;font-stretch:semi-condensed;font-size:7px;font-family:'Arial Narrow';-inkscape-font-specification:ArialNarrow;writing-mode:lr-tb;fill:#e30613;fill-opacity:1;fill-rule:nonzero;stroke:none" id="text11406">
      <tspan x="0 3.1919999 4.7880001 7.98" y="0" sodipodi:role="line" id="tspan11404">0.12</tspan>
    </text>
    <g id="g11408" transform="translate(44.4992,8.5044)">
      <path d="M 0,0 H -4.252" style="fill:none;stroke:#e30613;stroke-width:0.283;stroke-linecap:butt;stroke-linejoin:miter;stroke-miterlimit:22.926;stroke-dasharray:none;stroke-opacity:1" id="path11410"></path>
    </g>
    <g id="g11412" transform="translate(44.6645,24.9049)">
      <path d="M 0,0 H 4.252" style="fill:none;stroke:#e30613;stroke-width:0.283;stroke-linecap:butt;stroke-linejoin:miter;stroke-miterlimit:22.926;stroke-dasharray:none;stroke-opacity:1" id="path11414"></path>
    </g>
    <g id="g11416" transform="translate(44.6645,23.0289)">
      <path d="M 0,0 H 4.252" style="fill:none;stroke:#e30613;stroke-width:0.283;stroke-linecap:butt;stroke-linejoin:miter;stroke-miterlimit:22.926;stroke-dasharray:none;stroke-opacity:1" id="path11418"></path>
    </g>
    <text xml:space="preserve" transform="matrix(1,0,0,-1,20.5107,5.3877)" style="font-variant:normal;font-weight:normal;font-stretch:semi-condensed;font-size:7px;font-family:'Arial Narrow';-inkscape-font-specification:ArialNarrow;writing-mode:lr-tb;fill:#e30613;fill-opacity:1;fill-rule:nonzero;stroke:none" id="text11422">
      <tspan x="0 4.7810001 6.0549998 9.2469997" y="0" sodipodi:role="line" id="tspan11420">min.</tspan>
    </text>
    <g id="g11424">
      <g id="g11426" clip-path="url(#clipPath11430)">
        <path d="M 14.594,14.74 H 63.542 V 0.567 H 14.594 Z" style="fill:none;stroke:#312783;stroke-width:1.134;stroke-linecap:butt;stroke-linejoin:miter;stroke-miterlimit:22.926;stroke-dasharray:none;stroke-opacity:1" id="path11432"></path>
      </g>
    </g>
  </g>
</svg>
