<?xml version="1.0" encoding="UTF-8" standalone="no"?>
<!-- Created with Inkscape (http://www.inkscape.org/) -->

<svg
   width="30mm"
   height="15mm"
   viewBox="0 0 30 15"
   version="1.1"
   id="svg1522"
   inkscape:version="1.1.1 (3bf5ae0d25, 2021-09-20)"
   sodipodi:docname="ISOM 309 Narrow marsh.svg"
   xmlns:inkscape="http://www.inkscape.org/namespaces/inkscape"
   xmlns:sodipodi="http://sodipodi.sourceforge.net/DTD/sodipodi-0.dtd"
   xmlns="http://www.w3.org/2000/svg"
   xmlns:svg="http://www.w3.org/2000/svg">
  <sodipodi:namedview
     id="namedview1524"
     pagecolor="#ffffff"
     bordercolor="#666666"
     borderopacity="1.0"
     inkscape:pageshadow="2"
     inkscape:pageopacity="0.0"
     inkscape:pagecheckerboard="true"
     inkscape:document-units="mm"
     showgrid="false"
     inkscape:zoom="2.9647587"
     inkscape:cx="128.00367"
     inkscape:cy="132.05122"
     inkscape:window-width="1920"
     inkscape:window-height="1017"
     inkscape:window-x="-8"
     inkscape:window-y="-8"
     inkscape:window-maximized="1"
     inkscape:current-layer="layer1" />
  <defs
     id="defs1519">
    <clipPath
       clipPathUnits="userSpaceOnUse"
       id="clipPath1540">
      <path
         d="M 0,37.249 H 79.408 V 0 H 0 Z"
         id="path1538" />
    </clipPath>
    <clipPath
       clipPathUnits="userSpaceOnUse"
       id="clipPath1648">
      <path
         d="M 0,37.249 H 79.408 V 0 H 0 Z"
         id="path1646" />
    </clipPath>
    <clipPath
       clipPathUnits="userSpaceOnUse"
       id="clipPath1668">
      <path
         d="M 0,37.249 H 79.408 V 0 H 0 Z"
         id="path1666" />
    </clipPath>
  </defs>
  <g
     inkscape:label="Ebene 1"
     inkscape:groupmode="layer"
     id="layer1">
    <g
       id="g1532"
       inkscape:label="ISOM 309 Narrow marsh"
       transform="matrix(0.35277777,0,0,-0.35277777,1.035658,13.898145)">
      <g
         id="g1534">
        <g
           id="g1536"
           clip-path="url(#clipPath1540)">
          <g
             id="g1542"
             transform="translate(0.709,32.6219)">
            <path
               d="m 0,0 c -0.391,0 -0.709,0.318 -0.709,0.709 0,0.393 0.318,0.709 0.709,0.709 0.392,0 0.709,-0.316 0.709,-0.709 C 0.709,0.318 0.392,0 0,0"
               style="fill:#00a0dd;fill-opacity:1;fill-rule:evenodd;stroke:none"
               id="path1544" />
          </g>
          <g
             id="g1546"
             transform="translate(3.5439,32.6219)">
            <path
               d="m 0,0 c -0.391,0 -0.709,0.318 -0.709,0.709 0,0.393 0.318,0.709 0.709,0.709 0.391,0 0.709,-0.316 0.709,-0.709 C 0.709,0.318 0.391,0 0,0"
               style="fill:#00a0dd;fill-opacity:1;fill-rule:evenodd;stroke:none"
               id="path1548" />
          </g>
          <g
             id="g1550"
             transform="translate(6.3779,32.6219)">
            <path
               d="m 0,0 c -0.391,0 -0.709,0.318 -0.709,0.709 0,0.393 0.318,0.709 0.709,0.709 0.392,0 0.709,-0.316 0.709,-0.709 C 0.709,0.318 0.392,0 0,0"
               style="fill:#00a0dd;fill-opacity:1;fill-rule:evenodd;stroke:none"
               id="path1552" />
          </g>
          <g
             id="g1554"
             transform="translate(9.2129,32.6219)">
            <path
               d="m 0,0 c -0.392,0 -0.709,0.318 -0.709,0.709 0,0.393 0.317,0.709 0.709,0.709 0.392,0 0.71,-0.316 0.71,-0.709 C 0.71,0.318 0.392,0 0,0"
               style="fill:#00a0dd;fill-opacity:1;fill-rule:evenodd;stroke:none"
               id="path1556" />
          </g>
          <g
             id="g1558"
             transform="translate(12.0478,32.6219)">
            <path
               d="m 0,0 c -0.391,0 -0.709,0.318 -0.709,0.709 0,0.393 0.318,0.709 0.709,0.709 0.391,0 0.709,-0.316 0.709,-0.709 C 0.709,0.318 0.391,0 0,0"
               style="fill:#00a0dd;fill-opacity:1;fill-rule:evenodd;stroke:none"
               id="path1560" />
          </g>
          <g
             id="g1562"
             transform="translate(14.8818,32.6219)">
            <path
               d="m 0,0 c -0.391,0 -0.709,0.318 -0.709,0.709 0,0.393 0.318,0.709 0.709,0.709 0.392,0 0.709,-0.316 0.709,-0.709 C 0.709,0.318 0.392,0 0,0"
               style="fill:#00a0dd;fill-opacity:1;fill-rule:evenodd;stroke:none"
               id="path1564" />
          </g>
          <g
             id="g1566"
             transform="translate(17.7168,32.6219)">
            <path
               d="m 0,0 c -0.391,0 -0.709,0.318 -0.709,0.709 0,0.393 0.318,0.709 0.709,0.709 0.392,0 0.709,-0.316 0.709,-0.709 C 0.709,0.318 0.392,0 0,0"
               style="fill:#00a0dd;fill-opacity:1;fill-rule:evenodd;stroke:none"
               id="path1568" />
          </g>
          <g
             id="g1570"
             transform="translate(20.5517,32.6219)">
            <path
               d="m 0,0 c -0.391,0 -0.709,0.318 -0.709,0.709 0,0.393 0.318,0.709 0.709,0.709 0.391,0 0.709,-0.316 0.709,-0.709 C 0.709,0.318 0.391,0 0,0"
               style="fill:#00a0dd;fill-opacity:1;fill-rule:evenodd;stroke:none"
               id="path1572" />
          </g>
          <g
             id="g1574"
             transform="translate(23.3857,32.6219)">
            <path
               d="m 0,0 c -0.392,0 -0.709,0.318 -0.709,0.709 0,0.393 0.317,0.709 0.709,0.709 0.392,0 0.709,-0.316 0.709,-0.709 C 0.709,0.318 0.392,0 0,0"
               style="fill:#00a0dd;fill-opacity:1;fill-rule:evenodd;stroke:none"
               id="path1576" />
          </g>
          <g
             id="g1578"
             transform="translate(26.2207,32.6219)">
            <path
               d="m 0,0 c -0.391,0 -0.709,0.318 -0.709,0.709 0,0.393 0.318,0.709 0.709,0.709 0.392,0 0.709,-0.316 0.709,-0.709 C 0.709,0.318 0.392,0 0,0"
               style="fill:#00a0dd;fill-opacity:1;fill-rule:evenodd;stroke:none"
               id="path1580" />
          </g>
          <g
             id="g1582"
             transform="translate(29.0556,32.6219)">
            <path
               d="m 0,0 c -0.393,0 -0.709,0.318 -0.709,0.709 0,0.393 0.316,0.709 0.709,0.709 0.391,0 0.709,-0.316 0.709,-0.709 C 0.709,0.318 0.391,0 0,0"
               style="fill:#00a0dd;fill-opacity:1;fill-rule:evenodd;stroke:none"
               id="path1584" />
          </g>
          <g
             id="g1586"
             transform="translate(31.8896,32.6219)">
            <path
               d="m 0,0 c -0.391,0 -0.709,0.318 -0.709,0.709 0,0.393 0.318,0.709 0.709,0.709 0.392,0 0.709,-0.316 0.709,-0.709 C 0.709,0.318 0.392,0 0,0"
               style="fill:#00a0dd;fill-opacity:1;fill-rule:evenodd;stroke:none"
               id="path1588" />
          </g>
          <g
             id="g1590"
             transform="translate(34.7256,32.6219)">
            <path
               d="m 0,0 c -0.392,0 -0.709,0.318 -0.709,0.709 0,0.393 0.317,0.709 0.709,0.709 0.391,0 0.709,-0.316 0.709,-0.709 C 0.709,0.318 0.391,0 0,0"
               style="fill:#00a0dd;fill-opacity:1;fill-rule:evenodd;stroke:none"
               id="path1592" />
          </g>
          <g
             id="g1594"
             transform="translate(37.5595,32.6219)">
            <path
               d="m 0,0 c -0.391,0 -0.709,0.318 -0.709,0.709 0,0.393 0.318,0.709 0.709,0.709 0.393,0 0.709,-0.316 0.709,-0.709 C 0.709,0.318 0.393,0 0,0"
               style="fill:#00a0dd;fill-opacity:1;fill-rule:evenodd;stroke:none"
               id="path1596" />
          </g>
          <g
             id="g1598"
             transform="translate(40.3935,32.6219)">
            <path
               d="m 0,0 c -0.391,0 -0.709,0.318 -0.709,0.709 0,0.393 0.318,0.709 0.709,0.709 0.392,0 0.709,-0.316 0.709,-0.709 C 0.709,0.318 0.392,0 0,0"
               style="fill:#00a0dd;fill-opacity:1;fill-rule:evenodd;stroke:none"
               id="path1600" />
          </g>
          <g
             id="g1602"
             transform="translate(43.2295,32.6219)">
            <path
               d="m 0,0 c -0.393,0 -0.709,0.318 -0.709,0.709 0,0.393 0.316,0.709 0.709,0.709 0.391,0 0.709,-0.316 0.709,-0.709 C 0.709,0.318 0.391,0 0,0"
               style="fill:#00a0dd;fill-opacity:1;fill-rule:evenodd;stroke:none"
               id="path1604" />
          </g>
          <g
             id="g1606"
             transform="translate(46.0634,32.6219)">
            <path
               d="m 0,0 c -0.393,0 -0.709,0.318 -0.709,0.709 0,0.393 0.316,0.709 0.709,0.709 0.391,0 0.709,-0.316 0.709,-0.709 C 0.709,0.318 0.391,0 0,0"
               style="fill:#00a0dd;fill-opacity:1;fill-rule:evenodd;stroke:none"
               id="path1608" />
          </g>
          <g
             id="g1610"
             transform="translate(48.8974,32.6219)">
            <path
               d="m 0,0 c -0.391,0 -0.709,0.318 -0.709,0.709 0,0.393 0.318,0.709 0.709,0.709 0.392,0 0.709,-0.316 0.709,-0.709 C 0.709,0.318 0.392,0 0,0"
               style="fill:#00a0dd;fill-opacity:1;fill-rule:evenodd;stroke:none"
               id="path1612" />
          </g>
          <g
             id="g1614"
             transform="translate(51.7334,32.6219)">
            <path
               d="m 0,0 c -0.392,0 -0.709,0.318 -0.709,0.709 0,0.393 0.317,0.709 0.709,0.709 0.391,0 0.709,-0.316 0.709,-0.709 C 0.709,0.318 0.391,0 0,0"
               style="fill:#00a0dd;fill-opacity:1;fill-rule:evenodd;stroke:none"
               id="path1616" />
          </g>
          <g
             id="g1618"
             transform="translate(34.2849,6.3783)">
            <path
               d="M 0,0 C -0.391,0 -0.709,0.316 -0.709,0.709 -0.709,1.1 -0.391,1.418 0,1.418 0.391,1.418 0.709,1.1 0.709,0.709 0.709,0.316 0.391,0 0,0"
               style="fill:#00a0dd;fill-opacity:1;fill-rule:evenodd;stroke:none"
               id="path1620" />
          </g>
          <g
             id="g1622"
             transform="translate(54.5674,32.6219)">
            <path
               d="m 0,0 c -0.393,0 -0.709,0.318 -0.709,0.709 0,0.393 0.316,0.709 0.709,0.709 0.393,0 0.709,-0.316 0.709,-0.709 C 0.709,0.318 0.393,0 0,0"
               style="fill:#00a0dd;fill-opacity:1;fill-rule:evenodd;stroke:none"
               id="path1624" />
          </g>
          <g
             id="g1626"
             transform="translate(37.1189,6.3783)">
            <path
               d="M 0,0 C -0.391,0 -0.709,0.316 -0.709,0.709 -0.709,1.1 -0.391,1.418 0,1.418 0.392,1.418 0.709,1.1 0.709,0.709 0.709,0.316 0.392,0 0,0"
               style="fill:#00a0dd;fill-opacity:1;fill-rule:evenodd;stroke:none"
               id="path1628" />
          </g>
          <text
             transform="matrix(1,0,0,-1,62.3618,31.2417)"
             style="font-variant:normal;font-weight:normal;font-stretch:normal;font-size:7px;font-family:Arial;-inkscape-font-specification:ArialMT;writing-mode:lr-tb;fill:#e30613;fill-opacity:1;fill-rule:nonzero;stroke:none"
             id="text1632"><tspan
               x="0"
               y="0"
               id="tspan1630">ø</tspan></text>
          <text
             transform="matrix(1,0,0,-1,68.2348,31.2417)"
             style="font-variant:normal;font-weight:normal;font-stretch:semi-condensed;font-size:7px;font-family:'Arial Narrow';-inkscape-font-specification:ArialNarrow;writing-mode:lr-tb;fill:#e30613;fill-opacity:1;fill-rule:nonzero;stroke:none"
             id="text1636"><tspan
               x="0 3.1919999 4.7880001 7.98"
               y="0"
               sodipodi:role="line"
               id="tspan1634">0.25</tspan></text>
        </g>
      </g>
      <text
         transform="matrix(1,0,0,-1,25.5117,19.7949)"
         style="font-variant:normal;font-weight:normal;font-stretch:semi-condensed;font-size:7px;font-family:'Arial Narrow';-inkscape-font-specification:ArialNarrow;writing-mode:lr-tb;fill:#e30613;fill-opacity:1;fill-rule:nonzero;stroke:none"
         id="text1640"><tspan
           x="0 3.1919999 4.7880001 7.98 11.172 12.768 14.679 18.823 22.966999"
           y="0"
           sodipodi:role="line"
           id="tspan1638">0.45 (CC)</tspan></text>
      <g
         id="g1642">
        <g
           id="g1644"
           clip-path="url(#clipPath1648)">
          <g
             id="g1650"
             transform="translate(28.9931,26.9895)">
            <path
               d="M 0,0 V 4.252"
               style="fill:none;stroke:#e30613;stroke-width:0.283;stroke-linecap:butt;stroke-linejoin:miter;stroke-miterlimit:22.926;stroke-dasharray:none;stroke-opacity:1"
               id="path1652" />
          </g>
          <g
             id="g1654"
             transform="translate(31.8271,26.9895)">
            <path
               d="M 0,0 V 4.252"
               style="fill:none;stroke:#e30613;stroke-width:0.283;stroke-linecap:butt;stroke-linejoin:miter;stroke-miterlimit:22.926;stroke-dasharray:none;stroke-opacity:1"
               id="path1656" />
          </g>
        </g>
      </g>
      <text
         transform="matrix(1,0,0,-1,18.6431,4.6909)"
         style="font-variant:normal;font-weight:normal;font-stretch:semi-condensed;font-size:7px;font-family:'Arial Narrow';-inkscape-font-specification:ArialNarrow;writing-mode:lr-tb;fill:#e30613;fill-opacity:1;fill-rule:nonzero;stroke:none"
         id="text1660"><tspan
           x="0 4.7810001 6.0549998 9.2469997"
           y="0"
           sodipodi:role="line"
           id="tspan1658">min.</tspan></text>
      <g
         id="g1662">
        <g
           id="g1664"
           clip-path="url(#clipPath1668)">
          <path
             d="M 12.756,14.74 H 43.937 V 0.567 H 12.756 Z"
             style="fill:none;stroke:#312783;stroke-width:1.134;stroke-linecap:butt;stroke-linejoin:miter;stroke-miterlimit:22.926;stroke-dasharray:none;stroke-opacity:1"
             id="path1670" />
        </g>
      </g>
    </g>
  </g>
</svg>
