<?xml version="1.0" encoding="UTF-8" standalone="no"?>
<!-- Created with Inkscape (http://www.inkscape.org/) -->

<svg
   width="24mm"
   height="16mm"
   viewBox="0 0 24 16"
   version="1.1"
   id="svg2909"
   inkscape:version="1.1.1 (3bf5ae0d25, 2021-09-20)"
   sodipodi:docname="ISOM 312 Spring.svg"
   xmlns:inkscape="http://www.inkscape.org/namespaces/inkscape"
   xmlns:sodipodi="http://sodipodi.sourceforge.net/DTD/sodipodi-0.dtd"
   xmlns="http://www.w3.org/2000/svg"
   xmlns:svg="http://www.w3.org/2000/svg">
  <sodipodi:namedview
     id="namedview2911"
     pagecolor="#ffffff"
     bordercolor="#666666"
     borderopacity="1.0"
     inkscape:pageshadow="2"
     inkscape:pageopacity="0.0"
     inkscape:pagecheckerboard="true"
     inkscape:document-units="mm"
     showgrid="false"
     inkscape:zoom="2.9647587"
     inkscape:cx="115.18644"
     inkscape:cy="75.048266"
     inkscape:window-width="1920"
     inkscape:window-height="1017"
     inkscape:window-x="-8"
     inkscape:window-y="-8"
     inkscape:window-maximized="1"
     inkscape:current-layer="layer1" />
  <defs
     id="defs2906">
    <clipPath
       clipPathUnits="userSpaceOnUse"
       id="clipPath2927">
      <path
         d="M 0,40.326 H 62.926 V 0 H 0 Z"
         id="path2925" />
    </clipPath>
    <clipPath
       clipPathUnits="userSpaceOnUse"
       id="clipPath2959">
      <path
         d="M 0,40.326 H 62.926 V 0 H 0 Z"
         id="path2957" />
    </clipPath>
  </defs>
  <g
     inkscape:label="Ebene 1"
     inkscape:groupmode="layer"
     id="layer1">
    <g
       id="g2919"
       inkscape:label="ISOM 312 Spring"
       transform="matrix(0.35277777,0,0,-0.35277777,0.94625004,14.953057)">
      <g
         id="g2921">
        <g
           id="g2923"
           clip-path="url(#clipPath2927)">
          <g
             id="g2929"
             transform="translate(0.6333,12.2319)">
            <path
               d="M 0,0 C -0.406,1.186 0.225,2.475 1.409,2.881 2.594,3.287 3.885,2.656 4.291,1.473"
               style="fill:none;stroke:#00a0dd;stroke-width:1.02;stroke-linecap:butt;stroke-linejoin:miter;stroke-miterlimit:22.926;stroke-dasharray:none;stroke-opacity:1"
               id="path2931" />
          </g>
          <g
             id="g2933"
             transform="translate(3.0923,12.271)">
            <path
               d="m 0,0 c 2.385,-10.521 10.336,-3.891 11.801,-6.125 1.465,-2.232 2.308,-5.211 4.037,-5.645 1.727,-0.431 3.672,0.506 4.319,2.233 0.648,1.728 0.937,4.178 2.376,3.961 1.44,-0.217 2.305,-1.008 3.672,-1.871 1.368,-0.866 2.664,-1.514 3.961,-0.866 1.295,0.649 0.993,2.733 4.391,0.649 3.4,-2.086 7.656,-1.566 9.724,-1.289"
               style="fill:none;stroke:#00a0dd;stroke-width:0.794;stroke-linecap:butt;stroke-linejoin:miter;stroke-miterlimit:22.926;stroke-dasharray:none;stroke-opacity:1"
               id="path2935" />
          </g>
          <g
             id="g2937"
             transform="translate(17.3852,16.3491)">
            <path
               d="m 0,0 c 0.999,0.756 2.421,0.557 3.176,-0.443 0.754,-1 0.556,-2.422 -0.444,-3.176"
               style="fill:none;stroke:#00a0dd;stroke-width:1.02;stroke-linecap:butt;stroke-linejoin:miter;stroke-miterlimit:22.926;stroke-dasharray:none;stroke-opacity:1"
               id="path2939" />
          </g>
          <g
             id="g2941"
             transform="translate(14.2075,37.9897)">
            <path
               d="m 0,0 c 0,-1.254 -1.028,-2.268 -2.297,-2.268 -1.268,0 -2.295,1.014 -2.295,2.268"
               style="fill:none;stroke:#00a0dd;stroke-width:1.02;stroke-linecap:butt;stroke-linejoin:miter;stroke-miterlimit:22.926;stroke-dasharray:none;stroke-opacity:1"
               id="path2943" />
          </g>
          <text
             transform="matrix(1,0,0,-1,51.7529,23.6572)"
             style="font-variant:normal;font-weight:normal;font-stretch:semi-condensed;font-size:7px;font-family:'Arial Narrow';-inkscape-font-specification:ArialNarrow;writing-mode:lr-tb;fill:#e30613;fill-opacity:1;fill-rule:nonzero;stroke:none"
             id="text2947"><tspan
               x="0 3.1919999 4.7880001 7.98"
               y="0"
               sodipodi:role="line"
               id="tspan2945">0.18</tspan></text>
        </g>
      </g>
      <text
         transform="matrix(1,0,0,-1,8.062,23.0215)"
         style="font-variant:normal;font-weight:normal;font-stretch:semi-condensed;font-size:7px;font-family:'Arial Narrow';-inkscape-font-specification:ArialNarrow;writing-mode:lr-tb;fill:#e30613;fill-opacity:1;fill-rule:nonzero;stroke:none"
         id="text2951"><tspan
           x="0 3.1919999 4.7880001 7.98 9.5760002 11.487 15.953 20.733999"
           y="0"
           sodipodi:role="line"
           id="tspan2949">0.9 (OM)</tspan></text>
      <g
         id="g2953">
        <g
           id="g2955"
           clip-path="url(#clipPath2959)">
          <g
             id="g2961"
             transform="translate(9.146,29.4604)">
            <path
               d="M 0,0 V 4.252"
               style="fill:none;stroke:#e30613;stroke-width:0.283;stroke-linecap:butt;stroke-linejoin:miter;stroke-miterlimit:22.926;stroke-dasharray:none;stroke-opacity:1"
               id="path2963" />
          </g>
          <g
             id="g2965"
             transform="translate(14.6772,29.4604)">
            <path
               d="M 0,0 V 4.252"
               style="fill:none;stroke:#e30613;stroke-width:0.283;stroke-linecap:butt;stroke-linejoin:miter;stroke-miterlimit:22.926;stroke-dasharray:none;stroke-opacity:1"
               id="path2967" />
          </g>
          <text
             transform="matrix(1,0,0,-1,24.2725,34.3193)"
             style="font-variant:normal;font-weight:normal;font-stretch:semi-condensed;font-size:7px;font-family:'Arial Narrow';-inkscape-font-specification:ArialNarrow;writing-mode:lr-tb;fill:#e30613;fill-opacity:1;fill-rule:nonzero;stroke:none"
             id="text2971"><tspan
               x="0 3.1919999 4.7880001 7.98 11.172 12.768 14.679 19.145 23.926001"
               y="0"
               sodipodi:role="line"
               id="tspan2969">0.45 (OM)</tspan></text>
          <g
             id="g2973"
             transform="translate(17.5809,35.2208)">
            <path
               d="M 0,0 H 4.252"
               style="fill:none;stroke:#e30613;stroke-width:0.283;stroke-linecap:butt;stroke-linejoin:miter;stroke-miterlimit:22.926;stroke-dasharray:none;stroke-opacity:1"
               id="path2975" />
          </g>
          <g
             id="g2977"
             transform="translate(17.5809,37.9897)">
            <path
               d="M 0,0 H 4.252"
               style="fill:none;stroke:#e30613;stroke-width:0.283;stroke-linecap:butt;stroke-linejoin:miter;stroke-miterlimit:22.926;stroke-dasharray:none;stroke-opacity:1"
               id="path2979" />
          </g>
        </g>
      </g>
    </g>
  </g>
</svg>
