<?xml version="1.0" encoding="UTF-8" standalone="no"?>
<!-- Created with Inkscape (http://www.inkscape.org/) -->

<svg
   width="28mm"
   height="28mm"
   viewBox="0 0 28 28"
   version="1.1"
   id="svg4469"
   inkscape:version="1.1.1 (3bf5ae0d25, 2021-09-20)"
   sodipodi:docname="ISOM 404 Rough open land with scattered trees.svg"
   xmlns:inkscape="http://www.inkscape.org/namespaces/inkscape"
   xmlns:sodipodi="http://sodipodi.sourceforge.net/DTD/sodipodi-0.dtd"
   xmlns="http://www.w3.org/2000/svg"
   xmlns:svg="http://www.w3.org/2000/svg">
  <sodipodi:namedview
     id="namedview4471"
     pagecolor="#ffffff"
     bordercolor="#666666"
     borderopacity="1.0"
     inkscape:pageshadow="2"
     inkscape:pageopacity="0.0"
     inkscape:pagecheckerboard="true"
     inkscape:document-units="mm"
     showgrid="false"
     inkscape:zoom="2.9647587"
     inkscape:cx="47.390029"
     inkscape:cy="85.504429"
     inkscape:window-width="1920"
     inkscape:window-height="1017"
     inkscape:window-x="-8"
     inkscape:window-y="-8"
     inkscape:window-maximized="1"
     inkscape:current-layer="layer1" />
  <defs
     id="defs4466">
    <clipPath
       clipPathUnits="userSpaceOnUse"
       id="clipPath4489">
      <path
         d="M 0,73.653 H 73.105 V 0 H 0 Z"
         id="path4487" />
    </clipPath>
    <clipPath
       clipPathUnits="userSpaceOnUse"
       id="clipPath4915">
      <path
         d="M 0,73.653 H 73.105 V 0 H 0 Z"
         id="path4913" />
    </clipPath>
    <clipPath
       clipPathUnits="userSpaceOnUse"
       id="clipPath4935">
      <path
         d="M 0,73.653 H 73.105 V 0 H 0 Z"
         id="path4933" />
    </clipPath>
    <clipPath
       clipPathUnits="userSpaceOnUse"
       id="clipPath4951">
      <path
         d="M 0,73.653 H 73.105 V 0 H 0 Z"
         id="path4949" />
    </clipPath>
  </defs>
  <g
     inkscape:label="Ebene 1"
     inkscape:groupmode="layer"
     id="layer1">
    <g
       id="g4479"
       inkscape:label="ISOM 404 Rough open land with scattered trees"
       transform="matrix(0.35277777,0,0,-0.35277777,1.1050024,26.991394)">
      <path
         d="M 11.76,44.739 H 68.453 V 73.652 H 11.76 Z"
         style="fill:#ffe0a9;fill-opacity:1;fill-rule:nonzero;stroke:none"
         id="path4481" />
      <g
         id="g4483">
        <g
           id="g4485"
           clip-path="url(#clipPath4489)">
          <g
             id="g4491"
             transform="translate(65.6521,45.5235)">
            <path
               d="m 0,0 c 0.555,0.554 0.555,1.451 0,2.004 -0.553,0.555 -1.451,0.555 -2.004,0 C -2.558,1.451 -2.558,0.554 -2.004,0 -1.451,-0.554 -0.553,-0.554 0,0"
               style="fill:#ffffff;fill-opacity:1;fill-rule:evenodd;stroke:none"
               id="path4493" />
          </g>
          <g
             id="g4495"
             transform="translate(68.8591,48.7306)">
            <path
               d="m 0,0 c 0.554,0.555 0.554,1.451 0,2.004 -0.553,0.555 -1.45,0.555 -2.004,0 C -2.558,1.451 -2.558,0.555 -2.004,0 -1.45,-0.553 -0.553,-0.553 0,0"
               style="fill:#ffffff;fill-opacity:1;fill-rule:evenodd;stroke:none"
               id="path4497" />
          </g>
          <g
             id="g4499"
             transform="translate(59.2381,45.5235)">
            <path
               d="m 0,0 c 0.554,0.554 0.554,1.451 0,2.004 -0.553,0.555 -1.45,0.555 -2.004,0 C -2.558,1.451 -2.558,0.554 -2.004,0 -1.45,-0.554 -0.553,-0.554 0,0"
               style="fill:#ffffff;fill-opacity:1;fill-rule:evenodd;stroke:none"
               id="path4501" />
          </g>
          <g
             id="g4503"
             transform="translate(62.445,48.7306)">
            <path
               d="m 0,0 c 0.555,0.555 0.555,1.451 0,2.004 -0.553,0.555 -1.451,0.555 -2.004,0 C -2.558,1.451 -2.558,0.555 -2.004,0 -1.451,-0.553 -0.553,-0.553 0,0"
               style="fill:#ffffff;fill-opacity:1;fill-rule:evenodd;stroke:none"
               id="path4505" />
          </g>
          <g
             id="g4507"
             transform="translate(65.6521,51.9376)">
            <path
               d="m 0,0 c 0.555,0.553 0.555,1.451 0,2.004 -0.553,0.555 -1.451,0.555 -2.004,0 C -2.558,1.451 -2.558,0.553 -2.004,0 -1.451,-0.553 -0.553,-0.553 0,0"
               style="fill:#ffffff;fill-opacity:1;fill-rule:evenodd;stroke:none"
               id="path4509" />
          </g>
          <g
             id="g4511"
             transform="translate(68.8591,55.1446)">
            <path
               d="m 0,0 c 0.554,0.554 0.554,1.451 0,2.004 -0.553,0.555 -1.45,0.555 -2.004,0 C -2.558,1.451 -2.558,0.554 -2.004,0 -1.45,-0.554 -0.553,-0.554 0,0"
               style="fill:#ffffff;fill-opacity:1;fill-rule:evenodd;stroke:none"
               id="path4513" />
          </g>
          <g
             id="g4515"
             transform="translate(52.8239,45.5235)">
            <path
               d="m 0,0 c 0.555,0.554 0.555,1.451 0,2.004 -0.553,0.555 -1.451,0.555 -2.004,0 C -2.558,1.451 -2.558,0.554 -2.004,0 -1.451,-0.554 -0.553,-0.554 0,0"
               style="fill:#ffffff;fill-opacity:1;fill-rule:evenodd;stroke:none"
               id="path4517" />
          </g>
          <g
             id="g4519"
             transform="translate(56.0311,48.7306)">
            <path
               d="m 0,0 c 0.554,0.555 0.554,1.451 0,2.004 -0.553,0.555 -1.451,0.555 -2.004,0 C -2.558,1.451 -2.558,0.555 -2.004,0 -1.451,-0.553 -0.553,-0.553 0,0"
               style="fill:#ffffff;fill-opacity:1;fill-rule:evenodd;stroke:none"
               id="path4521" />
          </g>
          <g
             id="g4523"
             transform="translate(59.2381,51.9376)">
            <path
               d="m 0,0 c 0.554,0.553 0.554,1.451 0,2.004 -0.553,0.555 -1.45,0.555 -2.004,0 C -2.558,1.451 -2.558,0.553 -2.004,0 -1.45,-0.553 -0.553,-0.553 0,0"
               style="fill:#ffffff;fill-opacity:1;fill-rule:evenodd;stroke:none"
               id="path4525" />
          </g>
          <g
             id="g4527"
             transform="translate(62.445,55.1446)">
            <path
               d="m 0,0 c 0.555,0.554 0.555,1.451 0,2.004 -0.553,0.555 -1.451,0.555 -2.004,0 C -2.558,1.451 -2.558,0.554 -2.004,0 -1.451,-0.554 -0.553,-0.554 0,0"
               style="fill:#ffffff;fill-opacity:1;fill-rule:evenodd;stroke:none"
               id="path4529" />
          </g>
          <g
             id="g4531"
             transform="translate(65.6521,58.3517)">
            <path
               d="m 0,0 c 0.555,0.555 0.555,1.451 0,2.006 -0.553,0.553 -1.451,0.553 -2.004,0 C -2.558,1.451 -2.558,0.555 -2.004,0 -1.451,-0.553 -0.553,-0.553 0,0"
               style="fill:#ffffff;fill-opacity:1;fill-rule:evenodd;stroke:none"
               id="path4533" />
          </g>
          <g
             id="g4535"
             transform="translate(68.8591,61.5587)">
            <path
               d="m 0,0 c 0.554,0.555 0.554,1.451 0,2.004 -0.553,0.555 -1.45,0.555 -2.004,0 C -2.558,1.451 -2.558,0.555 -2.004,0 -1.45,-0.553 -0.553,-0.553 0,0"
               style="fill:#ffffff;fill-opacity:1;fill-rule:evenodd;stroke:none"
               id="path4537" />
          </g>
          <g
             id="g4539"
             transform="translate(46.4099,45.5235)">
            <path
               d="m 0,0 c 0.554,0.554 0.554,1.451 0,2.004 -0.553,0.555 -1.451,0.555 -2.004,0 C -2.558,1.451 -2.558,0.554 -2.004,0 -1.451,-0.554 -0.553,-0.554 0,0"
               style="fill:#ffffff;fill-opacity:1;fill-rule:evenodd;stroke:none"
               id="path4541" />
          </g>
          <g
             id="g4543"
             transform="translate(49.6169,48.7306)">
            <path
               d="m 0,0 c 0.554,0.555 0.554,1.451 0,2.004 -0.553,0.555 -1.45,0.555 -2.004,0 C -2.557,1.451 -2.557,0.555 -2.004,0 -1.45,-0.553 -0.553,-0.553 0,0"
               style="fill:#ffffff;fill-opacity:1;fill-rule:evenodd;stroke:none"
               id="path4545" />
          </g>
          <g
             id="g4547"
             transform="translate(52.8239,51.9376)">
            <path
               d="m 0,0 c 0.555,0.553 0.555,1.451 0,2.004 -0.553,0.555 -1.451,0.555 -2.004,0 C -2.558,1.451 -2.558,0.553 -2.004,0 -1.451,-0.553 -0.553,-0.553 0,0"
               style="fill:#ffffff;fill-opacity:1;fill-rule:evenodd;stroke:none"
               id="path4549" />
          </g>
          <g
             id="g4551"
             transform="translate(56.0311,55.1446)">
            <path
               d="m 0,0 c 0.554,0.554 0.554,1.451 0,2.004 -0.553,0.555 -1.451,0.555 -2.004,0 C -2.558,1.451 -2.558,0.554 -2.004,0 -1.451,-0.554 -0.553,-0.554 0,0"
               style="fill:#ffffff;fill-opacity:1;fill-rule:evenodd;stroke:none"
               id="path4553" />
          </g>
          <g
             id="g4555"
             transform="translate(59.2381,58.3517)">
            <path
               d="m 0,0 c 0.554,0.555 0.554,1.451 0,2.006 -0.553,0.553 -1.45,0.553 -2.004,0 C -2.558,1.451 -2.558,0.555 -2.004,0 -1.45,-0.553 -0.553,-0.553 0,0"
               style="fill:#ffffff;fill-opacity:1;fill-rule:evenodd;stroke:none"
               id="path4557" />
          </g>
          <g
             id="g4559"
             transform="translate(62.445,61.5587)">
            <path
               d="m 0,0 c 0.555,0.555 0.555,1.451 0,2.004 -0.553,0.555 -1.451,0.555 -2.004,0 C -2.558,1.451 -2.558,0.555 -2.004,0 -1.451,-0.553 -0.553,-0.553 0,0"
               style="fill:#ffffff;fill-opacity:1;fill-rule:evenodd;stroke:none"
               id="path4561" />
          </g>
          <g
             id="g4563"
             transform="translate(65.6521,64.7657)">
            <path
               d="m 0,0 c 0.555,0.554 0.555,1.451 0,2.004 -0.553,0.555 -1.451,0.555 -2.004,0 C -2.558,1.451 -2.558,0.554 -2.004,0 -1.451,-0.554 -0.553,-0.554 0,0"
               style="fill:#ffffff;fill-opacity:1;fill-rule:evenodd;stroke:none"
               id="path4565" />
          </g>
          <g
             id="g4567"
             transform="translate(68.8591,67.9728)">
            <path
               d="m 0,0 c 0.554,0.554 0.554,1.451 0,2.004 -0.553,0.555 -1.45,0.555 -2.004,0 C -2.558,1.451 -2.558,0.554 -2.004,0 -1.45,-0.553 -0.553,-0.553 0,0"
               style="fill:#ffffff;fill-opacity:1;fill-rule:evenodd;stroke:none"
               id="path4569" />
          </g>
          <g
             id="g4571"
             transform="translate(39.9958,45.5235)">
            <path
               d="m 0,0 c 0.554,0.554 0.554,1.451 0,2.004 -0.553,0.555 -1.45,0.555 -2.004,0 C -2.557,1.451 -2.557,0.554 -2.004,0 -1.45,-0.554 -0.553,-0.554 0,0"
               style="fill:#ffffff;fill-opacity:1;fill-rule:evenodd;stroke:none"
               id="path4573" />
          </g>
          <g
             id="g4575"
             transform="translate(43.2029,48.7306)">
            <path
               d="m 0,0 c 0.555,0.555 0.555,1.451 0,2.004 -0.553,0.555 -1.451,0.555 -2.004,0 C -2.558,1.451 -2.558,0.555 -2.004,0 -1.451,-0.553 -0.553,-0.553 0,0"
               style="fill:#ffffff;fill-opacity:1;fill-rule:evenodd;stroke:none"
               id="path4577" />
          </g>
          <g
             id="g4579"
             transform="translate(46.4099,51.9376)">
            <path
               d="m 0,0 c 0.554,0.553 0.554,1.451 0,2.004 -0.553,0.555 -1.451,0.555 -2.004,0 C -2.558,1.451 -2.558,0.553 -2.004,0 -1.451,-0.553 -0.553,-0.553 0,0"
               style="fill:#ffffff;fill-opacity:1;fill-rule:evenodd;stroke:none"
               id="path4581" />
          </g>
          <g
             id="g4583"
             transform="translate(49.6169,55.1446)">
            <path
               d="m 0,0 c 0.554,0.554 0.554,1.451 0,2.004 -0.553,0.555 -1.45,0.555 -2.004,0 C -2.557,1.451 -2.557,0.554 -2.004,0 -1.45,-0.554 -0.553,-0.554 0,0"
               style="fill:#ffffff;fill-opacity:1;fill-rule:evenodd;stroke:none"
               id="path4585" />
          </g>
          <g
             id="g4587"
             transform="translate(52.8239,58.3517)">
            <path
               d="m 0,0 c 0.555,0.555 0.555,1.451 0,2.006 -0.553,0.553 -1.451,0.553 -2.004,0 C -2.558,1.451 -2.558,0.555 -2.004,0 -1.451,-0.553 -0.553,-0.553 0,0"
               style="fill:#ffffff;fill-opacity:1;fill-rule:evenodd;stroke:none"
               id="path4589" />
          </g>
          <g
             id="g4591"
             transform="translate(56.0311,61.5587)">
            <path
               d="m 0,0 c 0.554,0.555 0.554,1.451 0,2.004 -0.553,0.555 -1.451,0.555 -2.004,0 C -2.558,1.451 -2.558,0.555 -2.004,0 -1.451,-0.553 -0.553,-0.553 0,0"
               style="fill:#ffffff;fill-opacity:1;fill-rule:evenodd;stroke:none"
               id="path4593" />
          </g>
          <g
             id="g4595"
             transform="translate(59.2381,64.7657)">
            <path
               d="m 0,0 c 0.554,0.554 0.554,1.451 0,2.004 -0.553,0.555 -1.45,0.555 -2.004,0 C -2.558,1.451 -2.558,0.554 -2.004,0 -1.45,-0.554 -0.553,-0.554 0,0"
               style="fill:#ffffff;fill-opacity:1;fill-rule:evenodd;stroke:none"
               id="path4597" />
          </g>
          <g
             id="g4599"
             transform="translate(62.445,67.9728)">
            <path
               d="m 0,0 c 0.555,0.554 0.555,1.451 0,2.004 -0.553,0.555 -1.451,0.555 -2.004,0 C -2.558,1.451 -2.558,0.554 -2.004,0 -1.451,-0.553 -0.553,-0.553 0,0"
               style="fill:#ffffff;fill-opacity:1;fill-rule:evenodd;stroke:none"
               id="path4601" />
          </g>
          <g
             id="g4603"
             transform="translate(65.6521,71.1798)">
            <path
               d="m 0,0 c 0.555,0.555 0.555,1.451 0,2.004 -0.553,0.555 -1.451,0.555 -2.004,0 C -2.558,1.451 -2.558,0.555 -2.004,0 -1.451,-0.553 -0.553,-0.553 0,0"
               style="fill:#ffffff;fill-opacity:1;fill-rule:evenodd;stroke:none"
               id="path4605" />
          </g>
          <g
             id="g4607"
             transform="translate(33.5818,45.5235)">
            <path
               d="m 0,0 c 0.555,0.554 0.555,1.451 0,2.004 -0.553,0.555 -1.451,0.555 -2.004,0 C -2.558,1.451 -2.558,0.554 -2.004,0 -1.451,-0.554 -0.553,-0.554 0,0"
               style="fill:#ffffff;fill-opacity:1;fill-rule:evenodd;stroke:none"
               id="path4609" />
          </g>
          <g
             id="g4611"
             transform="translate(36.7888,48.7306)">
            <path
               d="m 0,0 c 0.554,0.555 0.554,1.451 0,2.004 -0.553,0.555 -1.45,0.555 -2.004,0 C -2.558,1.451 -2.558,0.555 -2.004,0 -1.45,-0.553 -0.553,-0.553 0,0"
               style="fill:#ffffff;fill-opacity:1;fill-rule:evenodd;stroke:none"
               id="path4613" />
          </g>
          <g
             id="g4615"
             transform="translate(39.9958,51.9376)">
            <path
               d="m 0,0 c 0.554,0.553 0.554,1.451 0,2.004 -0.553,0.555 -1.45,0.555 -2.004,0 C -2.557,1.451 -2.557,0.553 -2.004,0 -1.45,-0.553 -0.553,-0.553 0,0"
               style="fill:#ffffff;fill-opacity:1;fill-rule:evenodd;stroke:none"
               id="path4617" />
          </g>
          <g
             id="g4619"
             transform="translate(43.2029,55.1446)">
            <path
               d="m 0,0 c 0.555,0.554 0.555,1.451 0,2.004 -0.553,0.555 -1.451,0.555 -2.004,0 C -2.558,1.451 -2.558,0.554 -2.004,0 -1.451,-0.554 -0.553,-0.554 0,0"
               style="fill:#ffffff;fill-opacity:1;fill-rule:evenodd;stroke:none"
               id="path4621" />
          </g>
          <g
             id="g4623"
             transform="translate(46.4099,58.3517)">
            <path
               d="m 0,0 c 0.554,0.555 0.554,1.451 0,2.006 -0.553,0.553 -1.451,0.553 -2.004,0 C -2.558,1.451 -2.558,0.555 -2.004,0 -1.451,-0.553 -0.553,-0.553 0,0"
               style="fill:#ffffff;fill-opacity:1;fill-rule:evenodd;stroke:none"
               id="path4625" />
          </g>
          <g
             id="g4627"
             transform="translate(49.6169,61.5587)">
            <path
               d="m 0,0 c 0.554,0.555 0.554,1.451 0,2.004 -0.553,0.555 -1.45,0.555 -2.004,0 C -2.557,1.451 -2.557,0.555 -2.004,0 -1.45,-0.553 -0.553,-0.553 0,0"
               style="fill:#ffffff;fill-opacity:1;fill-rule:evenodd;stroke:none"
               id="path4629" />
          </g>
          <g
             id="g4631"
             transform="translate(52.8239,64.7657)">
            <path
               d="m 0,0 c 0.555,0.554 0.555,1.451 0,2.004 -0.553,0.555 -1.451,0.555 -2.004,0 C -2.558,1.451 -2.558,0.554 -2.004,0 -1.451,-0.554 -0.553,-0.554 0,0"
               style="fill:#ffffff;fill-opacity:1;fill-rule:evenodd;stroke:none"
               id="path4633" />
          </g>
          <g
             id="g4635"
             transform="translate(56.0311,67.9728)">
            <path
               d="m 0,0 c 0.554,0.554 0.554,1.451 0,2.004 -0.553,0.555 -1.451,0.555 -2.004,0 C -2.558,1.451 -2.558,0.554 -2.004,0 -1.451,-0.553 -0.553,-0.553 0,0"
               style="fill:#ffffff;fill-opacity:1;fill-rule:evenodd;stroke:none"
               id="path4637" />
          </g>
          <g
             id="g4639"
             transform="translate(59.2381,71.1798)">
            <path
               d="m 0,0 c 0.554,0.555 0.554,1.451 0,2.004 -0.553,0.555 -1.45,0.555 -2.004,0 C -2.558,1.451 -2.558,0.555 -2.004,0 -1.45,-0.553 -0.553,-0.553 0,0"
               style="fill:#ffffff;fill-opacity:1;fill-rule:evenodd;stroke:none"
               id="path4641" />
          </g>
          <g
             id="g4643"
             transform="translate(27.1677,45.5235)">
            <path
               d="m 0,0 c 0.554,0.554 0.554,1.451 0,2.004 -0.553,0.555 -1.45,0.555 -2.004,0 C -2.558,1.451 -2.558,0.554 -2.004,0 -1.45,-0.554 -0.553,-0.554 0,0"
               style="fill:#ffffff;fill-opacity:1;fill-rule:evenodd;stroke:none"
               id="path4645" />
          </g>
          <g
             id="g4647"
             transform="translate(30.3747,48.7306)">
            <path
               d="m 0,0 c 0.555,0.555 0.555,1.451 0,2.004 -0.553,0.555 -1.451,0.555 -2.004,0 C -2.558,1.451 -2.558,0.555 -2.004,0 -1.451,-0.553 -0.553,-0.553 0,0"
               style="fill:#ffffff;fill-opacity:1;fill-rule:evenodd;stroke:none"
               id="path4649" />
          </g>
          <g
             id="g4651"
             transform="translate(33.5818,51.9376)">
            <path
               d="m 0,0 c 0.555,0.553 0.555,1.451 0,2.004 -0.553,0.555 -1.451,0.555 -2.004,0 C -2.558,1.451 -2.558,0.553 -2.004,0 -1.451,-0.553 -0.553,-0.553 0,0"
               style="fill:#ffffff;fill-opacity:1;fill-rule:evenodd;stroke:none"
               id="path4653" />
          </g>
          <g
             id="g4655"
             transform="translate(36.7888,55.1446)">
            <path
               d="m 0,0 c 0.554,0.554 0.554,1.451 0,2.004 -0.553,0.555 -1.45,0.555 -2.004,0 C -2.558,1.451 -2.558,0.554 -2.004,0 -1.45,-0.554 -0.553,-0.554 0,0"
               style="fill:#ffffff;fill-opacity:1;fill-rule:evenodd;stroke:none"
               id="path4657" />
          </g>
          <g
             id="g4659"
             transform="translate(39.9958,58.3517)">
            <path
               d="m 0,0 c 0.554,0.555 0.554,1.451 0,2.006 -0.553,0.553 -1.45,0.553 -2.004,0 C -2.557,1.451 -2.557,0.555 -2.004,0 -1.45,-0.553 -0.553,-0.553 0,0"
               style="fill:#9bcb90;fill-opacity:1;fill-rule:evenodd;stroke:none"
               id="path4661" />
          </g>
          <g
             id="g4663"
             transform="translate(43.2029,61.5587)">
            <path
               d="m 0,0 c 0.555,0.555 0.555,1.451 0,2.004 -0.553,0.555 -1.451,0.555 -2.004,0 C -2.558,1.451 -2.558,0.555 -2.004,0 -1.451,-0.553 -0.553,-0.553 0,0"
               style="fill:#ffffff;fill-opacity:1;fill-rule:evenodd;stroke:none"
               id="path4665" />
          </g>
          <g
             id="g4667"
             transform="translate(46.4099,64.7657)">
            <path
               d="m 0,0 c 0.554,0.554 0.554,1.451 0,2.004 -0.553,0.555 -1.451,0.555 -2.004,0 C -2.558,1.451 -2.558,0.554 -2.004,0 -1.451,-0.554 -0.553,-0.554 0,0"
               style="fill:#ffffff;fill-opacity:1;fill-rule:evenodd;stroke:none"
               id="path4669" />
          </g>
          <g
             id="g4671"
             transform="translate(49.6169,67.9728)">
            <path
               d="m 0,0 c 0.554,0.554 0.554,1.451 0,2.004 -0.553,0.555 -1.45,0.555 -2.004,0 C -2.557,1.451 -2.557,0.554 -2.004,0 -1.45,-0.553 -0.553,-0.553 0,0"
               style="fill:#ffffff;fill-opacity:1;fill-rule:evenodd;stroke:none"
               id="path4673" />
          </g>
          <g
             id="g4675"
             transform="translate(52.8239,71.1798)">
            <path
               d="m 0,0 c 0.555,0.555 0.555,1.451 0,2.004 -0.553,0.555 -1.451,0.555 -2.004,0 C -2.558,1.451 -2.558,0.555 -2.004,0 -1.451,-0.553 -0.553,-0.553 0,0"
               style="fill:#ffffff;fill-opacity:1;fill-rule:evenodd;stroke:none"
               id="path4677" />
          </g>
          <g
             id="g4679"
             transform="translate(20.7536,45.5235)">
            <path
               d="m 0,0 c 0.555,0.554 0.555,1.451 0,2.004 -0.553,0.555 -1.451,0.555 -2.004,0 C -2.558,1.451 -2.558,0.554 -2.004,0 -1.451,-0.554 -0.553,-0.554 0,0"
               style="fill:#ffffff;fill-opacity:1;fill-rule:evenodd;stroke:none"
               id="path4681" />
          </g>
          <g
             id="g4683"
             transform="translate(23.9607,48.7306)">
            <path
               d="m 0,0 c 0.554,0.555 0.554,1.451 0,2.004 -0.553,0.555 -1.451,0.555 -2.004,0 C -2.558,1.451 -2.558,0.555 -2.004,0 -1.451,-0.553 -0.553,-0.553 0,0"
               style="fill:#ffffff;fill-opacity:1;fill-rule:evenodd;stroke:none"
               id="path4685" />
          </g>
          <g
             id="g4687"
             transform="translate(27.1677,51.9376)">
            <path
               d="m 0,0 c 0.554,0.553 0.554,1.451 0,2.004 -0.553,0.555 -1.45,0.555 -2.004,0 C -2.558,1.451 -2.558,0.553 -2.004,0 -1.45,-0.553 -0.553,-0.553 0,0"
               style="fill:#ffffff;fill-opacity:1;fill-rule:evenodd;stroke:none"
               id="path4689" />
          </g>
          <g
             id="g4691"
             transform="translate(30.3747,55.1446)">
            <path
               d="m 0,0 c 0.555,0.554 0.555,1.451 0,2.004 -0.553,0.555 -1.451,0.555 -2.004,0 C -2.558,1.451 -2.558,0.554 -2.004,0 -1.451,-0.554 -0.553,-0.554 0,0"
               style="fill:#ffffff;fill-opacity:1;fill-rule:evenodd;stroke:none"
               id="path4693" />
          </g>
          <g
             id="g4695"
             transform="translate(33.5818,58.3517)">
            <path
               d="m 0,0 c 0.555,0.555 0.555,1.451 0,2.006 -0.553,0.553 -1.451,0.553 -2.004,0 C -2.558,1.451 -2.558,0.555 -2.004,0 -1.451,-0.553 -0.553,-0.553 0,0"
               style="fill:#9bcb90;fill-opacity:1;fill-rule:evenodd;stroke:none"
               id="path4697" />
          </g>
          <g
             id="g4699"
             transform="translate(36.7888,61.5587)">
            <path
               d="m 0,0 c 0.554,0.555 0.554,1.451 0,2.004 -0.553,0.555 -1.45,0.555 -2.004,0 C -2.558,1.451 -2.558,0.555 -2.004,0 -1.45,-0.553 -0.553,-0.553 0,0"
               style="fill:#9bcb90;fill-opacity:1;fill-rule:evenodd;stroke:none"
               id="path4701" />
          </g>
          <g
             id="g4703"
             transform="translate(39.9958,64.7657)">
            <path
               d="m 0,0 c 0.554,0.554 0.554,1.451 0,2.004 -0.553,0.555 -1.45,0.555 -2.004,0 C -2.557,1.451 -2.557,0.554 -2.004,0 -1.45,-0.554 -0.553,-0.554 0,0"
               style="fill:#9bcb90;fill-opacity:1;fill-rule:evenodd;stroke:none"
               id="path4705" />
          </g>
          <g
             id="g4707"
             transform="translate(43.2029,67.9728)">
            <path
               d="m 0,0 c 0.555,0.554 0.555,1.451 0,2.004 -0.553,0.555 -1.451,0.555 -2.004,0 C -2.558,1.451 -2.558,0.554 -2.004,0 -1.451,-0.553 -0.553,-0.553 0,0"
               style="fill:#ffffff;fill-opacity:1;fill-rule:evenodd;stroke:none"
               id="path4709" />
          </g>
          <g
             id="g4711"
             transform="translate(46.4099,71.1798)">
            <path
               d="m 0,0 c 0.554,0.555 0.554,1.451 0,2.004 -0.553,0.555 -1.451,0.555 -2.004,0 C -2.558,1.451 -2.558,0.555 -2.004,0 -1.451,-0.553 -0.553,-0.553 0,0"
               style="fill:#ffffff;fill-opacity:1;fill-rule:evenodd;stroke:none"
               id="path4713" />
          </g>
          <g
             id="g4715"
             transform="translate(14.3396,45.5235)">
            <path
               d="m 0,0 c 0.554,0.554 0.554,1.451 0,2.004 -0.553,0.555 -1.451,0.555 -2.004,0 C -2.558,1.451 -2.558,0.554 -2.004,0 -1.451,-0.554 -0.553,-0.554 0,0"
               style="fill:#ffffff;fill-opacity:1;fill-rule:evenodd;stroke:none"
               id="path4717" />
          </g>
          <g
             id="g4719"
             transform="translate(17.5466,48.7306)">
            <path
               d="m 0,0 c 0.554,0.555 0.554,1.451 0,2.004 -0.553,0.555 -1.45,0.555 -2.004,0 C -2.558,1.451 -2.558,0.555 -2.004,0 -1.45,-0.553 -0.553,-0.553 0,0"
               style="fill:#ffffff;fill-opacity:1;fill-rule:evenodd;stroke:none"
               id="path4721" />
          </g>
          <g
             id="g4723"
             transform="translate(20.7536,51.9376)">
            <path
               d="m 0,0 c 0.555,0.553 0.555,1.451 0,2.004 -0.553,0.555 -1.451,0.555 -2.004,0 C -2.558,1.451 -2.558,0.553 -2.004,0 -1.451,-0.553 -0.553,-0.553 0,0"
               style="fill:#ffffff;fill-opacity:1;fill-rule:evenodd;stroke:none"
               id="path4725" />
          </g>
          <g
             id="g4727"
             transform="translate(23.9607,55.1446)">
            <path
               d="m 0,0 c 0.554,0.554 0.554,1.451 0,2.004 -0.553,0.555 -1.451,0.555 -2.004,0 C -2.558,1.451 -2.558,0.554 -2.004,0 -1.451,-0.554 -0.553,-0.554 0,0"
               style="fill:#ffffff;fill-opacity:1;fill-rule:evenodd;stroke:none"
               id="path4729" />
          </g>
          <g
             id="g4731"
             transform="translate(27.1677,58.3517)">
            <path
               d="m 0,0 c 0.554,0.555 0.554,1.451 0,2.006 -0.553,0.553 -1.45,0.553 -2.004,0 C -2.558,1.451 -2.558,0.555 -2.004,0 -1.45,-0.553 -0.553,-0.553 0,0"
               style="fill:#9bcb90;fill-opacity:1;fill-rule:evenodd;stroke:none"
               id="path4733" />
          </g>
          <g
             id="g4735"
             transform="translate(30.3747,61.5587)">
            <path
               d="m 0,0 c 0.555,0.555 0.555,1.451 0,2.004 -0.553,0.555 -1.451,0.555 -2.004,0 C -2.558,1.451 -2.558,0.555 -2.004,0 -1.451,-0.553 -0.553,-0.553 0,0"
               style="fill:#9bcb90;fill-opacity:1;fill-rule:evenodd;stroke:none"
               id="path4737" />
          </g>
          <g
             id="g4739"
             transform="translate(33.5818,64.7657)">
            <path
               d="m 0,0 c 0.555,0.554 0.555,1.451 0,2.004 -0.553,0.555 -1.451,0.555 -2.004,0 C -2.558,1.451 -2.558,0.554 -2.004,0 -1.451,-0.554 -0.553,-0.554 0,0"
               style="fill:#9bcb90;fill-opacity:1;fill-rule:evenodd;stroke:none"
               id="path4741" />
          </g>
          <g
             id="g4743"
             transform="translate(36.7888,67.9728)">
            <path
               d="m 0,0 c 0.554,0.554 0.554,1.451 0,2.004 -0.553,0.555 -1.45,0.555 -2.004,0 C -2.558,1.451 -2.558,0.554 -2.004,0 -1.45,-0.553 -0.553,-0.553 0,0"
               style="fill:#9bcb90;fill-opacity:1;fill-rule:evenodd;stroke:none"
               id="path4745" />
          </g>
          <g
             id="g4747"
             transform="translate(39.9958,71.1798)">
            <path
               d="m 0,0 c 0.554,0.555 0.554,1.451 0,2.004 -0.553,0.555 -1.45,0.555 -2.004,0 C -2.557,1.451 -2.557,0.555 -2.004,0 -1.45,-0.553 -0.553,-0.553 0,0"
               style="fill:#9bcb90;fill-opacity:1;fill-rule:evenodd;stroke:none"
               id="path4749" />
          </g>
          <g
             id="g4751"
             transform="translate(14.3396,51.9376)">
            <path
               d="m 0,0 c 0.554,0.553 0.554,1.451 0,2.004 -0.553,0.555 -1.451,0.555 -2.004,0 C -2.558,1.451 -2.558,0.553 -2.004,0 -1.451,-0.553 -0.553,-0.553 0,0"
               style="fill:#ffffff;fill-opacity:1;fill-rule:evenodd;stroke:none"
               id="path4753" />
          </g>
          <g
             id="g4755"
             transform="translate(17.5466,55.1446)">
            <path
               d="m 0,0 c 0.554,0.554 0.554,1.451 0,2.004 -0.553,0.555 -1.45,0.555 -2.004,0 C -2.558,1.451 -2.558,0.554 -2.004,0 -1.45,-0.554 -0.553,-0.554 0,0"
               style="fill:#ffffff;fill-opacity:1;fill-rule:evenodd;stroke:none"
               id="path4757" />
          </g>
          <g
             id="g4759"
             transform="translate(20.7536,58.3517)">
            <path
               d="m 0,0 c 0.555,0.555 0.555,1.451 0,2.006 -0.553,0.553 -1.451,0.553 -2.004,0 C -2.558,1.451 -2.558,0.555 -2.004,0 -1.451,-0.553 -0.553,-0.553 0,0"
               style="fill:#9bcb90;fill-opacity:1;fill-rule:evenodd;stroke:none"
               id="path4761" />
          </g>
          <g
             id="g4763"
             transform="translate(23.9607,61.5587)">
            <path
               d="m 0,0 c 0.554,0.555 0.554,1.451 0,2.004 -0.553,0.555 -1.451,0.555 -2.004,0 C -2.558,1.451 -2.558,0.555 -2.004,0 -1.451,-0.553 -0.553,-0.553 0,0"
               style="fill:#9bcb90;fill-opacity:1;fill-rule:evenodd;stroke:none"
               id="path4765" />
          </g>
          <g
             id="g4767"
             transform="translate(27.1677,64.7657)">
            <path
               d="m 0,0 c 0.554,0.554 0.554,1.451 0,2.004 -0.553,0.555 -1.45,0.555 -2.004,0 C -2.558,1.451 -2.558,0.554 -2.004,0 -1.45,-0.554 -0.553,-0.554 0,0"
               style="fill:#9bcb90;fill-opacity:1;fill-rule:evenodd;stroke:none"
               id="path4769" />
          </g>
          <g
             id="g4771"
             transform="translate(30.3747,67.9728)">
            <path
               d="m 0,0 c 0.555,0.554 0.555,1.451 0,2.004 -0.553,0.555 -1.451,0.555 -2.004,0 C -2.558,1.451 -2.558,0.554 -2.004,0 -1.451,-0.553 -0.553,-0.553 0,0"
               style="fill:#9bcb90;fill-opacity:1;fill-rule:evenodd;stroke:none"
               id="path4773" />
          </g>
          <g
             id="g4775"
             transform="translate(33.5818,71.1798)">
            <path
               d="m 0,0 c 0.555,0.555 0.555,1.451 0,2.004 -0.553,0.555 -1.451,0.555 -2.004,0 C -2.558,1.451 -2.558,0.555 -2.004,0 -1.451,-0.553 -0.553,-0.553 0,0"
               style="fill:#9bcb90;fill-opacity:1;fill-rule:evenodd;stroke:none"
               id="path4777" />
          </g>
          <g
             id="g4779"
             transform="translate(14.3396,58.3517)">
            <path
               d="m 0,0 c 0.554,0.555 0.554,1.451 0,2.006 -0.553,0.553 -1.451,0.553 -2.004,0 C -2.558,1.451 -2.558,0.555 -2.004,0 -1.451,-0.553 -0.553,-0.553 0,0"
               style="fill:#9bcb90;fill-opacity:1;fill-rule:evenodd;stroke:none"
               id="path4781" />
          </g>
          <g
             id="g4783"
             transform="translate(17.5466,61.5587)">
            <path
               d="m 0,0 c 0.554,0.555 0.554,1.451 0,2.004 -0.553,0.555 -1.45,0.555 -2.004,0 C -2.558,1.451 -2.558,0.555 -2.004,0 -1.45,-0.553 -0.553,-0.553 0,0"
               style="fill:#9bcb90;fill-opacity:1;fill-rule:evenodd;stroke:none"
               id="path4785" />
          </g>
          <g
             id="g4787"
             transform="translate(20.7536,64.7657)">
            <path
               d="m 0,0 c 0.555,0.554 0.555,1.451 0,2.004 -0.553,0.555 -1.451,0.555 -2.004,0 C -2.558,1.451 -2.558,0.554 -2.004,0 -1.451,-0.554 -0.553,-0.554 0,0"
               style="fill:#9bcb90;fill-opacity:1;fill-rule:evenodd;stroke:none"
               id="path4789" />
          </g>
          <g
             id="g4791"
             transform="translate(23.9607,67.9728)">
            <path
               d="m 0,0 c 0.554,0.554 0.554,1.451 0,2.004 -0.553,0.555 -1.451,0.555 -2.004,0 C -2.558,1.451 -2.558,0.554 -2.004,0 -1.451,-0.553 -0.553,-0.553 0,0"
               style="fill:#9bcb90;fill-opacity:1;fill-rule:evenodd;stroke:none"
               id="path4793" />
          </g>
          <g
             id="g4795"
             transform="translate(27.1677,71.1798)">
            <path
               d="m 0,0 c 0.554,0.555 0.554,1.451 0,2.004 -0.553,0.555 -1.45,0.555 -2.004,0 C -2.558,1.451 -2.558,0.555 -2.004,0 -1.45,-0.553 -0.553,-0.553 0,0"
               style="fill:#9bcb90;fill-opacity:1;fill-rule:evenodd;stroke:none"
               id="path4797" />
          </g>
          <g
             id="g4799"
             transform="translate(14.3396,64.7657)">
            <path
               d="m 0,0 c 0.554,0.554 0.554,1.451 0,2.004 -0.553,0.555 -1.451,0.555 -2.004,0 C -2.558,1.451 -2.558,0.554 -2.004,0 -1.451,-0.554 -0.553,-0.554 0,0"
               style="fill:#9bcb90;fill-opacity:1;fill-rule:evenodd;stroke:none"
               id="path4801" />
          </g>
          <g
             id="g4803"
             transform="translate(17.5466,67.9728)">
            <path
               d="m 0,0 c 0.554,0.554 0.554,1.451 0,2.004 -0.553,0.555 -1.45,0.555 -2.004,0 C -2.558,1.451 -2.558,0.554 -2.004,0 -1.45,-0.553 -0.553,-0.553 0,0"
               style="fill:#9bcb90;fill-opacity:1;fill-rule:evenodd;stroke:none"
               id="path4805" />
          </g>
          <g
             id="g4807"
             transform="translate(20.7536,71.1798)">
            <path
               d="m 0,0 c 0.555,0.555 0.555,1.451 0,2.004 -0.553,0.555 -1.451,0.555 -2.004,0 C -2.558,1.451 -2.558,0.555 -2.004,0 -1.451,-0.553 -0.553,-0.553 0,0"
               style="fill:#9bcb90;fill-opacity:1;fill-rule:evenodd;stroke:none"
               id="path4809" />
          </g>
          <g
             id="g4811"
             transform="translate(14.3396,71.1798)">
            <path
               d="m 0,0 c 0.554,0.555 0.554,1.451 0,2.004 -0.553,0.555 -1.451,0.555 -2.004,0 C -2.558,1.451 -2.558,0.555 -2.004,0 -1.451,-0.553 -0.553,-0.553 0,0"
               style="fill:#9bcb90;fill-opacity:1;fill-rule:evenodd;stroke:none"
               id="path4813" />
          </g>
          <path
             d="M 40.976,20.76 H 55.148 V 6.587 H 40.976 Z"
             style="fill:#ffe0a9;fill-opacity:1;fill-rule:evenodd;stroke:none"
             id="path4815" />
          <g
             id="g4817"
             transform="translate(53.6776,4.8432)">
            <path
               d="m 0,0 c 0.553,0.553 0.553,1.451 0,2.004 -0.554,0.554 -1.451,0.554 -2.005,0 C -2.559,1.451 -2.559,0.553 -2.005,0 -1.451,-0.553 -0.554,-0.553 0,0"
               style="fill:#ffffff;fill-opacity:1;fill-rule:evenodd;stroke:none"
               id="path4819" />
          </g>
          <g
             id="g4821"
             transform="translate(56.8846,8.0503)">
            <path
               d="m 0,0 c 0.553,0.553 0.553,1.451 0,2.004 -0.554,0.554 -1.451,0.554 -2.004,0 C -2.559,1.451 -2.559,0.553 -2.004,0 -1.451,-0.555 -0.554,-0.555 0,0"
               style="fill:#ffffff;fill-opacity:1;fill-rule:evenodd;stroke:none"
               id="path4823" />
          </g>
          <g
             id="g4825"
             transform="translate(47.2634,4.8432)">
            <path
               d="m 0,0 c 0.553,0.553 0.553,1.451 0,2.004 -0.555,0.554 -1.451,0.554 -2.004,0 C -2.559,1.451 -2.559,0.553 -2.004,0 -1.451,-0.553 -0.555,-0.553 0,0"
               style="fill:#ffffff;fill-opacity:1;fill-rule:evenodd;stroke:none"
               id="path4827" />
          </g>
          <g
             id="g4829"
             transform="translate(50.4704,8.0503)">
            <path
               d="m 0,0 c 0.553,0.553 0.553,1.451 0,2.004 -0.555,0.554 -1.451,0.554 -2.006,0 C -2.559,1.451 -2.559,0.553 -2.006,0 -1.451,-0.555 -0.555,-0.555 0,0"
               style="fill:#ffffff;fill-opacity:1;fill-rule:evenodd;stroke:none"
               id="path4831" />
          </g>
          <g
             id="g4833"
             transform="translate(53.6776,11.2573)">
            <path
               d="m 0,0 c 0.553,0.554 0.553,1.451 0,2.004 -0.554,0.554 -1.451,0.554 -2.005,0 C -2.559,1.451 -2.559,0.554 -2.005,0 -1.451,-0.553 -0.554,-0.553 0,0"
               style="fill:#ffffff;fill-opacity:1;fill-rule:evenodd;stroke:none"
               id="path4835" />
          </g>
          <g
             id="g4837"
             transform="translate(56.8846,14.4643)">
            <path
               d="m 0,0 c 0.553,0.554 0.553,1.451 0,2.004 -0.554,0.554 -1.451,0.554 -2.004,0 -0.555,-0.553 -0.555,-1.45 0,-2.004 0.553,-0.553 1.45,-0.553 2.004,0"
               style="fill:#ffffff;fill-opacity:1;fill-rule:evenodd;stroke:none"
               id="path4839" />
          </g>
          <g
             id="g4841"
             transform="translate(40.8493,4.8432)">
            <path
               d="m 0,0 c 0.553,0.553 0.553,1.451 0,2.004 -0.554,0.554 -1.451,0.554 -2.005,0 C -2.559,1.451 -2.559,0.553 -2.005,0 -1.451,-0.553 -0.554,-0.553 0,0"
               style="fill:#ffffff;fill-opacity:1;fill-rule:evenodd;stroke:none"
               id="path4843" />
          </g>
          <g
             id="g4845"
             transform="translate(44.0564,8.0503)">
            <path
               d="m 0,0 c 0.553,0.553 0.553,1.451 0,2.004 -0.554,0.554 -1.451,0.554 -2.004,0 C -2.559,1.451 -2.559,0.553 -2.004,0 -1.451,-0.555 -0.554,-0.555 0,0"
               style="fill:#ffffff;fill-opacity:1;fill-rule:evenodd;stroke:none"
               id="path4847" />
          </g>
          <g
             id="g4849"
             transform="translate(47.2634,11.2573)">
            <path
               d="m 0,0 c 0.553,0.554 0.553,1.451 0,2.004 -0.555,0.554 -1.451,0.554 -2.004,0 C -2.559,1.451 -2.559,0.554 -2.004,0 -1.451,-0.553 -0.555,-0.553 0,0"
               style="fill:#ffffff;fill-opacity:1;fill-rule:evenodd;stroke:none"
               id="path4851" />
          </g>
          <g
             id="g4853"
             transform="translate(50.4704,14.4643)">
            <path
               d="m 0,0 c 0.553,0.554 0.553,1.451 0,2.004 -0.555,0.554 -1.451,0.554 -2.006,0 C -2.559,1.451 -2.559,0.554 -2.006,0 -1.451,-0.553 -0.555,-0.553 0,0"
               style="fill:#ffffff;fill-opacity:1;fill-rule:evenodd;stroke:none"
               id="path4855" />
          </g>
          <g
             id="g4857"
             transform="translate(53.6776,17.6714)">
            <path
               d="m 0,0 c 0.553,0.553 0.553,1.451 0,2.004 -0.554,0.554 -1.451,0.554 -2.005,0 C -2.559,1.451 -2.559,0.553 -2.005,0 -1.451,-0.555 -0.554,-0.555 0,0"
               style="fill:#ffffff;fill-opacity:1;fill-rule:evenodd;stroke:none"
               id="path4859" />
          </g>
          <g
             id="g4861"
             transform="translate(56.8846,20.8784)">
            <path
               d="m 0,0 c 0.553,0.553 0.553,1.451 0,2.004 -0.554,0.555 -1.451,0.555 -2.004,0 C -2.559,1.451 -2.559,0.553 -2.004,0 -1.451,-0.555 -0.554,-0.555 0,0"
               style="fill:#ffffff;fill-opacity:1;fill-rule:evenodd;stroke:none"
               id="path4863" />
          </g>
          <g
             id="g4865"
             transform="translate(40.8493,11.2573)">
            <path
               d="m 0,0 c 0.553,0.554 0.553,1.451 0,2.004 -0.554,0.554 -1.451,0.554 -2.005,0 C -2.559,1.451 -2.559,0.554 -2.005,0 -1.451,-0.553 -0.554,-0.553 0,0"
               style="fill:#ffffff;fill-opacity:1;fill-rule:evenodd;stroke:none"
               id="path4867" />
          </g>
          <g
             id="g4869"
             transform="translate(44.0564,14.4643)">
            <path
               d="m 0,0 c 0.553,0.554 0.553,1.451 0,2.004 -0.554,0.554 -1.451,0.554 -2.004,0 -0.555,-0.553 -0.555,-1.45 0,-2.004 0.553,-0.553 1.45,-0.553 2.004,0"
               style="fill:#ffffff;fill-opacity:1;fill-rule:evenodd;stroke:none"
               id="path4871" />
          </g>
          <g
             id="g4873"
             transform="translate(47.2634,17.6714)">
            <path
               d="m 0,0 c 0.553,0.553 0.553,1.451 0,2.004 -0.555,0.554 -1.451,0.554 -2.004,0 C -2.559,1.451 -2.559,0.553 -2.004,0 -1.451,-0.555 -0.555,-0.555 0,0"
               style="fill:#ffffff;fill-opacity:1;fill-rule:evenodd;stroke:none"
               id="path4875" />
          </g>
          <g
             id="g4877"
             transform="translate(50.4704,20.8784)">
            <path
               d="m 0,0 c 0.553,0.553 0.553,1.451 0,2.004 -0.555,0.555 -1.451,0.555 -2.006,0 C -2.559,1.451 -2.559,0.553 -2.006,0 -1.451,-0.555 -0.555,-0.555 0,0"
               style="fill:#ffffff;fill-opacity:1;fill-rule:evenodd;stroke:none"
               id="path4879" />
          </g>
          <g
             id="g4881"
             transform="translate(40.8493,17.6714)">
            <path
               d="m 0,0 c 0.553,0.553 0.553,1.451 0,2.004 -0.554,0.554 -1.451,0.554 -2.005,0 C -2.559,1.451 -2.559,0.553 -2.005,0 -1.451,-0.555 -0.554,-0.555 0,0"
               style="fill:#ffffff;fill-opacity:1;fill-rule:evenodd;stroke:none"
               id="path4883" />
          </g>
          <g
             id="g4885"
             transform="translate(44.0564,20.8784)">
            <path
               d="m 0,0 c 0.553,0.553 0.553,1.451 0,2.004 -0.554,0.555 -1.451,0.555 -2.004,0 C -2.559,1.451 -2.559,0.553 -2.004,0 -1.451,-0.555 -0.554,-0.555 0,0"
               style="fill:#ffffff;fill-opacity:1;fill-rule:evenodd;stroke:none"
               id="path4887" />
          </g>
          <g
             id="g4889"
             transform="translate(40.7068,43.9571)">
            <path
               d="M 0,0 2.836,-2.836"
               style="fill:none;stroke:#e30613;stroke-width:0.283;stroke-linecap:butt;stroke-linejoin:miter;stroke-miterlimit:22.926;stroke-dasharray:none;stroke-opacity:1"
               id="path4891" />
          </g>
          <g
             id="g4893"
             transform="translate(46.4997,44.0401)">
            <path
               d="M 0,0 2.836,-2.836"
               style="fill:none;stroke:#e30613;stroke-width:0.283;stroke-linecap:butt;stroke-linejoin:miter;stroke-miterlimit:22.926;stroke-dasharray:none;stroke-opacity:1"
               id="path4895" />
          </g>
        </g>
      </g>
      <text
         transform="matrix(1,0,0,-1,36.1597,34.9341)"
         style="font-variant:normal;font-weight:normal;font-stretch:semi-condensed;font-size:7px;font-family:'Arial Narrow';-inkscape-font-specification:ArialNarrow;writing-mode:lr-tb;fill:#e30613;fill-opacity:1;fill-rule:nonzero;stroke:none"
         id="text4899"><tspan
           x="0 3.1919999 4.7880001 7.98 9.5760002 11.487 15.631 19.775"
           y="0"
           sodipodi:role="line"
           id="tspan4897">0.8 (CC)</tspan></text>
      <text
         transform="matrix(1,0,0,-1,13.8997,37.8951)"
         style="font-variant:normal;font-weight:normal;font-stretch:normal;font-size:7px;font-family:Arial;-inkscape-font-specification:ArialMT;writing-mode:lr-tb;fill:#e30613;fill-opacity:1;fill-rule:nonzero;stroke:none"
         id="text4903"><tspan
           x="0"
           y="0"
           id="tspan4901">ø</tspan></text>
      <text
         transform="matrix(1,0,0,-1,19.7727,37.8951)"
         style="font-variant:normal;font-weight:normal;font-stretch:semi-condensed;font-size:7px;font-family:'Arial Narrow';-inkscape-font-specification:ArialNarrow;writing-mode:lr-tb;fill:#e30613;fill-opacity:1;fill-rule:nonzero;stroke:none"
         id="text4907"><tspan
           x="0 3.1919999 4.7880001"
           y="0"
           sodipodi:role="line"
           id="tspan4905">0.5</tspan></text>
      <g
         id="g4909">
        <g
           id="g4911"
           clip-path="url(#clipPath4915)">
          <g
             id="g4917"
             transform="translate(3.2715,67.4845)">
            <path
               d="m 0,0 3.239,-6.284 h -2.17 v -9.849 h -2.171 v 9.849 h -2.169 z"
               style="fill:#e30613;fill-opacity:1;fill-rule:evenodd;stroke:none"
               id="path4919" />
          </g>
          <g
             id="g4921"
             transform="translate(59.3083,41.086)">
            <path
               d="M 0,0 4.055,-0.012 1.247,2.816"
               style="fill:none;stroke:#e30613;stroke-width:0.283;stroke-linecap:butt;stroke-linejoin:round;stroke-miterlimit:22.926;stroke-dasharray:none;stroke-opacity:1"
               id="path4923" />
          </g>
        </g>
      </g>
      <text
         transform="matrix(1,0,0,-1,64.2593,36.8652)"
         style="font-variant:normal;font-weight:normal;font-stretch:semi-condensed;font-size:7px;font-family:'Arial Narrow';-inkscape-font-specification:ArialNarrow;writing-mode:lr-tb;fill:#e30613;fill-opacity:1;fill-rule:nonzero;stroke:none"
         id="text4927"><tspan
           x="0 3.1919999"
           y="0"
           sodipodi:role="line"
           id="tspan4925">45</tspan></text>
      <g
         id="g4929">
        <g
           id="g4931"
           clip-path="url(#clipPath4935)">
          <g
             id="g4937"
             transform="translate(71.9157,41.0099)">
            <path
               d="M 0,0 C 0.539,0 0.977,0.437 0.977,0.977 0.977,1.518 0.539,1.954 0,1.954 -0.539,1.954 -0.977,1.518 -0.977,0.977 -0.977,0.437 -0.539,0 0,0 Z"
               style="fill:none;stroke:#da460e;stroke-width:0.425;stroke-linecap:butt;stroke-linejoin:miter;stroke-miterlimit:22.926;stroke-dasharray:none;stroke-opacity:1"
               id="path4939" />
          </g>
        </g>
      </g>
      <text
         transform="matrix(1,0,0,-1,25.5723,11.4058)"
         style="font-variant:normal;font-weight:normal;font-stretch:semi-condensed;font-size:7px;font-family:'Arial Narrow';-inkscape-font-specification:ArialNarrow;writing-mode:lr-tb;fill:#e30613;fill-opacity:1;fill-rule:nonzero;stroke:none"
         id="text4943"><tspan
           x="0 4.7810001 6.0549998 9.2469997"
           y="0"
           sodipodi:role="line"
           id="tspan4941">min.</tspan></text>
      <g
         id="g4945">
        <g
           id="g4947"
           clip-path="url(#clipPath4951)">
          <path
             d="m 18.847,26.079 h 42.52 V 0.567 h -42.52 z"
             style="fill:none;stroke:#312783;stroke-width:1.134;stroke-linecap:butt;stroke-linejoin:miter;stroke-miterlimit:22.926;stroke-dasharray:none;stroke-opacity:1"
             id="path4953" />
        </g>
      </g>
    </g>
  </g>
</svg>
