<?xml version="1.0" encoding="UTF-8" standalone="no"?>
<!-- Created with Inkscape (http://www.inkscape.org/) -->

<svg
   width="26mm"
   height="25mm"
   viewBox="0 0 26 25"
   version="1.1"
   id="svg7909"
   inkscape:version="1.1.1 (3bf5ae0d25, 2021-09-20)"
   sodipodi:docname="ISOM 413 Orchard.svg"
   xmlns:inkscape="http://www.inkscape.org/namespaces/inkscape"
   xmlns:sodipodi="http://sodipodi.sourceforge.net/DTD/sodipodi-0.dtd"
   xmlns="http://www.w3.org/2000/svg"
   xmlns:svg="http://www.w3.org/2000/svg">
  <sodipodi:namedview
     id="namedview7911"
     pagecolor="#ffffff"
     bordercolor="#666666"
     borderopacity="1.0"
     inkscape:pageshadow="2"
     inkscape:pageopacity="0.0"
     inkscape:pagecheckerboard="true"
     inkscape:document-units="mm"
     showgrid="false"
     inkscape:zoom="4.192802"
     inkscape:cx="62.368794"
     inkscape:cy="79.064073"
     inkscape:window-width="1920"
     inkscape:window-height="1017"
     inkscape:window-x="-8"
     inkscape:window-y="-8"
     inkscape:window-maximized="1"
     inkscape:current-layer="layer1" />
  <defs
     id="defs7906">
    <clipPath
       clipPathUnits="userSpaceOnUse"
       id="clipPath7931">
      <path
         d="M 0,66.76 H 69.101 V 0 H 0 Z"
         id="path7929" />
    </clipPath>
    <clipPath
       clipPathUnits="userSpaceOnUse"
       id="clipPath8245">
      <path
         d="M 0,66.76 H 69.101 V 0 H 0 Z"
         id="path8243" />
    </clipPath>
  </defs>
  <g
     inkscape:label="Ebene 1"
     inkscape:groupmode="layer"
     id="layer1">
    <g
       id="g7919"
       inkscape:label="ISOM 413 Orchard"
       transform="matrix(0.35277777,0,0,-0.35277777,0.74331309,24.115401)">
      <path
         d="M 4.166,29.957 H 22.024 V 52.634 H 4.166 Z"
         style="fill:#ffe0a9;fill-opacity:1;fill-rule:evenodd;stroke:none"
         id="path7921" />
      <path
         d="M 22.024,29.957 H 39.882 V 52.634 H 22.024 Z"
         style="fill:#fcc246;fill-opacity:1;fill-rule:evenodd;stroke:none"
         id="path7923" />
      <g
         id="g7925">
        <g
           id="g7927"
           clip-path="url(#clipPath7931)">
          <g
             id="g7933"
             transform="translate(6.15,51.6424)">
            <path
               d="M 0,0 C 0.705,0 1.276,-0.569 1.276,-1.275 1.276,-1.98 0.705,-2.551 0,-2.551 c -0.704,0 -1.276,0.571 -1.276,1.276 C -1.276,-0.569 -0.704,0 0,0"
               style="fill:#31aa47;fill-opacity:1;fill-rule:evenodd;stroke:none"
               id="path7935" />
          </g>
          <g
             id="g7937"
             transform="translate(6.15,47.107)">
            <path
               d="M 0,0 C 0.705,0 1.276,-0.569 1.276,-1.275 1.276,-1.98 0.705,-2.551 0,-2.551 c -0.704,0 -1.276,0.571 -1.276,1.276 C -1.276,-0.569 -0.704,0 0,0"
               style="fill:#31aa47;fill-opacity:1;fill-rule:evenodd;stroke:none"
               id="path7939" />
          </g>
          <g
             id="g7941"
             transform="translate(6.15,42.5716)">
            <path
               d="M 0,0 C 0.705,0 1.276,-0.569 1.276,-1.275 1.276,-1.98 0.705,-2.551 0,-2.551 c -0.704,0 -1.276,0.571 -1.276,1.276 C -1.276,-0.569 -0.704,0 0,0"
               style="fill:#31aa47;fill-opacity:1;fill-rule:evenodd;stroke:none"
               id="path7943" />
          </g>
          <g
             id="g7945"
             transform="translate(6.15,38.0361)">
            <path
               d="M 0,0 C 0.705,0 1.276,-0.569 1.276,-1.275 1.276,-1.98 0.705,-2.551 0,-2.551 c -0.704,0 -1.276,0.571 -1.276,1.276 C -1.276,-0.569 -0.704,0 0,0"
               style="fill:#31aa47;fill-opacity:1;fill-rule:evenodd;stroke:none"
               id="path7947" />
          </g>
          <g
             id="g7949"
             transform="translate(6.15,33.5007)">
            <path
               d="M 0,0 C 0.705,0 1.276,-0.569 1.276,-1.275 1.276,-1.98 0.705,-2.551 0,-2.551 c -0.704,0 -1.276,0.571 -1.276,1.276 C -1.276,-0.569 -0.704,0 0,0"
               style="fill:#31aa47;fill-opacity:1;fill-rule:evenodd;stroke:none"
               id="path7951" />
          </g>
          <g
             id="g7953"
             transform="translate(10.6855,51.6424)">
            <path
               d="M 0,0 C 0.705,0 1.276,-0.569 1.276,-1.275 1.276,-1.98 0.705,-2.551 0,-2.551 c -0.704,0 -1.276,0.571 -1.276,1.276 C -1.276,-0.569 -0.704,0 0,0"
               style="fill:#31aa47;fill-opacity:1;fill-rule:evenodd;stroke:none"
               id="path7955" />
          </g>
          <g
             id="g7957"
             transform="translate(10.6855,47.107)">
            <path
               d="M 0,0 C 0.705,0 1.276,-0.569 1.276,-1.275 1.276,-1.98 0.705,-2.551 0,-2.551 c -0.704,0 -1.276,0.571 -1.276,1.276 C -1.276,-0.569 -0.704,0 0,0"
               style="fill:#31aa47;fill-opacity:1;fill-rule:evenodd;stroke:none"
               id="path7959" />
          </g>
          <g
             id="g7961"
             transform="translate(10.6855,42.5716)">
            <path
               d="M 0,0 C 0.705,0 1.276,-0.569 1.276,-1.275 1.276,-1.98 0.705,-2.551 0,-2.551 c -0.704,0 -1.276,0.571 -1.276,1.276 C -1.276,-0.569 -0.704,0 0,0"
               style="fill:#31aa47;fill-opacity:1;fill-rule:evenodd;stroke:none"
               id="path7963" />
          </g>
          <g
             id="g7965"
             transform="translate(10.6855,38.0361)">
            <path
               d="M 0,0 C 0.705,0 1.276,-0.569 1.276,-1.275 1.276,-1.98 0.705,-2.551 0,-2.551 c -0.704,0 -1.276,0.571 -1.276,1.276 C -1.276,-0.569 -0.704,0 0,0"
               style="fill:#31aa47;fill-opacity:1;fill-rule:evenodd;stroke:none"
               id="path7967" />
          </g>
          <g
             id="g7969"
             transform="translate(10.6855,33.5007)">
            <path
               d="M 0,0 C 0.705,0 1.276,-0.569 1.276,-1.275 1.276,-1.98 0.705,-2.551 0,-2.551 c -0.704,0 -1.276,0.571 -1.276,1.276 C -1.276,-0.569 -0.704,0 0,0"
               style="fill:#31aa47;fill-opacity:1;fill-rule:evenodd;stroke:none"
               id="path7971" />
          </g>
          <g
             id="g7973"
             transform="translate(15.2209,51.6424)">
            <path
               d="M 0,0 C 0.705,0 1.276,-0.569 1.276,-1.275 1.276,-1.98 0.705,-2.551 0,-2.551 c -0.704,0 -1.276,0.571 -1.276,1.276 C -1.276,-0.569 -0.704,0 0,0"
               style="fill:#31aa47;fill-opacity:1;fill-rule:evenodd;stroke:none"
               id="path7975" />
          </g>
          <g
             id="g7977"
             transform="translate(15.2209,47.107)">
            <path
               d="M 0,0 C 0.705,0 1.276,-0.569 1.276,-1.275 1.276,-1.98 0.705,-2.551 0,-2.551 c -0.704,0 -1.276,0.571 -1.276,1.276 C -1.276,-0.569 -0.704,0 0,0"
               style="fill:#31aa47;fill-opacity:1;fill-rule:evenodd;stroke:none"
               id="path7979" />
          </g>
          <g
             id="g7981"
             transform="translate(15.2209,42.5716)">
            <path
               d="M 0,0 C 0.705,0 1.276,-0.569 1.276,-1.275 1.276,-1.98 0.705,-2.551 0,-2.551 c -0.704,0 -1.276,0.571 -1.276,1.276 C -1.276,-0.569 -0.704,0 0,0"
               style="fill:#31aa47;fill-opacity:1;fill-rule:evenodd;stroke:none"
               id="path7983" />
          </g>
          <g
             id="g7985"
             transform="translate(15.2209,38.0361)">
            <path
               d="M 0,0 C 0.705,0 1.276,-0.569 1.276,-1.275 1.276,-1.98 0.705,-2.551 0,-2.551 c -0.704,0 -1.276,0.571 -1.276,1.276 C -1.276,-0.569 -0.704,0 0,0"
               style="fill:#31aa47;fill-opacity:1;fill-rule:evenodd;stroke:none"
               id="path7987" />
          </g>
          <g
             id="g7989"
             transform="translate(15.2209,33.5007)">
            <path
               d="M 0,0 C 0.705,0 1.276,-0.569 1.276,-1.275 1.276,-1.98 0.705,-2.551 0,-2.551 c -0.704,0 -1.276,0.571 -1.276,1.276 C -1.276,-0.569 -0.704,0 0,0"
               style="fill:#31aa47;fill-opacity:1;fill-rule:evenodd;stroke:none"
               id="path7991" />
          </g>
          <g
             id="g7993"
             transform="translate(19.7563,51.6424)">
            <path
               d="M 0,0 C 0.705,0 1.276,-0.569 1.276,-1.275 1.276,-1.98 0.705,-2.551 0,-2.551 c -0.704,0 -1.276,0.571 -1.276,1.276 C -1.276,-0.569 -0.704,0 0,0"
               style="fill:#31aa47;fill-opacity:1;fill-rule:evenodd;stroke:none"
               id="path7995" />
          </g>
          <g
             id="g7997"
             transform="translate(19.7563,47.107)">
            <path
               d="M 0,0 C 0.705,0 1.276,-0.569 1.276,-1.275 1.276,-1.98 0.705,-2.551 0,-2.551 c -0.704,0 -1.276,0.571 -1.276,1.276 C -1.276,-0.569 -0.704,0 0,0"
               style="fill:#31aa47;fill-opacity:1;fill-rule:evenodd;stroke:none"
               id="path7999" />
          </g>
          <g
             id="g8001"
             transform="translate(19.7563,42.5716)">
            <path
               d="M 0,0 C 0.705,0 1.276,-0.569 1.276,-1.275 1.276,-1.98 0.705,-2.551 0,-2.551 c -0.704,0 -1.276,0.571 -1.276,1.276 C -1.276,-0.569 -0.704,0 0,0"
               style="fill:#31aa47;fill-opacity:1;fill-rule:evenodd;stroke:none"
               id="path8003" />
          </g>
          <g
             id="g8005"
             transform="translate(19.7563,38.0361)">
            <path
               d="M 0,0 C 0.705,0 1.276,-0.569 1.276,-1.275 1.276,-1.98 0.705,-2.551 0,-2.551 c -0.704,0 -1.276,0.571 -1.276,1.276 C -1.276,-0.569 -0.704,0 0,0"
               style="fill:#31aa47;fill-opacity:1;fill-rule:evenodd;stroke:none"
               id="path8007" />
          </g>
          <g
             id="g8009"
             transform="translate(19.7563,33.5007)">
            <path
               d="M 0,0 C 0.705,0 1.276,-0.569 1.276,-1.275 1.276,-1.98 0.705,-2.551 0,-2.551 c -0.704,0 -1.276,0.571 -1.276,1.276 C -1.276,-0.569 -0.704,0 0,0"
               style="fill:#31aa47;fill-opacity:1;fill-rule:evenodd;stroke:none"
               id="path8011" />
          </g>
          <g
             id="g8013"
             transform="translate(24.2918,51.6424)">
            <path
               d="M 0,0 C 0.705,0 1.276,-0.569 1.276,-1.275 1.276,-1.98 0.705,-2.551 0,-2.551 c -0.704,0 -1.276,0.571 -1.276,1.276 C -1.276,-0.569 -0.704,0 0,0"
               style="fill:#31aa47;fill-opacity:1;fill-rule:evenodd;stroke:none"
               id="path8015" />
          </g>
          <g
             id="g8017"
             transform="translate(24.2918,47.107)">
            <path
               d="M 0,0 C 0.705,0 1.276,-0.569 1.276,-1.275 1.276,-1.98 0.705,-2.551 0,-2.551 c -0.704,0 -1.276,0.571 -1.276,1.276 C -1.276,-0.569 -0.704,0 0,0"
               style="fill:#31aa47;fill-opacity:1;fill-rule:evenodd;stroke:none"
               id="path8019" />
          </g>
          <g
             id="g8021"
             transform="translate(24.2918,42.5716)">
            <path
               d="M 0,0 C 0.705,0 1.276,-0.569 1.276,-1.275 1.276,-1.98 0.705,-2.551 0,-2.551 c -0.704,0 -1.276,0.571 -1.276,1.276 C -1.276,-0.569 -0.704,0 0,0"
               style="fill:#31aa47;fill-opacity:1;fill-rule:evenodd;stroke:none"
               id="path8023" />
          </g>
          <g
             id="g8025"
             transform="translate(24.2918,38.0361)">
            <path
               d="M 0,0 C 0.705,0 1.276,-0.569 1.276,-1.275 1.276,-1.98 0.705,-2.551 0,-2.551 c -0.704,0 -1.276,0.571 -1.276,1.276 C -1.276,-0.569 -0.704,0 0,0"
               style="fill:#31aa47;fill-opacity:1;fill-rule:evenodd;stroke:none"
               id="path8027" />
          </g>
          <g
             id="g8029"
             transform="translate(24.2918,33.5007)">
            <path
               d="M 0,0 C 0.705,0 1.276,-0.569 1.276,-1.275 1.276,-1.98 0.705,-2.551 0,-2.551 c -0.704,0 -1.276,0.571 -1.276,1.276 C -1.276,-0.569 -0.704,0 0,0"
               style="fill:#31aa47;fill-opacity:1;fill-rule:evenodd;stroke:none"
               id="path8031" />
          </g>
          <g
             id="g8033"
             transform="translate(28.8272,51.6424)">
            <path
               d="M 0,0 C 0.705,0 1.276,-0.569 1.276,-1.275 1.276,-1.98 0.705,-2.551 0,-2.551 c -0.704,0 -1.276,0.571 -1.276,1.276 C -1.276,-0.569 -0.704,0 0,0"
               style="fill:#31aa47;fill-opacity:1;fill-rule:evenodd;stroke:none"
               id="path8035" />
          </g>
          <g
             id="g8037"
             transform="translate(28.8272,47.107)">
            <path
               d="M 0,0 C 0.705,0 1.276,-0.569 1.276,-1.275 1.276,-1.98 0.705,-2.551 0,-2.551 c -0.704,0 -1.276,0.571 -1.276,1.276 C -1.276,-0.569 -0.704,0 0,0"
               style="fill:#31aa47;fill-opacity:1;fill-rule:evenodd;stroke:none"
               id="path8039" />
          </g>
          <g
             id="g8041"
             transform="translate(28.8272,42.5716)">
            <path
               d="M 0,0 C 0.705,0 1.276,-0.569 1.276,-1.275 1.276,-1.98 0.705,-2.551 0,-2.551 c -0.704,0 -1.276,0.571 -1.276,1.276 C -1.276,-0.569 -0.704,0 0,0"
               style="fill:#31aa47;fill-opacity:1;fill-rule:evenodd;stroke:none"
               id="path8043" />
          </g>
          <g
             id="g8045"
             transform="translate(28.8272,38.0361)">
            <path
               d="M 0,0 C 0.705,0 1.276,-0.569 1.276,-1.275 1.276,-1.98 0.705,-2.551 0,-2.551 c -0.704,0 -1.276,0.571 -1.276,1.276 C -1.276,-0.569 -0.704,0 0,0"
               style="fill:#31aa47;fill-opacity:1;fill-rule:evenodd;stroke:none"
               id="path8047" />
          </g>
          <g
             id="g8049"
             transform="translate(28.8272,33.5007)">
            <path
               d="M 0,0 C 0.705,0 1.276,-0.569 1.276,-1.275 1.276,-1.98 0.705,-2.551 0,-2.551 c -0.704,0 -1.276,0.571 -1.276,1.276 C -1.276,-0.569 -0.704,0 0,0"
               style="fill:#31aa47;fill-opacity:1;fill-rule:evenodd;stroke:none"
               id="path8051" />
          </g>
          <g
             id="g8053"
             transform="translate(33.3626,51.6424)">
            <path
               d="M 0,0 C 0.705,0 1.276,-0.569 1.276,-1.275 1.276,-1.98 0.705,-2.551 0,-2.551 c -0.704,0 -1.276,0.571 -1.276,1.276 C -1.276,-0.569 -0.704,0 0,0"
               style="fill:#31aa47;fill-opacity:1;fill-rule:evenodd;stroke:none"
               id="path8055" />
          </g>
          <g
             id="g8057"
             transform="translate(33.3626,47.107)">
            <path
               d="M 0,0 C 0.705,0 1.276,-0.569 1.276,-1.275 1.276,-1.98 0.705,-2.551 0,-2.551 c -0.704,0 -1.276,0.571 -1.276,1.276 C -1.276,-0.569 -0.704,0 0,0"
               style="fill:#31aa47;fill-opacity:1;fill-rule:evenodd;stroke:none"
               id="path8059" />
          </g>
          <g
             id="g8061"
             transform="translate(33.3626,42.5716)">
            <path
               d="M 0,0 C 0.705,0 1.276,-0.569 1.276,-1.275 1.276,-1.98 0.705,-2.551 0,-2.551 c -0.704,0 -1.276,0.571 -1.276,1.276 C -1.276,-0.569 -0.704,0 0,0"
               style="fill:#31aa47;fill-opacity:1;fill-rule:evenodd;stroke:none"
               id="path8063" />
          </g>
          <g
             id="g8065"
             transform="translate(33.3626,38.0361)">
            <path
               d="M 0,0 C 0.705,0 1.276,-0.569 1.276,-1.275 1.276,-1.98 0.705,-2.551 0,-2.551 c -0.704,0 -1.276,0.571 -1.276,1.276 C -1.276,-0.569 -0.704,0 0,0"
               style="fill:#31aa47;fill-opacity:1;fill-rule:evenodd;stroke:none"
               id="path8067" />
          </g>
          <g
             id="g8069"
             transform="translate(33.3626,33.5007)">
            <path
               d="M 0,0 C 0.705,0 1.276,-0.569 1.276,-1.275 1.276,-1.98 0.705,-2.551 0,-2.551 c -0.704,0 -1.276,0.571 -1.276,1.276 C -1.276,-0.569 -0.704,0 0,0"
               style="fill:#31aa47;fill-opacity:1;fill-rule:evenodd;stroke:none"
               id="path8071" />
          </g>
          <g
             id="g8073"
             transform="translate(37.8981,51.6424)">
            <path
               d="M 0,0 C 0.705,0 1.276,-0.569 1.276,-1.275 1.276,-1.98 0.705,-2.551 0,-2.551 c -0.704,0 -1.276,0.571 -1.276,1.276 C -1.276,-0.569 -0.704,0 0,0"
               style="fill:#31aa47;fill-opacity:1;fill-rule:evenodd;stroke:none"
               id="path8075" />
          </g>
          <g
             id="g8077"
             transform="translate(37.8981,47.107)">
            <path
               d="M 0,0 C 0.705,0 1.276,-0.569 1.276,-1.275 1.276,-1.98 0.705,-2.551 0,-2.551 c -0.704,0 -1.276,0.571 -1.276,1.276 C -1.276,-0.569 -0.704,0 0,0"
               style="fill:#31aa47;fill-opacity:1;fill-rule:evenodd;stroke:none"
               id="path8079" />
          </g>
          <g
             id="g8081"
             transform="translate(37.8981,42.5716)">
            <path
               d="M 0,0 C 0.705,0 1.276,-0.569 1.276,-1.275 1.276,-1.98 0.705,-2.551 0,-2.551 c -0.704,0 -1.276,0.571 -1.276,1.276 C -1.276,-0.569 -0.704,0 0,0"
               style="fill:#31aa47;fill-opacity:1;fill-rule:evenodd;stroke:none"
               id="path8083" />
          </g>
          <g
             id="g8085"
             transform="translate(37.8981,38.0361)">
            <path
               d="M 0,0 C 0.705,0 1.276,-0.569 1.276,-1.275 1.276,-1.98 0.705,-2.551 0,-2.551 c -0.704,0 -1.276,0.571 -1.276,1.276 C -1.276,-0.569 -0.704,0 0,0"
               style="fill:#31aa47;fill-opacity:1;fill-rule:evenodd;stroke:none"
               id="path8087" />
          </g>
          <g
             id="g8089"
             transform="translate(37.8981,33.5007)">
            <path
               d="M 0,0 C 0.705,0 1.276,-0.569 1.276,-1.275 1.276,-1.98 0.705,-2.551 0,-2.551 c -0.704,0 -1.276,0.571 -1.276,1.276 C -1.276,-0.569 -0.704,0 0,0"
               style="fill:#31aa47;fill-opacity:1;fill-rule:evenodd;stroke:none"
               id="path8091" />
          </g>
          <g
             id="g8093"
             transform="translate(48.5485,28.6448)">
            <path
               d="M 0,0 20.552,9.584 10.969,30.136 -9.584,20.552 Z"
               style="fill:#fcc246;fill-opacity:1;fill-rule:evenodd;stroke:none"
               id="path8095" />
          </g>
          <g
             id="g8097"
             transform="translate(41.4392,49.2565)">
            <path
               d="M 0,0 C 0.639,0.298 1.397,0.023 1.695,-0.617 1.993,-1.256 1.717,-2.014 1.078,-2.312 0.44,-2.61 -0.319,-2.334 -0.617,-1.695 -0.915,-1.055 -0.638,-0.298 0,0"
               style="fill:#31aa47;fill-opacity:1;fill-rule:evenodd;stroke:none"
               id="path8099" />
          </g>
          <g
             id="g8101"
             transform="translate(43.3559,45.146)">
            <path
               d="M 0,0 C 0.639,0.298 1.397,0.023 1.695,-0.617 1.993,-1.256 1.717,-2.014 1.078,-2.312 0.44,-2.61 -0.319,-2.334 -0.617,-1.695 -0.915,-1.055 -0.638,-0.298 0,0"
               style="fill:#31aa47;fill-opacity:1;fill-rule:evenodd;stroke:none"
               id="path8103" />
          </g>
          <g
             id="g8105"
             transform="translate(45.2727,41.0355)">
            <path
               d="M 0,0 C 0.639,0.298 1.397,0.023 1.695,-0.617 1.993,-1.256 1.717,-2.014 1.078,-2.312 0.44,-2.61 -0.319,-2.334 -0.617,-1.695 -0.915,-1.055 -0.638,-0.298 0,0"
               style="fill:#31aa47;fill-opacity:1;fill-rule:evenodd;stroke:none"
               id="path8107" />
          </g>
          <g
             id="g8109"
             transform="translate(47.1895,36.925)">
            <path
               d="M 0,0 C 0.639,0.298 1.397,0.023 1.695,-0.617 1.993,-1.256 1.717,-2.014 1.078,-2.312 0.44,-2.61 -0.319,-2.334 -0.617,-1.695 -0.915,-1.055 -0.638,-0.298 0,0"
               style="fill:#31aa47;fill-opacity:1;fill-rule:evenodd;stroke:none"
               id="path8111" />
          </g>
          <g
             id="g8113"
             transform="translate(49.1062,32.8145)">
            <path
               d="M 0,0 C 0.639,0.298 1.397,0.023 1.695,-0.617 1.993,-1.256 1.717,-2.014 1.078,-2.312 0.44,-2.61 -0.319,-2.334 -0.617,-1.695 -0.915,-1.055 -0.638,-0.298 0,0"
               style="fill:#31aa47;fill-opacity:1;fill-rule:evenodd;stroke:none"
               id="path8115" />
          </g>
          <g
             id="g8117"
             transform="translate(45.5497,51.1733)">
            <path
               d="M 0,0 C 0.639,0.298 1.397,0.023 1.695,-0.617 1.993,-1.256 1.717,-2.014 1.078,-2.312 0.44,-2.61 -0.319,-2.334 -0.617,-1.695 -0.915,-1.055 -0.638,-0.298 0,0"
               style="fill:#31aa47;fill-opacity:1;fill-rule:evenodd;stroke:none"
               id="path8119" />
          </g>
          <g
             id="g8121"
             transform="translate(47.4664,47.0628)">
            <path
               d="M 0,0 C 0.639,0.298 1.397,0.023 1.695,-0.617 1.993,-1.256 1.717,-2.014 1.078,-2.312 0.44,-2.61 -0.319,-2.334 -0.617,-1.695 -0.915,-1.055 -0.638,-0.298 0,0"
               style="fill:#31aa47;fill-opacity:1;fill-rule:evenodd;stroke:none"
               id="path8123" />
          </g>
          <g
             id="g8125"
             transform="translate(49.3832,42.9523)">
            <path
               d="M 0,0 C 0.639,0.298 1.397,0.023 1.695,-0.617 1.993,-1.256 1.717,-2.014 1.078,-2.312 0.44,-2.61 -0.319,-2.334 -0.617,-1.695 -0.915,-1.055 -0.638,-0.298 0,0"
               style="fill:#31aa47;fill-opacity:1;fill-rule:evenodd;stroke:none"
               id="path8127" />
          </g>
          <g
             id="g8129"
             transform="translate(51.3,38.8418)">
            <path
               d="M 0,0 C 0.639,0.298 1.397,0.023 1.695,-0.617 1.993,-1.256 1.717,-2.014 1.078,-2.312 0.44,-2.61 -0.319,-2.334 -0.617,-1.695 -0.915,-1.055 -0.638,-0.298 0,0"
               style="fill:#31aa47;fill-opacity:1;fill-rule:evenodd;stroke:none"
               id="path8131" />
          </g>
          <g
             id="g8133"
             transform="translate(53.2167,34.7313)">
            <path
               d="M 0,0 C 0.639,0.298 1.397,0.023 1.695,-0.617 1.993,-1.256 1.717,-2.014 1.078,-2.312 0.44,-2.61 -0.319,-2.334 -0.617,-1.695 -0.915,-1.055 -0.638,-0.298 0,0"
               style="fill:#31aa47;fill-opacity:1;fill-rule:evenodd;stroke:none"
               id="path8135" />
          </g>
          <g
             id="g8137"
             transform="translate(49.6602,53.09)">
            <path
               d="M 0,0 C 0.639,0.298 1.397,0.023 1.695,-0.617 1.993,-1.256 1.717,-2.014 1.078,-2.312 0.44,-2.61 -0.319,-2.334 -0.617,-1.695 -0.915,-1.055 -0.638,-0.298 0,0"
               style="fill:#31aa47;fill-opacity:1;fill-rule:evenodd;stroke:none"
               id="path8139" />
          </g>
          <g
             id="g8141"
             transform="translate(51.5769,48.9795)">
            <path
               d="M 0,0 C 0.639,0.298 1.397,0.023 1.695,-0.617 1.993,-1.256 1.717,-2.014 1.078,-2.312 0.44,-2.61 -0.319,-2.334 -0.617,-1.695 -0.915,-1.055 -0.638,-0.298 0,0"
               style="fill:#31aa47;fill-opacity:1;fill-rule:evenodd;stroke:none"
               id="path8143" />
          </g>
          <g
             id="g8145"
             transform="translate(53.4937,44.869)">
            <path
               d="M 0,0 C 0.639,0.298 1.397,0.023 1.695,-0.617 1.993,-1.256 1.717,-2.014 1.078,-2.312 0.44,-2.61 -0.319,-2.334 -0.617,-1.695 -0.915,-1.055 -0.638,-0.298 0,0"
               style="fill:#31aa47;fill-opacity:1;fill-rule:evenodd;stroke:none"
               id="path8147" />
          </g>
          <g
             id="g8149"
             transform="translate(55.4105,40.7585)">
            <path
               d="M 0,0 C 0.639,0.298 1.397,0.023 1.695,-0.617 1.993,-1.256 1.717,-2.014 1.078,-2.312 0.44,-2.61 -0.319,-2.334 -0.617,-1.695 -0.915,-1.055 -0.638,-0.298 0,0"
               style="fill:#31aa47;fill-opacity:1;fill-rule:evenodd;stroke:none"
               id="path8151" />
          </g>
          <g
             id="g8153"
             transform="translate(57.3272,36.648)">
            <path
               d="M 0,0 C 0.639,0.298 1.397,0.023 1.695,-0.617 1.993,-1.256 1.717,-2.014 1.078,-2.312 0.44,-2.61 -0.319,-2.334 -0.617,-1.695 -0.915,-1.055 -0.638,-0.298 0,0"
               style="fill:#31aa47;fill-opacity:1;fill-rule:evenodd;stroke:none"
               id="path8155" />
          </g>
          <g
             id="g8157"
             transform="translate(53.7707,55.0068)">
            <path
               d="M 0,0 C 0.639,0.298 1.397,0.023 1.695,-0.617 1.993,-1.256 1.717,-2.014 1.078,-2.312 0.44,-2.61 -0.319,-2.334 -0.617,-1.695 -0.915,-1.055 -0.638,-0.298 0,0"
               style="fill:#31aa47;fill-opacity:1;fill-rule:evenodd;stroke:none"
               id="path8159" />
          </g>
          <g
             id="g8161"
             transform="translate(55.6874,50.8963)">
            <path
               d="M 0,0 C 0.639,0.298 1.397,0.023 1.695,-0.617 1.993,-1.256 1.717,-2.014 1.078,-2.312 0.44,-2.61 -0.319,-2.334 -0.617,-1.695 -0.915,-1.055 -0.638,-0.298 0,0"
               style="fill:#31aa47;fill-opacity:1;fill-rule:evenodd;stroke:none"
               id="path8163" />
          </g>
          <g
             id="g8165"
             transform="translate(57.6042,46.7858)">
            <path
               d="M 0,0 C 0.639,0.298 1.397,0.023 1.695,-0.617 1.993,-1.256 1.717,-2.014 1.078,-2.312 0.44,-2.61 -0.319,-2.334 -0.617,-1.695 -0.915,-1.055 -0.638,-0.298 0,0"
               style="fill:#31aa47;fill-opacity:1;fill-rule:evenodd;stroke:none"
               id="path8167" />
          </g>
          <g
             id="g8169"
             transform="translate(59.521,42.6753)">
            <path
               d="M 0,0 C 0.639,0.298 1.397,0.023 1.695,-0.617 1.993,-1.256 1.717,-2.014 1.078,-2.312 0.44,-2.61 -0.319,-2.334 -0.617,-1.695 -0.915,-1.055 -0.638,-0.298 0,0"
               style="fill:#31aa47;fill-opacity:1;fill-rule:evenodd;stroke:none"
               id="path8171" />
          </g>
          <g
             id="g8173"
             transform="translate(61.4377,38.5648)">
            <path
               d="M 0,0 C 0.639,0.298 1.397,0.023 1.695,-0.617 1.993,-1.256 1.717,-2.014 1.078,-2.312 0.44,-2.61 -0.319,-2.334 -0.617,-1.695 -0.915,-1.055 -0.638,-0.298 0,0"
               style="fill:#31aa47;fill-opacity:1;fill-rule:evenodd;stroke:none"
               id="path8175" />
          </g>
          <g
             id="g8177"
             transform="translate(57.8812,56.9235)">
            <path
               d="M 0,0 C 0.639,0.298 1.397,0.023 1.695,-0.617 1.993,-1.256 1.717,-2.014 1.078,-2.312 0.44,-2.61 -0.319,-2.334 -0.617,-1.695 -0.915,-1.055 -0.638,-0.298 0,0"
               style="fill:#31aa47;fill-opacity:1;fill-rule:evenodd;stroke:none"
               id="path8179" />
          </g>
          <g
             id="g8181"
             transform="translate(59.7979,52.813)">
            <path
               d="M 0,0 C 0.639,0.298 1.397,0.023 1.695,-0.617 1.993,-1.256 1.717,-2.014 1.078,-2.312 0.44,-2.61 -0.319,-2.334 -0.617,-1.695 -0.915,-1.055 -0.638,-0.298 0,0"
               style="fill:#31aa47;fill-opacity:1;fill-rule:evenodd;stroke:none"
               id="path8183" />
          </g>
          <g
             id="g8185"
             transform="translate(61.7147,48.7025)">
            <path
               d="M 0,0 C 0.639,0.298 1.397,0.023 1.695,-0.617 1.993,-1.256 1.717,-2.014 1.078,-2.312 0.44,-2.61 -0.319,-2.334 -0.617,-1.695 -0.915,-1.055 -0.638,-0.298 0,0"
               style="fill:#31aa47;fill-opacity:1;fill-rule:evenodd;stroke:none"
               id="path8187" />
          </g>
          <g
             id="g8189"
             transform="translate(63.6315,44.5921)">
            <path
               d="M 0,0 C 0.639,0.298 1.397,0.023 1.695,-0.617 1.993,-1.256 1.717,-2.014 1.078,-2.312 0.44,-2.61 -0.319,-2.334 -0.617,-1.695 -0.915,-1.055 -0.638,-0.298 0,0"
               style="fill:#31aa47;fill-opacity:1;fill-rule:evenodd;stroke:none"
               id="path8191" />
          </g>
          <g
             id="g8193"
             transform="translate(65.5482,40.4816)">
            <path
               d="M 0,0 C 0.639,0.298 1.397,0.023 1.695,-0.617 1.993,-1.256 1.717,-2.014 1.078,-2.312 0.44,-2.61 -0.319,-2.334 -0.617,-1.695 -0.915,-1.055 -0.638,-0.298 0,0"
               style="fill:#31aa47;fill-opacity:1;fill-rule:evenodd;stroke:none"
               id="path8195" />
          </g>
          <path
             d="M 33.012,4.639 H 44.918 V 16.545 H 33.012 Z"
             style="fill:#fcc246;fill-opacity:1;fill-rule:evenodd;stroke:none"
             id="path8197" />
          <g
             id="g8199"
             transform="translate(34.4292,16.4032)">
            <path
               d="M 0,0 C 0.705,0 1.276,-0.569 1.276,-1.275 1.276,-1.98 0.705,-2.551 0,-2.551 c -0.704,0 -1.276,0.571 -1.276,1.276 C -1.276,-0.569 -0.704,0 0,0"
               style="fill:#31aa47;fill-opacity:1;fill-rule:evenodd;stroke:none"
               id="path8201" />
          </g>
          <g
             id="g8203"
             transform="translate(34.4292,11.8677)">
            <path
               d="M 0,0 C 0.705,0 1.276,-0.569 1.276,-1.275 1.276,-1.98 0.705,-2.551 0,-2.551 c -0.704,0 -1.276,0.571 -1.276,1.276 C -1.276,-0.569 -0.704,0 0,0"
               style="fill:#31aa47;fill-opacity:1;fill-rule:evenodd;stroke:none"
               id="path8205" />
          </g>
          <g
             id="g8207"
             transform="translate(34.4292,7.3323)">
            <path
               d="M 0,0 C 0.705,0 1.276,-0.569 1.276,-1.275 1.276,-1.98 0.705,-2.551 0,-2.551 c -0.704,0 -1.276,0.571 -1.276,1.276 C -1.276,-0.569 -0.704,0 0,0"
               style="fill:#31aa47;fill-opacity:1;fill-rule:evenodd;stroke:none"
               id="path8209" />
          </g>
          <g
             id="g8211"
             transform="translate(38.9646,16.4032)">
            <path
               d="M 0,0 C 0.705,0 1.276,-0.569 1.276,-1.275 1.276,-1.98 0.705,-2.551 0,-2.551 c -0.704,0 -1.276,0.571 -1.276,1.276 C -1.276,-0.569 -0.704,0 0,0"
               style="fill:#31aa47;fill-opacity:1;fill-rule:evenodd;stroke:none"
               id="path8213" />
          </g>
          <g
             id="g8215"
             transform="translate(38.9646,11.8677)">
            <path
               d="M 0,0 C 0.705,0 1.276,-0.569 1.276,-1.275 1.276,-1.98 0.705,-2.551 0,-2.551 c -0.704,0 -1.276,0.571 -1.276,1.276 C -1.276,-0.569 -0.704,0 0,0"
               style="fill:#31aa47;fill-opacity:1;fill-rule:evenodd;stroke:none"
               id="path8217" />
          </g>
          <g
             id="g8219"
             transform="translate(38.9646,7.3323)">
            <path
               d="M 0,0 C 0.705,0 1.276,-0.569 1.276,-1.275 1.276,-1.98 0.705,-2.551 0,-2.551 c -0.704,0 -1.276,0.571 -1.276,1.276 C -1.276,-0.569 -0.704,0 0,0"
               style="fill:#31aa47;fill-opacity:1;fill-rule:evenodd;stroke:none"
               id="path8221" />
          </g>
          <g
             id="g8223"
             transform="translate(43.5001,16.4032)">
            <path
               d="M 0,0 C 0.705,0 1.276,-0.569 1.276,-1.275 1.276,-1.98 0.705,-2.551 0,-2.551 c -0.704,0 -1.276,0.571 -1.276,1.276 C -1.276,-0.569 -0.704,0 0,0"
               style="fill:#31aa47;fill-opacity:1;fill-rule:evenodd;stroke:none"
               id="path8225" />
          </g>
          <g
             id="g8227"
             transform="translate(43.5001,11.8677)">
            <path
               d="M 0,0 C 0.705,0 1.276,-0.569 1.276,-1.275 1.276,-1.98 0.705,-2.551 0,-2.551 c -0.704,0 -1.276,0.571 -1.276,1.276 C -1.276,-0.569 -0.704,0 0,0"
               style="fill:#31aa47;fill-opacity:1;fill-rule:evenodd;stroke:none"
               id="path8229" />
          </g>
          <g
             id="g8231"
             transform="translate(43.5001,7.3323)">
            <path
               d="M 0,0 C 0.705,0 1.276,-0.569 1.276,-1.275 1.276,-1.98 0.705,-2.551 0,-2.551 c -0.704,0 -1.276,0.571 -1.276,1.276 C -1.276,-0.569 -0.704,0 0,0"
               style="fill:#31aa47;fill-opacity:1;fill-rule:evenodd;stroke:none"
               id="path8233" />
          </g>
        </g>
      </g>
      <text
         transform="matrix(1,0,0,-1,20.3545,8.0859)"
         style="font-variant:normal;font-weight:normal;font-stretch:semi-condensed;font-size:7px;font-family:'Arial Narrow';-inkscape-font-specification:ArialNarrow;writing-mode:lr-tb;fill:#e30613;fill-opacity:1;fill-rule:nonzero;stroke:none"
         id="text8237"><tspan
           x="0 4.7810001 6.0549998 9.2469997"
           y="0"
           sodipodi:role="line"
           id="tspan8235">min.</tspan></text>
      <g
         id="g8239">
        <g
           id="g8241"
           clip-path="url(#clipPath8245)">
          <path
             d="M 15.504,20.513 H 49.52 V 0.67 H 15.504 Z"
             style="fill:none;stroke:#312783;stroke-width:1.342;stroke-linecap:butt;stroke-linejoin:miter;stroke-miterlimit:22.926;stroke-dasharray:none;stroke-opacity:1"
             id="path8247" />
          <text
             transform="matrix(1,0,0,-1,0,60.7549)"
             style="font-variant:normal;font-weight:normal;font-stretch:semi-condensed;font-size:7px;font-family:'Arial Narrow';-inkscape-font-specification:ArialNarrow;writing-mode:lr-tb;fill:#e30613;fill-opacity:1;fill-rule:nonzero;stroke:none"
             id="text8251"><tspan
               x="0 3.507 5.1030002 8.2950001 9.8909998 13.083 27.027 30.219 31.815001 35.007 36.603001 38.514 42.658001 46.801998"
               y="0"
               sodipodi:role="line"
               id="tspan8249">ø 0.450.8 (CC)</tspan></text>
          <g
             id="g8253"
             transform="translate(10.6855,54.9177)">
            <path
               d="M 0,0 V 4.252"
               style="fill:none;stroke:#e30613;stroke-width:0.283;stroke-linecap:butt;stroke-linejoin:miter;stroke-miterlimit:22.926;stroke-dasharray:none;stroke-opacity:1"
               id="path8255" />
          </g>
          <g
             id="g8257"
             transform="translate(28.8272,54.9177)">
            <path
               d="M 0,0 V 4.252"
               style="fill:none;stroke:#e30613;stroke-width:0.283;stroke-linecap:butt;stroke-linejoin:miter;stroke-miterlimit:22.926;stroke-dasharray:none;stroke-opacity:1"
               id="path8259" />
          </g>
          <g
             id="g8261"
             transform="translate(33.3627,54.9177)">
            <path
               d="M 0,0 V 4.252"
               style="fill:none;stroke:#e30613;stroke-width:0.283;stroke-linecap:butt;stroke-linejoin:miter;stroke-miterlimit:22.926;stroke-dasharray:none;stroke-opacity:1"
               id="path8263" />
          </g>
        </g>
      </g>
    </g>
  </g>
</svg>
