<?xml version="1.0" encoding="UTF-8" standalone="no"?>
<!-- Created with Inkscape (http://www.inkscape.org/) -->

<svg
   width="28mm"
   height="23mm"
   viewBox="0 0 28 23"
   version="1.1"
   id="svg9336"
   inkscape:version="1.1.1 (3bf5ae0d25, 2021-09-20)"
   sodipodi:docname="ISOM 416 Distinct vegetation boundary.svg"
   xmlns:inkscape="http://www.inkscape.org/namespaces/inkscape"
   xmlns:sodipodi="http://sodipodi.sourceforge.net/DTD/sodipodi-0.dtd"
   xmlns="http://www.w3.org/2000/svg"
   xmlns:svg="http://www.w3.org/2000/svg">
  <sodipodi:namedview
     id="namedview9338"
     pagecolor="#ffffff"
     bordercolor="#666666"
     borderopacity="1.0"
     inkscape:pageshadow="2"
     inkscape:pageopacity="0.0"
     inkscape:pagecheckerboard="true"
     inkscape:document-units="mm"
     showgrid="false"
     inkscape:zoom="5.9295174"
     inkscape:cx="42.077623"
     inkscape:cy="56.244038"
     inkscape:window-width="1920"
     inkscape:window-height="1017"
     inkscape:window-x="-8"
     inkscape:window-y="-8"
     inkscape:window-maximized="1"
     inkscape:current-layer="layer1" />
  <defs
     id="defs9333">
    <clipPath
       clipPathUnits="userSpaceOnUse"
       id="clipPath9354">
      <path
         d="M 0,61.029 H 74.386 V 0 H 0 Z"
         id="path9352" />
    </clipPath>
    <clipPath
       clipPathUnits="userSpaceOnUse"
       id="clipPath9614">
      <path
         d="M 0,61.029 H 74.386 V 0 H 0 Z"
         id="path9612" />
    </clipPath>
    <clipPath
       clipPathUnits="userSpaceOnUse"
       id="clipPath9634">
      <path
         d="M 0,61.029 H 74.386 V 0 H 0 Z"
         id="path9632" />
    </clipPath>
  </defs>
  <g
     inkscape:label="Ebene 1"
     inkscape:groupmode="layer"
     id="layer1">
    <g
       id="g9346"
       inkscape:label="ISOM 416 Distinct vegetation boundary"
       transform="matrix(0.35277777,0,0,-0.35277777,0.92939111,22.104428)">
      <g
         id="g9348">
        <g
           id="g9350"
           clip-path="url(#clipPath9354)">
          <g
             id="g9356"
             transform="translate(1.7575,46.9218)">
            <path
               d="m 0,0 c 0,-0.344 -0.279,-0.624 -0.624,-0.624 -0.344,0 -0.623,0.28 -0.623,0.624 0,0.344 0.279,0.624 0.623,0.624 C -0.279,0.624 0,0.344 0,0"
               style="fill:#1d1d1b;fill-opacity:1;fill-rule:nonzero;stroke:none"
               id="path9358" />
          </g>
          <g
             id="g9360"
             transform="translate(4.3087,46.9218)">
            <path
               d="m 0,0 c 0,-0.344 -0.279,-0.624 -0.624,-0.624 -0.344,0 -0.623,0.28 -0.623,0.624 0,0.344 0.279,0.624 0.623,0.624 C -0.279,0.624 0,0.344 0,0"
               style="fill:#1d1d1b;fill-opacity:1;fill-rule:nonzero;stroke:none"
               id="path9362" />
          </g>
          <g
             id="g9364"
             transform="translate(6.8598,46.9218)">
            <path
               d="m 0,0 c 0,-0.344 -0.279,-0.624 -0.624,-0.624 -0.344,0 -0.623,0.28 -0.623,0.624 0,0.344 0.279,0.624 0.623,0.624 C -0.279,0.624 0,0.344 0,0"
               style="fill:#1d1d1b;fill-opacity:1;fill-rule:nonzero;stroke:none"
               id="path9366" />
          </g>
          <g
             id="g9368"
             transform="translate(9.411,46.9218)">
            <path
               d="m 0,0 c 0,-0.344 -0.279,-0.624 -0.624,-0.624 -0.344,0 -0.623,0.28 -0.623,0.624 0,0.344 0.279,0.624 0.623,0.624 C -0.279,0.624 0,0.344 0,0"
               style="fill:#1d1d1b;fill-opacity:1;fill-rule:nonzero;stroke:none"
               id="path9370" />
          </g>
          <g
             id="g9372"
             transform="translate(11.9622,46.9218)">
            <path
               d="m 0,0 c 0,-0.344 -0.279,-0.624 -0.624,-0.624 -0.344,0 -0.623,0.28 -0.623,0.624 0,0.344 0.279,0.624 0.623,0.624 C -0.279,0.624 0,0.344 0,0"
               style="fill:#1d1d1b;fill-opacity:1;fill-rule:nonzero;stroke:none"
               id="path9374" />
          </g>
          <g
             id="g9376"
             transform="translate(14.5134,46.9218)">
            <path
               d="m 0,0 c 0,-0.344 -0.279,-0.624 -0.624,-0.624 -0.344,0 -0.623,0.28 -0.623,0.624 0,0.344 0.279,0.624 0.623,0.624 C -0.279,0.624 0,0.344 0,0"
               style="fill:#1d1d1b;fill-opacity:1;fill-rule:nonzero;stroke:none"
               id="path9378" />
          </g>
          <g
             id="g9380"
             transform="translate(17.0646,46.9218)">
            <path
               d="m 0,0 c 0,-0.344 -0.279,-0.624 -0.624,-0.624 -0.344,0 -0.623,0.28 -0.623,0.624 0,0.344 0.279,0.624 0.623,0.624 C -0.279,0.624 0,0.344 0,0"
               style="fill:#1d1d1b;fill-opacity:1;fill-rule:nonzero;stroke:none"
               id="path9382" />
          </g>
          <g
             id="g9384"
             transform="translate(19.6158,46.9218)">
            <path
               d="m 0,0 c 0,-0.344 -0.279,-0.624 -0.624,-0.624 -0.344,0 -0.623,0.28 -0.623,0.624 0,0.344 0.279,0.624 0.623,0.624 C -0.279,0.624 0,0.344 0,0"
               style="fill:#1d1d1b;fill-opacity:1;fill-rule:nonzero;stroke:none"
               id="path9386" />
          </g>
          <g
             id="g9388"
             transform="translate(22.1669,46.9218)">
            <path
               d="m 0,0 c 0,-0.344 -0.279,-0.624 -0.624,-0.624 -0.344,0 -0.623,0.28 -0.623,0.624 0,0.344 0.279,0.624 0.623,0.624 C -0.279,0.624 0,0.344 0,0"
               style="fill:#1d1d1b;fill-opacity:1;fill-rule:nonzero;stroke:none"
               id="path9390" />
          </g>
          <g
             id="g9392"
             transform="translate(24.7181,46.9218)">
            <path
               d="m 0,0 c 0,-0.344 -0.279,-0.624 -0.624,-0.624 -0.344,0 -0.623,0.28 -0.623,0.624 0,0.344 0.279,0.624 0.623,0.624 C -0.279,0.624 0,0.344 0,0"
               style="fill:#1d1d1b;fill-opacity:1;fill-rule:nonzero;stroke:none"
               id="path9394" />
          </g>
          <g
             id="g9396"
             transform="translate(27.2693,46.9218)">
            <path
               d="m 0,0 c 0,-0.344 -0.279,-0.624 -0.624,-0.624 -0.344,0 -0.623,0.28 -0.623,0.624 0,0.344 0.279,0.624 0.623,0.624 C -0.279,0.624 0,0.344 0,0"
               style="fill:#1d1d1b;fill-opacity:1;fill-rule:nonzero;stroke:none"
               id="path9398" />
          </g>
          <g
             id="g9400"
             transform="translate(29.8205,46.9218)">
            <path
               d="m 0,0 c 0,-0.344 -0.279,-0.624 -0.624,-0.624 -0.344,0 -0.623,0.28 -0.623,0.624 0,0.344 0.279,0.624 0.623,0.624 C -0.279,0.624 0,0.344 0,0"
               style="fill:#1d1d1b;fill-opacity:1;fill-rule:nonzero;stroke:none"
               id="path9402" />
          </g>
          <g
             id="g9404"
             transform="translate(32.3717,46.9218)">
            <path
               d="m 0,0 c 0,-0.344 -0.279,-0.624 -0.624,-0.624 -0.344,0 -0.623,0.28 -0.623,0.624 0,0.344 0.279,0.624 0.623,0.624 C -0.279,0.624 0,0.344 0,0"
               style="fill:#1d1d1b;fill-opacity:1;fill-rule:nonzero;stroke:none"
               id="path9406" />
          </g>
          <g
             id="g9408"
             transform="translate(34.9228,46.9218)">
            <path
               d="m 0,0 c 0,-0.344 -0.279,-0.624 -0.624,-0.624 -0.344,0 -0.623,0.28 -0.623,0.624 0,0.344 0.279,0.624 0.623,0.624 C -0.279,0.624 0,0.344 0,0"
               style="fill:#1d1d1b;fill-opacity:1;fill-rule:nonzero;stroke:none"
               id="path9410" />
          </g>
          <g
             id="g9412"
             transform="translate(37.474,46.9218)">
            <path
               d="m 0,0 c 0,-0.344 -0.279,-0.624 -0.624,-0.624 -0.344,0 -0.623,0.28 -0.623,0.624 0,0.344 0.279,0.624 0.623,0.624 C -0.279,0.624 0,0.344 0,0"
               style="fill:#1d1d1b;fill-opacity:1;fill-rule:nonzero;stroke:none"
               id="path9414" />
          </g>
          <g
             id="g9416"
             transform="translate(40.0252,46.9218)">
            <path
               d="m 0,0 c 0,-0.344 -0.279,-0.624 -0.624,-0.624 -0.344,0 -0.623,0.28 -0.623,0.624 0,0.344 0.279,0.624 0.623,0.624 C -0.279,0.624 0,0.344 0,0"
               style="fill:#1d1d1b;fill-opacity:1;fill-rule:nonzero;stroke:none"
               id="path9418" />
          </g>
          <g
             id="g9420"
             transform="translate(42.5764,46.9218)">
            <path
               d="m 0,0 c 0,-0.344 -0.279,-0.624 -0.624,-0.624 -0.344,0 -0.623,0.28 -0.623,0.624 0,0.344 0.279,0.624 0.623,0.624 C -0.279,0.624 0,0.344 0,0"
               style="fill:#1d1d1b;fill-opacity:1;fill-rule:nonzero;stroke:none"
               id="path9422" />
          </g>
          <g
             id="g9424"
             transform="translate(45.1276,46.9218)">
            <path
               d="m 0,0 c 0,-0.344 -0.279,-0.624 -0.624,-0.624 -0.344,0 -0.623,0.28 -0.623,0.624 0,0.344 0.279,0.624 0.623,0.624 C -0.279,0.624 0,0.344 0,0"
               style="fill:#1d1d1b;fill-opacity:1;fill-rule:nonzero;stroke:none"
               id="path9426" />
          </g>
          <g
             id="g9428"
             transform="translate(47.6787,46.9218)">
            <path
               d="m 0,0 c 0,-0.344 -0.279,-0.624 -0.624,-0.624 -0.344,0 -0.623,0.28 -0.623,0.624 0,0.344 0.279,0.624 0.623,0.624 C -0.279,0.624 0,0.344 0,0"
               style="fill:#1d1d1b;fill-opacity:1;fill-rule:nonzero;stroke:none"
               id="path9430" />
          </g>
          <g
             id="g9432"
             transform="translate(50.2299,46.9218)">
            <path
               d="m 0,0 c 0,-0.344 -0.279,-0.624 -0.624,-0.624 -0.344,0 -0.623,0.28 -0.623,0.624 0,0.344 0.279,0.624 0.623,0.624 C -0.279,0.624 0,0.344 0,0"
               style="fill:#1d1d1b;fill-opacity:1;fill-rule:nonzero;stroke:none"
               id="path9434" />
          </g>
          <g
             id="g9436"
             transform="translate(52.7811,46.9218)">
            <path
               d="m 0,0 c 0,-0.344 -0.279,-0.624 -0.624,-0.624 -0.344,0 -0.623,0.28 -0.623,0.624 0,0.344 0.279,0.624 0.623,0.624 C -0.279,0.624 0,0.344 0,0"
               style="fill:#1d1d1b;fill-opacity:1;fill-rule:nonzero;stroke:none"
               id="path9438" />
          </g>
          <g
             id="g9440"
             transform="translate(55.3323,46.9218)">
            <path
               d="m 0,0 c 0,-0.344 -0.279,-0.624 -0.624,-0.624 -0.344,0 -0.623,0.28 -0.623,0.624 0,0.344 0.279,0.624 0.623,0.624 C -0.279,0.624 0,0.344 0,0"
               style="fill:#1d1d1b;fill-opacity:1;fill-rule:nonzero;stroke:none"
               id="path9442" />
          </g>
          <g
             id="g9444"
             transform="translate(57.8835,46.9218)">
            <path
               d="m 0,0 c 0,-0.344 -0.279,-0.624 -0.624,-0.624 -0.344,0 -0.623,0.28 -0.623,0.624 0,0.344 0.279,0.624 0.623,0.624 C -0.279,0.624 0,0.344 0,0"
               style="fill:#1d1d1b;fill-opacity:1;fill-rule:nonzero;stroke:none"
               id="path9446" />
          </g>
          <g
             id="g9448"
             transform="translate(22.9693,15.3154)">
            <path
               d="m 0,0 c 0,-0.344 -0.279,-0.624 -0.624,-0.624 -0.344,0 -0.623,0.28 -0.623,0.624 0,0.344 0.279,0.624 0.623,0.624 C -0.279,0.624 0,0.344 0,0"
               style="fill:#1d1d1b;fill-opacity:1;fill-rule:nonzero;stroke:none"
               id="path9450" />
          </g>
          <g
             id="g9452"
             transform="translate(25.5205,15.3154)">
            <path
               d="m 0,0 c 0,-0.344 -0.279,-0.624 -0.624,-0.624 -0.344,0 -0.623,0.28 -0.623,0.624 0,0.344 0.279,0.624 0.623,0.624 C -0.279,0.624 0,0.344 0,0"
               style="fill:#1d1d1b;fill-opacity:1;fill-rule:nonzero;stroke:none"
               id="path9454" />
          </g>
          <g
             id="g9456"
             transform="translate(28.0717,15.3154)">
            <path
               d="m 0,0 c 0,-0.344 -0.279,-0.624 -0.624,-0.624 -0.344,0 -0.623,0.28 -0.623,0.624 0,0.344 0.279,0.624 0.623,0.624 C -0.279,0.624 0,0.344 0,0"
               style="fill:#1d1d1b;fill-opacity:1;fill-rule:nonzero;stroke:none"
               id="path9458" />
          </g>
          <g
             id="g9460"
             transform="translate(30.6229,15.3154)">
            <path
               d="m 0,0 c 0,-0.344 -0.279,-0.624 -0.624,-0.624 -0.344,0 -0.623,0.28 -0.623,0.624 0,0.344 0.279,0.624 0.623,0.624 C -0.279,0.624 0,0.344 0,0"
               style="fill:#1d1d1b;fill-opacity:1;fill-rule:nonzero;stroke:none"
               id="path9462" />
          </g>
          <g
             id="g9464"
             transform="translate(33.1741,15.3154)">
            <path
               d="m 0,0 c 0,-0.344 -0.279,-0.624 -0.624,-0.624 -0.344,0 -0.623,0.28 -0.623,0.624 0,0.344 0.279,0.624 0.623,0.624 C -0.279,0.624 0,0.344 0,0"
               style="fill:#1d1d1b;fill-opacity:1;fill-rule:nonzero;stroke:none"
               id="path9466" />
          </g>
          <g
             id="g9468"
             transform="translate(26.8244,4.3592)">
            <path
               d="m 0,0 c 0,-0.344 -0.279,-0.624 -0.624,-0.624 -0.344,0 -0.623,0.28 -0.623,0.624 0,0.344 0.279,0.624 0.623,0.624 C -0.279,0.624 0,0.344 0,0"
               style="fill:#1d1d1b;fill-opacity:1;fill-rule:nonzero;stroke:none"
               id="path9470" />
          </g>
          <g
             id="g9472"
             transform="translate(26.2008,6.5667)">
            <path
               d="m 0,0 c 0,-0.344 -0.279,-0.624 -0.624,-0.624 -0.344,0 -0.623,0.28 -0.623,0.624 0,0.344 0.279,0.624 0.623,0.624 C -0.279,0.624 0,0.344 0,0"
               style="fill:#1d1d1b;fill-opacity:1;fill-rule:nonzero;stroke:none"
               id="path9474" />
          </g>
          <g
             id="g9476"
             transform="translate(28.0717,8.0526)">
            <path
               d="m 0,0 c 0,-0.344 -0.279,-0.624 -0.624,-0.624 -0.344,0 -0.623,0.28 -0.623,0.624 0,0.344 0.279,0.624 0.623,0.624 C -0.279,0.624 0,0.344 0,0"
               style="fill:#1d1d1b;fill-opacity:1;fill-rule:nonzero;stroke:none"
               id="path9478" />
          </g>
          <g
             id="g9480"
             transform="translate(29.3189,4.3592)">
            <path
               d="m 0,0 c 0,-0.344 -0.279,-0.624 -0.624,-0.624 -0.344,0 -0.623,0.28 -0.623,0.624 0,0.344 0.279,0.624 0.623,0.624 C -0.279,0.624 0,0.344 0,0"
               style="fill:#1d1d1b;fill-opacity:1;fill-rule:nonzero;stroke:none"
               id="path9482" />
          </g>
          <g
             id="g9484"
             transform="translate(29.9426,6.5667)">
            <path
               d="m 0,0 c 0,-0.344 -0.279,-0.624 -0.624,-0.624 -0.344,0 -0.623,0.28 -0.623,0.624 0,0.344 0.279,0.624 0.623,0.624 C -0.279,0.624 0,0.344 0,0"
               style="fill:#1d1d1b;fill-opacity:1;fill-rule:nonzero;stroke:none"
               id="path9486" />
          </g>
          <text
             transform="matrix(1,0,0,-1,5.6128,55.0234)"
             style="font-variant:normal;font-weight:normal;font-stretch:semi-condensed;font-size:7px;font-family:'Arial Narrow';-inkscape-font-specification:ArialNarrow;writing-mode:lr-tb;fill:#e30613;fill-opacity:1;fill-rule:nonzero;stroke:none"
             id="text9490"><tspan
               x="0 3.507 5.1030002 8.2950001 9.8909998 13.083 29.414 32.605999 34.202 37.394001 40.585999 42.181999 44.092999 48.237 52.381001"
               y="0"
               sodipodi:role="line"
               id="tspan9488">ø 0.220.45 (CC)</tspan></text>
          <g
             id="g9492"
             transform="translate(16.4409,49.5869)">
            <path
               d="M 0,0 V 4.252"
               style="fill:none;stroke:#e30613;stroke-width:0.283;stroke-linecap:butt;stroke-linejoin:miter;stroke-miterlimit:22.926;stroke-dasharray:none;stroke-opacity:1"
               id="path9494" />
          </g>
          <g
             id="g9496"
             transform="translate(39.4016,49.5869)">
            <path
               d="M 0,0 V 4.252"
               style="fill:none;stroke:#e30613;stroke-width:0.283;stroke-linecap:butt;stroke-linejoin:miter;stroke-miterlimit:22.926;stroke-dasharray:none;stroke-opacity:1"
               id="path9498" />
          </g>
          <g
             id="g9500"
             transform="translate(41.9528,49.5869)">
            <path
               d="M 0,0 V 4.252"
               style="fill:none;stroke:#e30613;stroke-width:0.283;stroke-linecap:butt;stroke-linejoin:miter;stroke-miterlimit:22.926;stroke-dasharray:none;stroke-opacity:1"
               id="path9502" />
          </g>
          <g
             id="g9504"
             transform="translate(0,42.2254)">
            <path
               d="M 0,0 H 1.701"
               style="fill:none;stroke:#1d6a2b;stroke-width:0.794;stroke-linecap:butt;stroke-linejoin:miter;stroke-miterlimit:22.926;stroke-dasharray:none;stroke-opacity:1"
               id="path9506" />
          </g>
          <g
             id="g9508"
             transform="translate(2.8346,42.2254)">
            <path
               d="M 0,0 H 1.701"
               style="fill:none;stroke:#1d6a2b;stroke-width:0.794;stroke-linecap:butt;stroke-linejoin:miter;stroke-miterlimit:22.926;stroke-dasharray:none;stroke-opacity:1"
               id="path9510" />
          </g>
          <g
             id="g9512"
             transform="translate(5.6693,42.2254)">
            <path
               d="M 0,0 H 1.701"
               style="fill:none;stroke:#1d6a2b;stroke-width:0.794;stroke-linecap:butt;stroke-linejoin:miter;stroke-miterlimit:22.926;stroke-dasharray:none;stroke-opacity:1"
               id="path9514" />
          </g>
          <g
             id="g9516"
             transform="translate(8.5039,42.2254)">
            <path
               d="M 0,0 H 1.701"
               style="fill:none;stroke:#1d6a2b;stroke-width:0.794;stroke-linecap:butt;stroke-linejoin:miter;stroke-miterlimit:22.926;stroke-dasharray:none;stroke-opacity:1"
               id="path9518" />
          </g>
          <g
             id="g9520"
             transform="translate(11.3386,42.2254)">
            <path
               d="M 0,0 H 1.701"
               style="fill:none;stroke:#1d6a2b;stroke-width:0.794;stroke-linecap:butt;stroke-linejoin:miter;stroke-miterlimit:22.926;stroke-dasharray:none;stroke-opacity:1"
               id="path9522" />
          </g>
          <g
             id="g9524"
             transform="translate(14.1732,42.2254)">
            <path
               d="M 0,0 H 1.701"
               style="fill:none;stroke:#1d6a2b;stroke-width:0.794;stroke-linecap:butt;stroke-linejoin:miter;stroke-miterlimit:22.926;stroke-dasharray:none;stroke-opacity:1"
               id="path9526" />
          </g>
          <g
             id="g9528"
             transform="translate(17.0079,42.2254)">
            <path
               d="M 0,0 H 1.701"
               style="fill:none;stroke:#1d6a2b;stroke-width:0.794;stroke-linecap:butt;stroke-linejoin:miter;stroke-miterlimit:22.926;stroke-dasharray:none;stroke-opacity:1"
               id="path9530" />
          </g>
          <g
             id="g9532"
             transform="translate(19.8425,42.2254)">
            <path
               d="M 0,0 H 1.701"
               style="fill:none;stroke:#1d6a2b;stroke-width:0.794;stroke-linecap:butt;stroke-linejoin:miter;stroke-miterlimit:22.926;stroke-dasharray:none;stroke-opacity:1"
               id="path9534" />
          </g>
          <g
             id="g9536"
             transform="translate(22.6772,42.2254)">
            <path
               d="M 0,0 H 1.701"
               style="fill:none;stroke:#1d6a2b;stroke-width:0.794;stroke-linecap:butt;stroke-linejoin:miter;stroke-miterlimit:22.926;stroke-dasharray:none;stroke-opacity:1"
               id="path9538" />
          </g>
          <g
             id="g9540"
             transform="translate(25.5118,42.2254)">
            <path
               d="M 0,0 H 1.701"
               style="fill:none;stroke:#1d6a2b;stroke-width:0.794;stroke-linecap:butt;stroke-linejoin:miter;stroke-miterlimit:22.926;stroke-dasharray:none;stroke-opacity:1"
               id="path9542" />
          </g>
          <g
             id="g9544"
             transform="translate(28.3465,42.2254)">
            <path
               d="M 0,0 H 1.701"
               style="fill:none;stroke:#1d6a2b;stroke-width:0.794;stroke-linecap:butt;stroke-linejoin:miter;stroke-miterlimit:22.926;stroke-dasharray:none;stroke-opacity:1"
               id="path9546" />
          </g>
          <g
             id="g9548"
             transform="translate(31.1811,42.2254)">
            <path
               d="M 0,0 H 1.701"
               style="fill:none;stroke:#1d6a2b;stroke-width:0.794;stroke-linecap:butt;stroke-linejoin:miter;stroke-miterlimit:22.926;stroke-dasharray:none;stroke-opacity:1"
               id="path9550" />
          </g>
          <g
             id="g9552"
             transform="translate(34.0157,42.2254)">
            <path
               d="M 0,0 H 1.701"
               style="fill:none;stroke:#1d6a2b;stroke-width:0.794;stroke-linecap:butt;stroke-linejoin:miter;stroke-miterlimit:22.926;stroke-dasharray:none;stroke-opacity:1"
               id="path9554" />
          </g>
          <g
             id="g9556"
             transform="translate(36.8504,42.2254)">
            <path
               d="M 0,0 H 1.701"
               style="fill:none;stroke:#1d6a2b;stroke-width:0.794;stroke-linecap:butt;stroke-linejoin:miter;stroke-miterlimit:22.926;stroke-dasharray:none;stroke-opacity:1"
               id="path9558" />
          </g>
          <g
             id="g9560"
             transform="translate(39.685,42.2254)">
            <path
               d="M 0,0 H 1.701"
               style="fill:none;stroke:#1d6a2b;stroke-width:0.794;stroke-linecap:butt;stroke-linejoin:miter;stroke-miterlimit:22.926;stroke-dasharray:none;stroke-opacity:1"
               id="path9562" />
          </g>
          <g
             id="g9564"
             transform="translate(42.5197,42.2254)">
            <path
               d="M 0,0 H 1.701"
               style="fill:none;stroke:#1d6a2b;stroke-width:0.794;stroke-linecap:butt;stroke-linejoin:miter;stroke-miterlimit:22.926;stroke-dasharray:none;stroke-opacity:1"
               id="path9566" />
          </g>
          <g
             id="g9568"
             transform="translate(45.3543,42.2254)">
            <path
               d="M 0,0 H 1.701"
               style="fill:none;stroke:#1d6a2b;stroke-width:0.794;stroke-linecap:butt;stroke-linejoin:miter;stroke-miterlimit:22.926;stroke-dasharray:none;stroke-opacity:1"
               id="path9570" />
          </g>
          <g
             id="g9572"
             transform="translate(48.189,42.2254)">
            <path
               d="M 0,0 H 1.701"
               style="fill:none;stroke:#1d6a2b;stroke-width:0.794;stroke-linecap:butt;stroke-linejoin:miter;stroke-miterlimit:22.926;stroke-dasharray:none;stroke-opacity:1"
               id="path9574" />
          </g>
          <g
             id="g9576"
             transform="translate(51.0236,42.2254)">
            <path
               d="M 0,0 H 1.701"
               style="fill:none;stroke:#1d6a2b;stroke-width:0.794;stroke-linecap:butt;stroke-linejoin:miter;stroke-miterlimit:22.926;stroke-dasharray:none;stroke-opacity:1"
               id="path9578" />
          </g>
          <g
             id="g9580"
             transform="translate(53.8583,42.2254)">
            <path
               d="M 0,0 H 1.701"
               style="fill:none;stroke:#1d6a2b;stroke-width:0.794;stroke-linecap:butt;stroke-linejoin:miter;stroke-miterlimit:22.926;stroke-dasharray:none;stroke-opacity:1"
               id="path9582" />
          </g>
          <g
             id="g9584"
             transform="translate(56.6929,42.2254)">
            <path
               d="M 0,0 H 1.701"
               style="fill:none;stroke:#1d6a2b;stroke-width:0.794;stroke-linecap:butt;stroke-linejoin:miter;stroke-miterlimit:22.926;stroke-dasharray:none;stroke-opacity:1"
               id="path9586" />
          </g>
          <g
             id="g9588"
             transform="translate(22.3457,13.0505)">
            <path
               d="M 0,0 H 1.701"
               style="fill:none;stroke:#1d6a2b;stroke-width:0.794;stroke-linecap:butt;stroke-linejoin:miter;stroke-miterlimit:22.926;stroke-dasharray:none;stroke-opacity:1"
               id="path9590" />
          </g>
          <g
             id="g9592"
             transform="translate(25.1804,13.0505)">
            <path
               d="M 0,0 H 1.701"
               style="fill:none;stroke:#1d6a2b;stroke-width:0.794;stroke-linecap:butt;stroke-linejoin:miter;stroke-miterlimit:22.926;stroke-dasharray:none;stroke-opacity:1"
               id="path9594" />
          </g>
          <g
             id="g9596"
             transform="translate(28.015,13.0505)">
            <path
               d="M 0,0 H 1.701"
               style="fill:none;stroke:#1d6a2b;stroke-width:0.794;stroke-linecap:butt;stroke-linejoin:miter;stroke-miterlimit:22.926;stroke-dasharray:none;stroke-opacity:1"
               id="path9598" />
          </g>
          <g
             id="g9600"
             transform="translate(30.8496,13.0505)">
            <path
               d="M 0,0 H 1.701"
               style="fill:none;stroke:#1d6a2b;stroke-width:0.794;stroke-linecap:butt;stroke-linejoin:miter;stroke-miterlimit:22.926;stroke-dasharray:none;stroke-opacity:1"
               id="path9602" />
          </g>
        </g>
      </g>
      <text
         transform="matrix(1,0,0,-1,8.1187,28.9272)"
         style="font-variant:normal;font-weight:normal;font-stretch:semi-condensed;font-size:7px;font-family:'Arial Narrow';-inkscape-font-specification:ArialNarrow;writing-mode:lr-tb;fill:#e30613;fill-opacity:1;fill-rule:nonzero;stroke:none"
         id="text9606"><tspan
           x="0 3.1919999 4.7880001 18.507999 21.700001 23.296"
           y="0"
           sodipodi:role="line"
           id="tspan9604">0.30.2</tspan></text>
      <g
         id="g9608">
        <g
           id="g9610"
           clip-path="url(#clipPath9614)">
          <g
             id="g9616"
             transform="translate(29.2104,35.2914)">
            <path
               d="M 0,0 1.439,4.252 2.808,0"
               style="fill:none;stroke:#e30613;stroke-width:0.283;stroke-linecap:butt;stroke-linejoin:miter;stroke-miterlimit:22.926;stroke-dasharray:none;stroke-opacity:1"
               id="path9618" />
          </g>
        </g>
      </g>
      <text
         transform="matrix(1,0,0,-1,6.4434,8.7061)"
         style="font-variant:normal;font-weight:normal;font-stretch:semi-condensed;font-size:7px;font-family:'Arial Narrow';-inkscape-font-specification:ArialNarrow;writing-mode:lr-tb;fill:#e30613;fill-opacity:1;fill-rule:nonzero;stroke:none"
         id="text9626"><tspan
           x="0 4.7810001 6.0549998 9.2469997"
           y="0"
           sodipodi:role="line"
           id="tspan9620">min.</tspan><tspan
           x="30.226 31.5 34.692001 37.883999 41.076 42.672001"
           y="-3.381"
           sodipodi:role="line"
           id="tspan9622">length</tspan><tspan
           x="30.226 33.417999 35.328999 38.521"
           y="4.3470001"
           sodipodi:role="line"
           id="tspan9624">area</tspan></text>
      <g
         id="g9628">
        <g
           id="g9630"
           clip-path="url(#clipPath9634)">
          <path
             d="M 2.268,20.41 H 56.126 V 0.567 H 2.268 Z"
             style="fill:none;stroke:#312783;stroke-width:1.134;stroke-linecap:butt;stroke-linejoin:miter;stroke-miterlimit:22.926;stroke-dasharray:none;stroke-opacity:1"
             id="path9636" />
          <g
             id="g9638"
             transform="translate(11.3386,35.2914)">
            <path
               d="M 0,0 V 4.252"
               style="fill:none;stroke:#e30613;stroke-width:0.283;stroke-linecap:butt;stroke-linejoin:miter;stroke-miterlimit:22.926;stroke-dasharray:none;stroke-opacity:1"
               id="path9640" />
          </g>
          <g
             id="g9642"
             transform="translate(13.0394,35.2914)">
            <path
               d="M 0,0 V 4.252"
               style="fill:none;stroke:#e30613;stroke-width:0.283;stroke-linecap:butt;stroke-linejoin:miter;stroke-miterlimit:22.926;stroke-dasharray:none;stroke-opacity:1"
               id="path9644" />
          </g>
          <text
             transform="matrix(1,0,0,-1,63.2124,39.229)"
             style="font-variant:normal;font-weight:normal;font-stretch:semi-condensed;font-size:7px;font-family:'Arial Narrow';-inkscape-font-specification:ArialNarrow;writing-mode:lr-tb;fill:#e30613;fill-opacity:1;fill-rule:nonzero;stroke:none"
             id="text9648"><tspan
               x="0 3.1919999 4.7880001 7.98"
               y="0"
               sodipodi:role="line"
               id="tspan9646">0.14</tspan></text>
        </g>
      </g>
    </g>
  </g>
</svg>
