<?xml version="1.0" encoding="UTF-8" standalone="no"?>
<!-- Created with Inkscape (http://www.inkscape.org/) -->

<svg
   width="19mm"
   height="14mm"
   viewBox="0 0 19 14"
   version="1.1"
   id="svg9961"
   inkscape:version="1.1.1 (3bf5ae0d25, 2021-09-20)"
   sodipodi:docname="ISOM 417 Prominent large tree.svg"
   xmlns:inkscape="http://www.inkscape.org/namespaces/inkscape"
   xmlns:sodipodi="http://sodipodi.sourceforge.net/DTD/sodipodi-0.dtd"
   xmlns="http://www.w3.org/2000/svg"
   xmlns:svg="http://www.w3.org/2000/svg">
  <sodipodi:namedview
     id="namedview9963"
     pagecolor="#ffffff"
     bordercolor="#666666"
     borderopacity="1.0"
     inkscape:pageshadow="2"
     inkscape:pageopacity="0.0"
     inkscape:pagecheckerboard="true"
     inkscape:document-units="mm"
     showgrid="false"
     inkscape:zoom="5.9295174"
     inkscape:cx="30.778222"
     inkscape:cy="38.53602"
     inkscape:window-width="1920"
     inkscape:window-height="1017"
     inkscape:window-x="-8"
     inkscape:window-y="-8"
     inkscape:window-maximized="1"
     inkscape:current-layer="layer1" />
  <defs
     id="defs9958">
    <clipPath
       clipPathUnits="userSpaceOnUse"
       id="clipPath9979">
      <path
         d="M 0,36.007 H 49.213 V 0 H 0 Z"
         id="path9977" />
    </clipPath>
  </defs>
  <g
     inkscape:label="Ebene 1"
     inkscape:groupmode="layer"
     id="layer1">
    <g
       id="g9975"
       clip-path="url(#clipPath9979)"
       transform="matrix(0.35277777,0,0,-0.35277777,0.82455559,13.310747)">
      <g
         id="g9981"
         transform="translate(4.0244,16.4684)">
        <path
           d="m 0,0 c -1.128,0 -2.041,0.913 -2.041,2.041 0,1.127 0.913,2.041 2.041,2.041 1.128,0 2.041,-0.914 2.041,-2.041 C 2.041,0.913 1.128,0 0,0 Z"
           style="fill:none;stroke:#31aa47;stroke-width:1.02;stroke-linecap:butt;stroke-linejoin:miter;stroke-miterlimit:22.926;stroke-dasharray:none;stroke-opacity:1"
           id="path9983" />
      </g>
      <text
         transform="matrix(1,0,0,-1,38.04,15.54)"
         style="font-variant:normal;font-weight:normal;font-stretch:semi-condensed;font-size:7px;font-family:'Arial Narrow';-inkscape-font-specification:ArialNarrow;writing-mode:lr-tb;fill:#e30613;fill-opacity:1;fill-rule:nonzero;stroke:none"
         id="text9991"><tspan
           x="0 3.1919999 4.7880001 7.98"
           y="0"
           sodipodi:role="line"
           id="tspan9985">0.18</tspan><tspan
           x="-38.037998 -34.846001 -33.25 -30.058001 -28.462 -26.551001 -22.084999 -17.304001"
           y="13.391"
           sodipodi:role="line"
           id="tspan9987">0.9 (OM)</tspan><tspan
           x="-38.037998 -34.846001 -33.25 -30.058001 -28.462 -26.551001 -22.084999 -17.304001"
           y="-14.462"
           sodipodi:role="line"
           id="tspan9989">1.1 (OM)</tspan></text>
      <g
         id="g9993"
         transform="translate(1.4733,10.0056)">
        <path
           d="M 0,0 V 4.252"
           style="fill:none;stroke:#e30613;stroke-width:0.283;stroke-linecap:butt;stroke-linejoin:miter;stroke-miterlimit:22.926;stroke-dasharray:none;stroke-opacity:1"
           id="path9995" />
      </g>
      <g
         id="g9997"
         transform="translate(6.5757,10.0056)">
        <path
           d="M 0,0 V 4.252"
           style="fill:none;stroke:#e30613;stroke-width:0.283;stroke-linecap:butt;stroke-linejoin:miter;stroke-miterlimit:22.926;stroke-dasharray:none;stroke-opacity:1"
           id="path9999" />
      </g>
      <g
         id="g10001"
         transform="translate(0.9064,22.7615)">
        <path
           d="M 0,0 V 4.252"
           style="fill:none;stroke:#e30613;stroke-width:0.283;stroke-linecap:butt;stroke-linejoin:miter;stroke-miterlimit:22.926;stroke-dasharray:none;stroke-opacity:1"
           id="path10003" />
      </g>
      <g
         id="g10005"
         transform="translate(7.1426,22.7615)">
        <path
           d="M 0,0 V 4.252"
           style="fill:none;stroke:#e30613;stroke-width:0.283;stroke-linecap:butt;stroke-linejoin:miter;stroke-miterlimit:22.926;stroke-dasharray:none;stroke-opacity:1"
           id="path10007" />
      </g>
      <g
         id="g10009"
         transform="translate(4.0244,15.3914)">
        <path
           d="M 0,0 C -1.723,0 -3.118,1.395 -3.118,3.117 -3.118,4.84 -1.723,6.236 0,6.236 1.723,6.236 3.118,4.84 3.118,3.117 3.118,1.395 1.723,0 0,0 Z"
           style="fill:none;stroke:#e30613;stroke-width:0.142;stroke-linecap:butt;stroke-linejoin:miter;stroke-miterlimit:22.926;stroke-dasharray:none;stroke-opacity:1"
           id="path10011" />
      </g>
    </g>
  </g>
</svg>
