<?xml version="1.0" encoding="UTF-8" standalone="no"?>
<!-- Created with Inkscape (http://www.inkscape.org/) -->

<svg
   version="1.1"
   id="svg9"
   xml:space="preserve"
   width="101.82707"
   height="61.240665"
   viewBox="0 0 101.82707 61.240665"
   sodipodi:docname="ISOM 514 Ruined wall.svg"
   inkscape:version="1.1.1 (3bf5ae0d25, 2021-09-20)"
   xmlns:inkscape="http://www.inkscape.org/namespaces/inkscape"
   xmlns:sodipodi="http://sodipodi.sourceforge.net/DTD/sodipodi-0.dtd"
   xmlns="http://www.w3.org/2000/svg"
   xmlns:svg="http://www.w3.org/2000/svg"><defs
     id="defs13"><clipPath
       clipPathUnits="userSpaceOnUse"
       id="clipPath25"><path
         d="M 0,45.93 H 76.37 V 0 H 0 Z"
         id="path23" /></clipPath><clipPath
       clipPathUnits="userSpaceOnUse"
       id="clipPath81"><path
         d="M 0,45.93 H 76.37 V 0 H 0 Z"
         id="path79" /></clipPath></defs><sodipodi:namedview
     id="namedview11"
     pagecolor="#ffffff"
     bordercolor="#666666"
     borderopacity="1.0"
     inkscape:pageshadow="2"
     inkscape:pageopacity="0.0"
     inkscape:pagecheckerboard="0"
     showgrid="false"
     inkscape:zoom="11.067784"
     inkscape:cx="50.913536"
     inkscape:cy="30.584263"
     inkscape:window-width="1920"
     inkscape:window-height="1017"
     inkscape:window-x="-8"
     inkscape:window-y="-8"
     inkscape:window-maximized="1"
     inkscape:current-layer="g15" /><g
     id="g15"
     inkscape:groupmode="layer"
     inkscape:label="ISOM 514 Ruined wall"
     transform="matrix(1.3333333,0,0,-1.3333333,0,61.240667)"><path
       d="m 0,31.975 h 9.355 v 0.794 H 0 Z"
       style="fill:#1d1d1b;fill-opacity:1;fill-rule:nonzero;stroke:none"
       id="path17" /><g
       id="g19"><g
         id="g21"
         clip-path="url(#clipPath25)"><g
           id="g27"
           transform="translate(4.6767,33.5057)"><path
             d="M 0,0 C 0.627,0 1.135,-0.508 1.135,-1.135 1.135,-1.76 0.627,-2.268 0,-2.268 c -0.625,0 -1.134,0.508 -1.134,1.133 C -1.134,-0.508 -0.625,0 0,0"
             style="fill:#1d1d1b;fill-opacity:1;fill-rule:evenodd;stroke:none"
             id="path29" /></g><path
           d="m 11.339,32.769 h 9.354 v -0.794 h -9.354 z"
           style="fill:#1d1d1b;fill-opacity:1;fill-rule:evenodd;stroke:none"
           id="path31" /><g
           id="g33"
           transform="translate(16.0156,33.5057)"><path
             d="M 0,0 C 0.626,0 1.134,-0.508 1.134,-1.135 1.134,-1.76 0.626,-2.268 0,-2.268 c -0.626,0 -1.134,0.508 -1.134,1.133 C -1.134,-0.508 -0.626,0 0,0"
             style="fill:#1d1d1b;fill-opacity:1;fill-rule:evenodd;stroke:none"
             id="path35" /></g><path
           d="m 22.677,32.769 h 9.355 v -0.794 h -9.355 z"
           style="fill:#1d1d1b;fill-opacity:1;fill-rule:evenodd;stroke:none"
           id="path37" /><g
           id="g39"
           transform="translate(27.3545,33.5057)"><path
             d="M 0,0 C 0.626,0 1.134,-0.508 1.134,-1.135 1.134,-1.76 0.626,-2.268 0,-2.268 c -0.626,0 -1.135,0.508 -1.135,1.133 C -1.135,-0.508 -0.626,0 0,0"
             style="fill:#1d1d1b;fill-opacity:1;fill-rule:evenodd;stroke:none"
             id="path41" /></g><path
           d="m 34.016,32.769 h 9.355 v -0.794 h -9.355 z"
           style="fill:#1d1d1b;fill-opacity:1;fill-rule:evenodd;stroke:none"
           id="path43" /><g
           id="g45"
           transform="translate(38.6923,33.5057)"><path
             d="M 0,0 C 0.627,0 1.135,-0.508 1.135,-1.135 1.135,-1.76 0.627,-2.268 0,-2.268 c -0.625,0 -1.133,0.508 -1.133,1.133 C -1.133,-0.508 -0.625,0 0,0"
             style="fill:#1d1d1b;fill-opacity:1;fill-rule:evenodd;stroke:none"
             id="path47" /></g><path
           d="m 45.355,32.769 h 9.354 v -0.794 h -9.354 z"
           style="fill:#1d1d1b;fill-opacity:1;fill-rule:evenodd;stroke:none"
           id="path49" /><g
           id="g51"
           transform="translate(50.0322,33.5057)"><path
             d="M 0,0 C 0.625,0 1.133,-0.508 1.133,-1.135 1.133,-1.76 0.625,-2.268 0,-2.268 c -0.627,0 -1.135,0.508 -1.135,1.133 C -1.135,-0.508 -0.627,0 0,0"
             style="fill:#1d1d1b;fill-opacity:1;fill-rule:evenodd;stroke:none"
             id="path53" /></g><path
           d="m 24.304,7.574 h 9.354 V 6.78 h -9.354 z"
           style="fill:#1d1d1b;fill-opacity:1;fill-rule:evenodd;stroke:none"
           id="path55" /><g
           id="g57"
           transform="translate(28.9808,8.3108)"><path
             d="m 0,0 c 0.627,0 1.135,-0.509 1.135,-1.134 0,-0.627 -0.508,-1.135 -1.135,-1.135 -0.625,0 -1.134,0.508 -1.134,1.135 C -1.134,-0.509 -0.625,0 0,0"
             style="fill:#1d1d1b;fill-opacity:1;fill-rule:evenodd;stroke:none"
             id="path59" /></g><path
           d="m 35.642,7.574 h 9.354 V 6.78 h -9.354 z"
           style="fill:#1d1d1b;fill-opacity:1;fill-rule:evenodd;stroke:none"
           id="path61" /><g
           id="g63"
           transform="translate(40.3196,8.3108)"><path
             d="m 0,0 c 0.627,0 1.135,-0.509 1.135,-1.134 0,-0.627 -0.508,-1.135 -1.135,-1.135 -0.625,0 -1.134,0.508 -1.134,1.135 C -1.134,-0.509 -0.625,0 0,0"
             style="fill:#1d1d1b;fill-opacity:1;fill-rule:evenodd;stroke:none"
             id="path65" /></g><text
           transform="matrix(1,0,0,-1,65.1973,30.3716)"
           style="font-variant:normal;font-weight:normal;font-stretch:semi-condensed;font-size:7px;font-family:'Arial Narrow';-inkscape-font-specification:ArialNarrow;writing-mode:lr-tb;fill:#e30613;fill-opacity:1;fill-rule:nonzero;stroke:none"
           id="text69"><tspan
             x="0 3.1919999 4.7880001 7.98"
             y="0"
             sodipodi:role="line"
             id="tspan67">0.14</tspan></text></g></g><text
       transform="matrix(1,0,0,-1,40.8833,18.9868)"
       style="font-variant:normal;font-weight:normal;font-stretch:semi-condensed;font-size:7px;font-family:'Arial Narrow';-inkscape-font-specification:ArialNarrow;writing-mode:lr-tb;fill:#e30613;fill-opacity:1;fill-rule:nonzero;stroke:none"
       id="text73"><tspan
         x="0 3.507 5.1030002 8.2950001 9.8909998"
         y="0"
         sodipodi:role="line"
         id="tspan71">ø 0.4</tspan></text><g
       id="g75"><g
         id="g77"
         clip-path="url(#clipPath81)"><text
           transform="matrix(1,0,0,-1,22.5229,39.9243)"
           style="font-variant:normal;font-weight:normal;font-stretch:semi-condensed;font-size:7px;font-family:'Arial Narrow';-inkscape-font-specification:ArialNarrow;writing-mode:lr-tb;fill:#e30613;fill-opacity:1;fill-rule:nonzero;stroke:none"
           id="text85"><tspan
             x="0 3.1919999 4.7880001 7.98 9.5760002 11.487 15.631 19.775"
             y="0"
             sodipodi:role="line"
             id="tspan83">2.0 (CC)</tspan></text><g
           id="g87"
           transform="translate(38.6923,34.0565)"><path
             d="M 0,0 V 4.252"
             style="fill:none;stroke:#e30613;stroke-width:0.283;stroke-linecap:butt;stroke-linejoin:miter;stroke-miterlimit:22.926;stroke-dasharray:none;stroke-opacity:1"
             id="path89" /></g><g
           id="g91"
           transform="translate(27.3545,34.0565)"><path
             d="M 0,0 V 4.252"
             style="fill:none;stroke:#e30613;stroke-width:0.283;stroke-linecap:butt;stroke-linejoin:miter;stroke-miterlimit:22.926;stroke-dasharray:none;stroke-opacity:1"
             id="path93" /></g><g
           id="g95"
           transform="translate(50.0322,25.2851)"><path
             d="M 0,0 V 4.252"
             style="fill:none;stroke:#e30613;stroke-width:0.283;stroke-linecap:butt;stroke-linejoin:miter;stroke-miterlimit:22.926;stroke-dasharray:none;stroke-opacity:1"
             id="path97" /></g><g
           id="g99"
           transform="translate(11.5739,25.2853)"><path
             d="M 0,0 -1.226,4.252 -2.45,0"
             style="fill:none;stroke:#e30613;stroke-width:0.283;stroke-linecap:butt;stroke-linejoin:miter;stroke-miterlimit:22.926;stroke-dasharray:none;stroke-opacity:1"
             id="path101" /></g><path
           d="m 7.087,14.74 h 42.52 V 0.567 H 7.087 Z"
           style="fill:none;stroke:#312783;stroke-width:1.134;stroke-linecap:butt;stroke-linejoin:miter;stroke-miterlimit:22.926;stroke-dasharray:none;stroke-opacity:1"
           id="path103" /></g></g><text
       transform="matrix(1,0,0,-1,11.2036,5.125)"
       style="font-variant:normal;font-weight:normal;font-stretch:semi-condensed;font-size:7px;font-family:'Arial Narrow';-inkscape-font-specification:ArialNarrow;writing-mode:lr-tb;fill:#e30613;fill-opacity:1;fill-rule:nonzero;stroke:none"
       id="text109"><tspan
         x="0 4.7810001 6.0549998 9.2469997"
         y="0"
         sodipodi:role="line"
         id="tspan105">min.</tspan><tspan
         x="-6.4400001 -3.2479999 -1.652 1.54"
         y="-13.86"
         sodipodi:role="line"
         id="tspan107">0.35</tspan></text></g></svg>
