<?xml version="1.0" encoding="UTF-8" standalone="no"?>
<!-- Created with Inkscape (http://www.inkscape.org/) -->

<svg
   width="29mm"
   height="19mm"
   viewBox="0 0 29 19"
   version="1.1"
   id="svg13660"
   inkscape:version="1.1.1 (3bf5ae0d25, 2021-09-20)"
   sodipodi:docname="ISOM 515 Impassable wall.svg"
   xmlns:inkscape="http://www.inkscape.org/namespaces/inkscape"
   xmlns:sodipodi="http://sodipodi.sourceforge.net/DTD/sodipodi-0.dtd"
   xmlns="http://www.w3.org/2000/svg"
   xmlns:svg="http://www.w3.org/2000/svg">
  <sodipodi:namedview
     id="namedview13662"
     pagecolor="#ffffff"
     bordercolor="#666666"
     borderopacity="1.0"
     inkscape:pageshadow="2"
     inkscape:pageopacity="0.0"
     inkscape:pagecheckerboard="true"
     inkscape:document-units="mm"
     showgrid="false"
     inkscape:zoom="2.9647587"
     inkscape:cx="74.03638"
     inkscape:cy="41.318708"
     inkscape:window-width="1920"
     inkscape:window-height="1017"
     inkscape:window-x="-8"
     inkscape:window-y="-8"
     inkscape:window-maximized="1"
     inkscape:current-layer="layer1" />
  <defs
     id="defs13657">
    <clipPath
       clipPathUnits="userSpaceOnUse"
       id="clipPath13678">
      <path
         d="M 0,49.814 H 76.37 V 0 H 0 Z"
         id="path13676" />
    </clipPath>
    <clipPath
       clipPathUnits="userSpaceOnUse"
       id="clipPath13734">
      <path
         d="M 0,49.814 H 76.37 V 0 H 0 Z"
         id="path13732" />
    </clipPath>
  </defs>
  <g
     inkscape:label="Ebene 1"
     inkscape:groupmode="layer"
     id="layer1">
    <g
       id="g13670"
       inkscape:label="ISOM 515 Impassable wall"
       transform="matrix(0.35277777,0,0,-0.35277777,1.0715274,18.126262)">
      <g
         id="g13672">
        <g
           id="g13674"
           clip-path="url(#clipPath13678)">
          <g
             id="g13680"
             transform="translate(0,35.1758)">
            <path
               d="M 0,0 H 56.693"
               style="fill:none;stroke:#1d1d1b;stroke-width:1.417;stroke-linecap:butt;stroke-linejoin:miter;stroke-miterlimit:22.926;stroke-dasharray:none;stroke-opacity:1"
               id="path13682" />
          </g>
          <g
             id="g13684"
             transform="translate(7.9374,36.877)">
            <path
               d="m 0,0 c 0.939,0 1.701,-0.762 1.701,-1.701 0,-0.94 -0.762,-1.701 -1.701,-1.701 -0.939,0 -1.701,0.761 -1.701,1.701 C -1.701,-0.762 -0.939,0 0,0"
               style="fill:#1d1d1b;fill-opacity:1;fill-rule:evenodd;stroke:none"
               id="path13686" />
          </g>
          <g
             id="g13688"
             transform="translate(12.4735,36.877)">
            <path
               d="m 0,0 c 0.938,0 1.7,-0.762 1.7,-1.701 0,-0.94 -0.762,-1.701 -1.7,-1.701 -0.939,0 -1.701,0.761 -1.701,1.701 C -1.701,-0.762 -0.939,0 0,0"
               style="fill:#1d1d1b;fill-opacity:1;fill-rule:evenodd;stroke:none"
               id="path13690" />
          </g>
          <g
             id="g13692"
             transform="translate(24.9452,36.877)">
            <path
               d="m 0,0 c 0.939,0 1.701,-0.762 1.701,-1.701 0,-0.94 -0.762,-1.701 -1.701,-1.701 -0.939,0 -1.701,0.761 -1.701,1.701 C -1.701,-0.762 -0.939,0 0,0"
               style="fill:#1d1d1b;fill-opacity:1;fill-rule:evenodd;stroke:none"
               id="path13694" />
          </g>
          <g
             id="g13696"
             transform="translate(29.4813,36.877)">
            <path
               d="m 0,0 c 0.938,0 1.7,-0.762 1.7,-1.701 0,-0.94 -0.762,-1.701 -1.7,-1.701 -0.939,0 -1.701,0.761 -1.701,1.701 C -1.701,-0.762 -0.939,0 0,0"
               style="fill:#1d1d1b;fill-opacity:1;fill-rule:evenodd;stroke:none"
               id="path13698" />
          </g>
          <g
             id="g13700"
             transform="translate(41.953,36.877)">
            <path
               d="m 0,0 c 0.939,0 1.701,-0.762 1.701,-1.701 0,-0.94 -0.762,-1.701 -1.701,-1.701 -0.938,0 -1.7,0.761 -1.7,1.701 C -1.7,-0.762 -0.938,0 0,0"
               style="fill:#1d1d1b;fill-opacity:1;fill-rule:evenodd;stroke:none"
               id="path13702" />
          </g>
          <g
             id="g13704"
             transform="translate(46.4891,36.877)">
            <path
               d="m 0,0 c 0.939,0 1.7,-0.762 1.7,-1.701 0,-0.94 -0.761,-1.701 -1.7,-1.701 -0.938,0 -1.701,0.761 -1.701,1.701 C -1.701,-0.762 -0.938,0 0,0"
               style="fill:#1d1d1b;fill-opacity:1;fill-rule:evenodd;stroke:none"
               id="path13706" />
          </g>
          <g
             id="g13708"
             transform="translate(25.0311,7.5471)">
            <path
               d="M 0,0 H 17.008"
               style="fill:none;stroke:#1d1d1b;stroke-width:1.417;stroke-linecap:butt;stroke-linejoin:miter;stroke-miterlimit:22.926;stroke-dasharray:none;stroke-opacity:1"
               id="path13710" />
          </g>
          <g
             id="g13712"
             transform="translate(31.2674,9.2483)">
            <path
               d="M 0,0 C 0.938,0 1.701,-0.763 1.701,-1.701 1.701,-2.64 0.938,-3.402 0,-3.402 c -0.939,0 -1.701,0.762 -1.701,1.701 C -1.701,-0.763 -0.939,0 0,0"
               style="fill:#1d1d1b;fill-opacity:1;fill-rule:evenodd;stroke:none"
               id="path13714" />
          </g>
          <g
             id="g13716"
             transform="translate(35.8026,9.2483)">
            <path
               d="M 0,0 C 0.939,0 1.701,-0.763 1.701,-1.701 1.701,-2.64 0.939,-3.402 0,-3.402 c -0.939,0 -1.701,0.762 -1.701,1.701 C -1.701,-0.763 -0.939,0 0,0"
               style="fill:#1d1d1b;fill-opacity:1;fill-rule:evenodd;stroke:none"
               id="path13718" />
          </g>
          <text
             transform="matrix(1,0,0,-1,65.1968,32.7026)"
             style="font-variant:normal;font-weight:normal;font-stretch:semi-condensed;font-size:7px;font-family:'Arial Narrow';-inkscape-font-specification:ArialNarrow;writing-mode:lr-tb;fill:#e30613;fill-opacity:1;fill-rule:nonzero;stroke:none"
             id="text13722"><tspan
               x="0 3.1919999 4.7880001 7.98"
               y="0"
               sodipodi:role="line"
               id="tspan13720">0.25</tspan></text>
        </g>
      </g>
      <text
         transform="matrix(1,0,0,-1,37.8066,21.3755)"
         style="font-variant:normal;font-weight:normal;font-stretch:semi-condensed;font-size:7px;font-family:'Arial Narrow';-inkscape-font-specification:ArialNarrow;writing-mode:lr-tb;fill:#e30613;fill-opacity:1;fill-rule:nonzero;stroke:none"
         id="text13726"><tspan
           x="0 3.507 5.1030002 8.2950001 9.8909998 -25.333 -22.141001 -20.545 -17.353001 -15.757 -13.846 -9.7019997 -5.5580001"
           y="0"
           sodipodi:role="line"
           id="tspan13724">ø 0.63.0 (CC)</tspan></text>
      <g
         id="g13728">
        <g
           id="g13730"
           clip-path="url(#clipPath13734)">
          <text
             transform="matrix(1,0,0,-1,23.438,43.8086)"
             style="font-variant:normal;font-weight:normal;font-stretch:semi-condensed;font-size:7px;font-family:'Arial Narrow';-inkscape-font-specification:ArialNarrow;writing-mode:lr-tb;fill:#e30613;fill-opacity:1;fill-rule:nonzero;stroke:none"
             id="text13738"><tspan
               x="0 3.1919999 4.7880001 7.98 9.5760002 11.487 15.631 19.775"
               y="0"
               sodipodi:role="line"
               id="tspan13736">0.8 (CC)</tspan></text>
          <g
             id="g13740"
             transform="translate(7.9589,28.1683)">
            <path
               d="M 0,0 V 4.173"
               style="fill:none;stroke:#e30613;stroke-width:0.283;stroke-linecap:butt;stroke-linejoin:miter;stroke-miterlimit:22.926;stroke-dasharray:none;stroke-opacity:1"
               id="path13742" />
          </g>
          <g
             id="g13744"
             transform="translate(24.9667,28.1683)">
            <path
               d="M 0,0 V 4.173"
               style="fill:none;stroke:#e30613;stroke-width:0.283;stroke-linecap:butt;stroke-linejoin:miter;stroke-miterlimit:22.926;stroke-dasharray:none;stroke-opacity:1"
               id="path13746" />
          </g>
          <g
             id="g13748"
             transform="translate(46.4887,28.0892)">
            <path
               d="M 0,0 V 4.173"
               style="fill:none;stroke:#e30613;stroke-width:0.283;stroke-linecap:butt;stroke-linejoin:miter;stroke-miterlimit:22.926;stroke-dasharray:none;stroke-opacity:1"
               id="path13750" />
          </g>
          <g
             id="g13752"
             transform="translate(29.4913,38.0105)">
            <path
               d="M 0,0 V 4.252"
               style="fill:none;stroke:#e30613;stroke-width:0.283;stroke-linecap:butt;stroke-linejoin:miter;stroke-miterlimit:22.926;stroke-dasharray:none;stroke-opacity:1"
               id="path13754" />
          </g>
          <g
             id="g13756"
             transform="translate(24.9559,38.0105)">
            <path
               d="M 0,0 V 4.252"
               style="fill:none;stroke:#e30613;stroke-width:0.283;stroke-linecap:butt;stroke-linejoin:miter;stroke-miterlimit:22.926;stroke-dasharray:none;stroke-opacity:1"
               id="path13758" />
          </g>
          <path
             d="M 8.504,14.74 H 48.189 V 0.567 H 8.504 Z"
             style="fill:none;stroke:#312783;stroke-width:1.134;stroke-linecap:butt;stroke-linejoin:miter;stroke-miterlimit:22.926;stroke-dasharray:none;stroke-opacity:1"
             id="path13760" />
        </g>
      </g>
      <text
         transform="matrix(1,0,0,-1,11.9121,5.564)"
         style="font-variant:normal;font-weight:normal;font-stretch:semi-condensed;font-size:7px;font-family:'Arial Narrow';-inkscape-font-specification:ArialNarrow;writing-mode:lr-tb;fill:#e30613;fill-opacity:1;fill-rule:nonzero;stroke:none"
         id="text13764"><tspan
           x="0 4.7810001 6.0549998 9.2469997"
           y="0"
           sodipodi:role="line"
           id="tspan13762">min.</tspan></text>
    </g>
  </g>
</svg>
