<?xml version="1.0" encoding="UTF-8" standalone="no"?>
<!-- Created with Inkscape (http://www.inkscape.org/) -->

<svg
   width="19mm"
   height="7mm"
   viewBox="0 0 19 7"
   version="1.1"
   id="svg2120"
   inkscape:version="1.1.1 (3bf5ae0d25, 2021-09-20)"
   sodipodi:docname="ISOM 530 Prominent man-made feature-ring.svg"
   xmlns:inkscape="http://www.inkscape.org/namespaces/inkscape"
   xmlns:sodipodi="http://sodipodi.sourceforge.net/DTD/sodipodi-0.dtd"
   xmlns="http://www.w3.org/2000/svg"
   xmlns:svg="http://www.w3.org/2000/svg">
  <sodipodi:namedview
     id="namedview2122"
     pagecolor="#ffffff"
     bordercolor="#666666"
     borderopacity="1.0"
     inkscape:pageshadow="2"
     inkscape:pageopacity="0.0"
     inkscape:pagecheckerboard="true"
     inkscape:document-units="mm"
     showgrid="false"
     inkscape:zoom="5.9295174"
     inkscape:cx="52.027843"
     inkscape:cy="19.647467"
     inkscape:window-width="1920"
     inkscape:window-height="1017"
     inkscape:window-x="-8"
     inkscape:window-y="-8"
     inkscape:window-maximized="1"
     inkscape:current-layer="layer1" />
  <defs
     id="defs2117">
    <clipPath
       clipPathUnits="userSpaceOnUse"
       id="clipPath2138">
      <path
         d="M 0,16.246 H 48.351 V 0 H 0 Z"
         id="path2136" />
    </clipPath>
  </defs>
  <g
     inkscape:label="Ebene 1"
     inkscape:groupmode="layer"
     id="layer1">
    <g
       id="g2134"
       clip-path="url(#clipPath2138)"
       transform="matrix(0.35277777,0,0,-0.35277777,1.0197083,6.3124865)">
      <g
         id="g2140"
         transform="translate(2.2681,2.286)">
        <path
           d="m 0,0 c -0.624,0 -1.191,0.254 -1.602,0.663 v 0.002 l -10e-4,0.001 c -0.41,0.411 -0.665,0.978 -0.665,1.602 0,0.624 0.255,1.191 0.666,1.602 H -1.603 C -1.193,4.28 -0.626,4.534 0,4.534 0.626,4.534 1.193,4.28 1.603,3.87 2.013,3.461 2.268,2.894 2.268,2.268 2.268,1.642 2.013,1.075 1.603,0.663 L 1.602,0.665 C 1.191,0.255 0.624,0 0,0 m -0.97,1.296 c 0.247,-0.247 0.59,-0.4 0.97,-0.4 0.38,0 0.723,0.153 0.97,0.4 V 1.298 C 1.218,1.546 1.372,1.889 1.372,2.268 1.372,2.646 1.218,2.989 0.97,3.237 0.722,3.485 0.379,3.64 0,3.64 -0.379,3.64 -0.722,3.485 -0.97,3.237 h -0.002 c -0.247,-0.246 -0.4,-0.589 -0.4,-0.969 0,-0.38 0.153,-0.723 0.4,-0.97 z"
           style="fill:#1d1d1b;fill-opacity:1;fill-rule:nonzero;stroke:none"
           id="path2142" />
      </g>
      <text
         transform="matrix(1,0,0,-1,11.9438,2.1465)"
         style="font-variant:normal;font-weight:normal;font-stretch:semi-condensed;font-size:7px;font-family:'Arial Narrow';-inkscape-font-specification:ArialNarrow;writing-mode:lr-tb;fill:#e30613;fill-opacity:1;fill-rule:nonzero;stroke:none"
         id="text2146"><tspan
           x="0 3.1919999 4.7880001 7.98 9.5760002 11.487 15.953 20.733999"
           y="0"
           sodipodi:role="line"
           id="tspan2144">0.8 (OM)</tspan></text>
      <g
         id="g2148"
         transform="translate(5.2449,6.8202)">
        <path
           d="M 0,0 H 4.252"
           style="fill:none;stroke:#e30613;stroke-width:0.283;stroke-linecap:butt;stroke-linejoin:miter;stroke-miterlimit:22.926;stroke-dasharray:none;stroke-opacity:1"
           id="path2150" />
      </g>
      <g
         id="g2152"
         transform="translate(5.2449,2.286)">
        <path
           d="M 0,0 H 4.252"
           style="fill:none;stroke:#e30613;stroke-width:0.283;stroke-linecap:butt;stroke-linejoin:miter;stroke-miterlimit:22.926;stroke-dasharray:none;stroke-opacity:1"
           id="path2154" />
      </g>
      <text
         transform="matrix(1,0,0,-1,37.1782,10.2402)"
         style="font-variant:normal;font-weight:normal;font-stretch:semi-condensed;font-size:7px;font-family:'Arial Narrow';-inkscape-font-specification:ArialNarrow;writing-mode:lr-tb;fill:#e30613;fill-opacity:1;fill-rule:nonzero;stroke:none"
         id="text2158"><tspan
           x="0 3.1919999 4.7880001 7.98"
           y="0"
           sodipodi:role="line"
           id="tspan2156">0.16</tspan></text>
    </g>
  </g>
</svg>
