<?xml version="1.0" encoding="UTF-8" standalone="no"?>
<!-- Created with Inkscape (http://www.inkscape.org/) -->

<svg
   width="29mm"
   height="14.5mm"
   viewBox="0 0 29 14.5"
   version="1.1"
   id="svg5717"
   inkscape:version="1.1.1 (3bf5ae0d25, 2021-09-20)"
   sodipodi:docname="ISOM 713 Refreshment point.svg"
   xmlns:inkscape="http://www.inkscape.org/namespaces/inkscape"
   xmlns:sodipodi="http://sodipodi.sourceforge.net/DTD/sodipodi-0.dtd"
   xmlns="http://www.w3.org/2000/svg"
   xmlns:svg="http://www.w3.org/2000/svg">
  <sodipodi:namedview
     id="namedview5719"
     pagecolor="#ffffff"
     bordercolor="#666666"
     borderopacity="1.0"
     inkscape:pageshadow="2"
     inkscape:pageopacity="0.0"
     inkscape:pagecheckerboard="true"
     inkscape:document-units="mm"
     showgrid="false"
     inkscape:zoom="5.9295174"
     inkscape:cx="43.426806"
     inkscape:cy="15.599921"
     inkscape:window-width="1920"
     inkscape:window-height="1017"
     inkscape:window-x="-8"
     inkscape:window-y="-8"
     inkscape:window-maximized="1"
     inkscape:current-layer="layer1" />
  <defs
     id="defs5714">
    <clipPath
       clipPathUnits="userSpaceOnUse"
       id="clipPath5735">
      <path
         d="M 0,37.497 H 76.434 V 0 H 0 Z"
         id="path5733" />
    </clipPath>
    <clipPath
       clipPathUnits="userSpaceOnUse"
       id="clipPath5759">
      <path
         d="M 0,37.497 H 76.434 V 0 H 0 Z"
         id="path5757" />
    </clipPath>
  </defs>
  <g
     inkscape:label="Ebene 1"
     inkscape:groupmode="layer"
     id="layer1">
    <g
       id="g5727"
       inkscape:label="ISOM 713 Refreshment point"
       transform="matrix(0.35277777,0,0,-0.35277777,1.0675997,13.822984)">
      <g
         id="g5729">
        <g
           id="g5731"
           clip-path="url(#clipPath5735)">
          <g
             id="g5737"
             transform="translate(39.1075,22.873)">
            <path
               d="M 0,0 1.863,-7.113 C 1.904,-7.308 2.069,-7.302 2.205,-7.342 2.564,-7.45 3.502,-7.518 4.1,-7.518 c 0.615,0 1.312,0.072 1.707,0.193 0.115,0.036 0.359,0.067 0.391,0.238 L 8.012,-0.074 8.998,-0.172 7.105,-7.476 C 7.032,-7.927 6.725,-8.104 6.096,-8.298 5.607,-8.447 4.807,-8.508 4.1,-8.508 c -0.694,0 -1.731,0.056 -2.178,0.191 -0.608,0.181 -0.863,0.325 -0.957,0.763 l -1.934,7.353 z"
               style="fill:#b04191;fill-opacity:1;fill-rule:nonzero;stroke:none"
               id="path5739" />
          </g>
          <g
             id="g5741"
             transform="translate(43.1212,24.3174)">
            <path
               d="M 0,0 C 1.266,0 2.424,-0.13 3.27,-0.341 4.324,-0.602 4.979,-1.041 4.979,-1.59 4.979,-2.14 4.324,-2.576 3.27,-2.84 2.424,-3.05 1.266,-3.181 0,-3.181 c -1.266,0 -2.424,0.131 -3.27,0.341 -1.055,0.264 -1.71,0.7 -1.71,1.25 0,0.549 0.655,0.988 1.709,1.249 C -2.424,-0.13 -1.266,0 0,0 M 2.957,-1.291 C 2.207,-1.104 1.162,-0.987 0,-0.987 c -1.161,0 -2.208,-0.117 -2.958,-0.304 -0.542,-0.135 -0.878,-0.244 -0.878,-0.299 0,-0.053 0.336,-0.165 0.878,-0.3 0.75,-0.185 1.797,-0.301 2.958,-0.301 1.162,0 2.207,0.116 2.957,0.301 0.543,0.135 0.88,0.247 0.88,0.3 0,0.055 -0.337,0.164 -0.88,0.299"
               style="fill:#b04191;fill-opacity:1;fill-rule:nonzero;stroke:none"
               id="path5743" />
          </g>
          <text
             transform="matrix(1,0,0,-1,39.2856,31.4912)"
             style="font-variant:normal;font-weight:normal;font-stretch:semi-condensed;font-size:7px;font-family:'Arial Narrow';-inkscape-font-specification:ArialNarrow;writing-mode:lr-tb;fill:#e30613;fill-opacity:1;fill-rule:nonzero;stroke:none"
             id="text5747"><tspan
               x="0 3.1919999 4.7880001 7.98 9.5760002 11.487 15.953 20.733999"
               y="0"
               sodipodi:role="line"
               id="tspan5745">3.5 (OM)</tspan></text>
        </g>
      </g>
      <text
         transform="matrix(1,0,0,-1,9.6592,17.207)"
         style="font-variant:normal;font-weight:normal;font-stretch:semi-condensed;font-size:7px;font-family:'Arial Narrow';-inkscape-font-specification:ArialNarrow;writing-mode:lr-tb;fill:#e30613;fill-opacity:1;fill-rule:nonzero;stroke:none"
         id="text5751"><tspan
           x="0 3.1919999 4.7880001 7.98 9.5760002 11.487 15.953 20.733999"
           y="0"
           sodipodi:role="line"
           id="tspan5749">3.5 (OM)</tspan></text>
      <g
         id="g5753">
        <g
           id="g5755"
           clip-path="url(#clipPath5759)">
          <g
             id="g5761"
             transform="translate(38.3438,25.7077)">
            <path
               d="M 0,0 V 4.252"
               style="fill:none;stroke:#e30613;stroke-width:0.283;stroke-linecap:butt;stroke-linejoin:miter;stroke-miterlimit:22.926;stroke-dasharray:none;stroke-opacity:1"
               id="path5763" />
          </g>
          <g
             id="g5765"
             transform="translate(47.9005,25.7077)">
            <path
               d="M 0,0 V 4.252"
               style="fill:none;stroke:#e30613;stroke-width:0.283;stroke-linecap:butt;stroke-linejoin:miter;stroke-miterlimit:22.926;stroke-dasharray:none;stroke-opacity:1"
               id="path5767" />
          </g>
          <g
             id="g5769"
             transform="translate(31.9026,24.2617)">
            <path
               d="M 0,0 H 4.252"
               style="fill:none;stroke:#e30613;stroke-width:0.283;stroke-linecap:butt;stroke-linejoin:miter;stroke-miterlimit:22.926;stroke-dasharray:none;stroke-opacity:1"
               id="path5771" />
          </g>
          <g
             id="g5773"
             transform="translate(31.9026,14.4209)">
            <path
               d="M 0,0 H 4.252"
               style="fill:none;stroke:#e30613;stroke-width:0.283;stroke-linecap:butt;stroke-linejoin:miter;stroke-miterlimit:22.926;stroke-dasharray:none;stroke-opacity:1"
               id="path5775" />
          </g>
          <g
             id="g5777"
             transform="translate(40.1466,8.7671)">
            <path
               d="M 0,0 V 4.252"
               style="fill:none;stroke:#e30613;stroke-width:0.283;stroke-linecap:butt;stroke-linejoin:miter;stroke-miterlimit:22.926;stroke-dasharray:none;stroke-opacity:1"
               id="path5779" />
          </g>
          <g
             id="g5781"
             transform="translate(46.0978,8.7671)">
            <path
               d="M 0,0 V 4.252"
               style="fill:none;stroke:#e30613;stroke-width:0.283;stroke-linecap:butt;stroke-linejoin:miter;stroke-miterlimit:22.926;stroke-dasharray:none;stroke-opacity:1"
               id="path5783" />
          </g>
          <text
             transform="matrix(1,0,0,-1,39.2861,2.1465)"
             style="font-variant:normal;font-weight:normal;font-stretch:semi-condensed;font-size:7px;font-family:'Arial Narrow';-inkscape-font-specification:ArialNarrow;writing-mode:lr-tb;fill:#e30613;fill-opacity:1;fill-rule:nonzero;stroke:none"
             id="text5789"><tspan
               x="0 3.1919999 4.7880001 7.98 9.5760002 11.487 15.953 20.733999"
               y="0"
               sodipodi:role="line"
               id="tspan5785">2.1 (OM)</tspan><tspan
               x="29.169001 32.361 33.957001"
               y="-14.035"
               sodipodi:role="line"
               id="tspan5787">0.4</tspan></text>
          <g
             id="g5791"
             transform="translate(3.2724,28.8876)">
            <path
               d="m 0,0 3.239,-6.285 h -2.17 v -9.848 h -2.172 v 9.848 h -2.169 z"
               style="fill:#e30613;fill-opacity:1;fill-rule:evenodd;stroke:none"
               id="path5793" />
          </g>
        </g>
      </g>
    </g>
  </g>
</svg>
